<svg xmlns="http://www.w3.org/2000/svg" xmlns:xlink="http://www.w3.org/1999/xlink" fill="none" version="1.1" width="110" height="99" viewBox="0 0 110 99"><defs><linearGradient x1="0.5" y1="0" x2="0.5" y2="0.422743022441864" id="master_svg0_164_0862"><stop offset="0%" stop-color="#92FCC7" stop-opacity="0.20000000298023224"/><stop offset="100%" stop-color="#187FC4" stop-opacity="0"/></linearGradient><linearGradient x1="0.5001115798950195" y1="0.030072113499045372" x2="0.5001115798950195" y2="0.800510585308075" id="master_svg1_164_0859"><stop offset="0.013658216630574316%" stop-color="#D3FFF1" stop-opacity="0.45820584893226624"/><stop offset="26.22104585170746%" stop-color="#E2FFF6" stop-opacity="0.2042722851037979"/><stop offset="100%" stop-color="#3FB1A6" stop-opacity="0"/></linearGradient><linearGradient x1="0.5001115798950195" y1="0.030072113499045372" x2="0.5001115798950195" y2="0.800510585308075" id="master_svg2_164_0859"><stop offset="0.013658216630574316%" stop-color="#D3FFF1" stop-opacity="0.45820584893226624"/><stop offset="26.22104585170746%" stop-color="#E2FFF6" stop-opacity="0.2042722851037979"/><stop offset="100%" stop-color="#3FB1A6" stop-opacity="0"/></linearGradient><linearGradient x1="0.5001115798950195" y1="0.030072113499045372" x2="0.5001115798950195" y2="0.800510585308075" id="master_svg3_164_0859"><stop offset="0.013658216630574316%" stop-color="#D3FFF1" stop-opacity="0.45820584893226624"/><stop offset="26.22104585170746%" stop-color="#E2FFF6" stop-opacity="0.2042722851037979"/><stop offset="100%" stop-color="#3FB1A6" stop-opacity="0"/></linearGradient><linearGradient x1="0.05125865340232849" y1="0.23513536155223846" x2="0.8312524773856067" y2="0.7144708782445841" id="master_svg4_164_0834"><stop offset="0%" stop-color="#94ECD3" stop-opacity="1"/><stop offset="100%" stop-color="#52CEB1" stop-opacity="1"/></linearGradient><linearGradient x1="0.05125865340232849" y1="0.23513536155223846" x2="0.8312524773856067" y2="0.7144708782445841" id="master_svg5_164_0837"><stop offset="0%" stop-color="#6CE0C5" stop-opacity="1"/><stop offset="100%" stop-color="#BCFFEC" stop-opacity="1"/></linearGradient><linearGradient x1="-9.818534874028728e-15" y1="0.5" x2="0.9749845968204172" y2="0.7233429436086452" id="master_svg6_164_0844"><stop offset="0%" stop-color="#AFF3DD" stop-opacity="1"/><stop offset="100%" stop-color="#5BD2B5" stop-opacity="1"/></linearGradient><linearGradient x1="0.0199575275182724" y1="0.5302303433418274" x2="0.9463621177225239" y2="0.5144976093878171" id="master_svg7_164_0841"><stop offset="0%" stop-color="#DEFFEF" stop-opacity="1"/><stop offset="100%" stop-color="#92EBD2" stop-opacity="1"/></linearGradient><linearGradient x1="-9.818534874028728e-15" y1="0.5" x2="0.9749845968204172" y2="0.7233429436086452" id="master_svg8_164_0849"><stop offset="0%" stop-color="#7FE0C6" stop-opacity="1"/><stop offset="100%" stop-color="#4FBCA3" stop-opacity="1"/></linearGradient><linearGradient x1="0.0199575275182724" y1="0.5302303433418274" x2="0.9463621177225239" y2="0.5144976093878171" id="master_svg9_164_0841"><stop offset="0%" stop-color="#DEFFEF" stop-opacity="1"/><stop offset="100%" stop-color="#92EBD2" stop-opacity="1"/></linearGradient></defs><g><g><g><ellipse cx="55" cy="76.5" rx="55" ry="22.5" fill="url(#master_svg0_164_0862)" fill-opacity="1"/></g><g><path d="M26.446086,11.06118C27.17637,9.84112,28.79136,8.91934,32.23689,9.574580000000001C32.23689,9.574580000000001,37.7398,-0.10337999999999958,46.3665,8.69405C46.3665,8.69405,51.5058,7.481920000000001,52.8264,11.31661C53.3989,13.01553,52.5112,14.85746,50.814099999999996,15.4924C46.3874,17.1678,36.2406,20.093400000000003,27.83427,15.6606C26.154937,14.77371,25.476126,12.68422,26.446086,11.06118Z" fill="url(#master_svg1_164_0859)" fill-opacity="1"/></g><g><path d="M7.363363,34.13431C7.959113,33.10091,9.27398,32.32046,12.08716,32.8746C12.08716,32.8746,16.57071,24.67731,23.598,32.12909C23.598,32.12909,27.7861,31.10401,28.8607,34.35064C29.3226,35.78729,28.6003,37.34222,27.2212,37.88017C23.6158,39.298,15.34836,41.7691,8.49967,38.02162C7.126362,37.277770000000004,6.572817,35.50884,7.363363,34.13431Z" fill="url(#master_svg2_164_0859)" fill-opacity="1"/></g><g><path d="M77.380421,17.66393C78.00171,16.72577,79.37672,16.01751,82.31804,16.52054C82.31804,16.52054,87.0039,9.07231,94.3498,15.84315C94.3498,15.84315,98.7266,14.91733,99.8515,17.86144C100.342,19.16376,99.5784,20.58027,98.1364,21.072490000000002C94.3678,22.362470000000002,85.72696,24.607599999999998,78.56741,21.202109999999998C77.131906,20.52009,76.553125,18.91379,77.380421,17.66393Z" fill="url(#master_svg3_164_0859)" fill-opacity="1"/></g></g><g><g transform="matrix(-1,0,0,1,158,0)"><path d="M103,28L103,68.5L79,58Q79.00000000000003,37.5,79,37.5Q78.99999999999997,37.5,103,28Z" fill-rule="evenodd" fill="url(#master_svg4_164_0834)" fill-opacity="1"/></g><g><path d="M55,28L55,68.5L31,58Q31.000000000000032,37.5,31,37.5Q30.999999999999968,37.5,55,28Z" fill-rule="evenodd" fill="url(#master_svg5_164_0837)" fill-opacity="1"/></g><g><g transform="matrix(-1,0,0,1,158,0)"><path d="M79.00000000000026,37.5L103,46L103,71.5Q78.9999999999996,62.5,78.9999999999998,62.5Q79.00000000000001,62.5,79.00000000000026,37.5Z" fill-rule="evenodd" fill="url(#master_svg6_164_0844)" fill-opacity="1"/></g><g transform="matrix(-1,0,0,1,171,0)"><path d="M92,37.5L116,46L109.5,59.5Q85.49999999999946,50.5,85.49999999999967,50.5Q85.49999999999987,50.5,92,37.5Z" fill-rule="evenodd" fill="url(#master_svg7_164_0841)" fill-opacity="1"/></g></g><g transform="matrix(-1,0,0,1,110,0)"><g transform="matrix(-1,0,0,1,158,0)"><path d="M79.00000000000026,37.5L103,46L103,71.5Q78.9999999999996,62.5,78.9999999999998,62.5Q79.00000000000001,62.5,79.00000000000026,37.5Z" fill-rule="evenodd" fill="url(#master_svg8_164_0849)" fill-opacity="1"/></g><g transform="matrix(-1,0,0,1,171,0)"><path d="M92,37.5L116,46L109.5,59.5Q85.49999999999946,50.5,85.49999999999967,50.5Q85.49999999999987,50.5,92,37.5Z" fill-rule="evenodd" fill="url(#master_svg9_164_0841)" fill-opacity="1"/></g></g></g><g><g><path d="M65,28L66,20L63,22L65,28Z" fill-rule="evenodd" fill="#3FB1A6" fill-opacity="1"/></g><g><path d="M66,29Q66,29,73,22.5Q69.5,19.5,69.5,19.5C69.5,19.5,66,29,66,29Z" fill-rule="evenodd" fill="#3FB1A6" fill-opacity="1"/></g><g><path d="M67.5000000000001,29.5Q67.5000000000001,29.5,73.5,28.5L74,25C74,25,67.5000000000001,29.5,67.5000000000001,29.5Z" fill-rule="evenodd" fill="#3FB1A6" fill-opacity="1"/></g></g></g></svg>