<svg xmlns="http://www.w3.org/2000/svg" xmlns:xlink="http://www.w3.org/1999/xlink" fill="none" version="1.1" width="16" height="16" viewBox="0 0 16 16"><defs><clipPath id="master_svg0_1814_29867"><rect x="0" y="0" width="16" height="16" rx="0"/></clipPath></defs><g><g clip-path="url(#master_svg0_1814_29867)"><g><path d="M12.53163625,5.4239025C12.53163625,3.0368325,10.372406250000001,1.1015625,7.97253625,1.1015625C5.57263625,1.1015625,3.47265625,3.0368125,3.47265625,5.4239025Q3.47265625,7.6373125,7.92226625,12.9371625Q12.53163625,7.7112825,12.53163625,5.4239025ZM6.538316249999999,5.5767625C6.538316249999999,4.7600825,7.21499625,4.0972525,8.04846625,4.0972525C8.88295625,4.0972525,9.55860625,4.7590425,9.55860625,5.5767625C9.55860625,6.3944725,8.88196625,7.0563625,8.04846625,7.0563625C7.21499625,7.0553725,6.538316249999999,6.3935125,6.538316249999999,5.5767625ZM9.49448625,13.0663625C9.50737625,13.1049625,9.51427625,13.1452625,9.51427625,13.1847625C9.51427625,13.5931625,8.83759625,13.9245625,8.00407625,13.9245625C7.17062625,13.9245625,6.49393625,13.5931625,6.49393625,13.1847625C6.49393625,13.1443625,6.50085625,13.1049625,6.51365625,13.0663625C5.59929625,13.2360625,4.98379625,13.5566625,4.98379625,13.9245625C4.98379625,14.4700625,6.33613625,14.9109625,8.00409625,14.9109625C9.672136250000001,14.9109625,11.02445625,14.4700625,11.02445625,13.9245625C11.023456249999999,13.5566625,10.407936249999999,13.2360625,9.49448625,13.0663625Z" fill="#FFFFFF" fill-opacity="1" style="mix-blend-mode:passthrough"/></g></g></g></svg>