<svg xmlns="http://www.w3.org/2000/svg" xmlns:xlink="http://www.w3.org/1999/xlink" fill="none" version="1.1" width="16" height="16" viewBox="0 0 16 16"><defs><clipPath id="master_svg0_1861_34101"><rect x="0" y="0" width="16" height="16" rx="0"/></clipPath></defs><g clip-path="url(#master_svg0_1861_34101)"><g><g><path d="M1,13L1,7.25L1.5,7.25Q1.573869,7.25,1.646318,7.23559Q1.7187670000000002,7.22118,1.787013,7.19291Q1.855258,7.16464,1.916678,7.1236Q1.978097,7.08256,2.03033,7.03033Q2.08256,6.9781,2.1235999999999997,6.91668Q2.16464,6.85526,2.19291,6.78701Q2.22118,6.71877,2.23559,6.64632Q2.25,6.57387,2.25,6.5Q2.25,6.42613,2.23559,6.35368Q2.22118,6.28123,2.19291,6.21299Q2.16464,6.14474,2.1235999999999997,6.08332Q2.08256,6.0219,2.03033,5.96967Q1.978097,5.91744,1.916678,5.8764Q1.855258,5.83536,1.787013,5.80709Q1.7187670000000002,5.77882,1.646318,5.76441Q1.573869,5.75,1.5,5.75L1,5.75L1,3Q1,2.90175,1.00963055,2.80397Q1.0192611,2.7061900000000003,1.0384294,2.60982Q1.0575978,2.5134499999999997,1.0861193,2.41943Q1.114641,2.3254099999999998,1.152241,2.23463Q1.189841,2.14386,1.236157,2.05721Q1.2824740000000001,1.970554,1.337061,1.888859Q1.391648,1.807164,1.453979,1.731213Q1.516311,1.655262,1.5857860000000001,1.5857860000000001Q1.655262,1.516311,1.731213,1.453979Q1.807164,1.391648,1.888859,1.337061Q1.970554,1.2824740000000001,2.05721,1.236157Q2.14386,1.189841,2.23463,1.152241Q2.3254099999999998,1.114641,2.41943,1.0861193Q2.5134499999999997,1.0575978,2.60982,1.0384294Q2.7061900000000003,1.0192611,2.80397,1.00963055Q2.90175,1,3,1L8,1Q8.09825,1,8.19603,1.00963055Q8.29381,1.0192611,8.39018,1.0384294Q8.486550000000001,1.0575978,8.58057,1.0861193Q8.67459,1.114641,8.76537,1.152241Q8.85614,1.189841,8.942789999999999,1.236157Q9.02944,1.2824740000000001,9.11114,1.337061Q9.19283,1.391648,9.26879,1.453979Q9.34474,1.516311,9.41421,1.5857860000000001Q9.48369,1.655262,9.54602,1.731213Q9.60835,1.807164,9.66294,1.888859Q9.71753,1.970554,9.76384,2.05721Q9.81016,2.14386,9.84776,2.23463Q9.88536,2.3254099999999998,9.91388,2.41943Q9.9424,2.5134499999999997,9.96157,2.60982Q9.98074,2.7061900000000003,9.99037,2.80397Q10,2.90175,10,3L10,5.75L9.5,5.75Q9.42613,5.75,9.35368,5.76441Q9.28123,5.77882,9.21299,5.80709Q9.14474,5.83536,9.08332,5.8764Q9.0219,5.91744,8.96967,5.96967Q8.91744,6.0219,8.8764,6.08332Q8.83536,6.14474,8.807089999999999,6.21299Q8.77882,6.28123,8.76441,6.35368Q8.75,6.42613,8.75,6.5Q8.75,6.57387,8.76441,6.64632Q8.77882,6.71877,8.807089999999999,6.78701Q8.83536,6.85526,8.8764,6.91668Q8.91744,6.9781,8.96967,7.03033Q9.0219,7.08256,9.08332,7.1236Q9.14474,7.16464,9.21299,7.19291Q9.28123,7.22118,9.35368,7.23559Q9.42613,7.25,9.5,7.25L10,7.25L10,11.75L12,11.75Q12.25,11.75,12.25,11.5L12.25,5.85462C11.517,5.55793,11,4.83934,11,4L11,2.5Q11,2.4261299999999997,11.0144,2.3536799999999998Q11.0288,2.28123,11.0571,2.21299Q11.0854,2.14474,11.1264,2.08332Q11.1674,2.0219,11.2197,1.96967Q11.2719,1.917437,11.3333,1.876398Q11.3947,1.835359,11.463,1.80709Q11.5312,1.778822,11.6037,1.764411Q11.6761,1.75,11.75,1.75Q11.8239,1.75,11.8963,1.764411Q11.9688,1.778822,12.037,1.80709Q12.1053,1.835359,12.1667,1.876398Q12.2281,1.917437,12.2803,1.96967Q12.3326,2.0219,12.3736,2.08332Q12.4146,2.14474,12.4429,2.21299Q12.4712,2.28123,12.4856,2.3536799999999998Q12.5,2.4261299999999997,12.5,2.5L12.5,3L13.5,3L13.5,2.5Q13.5,2.4261299999999997,13.5144,2.3536799999999998Q13.5288,2.28123,13.5571,2.21299Q13.5854,2.14474,13.6264,2.08332Q13.6674,2.0219,13.7197,1.96967Q13.7719,1.917437,13.8333,1.876398Q13.8947,1.835359,13.963,1.80709Q14.0312,1.778822,14.1037,1.764411Q14.1761,1.75,14.25,1.75Q14.3239,1.75,14.3963,1.764411Q14.4688,1.778822,14.537,1.80709Q14.6053,1.835359,14.6667,1.876398Q14.7281,1.917437,14.7803,1.96967Q14.8326,2.0219,14.8736,2.08332Q14.9146,2.14474,14.9429,2.21299Q14.9712,2.28123,14.9856,2.3536799999999998Q15,2.4261299999999997,15,2.5L15,4C15,4.83934,14.483,5.55793,13.75,5.85462L13.75,11.5Q13.75,12.2249,13.2374,12.7374Q12.7249,13.25,12,13.25L9.98431,13.25Q9.97301,13.3397,9.95367,13.428Q9.93432,13.5163,9.90709,13.6025Q9.87985,13.6887,9.84495,13.7721Q9.81005,13.8555,9.76777,13.9354Q9.72548,14.0153,9.67617,14.0911Q9.62685,14.1669,9.57089,14.2379Q9.51494,14.3089,9.45281,14.3745Q9.39068,14.4402,9.32288,14.5Q9.25507,14.5598,9.18215,14.6132Q9.10923,14.6667,9.03179,14.7133Q8.95434,14.7599,8.87301,14.7994Q8.79167,14.8389,8.70711,14.8708Q8.62254,14.9028,8.535440000000001,14.927Q8.44834,14.9512,8.3594,14.9674Q8.27047,14.9837,8.18044,14.9918Q8.090399999999999,15,8,15L3,15Q2.90175,15,2.80397,14.9904Q2.7061900000000003,14.9807,2.60982,14.9616Q2.5134499999999997,14.9424,2.41943,14.9139Q2.3254099999999998,14.8854,2.23463,14.8478Q2.14386,14.8102,2.05721,14.7638Q1.970554,14.7175,1.888859,14.6629Q1.807164,14.6084,1.731213,14.546Q1.655262,14.4837,1.5857860000000001,14.4142Q1.516311,14.3447,1.453979,14.2688Q1.391648,14.1928,1.337061,14.1111Q1.2824740000000001,14.0294,1.236157,13.9428Q1.189841,13.8561,1.152241,13.7654Q1.114641,13.6746,1.0861193,13.5806Q1.0575978,13.4865,1.0384294,13.3902Q1.0192611,13.2938,1.00963055,13.196Q1,13.0983,1,13ZM3.91358,6.6236C3.39581,7.12332,3.74956,7.99922,4.4691399999999994,7.99922L4.99915,7.99922L4.60225,8.93507C4.388,9.44027,5.0262,9.87178,5.41522,9.48475L7.11415,7.79447C7.62011,7.29109,7.26362,6.42734,6.54991,6.42734L6.11633,6.42734L6.50766,5.44851C6.70767,4.94824,6.08383,4.52898,5.69616,4.90313L3.91358,6.6236Z" fill-rule="evenodd" fill="#0ABAB5" fill-opacity="1"/></g></g></g></svg>