<svg xmlns="http://www.w3.org/2000/svg" xmlns:xlink="http://www.w3.org/1999/xlink" fill="none" version="1.1" width="16" height="16" viewBox="0 0 16 16"><defs><clipPath id="master_svg0_1861_34115"><rect x="0" y="0" width="16" height="16" rx="0"/></clipPath></defs><g clip-path="url(#master_svg0_1861_34115)"><g><g><path d="M14.0006,15.986992050528526L13.4253,15.986992050528526L11.7548,15.999692050528527L11.3226,15.983792050528526L11.3226,2.0404190505285262L5.12147,4.026412050528526L5.12147,3.4217020505285265L11.4141,1.1897090505285264C11.7463,1.0718764505285263,12.116,1.1376398805285264,12.3872,1.3628050505285263L13.6394,2.4025220505285265C13.8682,2.5925020505285263,14.0006,2.8744820505285262,14.0006,3.1718920505285264L14.0006,15.986992050528526ZM9.75563,15.934992050528527L7.08409,15.934992050528527L7.08409,11.549292050528527L7.08734,9.439162050528527L7.08734,4.954762050528526L1.9100139999999999,6.571562050528526L1.9100139999999999,15.957292050528526L1,15.957292050528526L1,6.8033520505285265C1,6.375452050528526,1.27226,5.994962050528526,1.677269,5.856862050528527L7.49543,3.8730020505285263C7.76891,3.779762050528526,8.06935,3.8093520505285263,8.31937,3.9541720505285265L9.25684,4.497172050528526C9.56556,4.675982050528527,9.75563,5.005732050528526,9.75563,5.362492050528527L9.75563,15.934992050528527ZM6.14849,7.988862050528526L2.89844,8.838632050528528L2.89844,7.406432050528526L6.14849,6.362502050528526L6.14849,7.988862050528526ZM6.14849,10.601842050528527L2.89844,11.222492050528526L2.89844,9.847542050528526L6.14849,9.035962050528527L6.14849,10.601842050528527ZM6.14849,13.272092050528526L2.89844,13.571292050528527L2.89844,12.228192050528527L6.14849,11.706192050528527L6.14849,13.272092050528526ZM6.14849,15.932892050528526L2.89844,15.932892050528526L2.89844,14.513392050528527L6.14849,14.290592050528526L6.14849,15.932892050528526Z" fill-rule="evenodd" fill="#0ABAB5" fill-opacity="1"/></g></g></g></svg>