<svg xmlns="http://www.w3.org/2000/svg" xmlns:xlink="http://www.w3.org/1999/xlink" fill="none" version="1.1" width="16" height="16" viewBox="0 0 16 16"><defs><clipPath id="master_svg0_1861_34094"><rect x="0" y="0" width="16" height="16" rx="0"/></clipPath></defs><g clip-path="url(#master_svg0_1861_34094)"><g><path d="M1,2.75Q1,2.66403,1.00842673,2.5784700000000003Q1.0168535,2.49291,1.0336258,2.4085900000000002Q1.0503981,2.3242700000000003,1.0753544,2.242Q1.100311,2.1597299999999997,1.133211,2.0803000000000003Q1.166111,2.00088,1.2066379999999999,1.925056Q1.247165,1.849235,1.294928,1.777752Q1.342692,1.706269,1.397232,1.639812Q1.451772,1.5733540000000001,1.512563,1.512563Q1.5733540000000001,1.451772,1.639812,1.397232Q1.706269,1.342692,1.777752,1.294928Q1.849235,1.247165,1.925056,1.2066379999999999Q2.00088,1.166111,2.0803000000000003,1.133211Q2.1597299999999997,1.100311,2.242,1.0753544Q2.3242700000000003,1.0503981,2.4085900000000002,1.0336258Q2.49291,1.0168535,2.5784700000000003,1.00842673Q2.66403,1,2.75,1L12.25,1Q12.336,1,12.4215,1.00842673Q12.5071,1.0168535,12.5914,1.0336258Q12.6757,1.0503981,12.758,1.0753544Q12.8403,1.100311,12.9197,1.133211Q12.9991,1.166111,13.0749,1.2066379999999999Q13.1508,1.247165,13.2222,1.294928Q13.2937,1.342692,13.3602,1.397232Q13.4266,1.451772,13.4874,1.512563Q13.5482,1.5733540000000001,13.6028,1.639812Q13.6573,1.706269,13.7051,1.777752Q13.7528,1.849235,13.7934,1.925056Q13.8339,2.00088,13.8668,2.0803000000000003Q13.8997,2.1597299999999997,13.9246,2.242Q13.9496,2.3242700000000003,13.9664,2.4085900000000002Q13.9831,2.49291,13.9916,2.5784700000000003Q14,2.66403,14,2.75Q14,2.83597,13.9916,2.9215299999999997Q13.9831,3.00709,13.9664,3.09141Q13.9496,3.17573,13.9246,3.258Q13.8997,3.34027,13.8668,3.4197Q13.8339,3.49912,13.7934,3.57494Q13.7528,3.65076,13.7051,3.72225Q13.6573,3.79373,13.6028,3.86019Q13.5482,3.92665,13.4874,3.98744Q13.4266,4.04823,13.3602,4.10277Q13.2937,4.15731,13.2222,4.20507Q13.1508,4.25284,13.0749,4.29336Q12.9991,4.33389,12.9197,4.36679Q12.8403,4.39969,12.758,4.42465Q12.6757,4.4496,12.5914,4.4663699999999995Q12.5071,4.48315,12.4215,4.491569999999999Q12.336,4.5,12.25,4.5L2.75,4.5Q2.66403,4.5,2.5784700000000003,4.491569999999999Q2.49291,4.48315,2.4085900000000002,4.4663699999999995Q2.3242700000000003,4.4496,2.242,4.42465Q2.1597299999999997,4.39969,2.0803000000000003,4.36679Q2.00088,4.33389,1.925056,4.29336Q1.849235,4.25284,1.777752,4.20507Q1.706269,4.15731,1.639812,4.10277Q1.5733540000000001,4.04823,1.512563,3.98744Q1.451772,3.92665,1.397232,3.86019Q1.342692,3.79373,1.294928,3.72225Q1.247165,3.65076,1.2066379999999999,3.57494Q1.166111,3.49912,1.133211,3.4197Q1.100311,3.34027,1.0753544,3.258Q1.0503981,3.17573,1.0336258,3.09141Q1.0168535,3.00709,1.00842673,2.9215299999999997Q1,2.83597,1,2.75ZM3.16797,2.70703Q3.16797,2.7562800000000003,3.15836,2.80458Q3.14875,2.85288,3.12991,2.89837Q3.11106,2.94387,3.0837,2.98482Q3.05634,3.02576,3.02152,3.06058Q2.9867,3.09541,2.9457500000000003,3.12277Q2.90481,3.15013,2.85931,3.16897Q2.81381,3.18782,2.76551,3.19742Q2.7172099999999997,3.20703,2.66797,3.20703Q2.6187199999999997,3.20703,2.57042,3.19742Q2.52212,3.18782,2.47663,3.16897Q2.43113,3.15013,2.39018,3.12277Q2.34924,3.09541,2.31442,3.06058Q2.27959,3.02576,2.25223,2.98482Q2.22487,2.94387,2.20603,2.89837Q2.1871799999999997,2.85288,2.17758,2.80458Q2.16797,2.7562800000000003,2.16797,2.70703Q2.16797,2.6577900000000003,2.17758,2.60949Q2.1871799999999997,2.56119,2.20603,2.51569Q2.22487,2.47019,2.25223,2.4292499999999997Q2.27959,2.3883,2.31442,2.3534800000000002Q2.34924,2.31866,2.39018,2.2912999999999997Q2.43113,2.26394,2.47663,2.2450900000000003Q2.52212,2.2262500000000003,2.57042,2.21664Q2.6187199999999997,2.20703,2.66797,2.20703Q2.7172099999999997,2.20703,2.76551,2.21664Q2.81381,2.2262500000000003,2.85931,2.2450900000000003Q2.90481,2.26394,2.9457500000000003,2.2912999999999997Q2.9867,2.31866,3.02152,2.3534800000000002Q3.05634,2.3883,3.0837,2.4292499999999997Q3.11106,2.47019,3.12991,2.51569Q3.14875,2.56119,3.15836,2.60949Q3.16797,2.6577900000000003,3.16797,2.70703ZM5,3.20703Q5.04925,3.20703,5.09755,3.19742Q5.14584,3.18782,5.19134,3.16897Q5.23684,3.15013,5.27778,3.12277Q5.31873,3.09541,5.35355,3.06058Q5.38837,3.02576,5.41573,2.98482Q5.44309,2.94387,5.46194,2.89837Q5.48078,2.85288,5.49039,2.80458Q5.5,2.7562800000000003,5.5,2.70703Q5.5,2.6577900000000003,5.49039,2.60949Q5.48078,2.56119,5.46194,2.51569Q5.44309,2.47019,5.41573,2.4292499999999997Q5.38837,2.3883,5.35355,2.3534800000000002Q5.31873,2.31866,5.27778,2.2912999999999997Q5.23684,2.26394,5.19134,2.2450900000000003Q5.14584,2.2262500000000003,5.09755,2.21664Q5.04925,2.20703,5,2.20703Q4.95075,2.20703,4.90245,2.21664Q4.854150000000001,2.2262500000000003,4.80866,2.2450900000000003Q4.76316,2.26394,4.7222100000000005,2.2912999999999997Q4.68127,2.31866,4.64645,2.3534800000000002Q4.61162,2.3883,4.5842600000000004,2.4292499999999997Q4.55691,2.47019,4.53806,2.51569Q4.51921,2.56119,4.50961,2.60949Q4.5,2.6577900000000003,4.5,2.70703Q4.5,2.7562800000000003,4.50961,2.80458Q4.51921,2.85288,4.53806,2.89837Q4.55691,2.94387,4.5842600000000004,2.98482Q4.61162,3.02576,4.64645,3.06058Q4.68127,3.09541,4.7222100000000005,3.12277Q4.76316,3.15013,4.80866,3.16897Q4.854150000000001,3.18782,4.90245,3.19742Q4.95075,3.20703,5,3.20703ZM6.60156,7.7599C6.60156,7.39419,6.8013,7.05986,7.1175,6.89631C7.98638,6.44689,8.859390000000001,6.18668,9.64869,6L2.75,6Q2.66403,6,2.5784700000000003,6.00843Q2.49291,6.01685,2.4085900000000002,6.03363Q2.3242700000000003,6.0504,2.242,6.07535Q2.1597299999999997,6.10031,2.0803000000000003,6.13321Q2.00088,6.16611,1.925056,6.20664Q1.849235,6.24716,1.777752,6.29493Q1.706269,6.34269,1.639812,6.39723Q1.5733540000000001,6.45177,1.512563,6.51256Q1.451772,6.57335,1.397232,6.63981Q1.342692,6.70627,1.294928,6.77775Q1.247165,6.84924,1.2066379999999999,6.92506Q1.166111,7.00088,1.133211,7.0803Q1.100311,7.15973,1.0753544,7.242Q1.0503981,7.32427,1.0336258,7.40859Q1.0168535,7.49291,1.00842673,7.57847Q1,7.66403,1,7.75Q1,7.83597,1.00842673,7.92153Q1.0168535,8.00709,1.0336258,8.09141Q1.0503981,8.17573,1.0753544,8.258Q1.100311,8.34027,1.133211,8.41969Q1.166111,8.49912,1.2066379999999999,8.57494Q1.247165,8.65076,1.294928,8.722249999999999Q1.342692,8.79373,1.397232,8.86019Q1.451772,8.92665,1.512563,8.98744Q1.5733540000000001,9.04823,1.639812,9.10277Q1.706269,9.15731,1.777752,9.20507Q1.849235,9.25284,1.925056,9.29336Q2.00088,9.33389,2.0803000000000003,9.36679Q2.1597299999999997,9.39969,2.242,9.42464Q2.3242700000000003,9.4496,2.4085900000000002,9.46637Q2.49291,9.48315,2.5784700000000003,9.49157Q2.66403,9.5,2.75,9.5L6.60156,9.5L6.60156,7.7599ZM10.79792,6.79297L10.79792,9.92969L7.53125,9.92969L7.53125,7.75849Q9.39792,6.79297,10.79792,6.79297ZM11.7333,6.79297L11.7333,9.92969L15,9.92969L15,7.75849Q13.1333,6.79297,11.7333,6.79297ZM3.16797,7.70703Q3.16797,7.75628,3.15836,7.80458Q3.14875,7.85288,3.12991,7.89837Q3.11106,7.94387,3.0837,7.98482Q3.05634,8.02576,3.02152,8.06058Q2.9867,8.095410000000001,2.9457500000000003,8.12276Q2.90481,8.150120000000001,2.85931,8.16897Q2.81381,8.18782,2.76551,8.197420000000001Q2.7172099999999997,8.20703,2.66797,8.20703Q2.6187199999999997,8.20703,2.57042,8.197420000000001Q2.52212,8.18782,2.47663,8.16897Q2.43113,8.150120000000001,2.39018,8.12276Q2.34924,8.095410000000001,2.31442,8.06058Q2.27959,8.02576,2.25223,7.98482Q2.22487,7.94387,2.20603,7.89837Q2.1871799999999997,7.85288,2.17758,7.80458Q2.16797,7.75628,2.16797,7.70703Q2.16797,7.65778,2.17758,7.60949Q2.1871799999999997,7.56119,2.20603,7.51569Q2.22487,7.47019,2.25223,7.42925Q2.27959,7.3883,2.31442,7.35348Q2.34924,7.31866,2.39018,7.2913Q2.43113,7.26394,2.47663,7.24509Q2.52212,7.22625,2.57042,7.21664Q2.6187199999999997,7.20703,2.66797,7.20703Q2.7172099999999997,7.20703,2.76551,7.21664Q2.81381,7.22625,2.85931,7.24509Q2.90481,7.26394,2.9457500000000003,7.2913Q2.9867,7.31866,3.02152,7.35348Q3.05634,7.3883,3.0837,7.42925Q3.11106,7.47019,3.12991,7.51569Q3.14875,7.56119,3.15836,7.60949Q3.16797,7.65778,3.16797,7.70703ZM5,8.20703Q5.04925,8.20703,5.09755,8.197420000000001Q5.14584,8.18782,5.19134,8.16897Q5.23684,8.150120000000001,5.27778,8.12276Q5.31873,8.095410000000001,5.35355,8.06058Q5.38837,8.02576,5.41573,7.98482Q5.44309,7.94387,5.46194,7.89837Q5.48078,7.85288,5.49039,7.80458Q5.5,7.75628,5.5,7.70703Q5.5,7.65778,5.49039,7.60949Q5.48078,7.56119,5.46194,7.51569Q5.44309,7.47019,5.41573,7.42925Q5.38837,7.3883,5.35355,7.35348Q5.31873,7.31866,5.27778,7.2913Q5.23684,7.26394,5.19134,7.24509Q5.14584,7.22625,5.09755,7.21664Q5.04925,7.20703,5,7.20703Q4.95075,7.20703,4.90245,7.21664Q4.854150000000001,7.22625,4.80866,7.24509Q4.76316,7.26394,4.7222100000000005,7.2913Q4.68127,7.31866,4.64645,7.35348Q4.61162,7.3883,4.5842600000000004,7.42925Q4.55691,7.47019,4.53806,7.51569Q4.51921,7.56119,4.50961,7.60949Q4.5,7.65778,4.5,7.70703Q4.5,7.75628,4.50961,7.80458Q4.51921,7.85288,4.53806,7.89837Q4.55691,7.94387,4.5842600000000004,7.98482Q4.61162,8.02576,4.64645,8.06058Q4.68127,8.095410000000001,4.7222100000000005,8.12276Q4.76316,8.150120000000001,4.80866,8.16897Q4.854150000000001,8.18782,4.90245,8.197420000000001Q4.95075,8.20703,5,8.20703ZM7.53125,11.6206Q7.53125,13.0688,10.79792,14.9999L10.79792,10.8952L7.53125,10.8952L7.53125,11.6206ZM15,11.6206Q15,13.0688,11.7333,14.9999L11.7333,10.8952L15,10.8952L15,11.6206ZM6.60156,11.622L6.60156,11L2.75,11Q2.66403,11,2.5784700000000003,11.0084Q2.49291,11.0169,2.4085900000000002,11.0336Q2.3242700000000003,11.0504,2.242,11.0754Q2.1597299999999997,11.1003,2.0803000000000003,11.1332Q2.00088,11.1661,1.925056,11.2066Q1.849235,11.2472,1.777752,11.2949Q1.706269,11.3427,1.639812,11.3972Q1.5733540000000001,11.4518,1.512563,11.5126Q1.451772,11.5734,1.397232,11.6398Q1.342692,11.7063,1.294928,11.7778Q1.247165,11.8492,1.2066379999999999,11.9251Q1.166111,12.0009,1.133211,12.0803Q1.100311,12.1597,1.0753544,12.242Q1.0503981,12.3243,1.0336258,12.4086Q1.0168535,12.4929,1.00842673,12.5785Q1,12.664,1,12.75Q1,12.836,1.00842673,12.9215Q1.0168535,13.0071,1.0336258,13.0914Q1.0503981,13.1757,1.0753544,13.258Q1.100311,13.3403,1.133211,13.4197Q1.166111,13.4991,1.2066379999999999,13.5749Q1.247165,13.6508,1.294928,13.7222Q1.342692,13.7937,1.397232,13.8602Q1.451772,13.9266,1.512563,13.9874Q1.5733540000000001,14.0482,1.639812,14.1028Q1.706269,14.1573,1.777752,14.2051Q1.849235,14.2528,1.925056,14.2934Q2.00088,14.3339,2.0803000000000003,14.3668Q2.1597299999999997,14.3997,2.242,14.4246Q2.3242700000000003,14.4496,2.4085900000000002,14.4664Q2.49291,14.4831,2.5784700000000003,14.4916Q2.66403,14.5,2.75,14.5L8.4703,14.5Q8.090309999999999,14.1731,7.74416,13.8033Q6.60156,12.7902,6.60156,11.622ZM3.16797,12.707Q3.16797,12.7563,3.15836,12.8046Q3.14875,12.8529,3.12991,12.8984Q3.11106,12.9439,3.0837,12.9848Q3.05634,13.0258,3.02152,13.0606Q2.9867,13.0954,2.9457500000000003,13.1228Q2.90481,13.1501,2.85931,13.169Q2.81381,13.1878,2.76551,13.1974Q2.7172099999999997,13.207,2.66797,13.207Q2.6187199999999997,13.207,2.57042,13.1974Q2.52212,13.1878,2.47663,13.169Q2.43113,13.1501,2.39018,13.1228Q2.34924,13.0954,2.31442,13.0606Q2.27959,13.0258,2.25223,12.9848Q2.22487,12.9439,2.20603,12.8984Q2.1871799999999997,12.8529,2.17758,12.8046Q2.16797,12.7563,2.16797,12.707Q2.16797,12.6578,2.17758,12.6095Q2.1871799999999997,12.5612,2.20603,12.5157Q2.22487,12.4702,2.25223,12.4292Q2.27959,12.3883,2.31442,12.3535Q2.34924,12.3187,2.39018,12.2913Q2.43113,12.2639,2.47663,12.2451Q2.52212,12.2262,2.57042,12.2166Q2.6187199999999997,12.207,2.66797,12.207Q2.7172099999999997,12.207,2.76551,12.2166Q2.81381,12.2262,2.85931,12.2451Q2.90481,12.2639,2.9457500000000003,12.2913Q2.9867,12.3187,3.02152,12.3535Q3.05634,12.3883,3.0837,12.4292Q3.11106,12.4702,3.12991,12.5157Q3.14875,12.5612,3.15836,12.6095Q3.16797,12.6578,3.16797,12.707ZM5,13.207Q5.04925,13.207,5.09755,13.1974Q5.14584,13.1878,5.19134,13.169Q5.23684,13.1501,5.27778,13.1228Q5.31873,13.0954,5.35355,13.0606Q5.38837,13.0258,5.41573,12.9848Q5.44309,12.9439,5.46194,12.8984Q5.48078,12.8529,5.49039,12.8046Q5.5,12.7563,5.5,12.707Q5.5,12.6578,5.49039,12.6095Q5.48078,12.5612,5.46194,12.5157Q5.44309,12.4702,5.41573,12.4292Q5.38837,12.3883,5.35355,12.3535Q5.31873,12.3187,5.27778,12.2913Q5.23684,12.2639,5.19134,12.2451Q5.14584,12.2262,5.09755,12.2166Q5.04925,12.207,5,12.207Q4.95075,12.207,4.90245,12.2166Q4.854150000000001,12.2262,4.80866,12.2451Q4.76316,12.2639,4.7222100000000005,12.2913Q4.68127,12.3187,4.64645,12.3535Q4.61162,12.3883,4.5842600000000004,12.4292Q4.55691,12.4702,4.53806,12.5157Q4.51921,12.5612,4.50961,12.6095Q4.5,12.6578,4.5,12.707Q4.5,12.7563,4.50961,12.8046Q4.51921,12.8529,4.53806,12.8984Q4.55691,12.9439,4.5842600000000004,12.9848Q4.61162,13.0258,4.64645,13.0606Q4.68127,13.0954,4.7222100000000005,13.1228Q4.76316,13.1501,4.80866,13.169Q4.854150000000001,13.1878,4.90245,13.1974Q4.95075,13.207,5,13.207Z" fill-rule="evenodd" fill="#0ABAB5" fill-opacity="1"/></g></g></svg>