<svg xmlns="http://www.w3.org/2000/svg" xmlns:xlink="http://www.w3.org/1999/xlink" fill="none" version="1.1" width="60.19140625" height="60.33203125" viewBox="0 0 60.19140625 60.33203125"><defs><linearGradient x1="1" y1="0.5" x2="0" y2="0.5" id="master_svg0_1715_25766"><stop offset="0%" stop-color="#00FFFF" stop-opacity="1"/><stop offset="87.85714507102966%" stop-color="#00FFFF" stop-opacity="0"/></linearGradient><linearGradient x1="1" y1="0.5" x2="0" y2="0.5" id="master_svg1_1715_25766"><stop offset="0%" stop-color="#00FFFF" stop-opacity="1"/><stop offset="87.85714507102966%" stop-color="#00FFFF" stop-opacity="0"/></linearGradient></defs><g><g><ellipse cx="30.145294189453125" cy="30.170825958251953" rx="21.312286376953125" ry="21.362232208251953" fill="#1F2734" fill-opacity="1"/></g><g transform="matrix(0.8655178546905518,-0.5008780360221863,0.4991225004196167,0.866531491279602,-18.902639581105404,11.201236272330164)"><path d="M18.113445342712403,55.85526885375977Q11.949515342712402,49.68411885375976,11.949515342712402,40.956668853759766L10.949515342712402,40.956668853759766Q10.949515342712402,50.097988853759766,17.4059253427124,56.561968853759765Q23.862615342712402,63.02616885375977,32.9938153427124,63.02616885375977Q42.1250153427124,63.02616885375977,48.5817153427124,56.561968853759765Q55.038015342712406,50.09796885375977,55.0381153427124,40.95667139688977L54.0381153427124,40.95667139688977Q54.038015342712406,49.68410885375977,47.8741153427124,55.85526885375977Q41.7104153427124,62.02616885375977,32.9938153427124,62.02616885375977Q24.277115342712403,62.02616885375977,18.113445342712403,55.85526885375977Z" fill-rule="evenodd" fill="url(#master_svg0_1715_25766)" fill-opacity="1"/></g><g transform="matrix(-0.8655178546905518,0.5008780360221863,-0.4991225004196167,-0.866531491279602,100.60174532978021,11.74822774519771)"><path d="M55.40728861206055,34.27288092956543Q49.24335861206055,28.101730929565427,49.24335861206055,19.37428092956543L48.24335861206055,19.37428092956543Q48.24335861206055,28.51560092956543,54.699768612060545,34.97958092956543Q61.15645861206055,41.443780929565435,70.28765861206054,41.443780929565435Q79.41885861206055,41.443780929565435,85.87555861206054,34.97958092956543Q92.33185861206056,28.51558092956543,92.33195861206055,19.37428347269543L91.33195861206055,19.37428347269543Q91.33185861206056,28.10172092956543,85.16795861206054,34.27288092956543Q79.00425861206054,40.443780929565435,70.28765861206054,40.443780929565435Q61.57095861206055,40.443780929565435,55.40728861206055,34.27288092956543Z" fill-rule="evenodd" fill="url(#master_svg1_1715_25766)" fill-opacity="1"/></g></g></svg>