<svg xmlns="http://www.w3.org/2000/svg" xmlns:xlink="http://www.w3.org/1999/xlink" fill="none" version="1.1" width="84" height="42" viewBox="0 0 84 42"><defs><linearGradient x1="0" y1="1" x2="0.9757401347160339" y2="1" id="master_svg0_1716_37372"><stop offset="0%" stop-color="#90BAF0" stop-opacity="1"/><stop offset="100%" stop-color="#01448D" stop-opacity="1"/></linearGradient></defs><g><g><path d="M26.556,2.80142L27.9941,6.54747Q34.4692,4,41.9995,4Q49.5303,4,56.0058,6.5478L57.4439,2.80176Q50.302,-0.00000199416,41.9995,-0.0000038147Q33.6975,-0.00000199427,26.556,2.80142ZM12.3014,12.3014Q9.14821,15.4545,6.80329,18.9425L10.2441,21.007Q12.3364,17.9232,15.1298,15.1298Q20.3606,9.89901,26.6097,7.12659L25.1699,3.37629Q18.1581,6.44461,12.3014,12.3014ZM68.8692,15.1298Q63.6388,9.89936,57.3902,7.12696L58.83,3.37665Q65.8412,6.44496,71.6977,12.3014Q74.851,15.4547,77.196,18.9429L73.7552,21.0074Q71.6628,17.9234,68.8692,15.1298ZM74.5726,22.2663Q79.999,31.009,79.999,41.9995L83.999,41.9995Q83.9991,29.8612,78.0104,20.2036L74.5726,22.2663ZM0,41.9995Q0,29.861,5.98892,20.2032L9.42672,22.2658Q4,31.0088,4,41.9995L0,41.9995Z" fill-rule="evenodd" fill="url(#master_svg0_1716_37372)" fill-opacity="1"/></g><g><ellipse cx="17.000959873199463" cy="10.000959873199463" rx="4.000959873199463" ry="4.000959873199463" fill="#FFFFFF" fill-opacity="1"/><path d="M21.00192,10.00096Q21.00192,10.19752,20.98265,10.39312Q20.96339,10.58873,20.92504,10.78151Q20.8867,10.97429,20.82964,11.162379999999999Q20.772579999999998,11.35047,20.69736,11.532060000000001Q20.62215,11.713650000000001,20.52949,11.887Q20.43684,12.06035,20.32764,12.22377Q20.21844,12.3872,20.09374,12.53914Q19.96905,12.69108,19.83007,12.83006Q19.69108,12.96905,19.53914,13.09374Q19.3872,13.218440000000001,19.223770000000002,13.327639999999999Q19.06035,13.43684,18.887,13.52949Q18.71365,13.622150000000001,18.53206,13.69736Q18.35047,13.77258,18.16238,13.829640000000001Q17.97429,13.886700000000001,17.78151,13.92504Q17.588729999999998,13.96339,17.39312,13.98265Q17.19752,14.00192,17.00096,14.00192Q16.80441,14.00192,16.6088,13.98265Q16.41319,13.96339,16.22041,13.92504Q16.02763,13.886700000000001,15.83954,13.829640000000001Q15.65145,13.77258,15.46986,13.69736Q15.28827,13.622150000000001,15.11492,13.52949Q14.94157,13.43684,14.77815,13.327639999999999Q14.61472,13.218440000000001,14.46278,13.09374Q14.31084,12.96905,14.17185,12.83007Q14.032869999999999,12.69108,13.908176,12.53914Q13.783483,12.3872,13.674282999999999,12.22377Q13.565083,12.06035,13.472428,11.887Q13.379773,11.713650000000001,13.304555,11.532060000000001Q13.229337,11.35047,13.17228,11.162379999999999Q13.115223,10.97429,13.0768773,10.78151Q13.0385314,10.58873,13.0192657,10.39312Q13,10.19752,13,10.00096Q13,9.80441,13.0192657,9.6088Q13.0385314,9.41319,13.0768773,9.220410000000001Q13.115223,9.02763,13.17228,8.83954Q13.229337,8.65145,13.304555,8.46986Q13.379773,8.28827,13.472428,8.11492Q13.565083,7.9415700000000005,13.674282999999999,7.77815Q13.783483,7.61472,13.908176,7.46278Q14.032869999999999,7.31084,14.17185,7.17185Q14.31084,7.03287,14.46278,6.908176Q14.61472,6.783483,14.77815,6.674283Q14.94157,6.565083,15.11492,6.472428Q15.28827,6.379773,15.46986,6.304555Q15.65145,6.229337,15.83954,6.17228Q16.02763,6.115223,16.22041,6.0768773Q16.41319,6.0385314,16.6088,6.0192657Q16.80441,6,17.00096,6Q17.19752,6,17.39312,6.0192657Q17.588729999999998,6.0385314,17.78151,6.0768773Q17.97429,6.115223,18.16238,6.17228Q18.35047,6.229337,18.53206,6.304555Q18.71365,6.379773,18.887,6.472428Q19.06035,6.565083,19.223770000000002,6.674283Q19.3872,6.783483,19.53914,6.908176Q19.69108,7.03287,19.83006,7.17185Q19.96905,7.31084,20.09374,7.46278Q20.21844,7.61472,20.32764,7.77815Q20.43684,7.9415700000000005,20.52949,8.11492Q20.62215,8.28827,20.69736,8.46986Q20.772579999999998,8.65145,20.82964,8.83954Q20.8867,9.02763,20.92504,9.220410000000001Q20.96339,9.41319,20.98265,9.6088Q21.00192,9.80441,21.00192,10.00096ZM20.00192,10.00096Q20.00192,9.85353,19.987470000000002,9.70681Q19.973019999999998,9.5601,19.94426,9.4155Q19.9155,9.27091,19.872700000000002,9.12983Q19.829900000000002,8.98875,19.77348,8.85254Q19.71707,8.71634,19.64757,8.58632Q19.57807,8.4563,19.49617,8.33372Q19.41426,8.21113,19.32073,8.09717Q19.22721,7.98321,19.12296,7.87896Q19.01871,7.77471,18.90475,7.68119Q18.790779999999998,7.58766,18.6682,7.50575Q18.54562,7.42385,18.4156,7.35435Q18.28558,7.2848500000000005,18.14938,7.2284299999999995Q18.01317,7.17202,17.87209,7.12922Q17.73101,7.08642,17.58642,7.05766Q17.44182,7.0289,17.295099999999998,7.01445Q17.14839,7,17.00096,7Q16.85353,7,16.70681,7.01445Q16.5601,7.0289,16.4155,7.05766Q16.27091,7.08642,16.12983,7.12922Q15.98875,7.17202,15.85254,7.2284299999999995Q15.71634,7.2848500000000005,15.58632,7.35435Q15.4563,7.42385,15.33372,7.50575Q15.21113,7.58766,15.09717,7.68119Q14.98321,7.77471,14.87896,7.87896Q14.77471,7.98321,14.68119,8.09717Q14.58766,8.21113,14.505749999999999,8.33372Q14.42385,8.4563,14.35435,8.58632Q14.28485,8.71634,14.22843,8.85254Q14.17202,8.98875,14.12922,9.12983Q14.08642,9.27091,14.05766,9.4155Q14.0289,9.5601,14.01445,9.70681Q14,9.85353,14,10.00096Q14,10.14839,14.01445,10.295110000000001Q14.0289,10.44182,14.05766,10.58642Q14.08642,10.731010000000001,14.12922,10.87209Q14.17202,11.013169999999999,14.22843,11.14938Q14.28485,11.28558,14.35435,11.415600000000001Q14.42385,11.54562,14.505749999999999,11.668199999999999Q14.58766,11.790790000000001,14.68119,11.90475Q14.77471,12.018709999999999,14.87896,12.122959999999999Q14.98321,12.22721,15.09717,12.320730000000001Q15.21113,12.414259999999999,15.33372,12.49617Q15.4563,12.57807,15.58632,12.64757Q15.71634,12.71707,15.85254,12.77348Q15.98875,12.8299,16.12983,12.8727Q16.27091,12.9155,16.4155,12.94426Q16.5601,12.97302,16.70681,12.98747Q16.85353,13.00192,17.00096,13.00192Q17.14839,13.00192,17.29511,12.98747Q17.44182,12.97302,17.58642,12.94426Q17.73101,12.9155,17.87209,12.8727Q18.01317,12.8299,18.14938,12.77348Q18.28558,12.71707,18.4156,12.64757Q18.54562,12.57807,18.6682,12.49617Q18.79079,12.414259999999999,18.90475,12.320730000000001Q19.01871,12.22721,19.12296,12.122959999999999Q19.22721,12.018709999999999,19.32073,11.90475Q19.41426,11.79078,19.49617,11.668199999999999Q19.57807,11.54562,19.64757,11.415600000000001Q19.71707,11.28558,19.77348,11.14938Q19.829900000000002,11.013169999999999,19.872700000000002,10.87209Q19.9155,10.731010000000001,19.94426,10.58642Q19.973019999999998,10.44182,19.987470000000002,10.2951Q20.00192,10.14839,20.00192,10.00096Z" fill="#0079FF" fill-opacity="1"/></g></g></svg>