<svg xmlns="http://www.w3.org/2000/svg" xmlns:xlink="http://www.w3.org/1999/xlink" fill="none" version="1.1" width="84" height="42" viewBox="0 0 84 42"><defs><linearGradient x1="0" y1="1" x2="0.9757401347160339" y2="1" id="master_svg0_1716_27102"><stop offset="0%" stop-color="#0092FF" stop-opacity="1"/><stop offset="100%" stop-color="#EEA943" stop-opacity="1"/></linearGradient></defs><g><g><path d="M26.5546,2.80201L27.9927,6.54808Q34.4684,4,41.9994,4Q49.5311,4,56.0071,6.54849L57.4452,2.80242Q50.3027,-0.00000199398,41.9994,-0.0000038147Q33.6967,-0.00000199412,26.5546,2.80201ZM12.3013,12.3018Q9.14713,15.4562,6.80171,18.9455L10.2425,21.01Q12.3353,17.9248,15.1298,15.1302Q20.36,9.89976,26.6084,7.12726L25.1686,3.37693Q18.1576,6.44535,12.3013,12.3018ZM68.869,15.1302Q63.6392,9.90019,57.3915,7.12772L58.8312,3.37738Q65.8417,6.44578,71.6975,12.3018Q74.8519,15.4564,77.1974,18.946L73.7567,21.0106Q71.6637,17.9251,68.869,15.1302ZM74.5739,22.2695Q79.9988,31.0117,79.9988,42.001L83.9988,42.001Q83.9988,29.8639,78.0117,20.2068L74.5739,22.2695ZM0,42.001Q0,29.8635,5.98746,20.2062L9.42521,22.269Q4,31.0113,4,42.001L0,42.001Z" fill-rule="evenodd" fill="url(#master_svg0_1716_27102)" fill-opacity="1"/></g><g><ellipse cx="69" cy="13" rx="4" ry="4" fill="#FFFFFF" fill-opacity="1"/><path d="M73,13Q73,13.19651,72.98074,13.39207Q72.96148,13.58763,72.92314,13.78036Q72.8848,13.97309,72.82776,14.16114Q72.77072,14.34918,72.69552,14.53073Q72.62032,14.71228,72.52768,14.88559Q72.43505,15.05889,72.32588,15.22228Q72.2167,15.385670000000001,72.09204,15.537569999999999Q71.96738,15.68948,71.82843,15.82843Q71.68948,15.96738,71.53757,16.09204Q71.38567,16.2167,71.22228,16.325879999999998Q71.05889,16.43505,70.88559,16.52768Q70.71227999999999,16.62032,70.53073,16.695520000000002Q70.34918,16.77072,70.16114,16.827759999999998Q69.97309,16.8848,69.78036,16.92314Q69.58763,16.96148,69.39207,16.98074Q69.19651,17,69,17Q68.80349,17,68.60793,16.98074Q68.41237,16.96148,68.21964,16.92314Q68.02691,16.8848,67.83886,16.827759999999998Q67.65082,16.77072,67.46927,16.695520000000002Q67.28772000000001,16.62032,67.11441,16.52768Q66.94111,16.43505,66.77772,16.325879999999998Q66.61433,16.2167,66.46243,16.09204Q66.31052,15.96738,66.17157,15.82843Q66.03262,15.68948,65.907958,15.537569999999999Q65.783295,15.385670000000001,65.674121,15.22228Q65.564948,15.05889,65.472315,14.88559Q65.379682,14.71228,65.304482,14.53073Q65.229282,14.34918,65.172239,14.16114Q65.115196,13.97309,65.0768589,13.78036Q65.0385222,13.58763,65.0192611,13.39207Q65,13.19651,65,13Q65,12.80349,65.0192611,12.60793Q65.0385222,12.41237,65.0768589,12.21964Q65.115196,12.02691,65.172239,11.83886Q65.229282,11.65082,65.304482,11.46927Q65.379682,11.28772,65.472315,11.11441Q65.564948,10.94111,65.674121,10.77772Q65.783295,10.61433,65.907958,10.46243Q66.03262,10.31052,66.17157,10.17157Q66.31052,10.03262,66.46243,9.907958Q66.61433,9.783295,66.77772,9.674121Q66.94111,9.564948,67.11441,9.472315Q67.28772000000001,9.379682,67.46927,9.304482Q67.65082,9.229282,67.83886,9.172239Q68.02691,9.115196,68.21964,9.0768589Q68.41237,9.0385222,68.60793,9.0192611Q68.80349,9,69,9Q69.19651,9,69.39207,9.0192611Q69.58763,9.0385222,69.78036,9.0768589Q69.97309,9.115196,70.16114,9.172239Q70.34918,9.229282,70.53073,9.304482Q70.71227999999999,9.379682,70.88559,9.472315Q71.05889,9.564948,71.22228,9.674121Q71.38567,9.783295,71.53757,9.907958Q71.68948,10.03262,71.82843,10.17157Q71.96738,10.31052,72.09204,10.46243Q72.2167,10.61433,72.32588,10.77772Q72.43505,10.94111,72.52768,11.11441Q72.62032,11.28772,72.69552,11.46927Q72.77072,11.65082,72.82776,11.83886Q72.8848,12.02691,72.92314,12.21964Q72.96148,12.41237,72.98074,12.60793Q73,12.80349,73,13ZM72,13Q72,12.85262,71.98555,12.70595Q71.97111,12.559280000000001,71.94235,12.41473Q71.9136,12.27018,71.87082,12.12915Q71.82804,11.988109999999999,71.77164,11.85195Q71.71524,11.71579,71.64576,11.58581Q71.57629,11.45583,71.49441,11.33329Q71.41253,11.21075,71.31903,11.096820000000001Q71.22553,10.98289,71.12132,10.87868Q71.01711,10.77447,70.90318,10.68097Q70.78925,10.58747,70.66671,10.50559Q70.54417,10.42371,70.41419,10.35424Q70.28421,10.28476,70.14805,10.22836Q70.01189,10.17196,69.87085,10.12918Q69.72982,10.0864,69.58527,10.05764Q69.44072,10.02889,69.29405,10.01445Q69.14738,10,69,10Q68.85262,10,68.70595,10.01445Q68.55928,10.02889,68.41473,10.05764Q68.27018,10.0864,68.12915,10.12918Q67.98811,10.17196,67.85195,10.22836Q67.71579,10.28476,67.58581,10.35424Q67.45583,10.42371,67.33329,10.50559Q67.21075,10.58747,67.09682,10.68097Q66.98289,10.77447,66.87868,10.87868Q66.77447,10.98289,66.68097,11.096820000000001Q66.58747,11.21075,66.50559,11.33329Q66.42371,11.45583,66.35424,11.58581Q66.28476,11.71579,66.22836,11.85195Q66.17196,11.988109999999999,66.12918,12.12915Q66.0864,12.27018,66.05764,12.41473Q66.02889,12.559280000000001,66.01445,12.70595Q66,12.85262,66,13Q66,13.14738,66.01445,13.29405Q66.02889,13.440719999999999,66.05764,13.585270000000001Q66.0864,13.72982,66.12918,13.87085Q66.17196,14.011890000000001,66.22836,14.14805Q66.28476,14.28421,66.35424,14.41419Q66.42371,14.544170000000001,66.50559,14.66671Q66.58747,14.78925,66.68097,14.903179999999999Q66.77447,15.017109999999999,66.87868,15.12132Q66.98289,15.22553,67.09682,15.31903Q67.21075,15.41253,67.33329,15.49441Q67.45583,15.57629,67.58581,15.64576Q67.71579,15.71524,67.85195,15.77164Q67.98811,15.82804,68.12915,15.87082Q68.27018,15.913599999999999,68.41473,15.94236Q68.55928,15.97111,68.70595,15.98555Q68.85262,16,69,16Q69.14738,16,69.29405,15.98555Q69.44072,15.97111,69.58527,15.942350000000001Q69.72982,15.913599999999999,69.87085,15.87082Q70.01189,15.82804,70.14805,15.77164Q70.28421,15.71524,70.41419,15.64576Q70.54417,15.57629,70.66671,15.49441Q70.78925,15.41253,70.90318,15.31903Q71.01711,15.22553,71.12132,15.12132Q71.22553,15.017109999999999,71.31903,14.903179999999999Q71.41253,14.78925,71.49441,14.66671Q71.57629,14.544170000000001,71.64576,14.41419Q71.71524,14.28421,71.77164,14.14805Q71.82804,14.011890000000001,71.87082,13.87085Q71.9136,13.72982,71.94236,13.585270000000001Q71.97111,13.440719999999999,71.98555,13.29405Q72,13.14738,72,13Z" fill="#EEA843" fill-opacity="1"/></g></g></svg>