<svg xmlns="http://www.w3.org/2000/svg" xmlns:xlink="http://www.w3.org/1999/xlink" fill="none" version="1.1" width="33" height="80.75" viewBox="0 0 33 80.75"><defs><linearGradient x1="2.25" y1="1.0120482444763184" x2="1" y2="0" id="master_svg0_1723_33125"><stop offset="0%" stop-color="#FFE7A0" stop-opacity="0"/><stop offset="100%" stop-color="#FFCF40" stop-opacity="1"/></linearGradient><filter id="master_svg1_1861_34193" filterUnits="objectBoundingBox" color-interpolation-filters="sRGB" x="0" y="0" width="1" height="1"><feFlood flood-opacity="0" result="BackgroundImageFix"/><feBlend mode="normal" in="SourceGraphic" in2="BackgroundImageFix" result="shape"/><feColorMatrix in="SourceAlpha" type="matrix" result="hardAlpha" values="0 0 0 0 0 0 0 0 0 0 0 0 0 0 0 0 0 0 127 0"/><feOffset dy="0" dx="0"/><feGaussianBlur stdDeviation="2.5"/><feComposite in2="hardAlpha" operator="arithmetic" k2="-1" k3="1"/><feColorMatrix type="matrix" values="0 0 0 0 1 0 0 0 0 1 0 0 0 0 1 0 0 0 0.5 0"/><feBlend mode="normal" in2="shape" result="effect1_innerShadow"/></filter><linearGradient x1="-0.016129031777381897" y1="1.0161290168762207" x2="1.0161290168762207" y2="1.0161290168762207" id="master_svg2_1723_33295"><stop offset="2.857142873108387%" stop-color="#FFEDB9" stop-opacity="1"/><stop offset="100%" stop-color="#FFCF40" stop-opacity="1"/></linearGradient><clipPath id="master_svg3_1861_34195"><rect x="8.5" y="8.5" width="16" height="16" rx="0"/></clipPath><linearGradient x1="0" y1="0" x2="0" y2="1" id="master_svg4_1861_35160"><stop offset="0%" stop-color="#FFFFFF" stop-opacity="1"/><stop offset="98.57142567634583%" stop-color="#FFE085" stop-opacity="1"/></linearGradient></defs><g><g><ellipse cx="16.5" cy="75.5" rx="4" ry="2" fill="#FFCF40" fill-opacity="1"/></g><g style="opacity:0.5;"><ellipse cx="16.5" cy="75.5" rx="12" ry="5" fill-opacity="0" stroke-opacity="0.5" stroke="#FFCF40" fill="none" stroke-width="0.5"/></g><g><ellipse cx="16.5" cy="75.5" rx="8" ry="3" fill-opacity="0" stroke-opacity="1" stroke="#FFCF40" fill="none" stroke-width="0.5"/></g><g><path d="M15.999998,31.999998L16,32.5L16,73.5L15.999998,74L17.000002,74L17,73.5L17,32.5L17.000002,31.999998L15.999998,31.999998Z" fill-rule="evenodd" fill="url(#master_svg0_1723_33125)" fill-opacity="1"/></g><g filter="url(#master_svg1_1861_34193)"><ellipse cx="16.5" cy="16.5" rx="16" ry="16" fill="#FFCF40" fill-opacity="0.5"/></g><g><ellipse cx="16.5" cy="16.5" rx="16" ry="16" fill="#FFFFFF" fill-opacity="0.009999999776482582"/><ellipse cx="16.5" cy="16.5" rx="16" ry="16" stroke="url(#master_svg2_1723_33295)" fill-opacity="0" fill="none" stroke-width="1" stroke-linecap="ROUND"/></g><g clip-path="url(#master_svg3_1861_34195)"><g><path d="M9.5,11.25Q9.5,11.16403,9.50842673,11.07847Q9.5168535,10.99291,9.5336258,10.90859Q9.5503981,10.82427,9.5753544,10.742Q9.600311,10.65973,9.633211,10.5803Q9.666111,10.50088,9.706638,10.425056Q9.747165,10.349235,9.794928,10.277752Q9.842692,10.206269,9.897232,10.139812Q9.951772,10.073354,10.012563,10.012563Q10.073354,9.951772,10.139812,9.897232Q10.206269,9.842692,10.277752,9.794928Q10.349235,9.747165,10.425056,9.706638Q10.50088,9.666111,10.5803,9.633211Q10.65973,9.600311,10.742,9.5753544Q10.82427,9.5503981,10.90859,9.5336258Q10.99291,9.5168535,11.07847,9.50842673Q11.16403,9.5,11.25,9.5L20.75,9.5Q20.836,9.5,20.9215,9.50842673Q21.0071,9.5168535,21.0914,9.5336258Q21.1757,9.5503981,21.258,9.5753544Q21.3403,9.600311,21.4197,9.633211Q21.4991,9.666111,21.5749,9.706638Q21.6508,9.747165,21.7222,9.794928Q21.7937,9.842692,21.8602,9.897232Q21.9266,9.951772,21.9874,10.012563Q22.0482,10.073354,22.102800000000002,10.139812Q22.1573,10.206269,22.2051,10.277752Q22.2528,10.349235,22.2934,10.425056Q22.3339,10.50088,22.366799999999998,10.5803Q22.3997,10.65973,22.424599999999998,10.742Q22.4496,10.82427,22.4664,10.90859Q22.4831,10.99291,22.4916,11.07847Q22.5,11.16403,22.5,11.25Q22.5,11.33597,22.4916,11.42153Q22.4831,11.50709,22.4664,11.59141Q22.4496,11.67573,22.424599999999998,11.758Q22.3997,11.84027,22.366799999999998,11.9197Q22.3339,11.99912,22.2934,12.07494Q22.2528,12.15076,22.2051,12.222249999999999Q22.1573,12.29373,22.102800000000002,12.36019Q22.0482,12.42665,21.9874,12.48744Q21.9266,12.54823,21.8602,12.60277Q21.7937,12.657309999999999,21.7222,12.70507Q21.6508,12.752839999999999,21.5749,12.79336Q21.4991,12.83389,21.4197,12.86679Q21.3403,12.89969,21.258,12.92465Q21.1757,12.9496,21.0914,12.96637Q21.0071,12.98315,20.9215,12.99157Q20.836,13,20.75,13L11.25,13Q11.16403,13,11.07847,12.99157Q10.99291,12.98315,10.90859,12.96637Q10.82427,12.9496,10.742,12.92465Q10.65973,12.89969,10.5803,12.86679Q10.50088,12.83389,10.425056,12.79336Q10.349235,12.752839999999999,10.277752,12.70507Q10.206269,12.657309999999999,10.139812,12.60277Q10.073354,12.54823,10.012563,12.48744Q9.951772,12.42665,9.897232,12.36019Q9.842692,12.29373,9.794928,12.222249999999999Q9.747165,12.15076,9.706638,12.07494Q9.666111,11.99912,9.633211,11.9197Q9.600311,11.84027,9.5753544,11.758Q9.5503981,11.67573,9.5336258,11.59141Q9.5168535,11.50709,9.50842673,11.42153Q9.5,11.33597,9.5,11.25ZM11.66602,11.20703Q11.66602,11.25628,11.656410000000001,11.30458Q11.646799999999999,11.35288,11.62795,11.39837Q11.60911,11.44387,11.58175,11.48482Q11.55439,11.52576,11.51957,11.56058Q11.48475,11.595410000000001,11.4438,11.62277Q11.40285,11.65013,11.35736,11.66897Q11.31186,11.68782,11.26356,11.697420000000001Q11.21526,11.70703,11.16602,11.70703Q11.11677,11.70703,11.06847,11.697420000000001Q11.02017,11.68782,10.97467,11.66897Q10.92918,11.65013,10.88823,11.62277Q10.84728,11.595410000000001,10.81246,11.56058Q10.77764,11.52576,10.75028,11.48482Q10.72292,11.44387,10.70408,11.39837Q10.68523,11.35288,10.67562,11.30458Q10.66602,11.25628,10.66602,11.20703Q10.66602,11.15779,10.67562,11.109490000000001Q10.68523,11.06119,10.70408,11.01569Q10.72292,10.97019,10.75028,10.92925Q10.77764,10.888300000000001,10.81246,10.85348Q10.84728,10.81866,10.88823,10.7913Q10.92918,10.76394,10.97467,10.74509Q11.02017,10.72625,11.06847,10.71664Q11.11677,10.70703,11.16602,10.70703Q11.21526,10.70703,11.26356,10.71664Q11.31186,10.72625,11.35736,10.74509Q11.40285,10.76394,11.4438,10.7913Q11.48475,10.81866,11.51957,10.85348Q11.55439,10.888300000000001,11.58175,10.92925Q11.60911,10.97019,11.62795,11.01569Q11.646799999999999,11.06119,11.656410000000001,11.109490000000001Q11.66602,11.15779,11.66602,11.20703ZM13.5,11.70703Q13.54925,11.70703,13.59755,11.697420000000001Q13.64584,11.68782,13.69134,11.66897Q13.73684,11.65013,13.77778,11.62277Q13.81873,11.595410000000001,13.85355,11.56058Q13.88837,11.52576,13.91573,11.48482Q13.94309,11.44387,13.96194,11.39837Q13.98078,11.35288,13.99039,11.30458Q14,11.25628,14,11.20703Q14,11.15779,13.99039,11.109490000000001Q13.98078,11.06119,13.96194,11.01569Q13.94309,10.97019,13.91573,10.92925Q13.88837,10.888300000000001,13.85355,10.85348Q13.81873,10.81866,13.77778,10.7913Q13.73684,10.76394,13.69134,10.74509Q13.64584,10.72625,13.59755,10.71664Q13.54925,10.70703,13.5,10.70703Q13.45075,10.70703,13.40245,10.71664Q13.35415,10.72625,13.30866,10.74509Q13.26316,10.76394,13.22221,10.7913Q13.18127,10.81866,13.14645,10.85348Q13.11162,10.888300000000001,13.08426,10.92925Q13.05691,10.97019,13.03806,11.01569Q13.019210000000001,11.06119,13.00961,11.109490000000001Q13,11.15779,13,11.20703Q13,11.25628,13.00961,11.30458Q13.019210000000001,11.35288,13.03806,11.39837Q13.05691,11.44387,13.08426,11.48482Q13.11162,11.52576,13.14645,11.56058Q13.18127,11.595410000000001,13.22221,11.62277Q13.26316,11.65013,13.30866,11.66897Q13.35415,11.68782,13.40245,11.697420000000001Q13.45075,11.70703,13.5,11.70703ZM15.09961,16.259900000000002C15.09961,15.89419,15.29935,15.55986,15.61554,15.39631C16.48443,14.94689,17.35744,14.686679999999999,18.146729999999998,14.5L11.25,14.5Q11.16403,14.5,11.07847,14.50843Q10.99291,14.51685,10.90859,14.533629999999999Q10.82427,14.5504,10.742,14.57535Q10.65973,14.60031,10.5803,14.63321Q10.50088,14.66611,10.425056,14.70664Q10.349235,14.747160000000001,10.277752,14.79493Q10.206269,14.842690000000001,10.139812,14.89723Q10.073354,14.95177,10.012563,15.01256Q9.951772,15.07335,9.897232,15.13981Q9.842692,15.20627,9.794928,15.277750000000001Q9.747165,15.34924,9.706638,15.42506Q9.666111,15.50088,9.633211,15.580300000000001Q9.600311,15.65973,9.5753544,15.742Q9.5503981,15.82427,9.5336258,15.90859Q9.5168535,15.99291,9.50842673,16.07847Q9.5,16.16403,9.5,16.25Q9.5,16.33597,9.50842673,16.42153Q9.5168535,16.507089999999998,9.5336258,16.59141Q9.5503981,16.67573,9.5753544,16.758Q9.600311,16.84027,9.633211,16.91969Q9.666111,16.999119999999998,9.706638,17.074939999999998Q9.747165,17.15076,9.794928,17.22225Q9.842692,17.29373,9.897232,17.36019Q9.951772,17.426650000000002,10.012563,17.48744Q10.073354,17.54823,10.139812,17.60277Q10.206269,17.657310000000003,10.277752,17.70507Q10.349235,17.75284,10.425056,17.79336Q10.50088,17.83389,10.5803,17.86679Q10.65973,17.89969,10.742,17.92464Q10.82427,17.9496,10.90859,17.966369999999998Q10.99291,17.983150000000002,11.07847,17.99157Q11.16403,18,11.25,18L15.09961,18L15.09961,16.259900000000002ZM19.29987,15.29297L19.29987,18.42969L16.0332,18.42969L16.0332,16.258490000000002Q17.89987,15.29297,19.29987,15.29297ZM20.2333,15.29297L20.2333,18.42969L23.5,18.42969L23.5,16.258490000000002Q21.6333,15.29297,20.2333,15.29297ZM11.66602,16.20703Q11.66602,16.25628,11.656410000000001,16.30458Q11.646799999999999,16.35288,11.62795,16.39837Q11.60911,16.44387,11.58175,16.48482Q11.55439,16.52576,11.51957,16.56058Q11.48475,16.59541,11.4438,16.62276Q11.40285,16.65012,11.35736,16.66897Q11.31186,16.687820000000002,11.26356,16.69742Q11.21526,16.70703,11.16602,16.70703Q11.11677,16.70703,11.06847,16.69742Q11.02017,16.687820000000002,10.97467,16.66897Q10.92918,16.65012,10.88823,16.62276Q10.84728,16.59541,10.81246,16.56058Q10.77764,16.52576,10.75028,16.48482Q10.72292,16.44387,10.70408,16.39837Q10.68523,16.35288,10.67562,16.30458Q10.66602,16.25628,10.66602,16.20703Q10.66602,16.15778,10.67562,16.10949Q10.68523,16.06119,10.70408,16.01569Q10.72292,15.970189999999999,10.75028,15.92925Q10.77764,15.888300000000001,10.81246,15.853480000000001Q10.84728,15.818660000000001,10.88823,15.7913Q10.92918,15.76394,10.97467,15.745090000000001Q11.02017,15.72625,11.06847,15.71664Q11.11677,15.70703,11.16602,15.70703Q11.21526,15.70703,11.26356,15.71664Q11.31186,15.72625,11.35736,15.745090000000001Q11.40285,15.76394,11.4438,15.7913Q11.48475,15.818660000000001,11.51957,15.853480000000001Q11.55439,15.888300000000001,11.58175,15.92925Q11.60911,15.970189999999999,11.62795,16.01569Q11.646799999999999,16.06119,11.656410000000001,16.10949Q11.66602,16.15778,11.66602,16.20703ZM13.5,16.70703Q13.54925,16.70703,13.59755,16.69742Q13.64584,16.687820000000002,13.69134,16.66897Q13.73684,16.65012,13.77778,16.62276Q13.81873,16.59541,13.85355,16.56058Q13.88837,16.52576,13.91573,16.48482Q13.94309,16.44387,13.96194,16.39837Q13.98078,16.35288,13.99039,16.30458Q14,16.25628,14,16.20703Q14,16.15778,13.99039,16.10949Q13.98078,16.06119,13.96194,16.01569Q13.94309,15.970189999999999,13.91573,15.92925Q13.88837,15.888300000000001,13.85355,15.853480000000001Q13.81873,15.818660000000001,13.77778,15.7913Q13.73684,15.76394,13.69134,15.745090000000001Q13.64584,15.72625,13.59755,15.71664Q13.54925,15.70703,13.5,15.70703Q13.45075,15.70703,13.40245,15.71664Q13.35415,15.72625,13.30866,15.745090000000001Q13.26316,15.76394,13.22221,15.7913Q13.18127,15.818660000000001,13.14645,15.853480000000001Q13.11162,15.888300000000001,13.08426,15.92925Q13.05691,15.970189999999999,13.03806,16.01569Q13.019210000000001,16.06119,13.00961,16.10949Q13,16.15778,13,16.20703Q13,16.25628,13.00961,16.30458Q13.019210000000001,16.35288,13.03806,16.39837Q13.05691,16.44387,13.08426,16.48482Q13.11162,16.52576,13.14645,16.56058Q13.18127,16.59541,13.22221,16.62276Q13.26316,16.65012,13.30866,16.66897Q13.35415,16.687820000000002,13.40245,16.69742Q13.45075,16.70703,13.5,16.70703ZM16.0332,20.1206Q16.0332,21.5688,19.29987,23.4999L19.29987,19.395200000000003L16.0332,19.395200000000003L16.0332,20.1206ZM23.5,20.1206Q23.5,21.5688,20.2333,23.4999L20.2333,19.395200000000003L23.5,19.395200000000003L23.5,20.1206ZM15.09961,20.122L15.09961,19.5L11.25,19.5Q11.16403,19.5,11.07847,19.5084Q10.99291,19.5169,10.90859,19.5336Q10.82427,19.5504,10.742,19.575400000000002Q10.65973,19.6003,10.5803,19.633200000000002Q10.50088,19.6661,10.425056,19.7066Q10.349235,19.7472,10.277752,19.7949Q10.206269,19.8427,10.139812,19.897199999999998Q10.073354,19.9518,10.012563,20.0126Q9.951772,20.0734,9.897232,20.1398Q9.842692,20.2063,9.794928,20.2778Q9.747165,20.3492,9.706638,20.4251Q9.666111,20.5009,9.633211,20.5803Q9.600311,20.6597,9.5753544,20.742Q9.5503981,20.8243,9.5336258,20.9086Q9.5168535,20.9929,9.50842673,21.0785Q9.5,21.164,9.5,21.25Q9.5,21.336,9.50842673,21.4215Q9.5168535,21.5071,9.5336258,21.5914Q9.5503981,21.6757,9.5753544,21.758Q9.600311,21.8403,9.633211,21.9197Q9.666111,21.9991,9.706638,22.0749Q9.747165,22.1508,9.794928,22.2222Q9.842692,22.2937,9.897232,22.3602Q9.951772,22.4266,10.012563,22.4874Q10.073354,22.5482,10.139812,22.602800000000002Q10.206269,22.6573,10.277752,22.7051Q10.349235,22.7528,10.425056,22.7934Q10.50088,22.8339,10.5803,22.866799999999998Q10.65973,22.8997,10.742,22.924599999999998Q10.82427,22.9496,10.90859,22.9664Q10.99291,22.9831,11.07847,22.9916Q11.16403,23,11.25,23L16.96834,23Q16.58836,22.673099999999998,16.2422,22.3033Q15.09961,21.2902,15.09961,20.122ZM11.66602,21.207Q11.66602,21.2563,11.656410000000001,21.3046Q11.646799999999999,21.352899999999998,11.62795,21.398400000000002Q11.60911,21.4439,11.58175,21.4848Q11.55439,21.5258,11.51957,21.5606Q11.48475,21.595399999999998,11.4438,21.622799999999998Q11.40285,21.650100000000002,11.35736,21.669Q11.31186,21.6878,11.26356,21.697400000000002Q11.21526,21.707,11.16602,21.707Q11.11677,21.707,11.06847,21.697400000000002Q11.02017,21.6878,10.97467,21.669Q10.92918,21.650100000000002,10.88823,21.622799999999998Q10.84728,21.595399999999998,10.81246,21.5606Q10.77764,21.5258,10.75028,21.4848Q10.72292,21.4439,10.70408,21.398400000000002Q10.68523,21.352899999999998,10.67562,21.3046Q10.66602,21.2563,10.66602,21.207Q10.66602,21.1578,10.67562,21.1095Q10.68523,21.0612,10.70408,21.015700000000002Q10.72292,20.9702,10.75028,20.9292Q10.77764,20.8883,10.81246,20.8535Q10.84728,20.8187,10.88823,20.7913Q10.92918,20.7639,10.97467,20.7451Q11.02017,20.7262,11.06847,20.7166Q11.11677,20.707,11.16602,20.707Q11.21526,20.707,11.26356,20.7166Q11.31186,20.7262,11.35736,20.7451Q11.40285,20.7639,11.4438,20.7913Q11.48475,20.8187,11.51957,20.8535Q11.55439,20.8883,11.58175,20.9292Q11.60911,20.9702,11.62795,21.015700000000002Q11.646799999999999,21.0612,11.656410000000001,21.1095Q11.66602,21.1578,11.66602,21.207ZM13.5,21.707Q13.54925,21.707,13.59755,21.697400000000002Q13.64584,21.6878,13.69134,21.669Q13.73684,21.650100000000002,13.77778,21.622799999999998Q13.81873,21.595399999999998,13.85355,21.5606Q13.88837,21.5258,13.91573,21.4848Q13.94309,21.4439,13.96194,21.398400000000002Q13.98078,21.352899999999998,13.99039,21.3046Q14,21.2563,14,21.207Q14,21.1578,13.99039,21.1095Q13.98078,21.0612,13.96194,21.015700000000002Q13.94309,20.9702,13.91573,20.9292Q13.88837,20.8883,13.85355,20.8535Q13.81873,20.8187,13.77778,20.7913Q13.73684,20.7639,13.69134,20.7451Q13.64584,20.7262,13.59755,20.7166Q13.54925,20.707,13.5,20.707Q13.45075,20.707,13.40245,20.7166Q13.35415,20.7262,13.30866,20.7451Q13.26316,20.7639,13.22221,20.7913Q13.18127,20.8187,13.14645,20.8535Q13.11162,20.8883,13.08426,20.9292Q13.05691,20.9702,13.03806,21.015700000000002Q13.019210000000001,21.0612,13.00961,21.1095Q13,21.1578,13,21.207Q13,21.2563,13.00961,21.3046Q13.019210000000001,21.352899999999998,13.03806,21.398400000000002Q13.05691,21.4439,13.08426,21.4848Q13.11162,21.5258,13.14645,21.5606Q13.18127,21.595399999999998,13.22221,21.622799999999998Q13.26316,21.650100000000002,13.30866,21.669Q13.35415,21.6878,13.40245,21.697400000000002Q13.45075,21.707,13.5,21.707Z" fill-rule="evenodd" fill="url(#master_svg4_1861_35160)" fill-opacity="1"/></g></g></g></svg>