<svg xmlns="http://www.w3.org/2000/svg" xmlns:xlink="http://www.w3.org/1999/xlink" fill="none" version="1.1" width="33" height="80.75" viewBox="0 0 33 80.75"><defs><linearGradient x1="2.25" y1="1.0120482444763184" x2="1" y2="0" id="master_svg0_1723_32748"><stop offset="0%" stop-color="#85C2FF" stop-opacity="0"/><stop offset="99.28571581840515%" stop-color="#0A84FF" stop-opacity="1"/></linearGradient><filter id="master_svg1_1861_35222" filterUnits="objectBoundingBox" color-interpolation-filters="sRGB" x="0" y="0" width="1" height="1"><feFlood flood-opacity="0" result="BackgroundImageFix"/><feBlend mode="normal" in="SourceGraphic" in2="BackgroundImageFix" result="shape"/><feColorMatrix in="SourceAlpha" type="matrix" result="hardAlpha" values="0 0 0 0 0 0 0 0 0 0 0 0 0 0 0 0 0 0 127 0"/><feOffset dy="0" dx="0"/><feGaussianBlur stdDeviation="2.5"/><feComposite in2="hardAlpha" operator="arithmetic" k2="-1" k3="1"/><feColorMatrix type="matrix" values="0 0 0 0 1 0 0 0 0 1 0 0 0 0 1 0 0 0 0.5 0"/><feBlend mode="normal" in2="shape" result="effect1_innerShadow"/></filter><linearGradient x1="-0.016129031777381897" y1="1.0161290168762207" x2="1.0161290168762207" y2="1.0161290168762207" id="master_svg2_1723_32552"><stop offset="0%" stop-color="#85C2FF" stop-opacity="1"/><stop offset="100%" stop-color="#0A84FF" stop-opacity="1"/></linearGradient><clipPath id="master_svg3_1861_35224"><rect x="8.5" y="8.5" width="16" height="16" rx="0"/></clipPath><linearGradient x1="0" y1="0" x2="0" y2="1" id="master_svg4_1861_35155"><stop offset="0%" stop-color="#FFFFFF" stop-opacity="1"/><stop offset="100%" stop-color="#5BADFF" stop-opacity="1"/></linearGradient></defs><g><g><ellipse cx="16.5" cy="75.5" rx="4" ry="2" fill="#0A84FF" fill-opacity="1"/></g><g style="opacity:0.5;"><ellipse cx="16.5" cy="75.5" rx="12" ry="5" fill-opacity="0" stroke-opacity="0.5" stroke="#0A84FF" fill="none" stroke-width="0.5"/></g><g><ellipse cx="16.5" cy="75.5" rx="8" ry="3" fill-opacity="0" stroke-opacity="1" stroke="#0A84FF" fill="none" stroke-width="0.5"/></g><g><path d="M15.999998,31.999998L16,32.5L16,73.5L15.999998,74L17.000002,74L17,73.5L17,32.5L17.000002,31.999998L15.999998,31.999998Z" fill-rule="evenodd" fill="url(#master_svg0_1723_32748)" fill-opacity="1"/></g><g filter="url(#master_svg1_1861_35222)"><ellipse cx="16.5" cy="16.5" rx="16" ry="16" fill="#0A84FF" fill-opacity="0.5"/></g><g><ellipse cx="16.5" cy="16.5" rx="16" ry="16" fill="#FFFFFF" fill-opacity="0.009999999776482582"/><ellipse cx="16.5" cy="16.5" rx="16" ry="16" stroke="url(#master_svg2_1723_32552)" fill-opacity="0" fill="none" stroke-width="1" stroke-linecap="ROUND"/></g><g clip-path="url(#master_svg3_1861_35224)"><g><g><path d="M8.5513805,22.451L9.139131,10.451079C9.165219,9.91845,9.60467,9.5,10.13793,9.5L13.71899,9.5C14.25235,9.5,14.69183,9.918586,14.7178,10.451311L14.898859999999999,14.1655L22.4722,14.166540000000001C22.9775,14.16661,23.4033,14.543520000000001,23.4647,15.045L24.3626,22.3781C24.4356,22.9742,23.9703,23.4998,23.3697,23.4996L21.0714,23.4988L9.55028,23.4999C8.978744,23.5,8.5234206,23.0218,8.5513805,22.451M21.8429,15.91667L14.98457,15.9155L15.271429999999999,21.7488L19.1286,21.7488L18.628,17.66667L20.357100000000003,17.66667L20.8566,21.7488L22.5583,21.75L21.8429,15.91667Z" fill="url(#master_svg4_1861_35155)" fill-opacity="1"/></g><g><path d="M17.62292625,10.664978587C18.17149625,10.664978587,18.52578625,10.8131455,18.93035625,11.1316455L19.13607625,11.3043115C19.33035625,11.4711445,19.380646249999998,11.4968115,19.49607625,11.4968115C19.82521625,11.4968115,20.136076250000002,11.3276455,20.46292625,10.9333115C20.72790625,10.6129468,21.19721625,10.5727376,21.51079625,10.8435325C21.82437625,11.1143265,21.86333625,11.5934415,21.59778625,11.9133125C21.00578625,12.6273125,20.29492625,13.0134825,19.49607625,13.0134825C19.01949625,13.0134825,18.70407625,12.8804825,18.33949625,12.595812500000001L18.12692625,12.4184825C17.89607625,12.2201425,17.81835625,12.1816425,17.62407625,12.1816425C17.30064625,12.1816425,17.10749625,12.2738125,16.96807625,12.4931425L16.91092625,12.595812500000001C16.72642625,12.9697825,16.27999425,13.1204325,15.91349625,12.9324025C15.54699845,12.7443725,15.39904325,12.2887725,15.58292895,11.9144825C15.98407125,11.0978115,16.70292625,10.664978587,17.62292625,10.664978587Z" fill="#FFFFFF" fill-opacity="1"/></g></g></g></g></svg>