<svg xmlns="http://www.w3.org/2000/svg" xmlns:xlink="http://www.w3.org/1999/xlink" fill="none" version="1.1" width="76.17578125" height="95.2578125" viewBox="0 0 76.17578125 95.2578125"><defs><linearGradient x1="0" y1="0.5" x2="1" y2="0.5" id="master_svg0_1715_27612"><stop offset="0%" stop-color="#283A53" stop-opacity="1"/><stop offset="100%" stop-color="#283A53" stop-opacity="0.5"/></linearGradient><linearGradient x1="0" y1="0.5" x2="1" y2="0.5" id="master_svg1_1715_27612"><stop offset="0%" stop-color="#283A53" stop-opacity="1"/><stop offset="100%" stop-color="#283A53" stop-opacity="0.5"/></linearGradient><linearGradient x1="0" y1="0.5" x2="1" y2="0.5" id="master_svg2_1715_27612"><stop offset="0%" stop-color="#283A53" stop-opacity="1"/><stop offset="100%" stop-color="#283A53" stop-opacity="0.5"/></linearGradient><linearGradient x1="0" y1="0.5" x2="1" y2="0.5" id="master_svg3_1715_27612"><stop offset="0%" stop-color="#283A53" stop-opacity="1"/><stop offset="100%" stop-color="#283A53" stop-opacity="0.5"/></linearGradient></defs><g><g><g><path d="M55.957875,1.4579998836517334L66.152175,1.4579998836517334L66.152175,0.4859998836517334L55.957875,0.4859998836517334Q49.283275,0.4859998836517334,43.179175,3.1859598836517335Q37.075075,5.8859198836517335,32.584975,10.824299883651733L-0.00020799999999998597,46.661899883651735L0.718958,47.315799883651735L33.304075,11.478199883651733Q37.656075,6.691759883651733,43.572375,4.074879883651733Q49.488675,1.4579998836517334,55.957875,1.4579998836517334Z" fill-rule="evenodd" fill="url(#master_svg0_1715_27612)" fill-opacity="1"/></g><g transform="matrix(1,0,0,-1,0,188.56796216964722)"><path d="M55.957875,94.76998108482361L66.152175,94.76998108482361L66.152175,93.7979810848236L55.957875,93.7979810848236Q49.283275,93.7979810848236,43.179175,96.49794108482361Q37.075075,99.19790108482361,32.584975,104.13628108482361L-0.00020799999999998597,139.9738810848236L0.718958,140.6277810848236L33.304075,104.79018108482362Q37.656075,100.0037410848236,43.572375,97.38686108482361Q49.488675,94.76998108482361,55.957875,94.76998108482361Z" fill-rule="evenodd" fill="url(#master_svg1_1715_27612)" fill-opacity="1"/></g><g><path d="M47.961375,32.561999975204465L66.455375,32.561999975204465L66.455375,31.589999975204467L47.961375,31.589999975204467Q42.305775,31.589999975204467,37.001375,33.55218997520447L0.19076,47.16929997520447L0.52799,48.08089997520447L37.338675,34.463819975204466Q42.479775,32.561999975204465,47.961375,32.561999975204465Z" fill-rule="evenodd" fill="url(#master_svg2_1715_27612)" fill-opacity="1"/></g><g transform="matrix(1,0,0,-1,0,127.21215009689331)"><path d="M47.961375,64.09207504844666L66.455375,64.09207504844666L66.455375,63.12007504844666L47.961375,63.12007504844666Q42.305775,63.12007504844666,37.001375,65.08226504844666L0.19076,78.69937504844665L0.52799,79.61097504844665L37.338675,65.99389504844666Q42.479775,64.09207504844666,47.961375,64.09207504844666Z" fill-rule="evenodd" fill="url(#master_svg3_1715_27612)" fill-opacity="1"/></g></g><g><rect x="66.4553451538086" y="0" width="9.719998359680176" height="1.9439997673034668" rx="0" fill="#EA9A39" fill-opacity="1"/></g><g><rect x="66.4553451538086" y="31.10399627685547" width="9.719998359680176" height="1.9439997673034668" rx="0" fill="#0ABAB5" fill-opacity="1"/></g><g><rect x="66.4553451538086" y="62.20799255371094" width="9.719998359680176" height="1.9439997673034668" rx="0" fill="#C9EBF5" fill-opacity="1"/></g><g><rect x="66.4553451538086" y="93.31198120117188" width="9.719998359680176" height="1.9439997673034668" rx="0" fill="#24BAFF" fill-opacity="1"/></g></g></svg>