<svg xmlns="http://www.w3.org/2000/svg" xmlns:xlink="http://www.w3.org/1999/xlink" fill="none" version="1.1" width="61" height="51.5" viewBox="0 0 61 51.5"><defs><linearGradient x1="0.5" y1="0" x2="0.5" y2="1" id="master_svg0_1716_28329"><stop offset="0%" stop-color="#1860DF" stop-opacity="0.07999999821186066"/><stop offset="100%" stop-color="#00DAFF" stop-opacity="0.5"/></linearGradient><linearGradient x1="0.3040544092655182" y1="0.18516746163368225" x2="0.8014597209379457" y2="0.7192342339556057" id="master_svg1_1716_28048"><stop offset="66.50704145431519%" stop-color="#155CDD" stop-opacity="1"/><stop offset="100%" stop-color="#5EACE7" stop-opacity="1"/></linearGradient><linearGradient x1="0.3040544092655182" y1="0.18516746163368225" x2="0.8014597209379457" y2="0.7192342339556057" id="master_svg2_1716_28048"><stop offset="66.50704145431519%" stop-color="#155CDD" stop-opacity="1"/><stop offset="100%" stop-color="#5EACE7" stop-opacity="1"/></linearGradient><linearGradient x1="0.3040544092655182" y1="0.18516746163368225" x2="0.8014597209379457" y2="0.7192342339556057" id="master_svg3_1716_28048"><stop offset="66.50704145431519%" stop-color="#155CDD" stop-opacity="1"/><stop offset="100%" stop-color="#5EACE7" stop-opacity="1"/></linearGradient><linearGradient x1="0.3040544092655182" y1="0.18516746163368225" x2="0.8014597209379457" y2="0.7192342339556057" id="master_svg4_1716_28048"><stop offset="66.50704145431519%" stop-color="#155CDD" stop-opacity="1"/><stop offset="100%" stop-color="#5EACE7" stop-opacity="1"/></linearGradient><filter id="master_svg5_1814_29322" filterUnits="objectBoundingBox" color-interpolation-filters="sRGB" x="-0.034482758620689655" y="-0.05610878439885387" width="1.0689655172413792" height="1.1122175687977078"><feFlood flood-opacity="0" result="BackgroundImageFix"/><feBlend mode="normal" in="SourceGraphic" in2="BackgroundImageFix" result="shape"/><feGaussianBlur stdDeviation="0.5" result="effect1_foregroundBlur"/></filter><linearGradient x1="0.5" y1="0.4534202814102173" x2="0.5" y2="1" id="master_svg6_1716_28053"><stop offset="0%" stop-color="#1258DE" stop-opacity="0.12999999523162842"/><stop offset="100%" stop-color="#51B3FF" stop-opacity="0.5"/></linearGradient><linearGradient x1="0.3331249952316284" y1="0.0902506485581398" x2="0.9209218393213248" y2="0.6432957731682747" id="master_svg7_1716_27890"><stop offset="0%" stop-color="#3E4666" stop-opacity="1"/><stop offset="100%" stop-color="#383E5B" stop-opacity="1"/></linearGradient><mask id="master_svg8_1814_29336" style="mask-type:alpha" maskUnits="objectBoundingBox"><g><path d="M24.846532106399536,6.58535708984375L37.97863210639954,18.93286708984375L50.28993210639953,12.89636708984375L36.88423210639954,0.54876708984375L24.846532106399536,6.58535708984375Z" fill="#FFFFFF" fill-opacity="1"/></g></mask><linearGradient x1="0.3331249952316284" y1="0.0902506485581398" x2="0.9209218393213248" y2="0.6432957731682747" id="master_svg9_1716_27890"><stop offset="0%" stop-color="#3E4666" stop-opacity="1"/><stop offset="100%" stop-color="#383E5B" stop-opacity="1"/></linearGradient><mask id="master_svga_1814_29353" style="mask-type:alpha" maskUnits="objectBoundingBox"><g><path d="M11.714456796646118,13.170714755859375L24.84655679664612,25.518224755859375L37.157856796646115,19.481724755859375L23.75215679664612,7.134124755859375L11.714456796646118,13.170714755859375Z" fill="#FFFFFF" fill-opacity="1"/></g></mask></defs><g><g><g transform="matrix(-1,0,0,1,109.6785659790039,0)" style="opacity:0.20000000298023224;"><path d="M79.17858298950196,22.85305404663086L103.51788298950196,35.25125404663086L79.17858298950196,47.64945404663086L54.83928298950196,35.25125404663086L79.17858298950196,22.85305404663086Z" fill="url(#master_svg0_1716_28329)" fill-opacity="1"/></g><g transform="matrix(-1,0,0,1,119,0)"><path d="M116.29249999999999,35.264187069702146Q116.29249999999999,35.12578706970215,116.25489999999999,34.99248706970215Q116.2173,34.85928706970215,116.1449,34.74118706970215Q116.0724,34.62318706970215,115.9707,34.52928706970215Q115.8689,34.435387069702145,115.74549999999999,34.37268706970215L88.953,20.758572069702147Q88.8477,20.705083069702148,88.7329,20.677582069702147Q88.6181,20.65008106970215,88.5,20.65008106970215Q88.3819,20.65008106970215,88.2671,20.677582069702147Q88.1523,20.705083069702148,88.047,20.758572069702147L61.25448,34.37268706970215Q61.13105,34.435387069702145,61.0293,34.52928706970215Q60.92755,34.62318706970215,60.85514,34.74118706970215Q60.78273,34.85928706970215,60.74511,34.99248706970215Q60.70749,35.12578706970215,60.70749,35.264187069702146Q60.70749,35.40268706970215,60.74511,35.53588706970215Q60.78273,35.66918706970215,60.85514,35.78718706970215Q60.92755,35.90518706970215,61.0293,35.99908706970215Q61.13105,36.09298706970215,61.25448,36.15568706970215L88.047,49.76978706970215Q88.1523,49.82328706970215,88.2671,49.85078706970215Q88.3819,49.878287069702154,88.5,49.878287069702154Q88.6181,49.878287069702154,88.7329,49.85078706970215Q88.8477,49.82328706970215,88.953,49.76978706970215L115.74549999999999,36.15568706970215Q115.8689,36.09298706970215,115.9707,35.99908706970215Q116.0724,35.90518706970215,116.1449,35.78718706970215Q116.2173,35.66918706970215,116.25489999999999,35.53588706970215Q116.29249999999999,35.40268706970215,116.29249999999999,35.264187069702146ZM88.7265,21.20432706970215L115.519,34.81848706970215Q115.79249999999999,34.95738706970215,115.79249999999999,35.264187069702146Q115.79249999999999,35.57098706970215,115.519,35.70998706970215L88.7265,49.324087069702145Q88.5,49.43918706970214,88.2735,49.324087069702145L61.48099,35.70998706970215Q61.20749,35.57098706970215,61.20749,35.264187069702146Q61.20749,34.95738706970215,61.48099,34.81848706970215L88.2735,21.20432706970215Q88.5,21.089234069702147,88.7265,21.20432706970215Z" fill-rule="evenodd" fill="url(#master_svg1_1716_28048)" fill-opacity="1"/></g><g transform="matrix(-1,0,0,1,119,0)" style="opacity:0.30000001192092896;"><path d="M61.25448,32.33228179626465C60.52516,32.70288179626465,60.52516,33.74468179626465,61.25448,34.11528179626465L87.594,47.49928179626465C88.1634,47.78858179626465,88.8366,47.78858179626465,89.406,47.49928179626465L115.74549999999999,34.11528179626465C116.4748,33.74468179626465,116.4748,32.70288179626465,115.74549999999999,32.33228179626465L89.406,18.948352796264647C88.8366,18.65904279626465,88.1634,18.65904279626465,87.594,18.948352796264647L61.25448,32.33228179626465ZM61.48099,32.77808179626465Q61.20749,32.91698179626465,61.20749,33.223781796264646Q61.20749,33.53058179626465,61.48099,33.66958179626465L87.8205,47.05348179626465Q88.5,47.39878179626464,89.1795,47.05348179626465L115.519,33.66958179626465Q115.79249999999999,33.53058179626465,115.79249999999999,33.223781796264646Q115.79249999999999,32.91698179626465,115.519,32.77808179626465L89.1795,19.394106796264648Q88.5,19.048828796264647,87.8205,19.394106796264648L61.48099,32.77808179626465Z" fill-rule="evenodd" fill="url(#master_svg2_1716_28048)" fill-opacity="1"/></g><g transform="matrix(-1,0,0,1,119,0)" style="opacity:0.20000000298023224;"><path d="M61.25448,30.265940872955323C60.52516,30.636540872955322,60.52516,31.678340872955324,61.25448,32.04894087295532L87.594,45.43294087295532C88.1634,45.722240872955325,88.8366,45.722240872955325,89.406,45.43294087295532L115.74549999999999,32.04894087295532C116.4748,31.678340872955324,116.4748,30.636540872955322,115.74549999999999,30.265940872955323L89.406,16.88201187295532C88.8366,16.592701872955324,88.1634,16.592701872955324,87.594,16.88201187295532L61.25448,30.265940872955323ZM61.48099,30.711740872955325Q61.20749,30.850640872955324,61.20749,31.15744087295532Q61.20749,31.464240872955322,61.48099,31.603240872955322L87.8205,44.98714087295532Q88.5,45.33244087295532,89.1795,44.98714087295532L115.519,31.603240872955322Q115.79249999999999,31.464240872955322,115.79249999999999,31.15744087295532Q115.79249999999999,30.850640872955324,115.519,30.711740872955325L89.1795,17.32776587295532Q88.5,16.98248787295532,87.8205,17.32776587295532L61.48099,30.711740872955325Z" fill-rule="evenodd" fill="url(#master_svg3_1716_28048)" fill-opacity="1"/></g><g transform="matrix(-1,0,0,1,119,0)" style="opacity:0.10000000149011612;"><path d="M61.25448,28.17358466796875C60.52516,28.54418466796875,60.52516,29.585984667968752,61.25448,29.956584667968748L87.594,43.34058466796875C88.1634,43.62988466796875,88.8366,43.62988466796875,89.406,43.34058466796875L115.74549999999999,29.956584667968748C116.4748,29.585984667968752,116.4748,28.54418466796875,115.74549999999999,28.17358466796875L89.406,14.78965566796875C88.8366,14.50034566796875,88.1634,14.50034566796875,87.594,14.78965566796875L61.25448,28.17358466796875ZM61.48099,28.619384667968752Q61.20749,28.758284667968752,61.20749,29.065084667968748Q61.20749,29.37188466796875,61.48099,29.51088466796875L87.8205,42.89478466796875Q88.5,43.240084667968745,89.1795,42.89478466796875L115.519,29.51088466796875Q115.79249999999999,29.37188466796875,115.79249999999999,29.065084667968748Q115.79249999999999,28.758284667968752,115.519,28.619384667968752L89.1795,15.23540966796875Q88.5,14.89013166796875,87.8205,15.23540966796875L61.48099,28.619384667968752Z" fill-rule="evenodd" fill="url(#master_svg4_1716_28048)" fill-opacity="1"/></g><g filter="url(#master_svg5_1814_29322)"><path d="M1.5,35.26256108793318L1.5,29.08966108793318L1.5083315,29.093861087933185L30.6,14.353605502933183L59.4074,29.04216108793318L59.5,28.994561087933185L59.5,35.35766108793318L59.4074,35.31006108793318L30.6,49.99866108793318L1.50833244,35.25836108793318L1.5,35.26256108793318ZM7.59146,32.17616108793318L30.6,43.83416108793318L53.304,32.17616108793318L30.6,20.518061087933184L7.59146,32.17616108793318Z" fill-rule="evenodd" fill="url(#master_svg6_1716_28053)" fill-opacity="1"/></g></g><g><g><g><path d="M23.752192497253418,6.58537L37.978592497253416,19.7561L51.11069249725342,13.1707L36.88429249725342,0L23.752192497253418,6.58537Z" fill="#343A53" fill-opacity="1"/><path d="M23.752192497253418,6.58537L23.908952497253416,6.73049L37.978592497253416,19.7561L50.91969249725342,13.2665L51.11069249725342,13.1707L50.95389249725342,13.0256L36.88429249725342,0L23.94315249725342,6.4896L23.752192497253418,6.58537ZM38.012792497253415,19.5152L24.099912497253417,6.63473L36.850092497253414,0.240889L50.76299249725342,13.1214L38.012792497253415,19.5152Z" fill-rule="evenodd" fill="url(#master_svg7_1716_27890)" fill-opacity="1"/></g><g><path d="M34.98062992095947,30.88307412109375L36.14062992095947,31.60977412109375L36.14062992095947,18.52985512109375L34.98062992095947,17.56097412109375L34.98062992095947,30.88307412109375Z" fill="#3C4157" fill-opacity="1"/></g><g><path d="M36.14062976837158,31.609706619262695L37.30062976837158,31.371306619262697L37.30062976837158,19.208671619262695L36.14062976837158,18.731706619262695L36.14062976837158,31.609706619262695Z" fill="#22273A" fill-opacity="1"/></g><g><path d="M24.846532106399536,6.585370500888825L37.97863210639954,18.932880500888825L50.28993210639953,12.896380500888824L36.88423210639954,0.5487805008888245L24.846532106399536,6.585370500888825Z" fill="#0092FF" fill-opacity="1"/></g><g><g mask="url(#master_svg8_1814_29336)"><g><path d="M24.96881187286377,7.65606333984375L25.39532987286377,8.051513339843751L27.08011687286377,9.61356333984375L40.32888687286377,3.1162933398437502L38.15438687286377,1.16828033984375L24.96881187286377,7.65606333984375ZM25.98140887286377,8.049423339843749L25.66728687286377,7.75818333984375L38.08868687286377,1.64642333984375L39.29878687286377,2.73047333984375L39.620086872863766,3.01837333984375L39.232686872863766,3.2083533398437503L27.150626872863768,9.13347333984375L25.98140887286377,8.049423339843749Z" fill-rule="evenodd" fill="#7DEBFF" fill-opacity="1"/></g><g><path d="M28.251793700302123,10.674380399475098L28.678361700302123,11.069840399475098L30.363145700302123,12.631750399475099L43.611705700302124,6.134590399475098L41.438605700302126,4.186436399475098L28.251793700302123,10.674380399475098ZM29.264448700302125,11.067740399475099L28.950305700302124,10.776500399475097L29.334674700302124,10.587390399475098L41.37280570030212,4.664620399475098L42.58190570030212,5.7485903994750975L42.90310570030212,6.036570399475098L42.515805700302124,6.226530399475098L30.433645700302122,12.151670399475098L29.264448700302125,11.067740399475099Z" fill-rule="evenodd" fill="#7DEBFF" fill-opacity="1"/></g><g><path d="M31.57028474055481,13.966463524017334L32.00642574055481,14.364513524017333L33.71317274055481,15.922213524017334L47.16667274055481,9.427623524017335L44.95967274055481,7.481349524017334L31.57028474055481,13.966463524017334ZM32.59421474055481,14.359423524017334L32.27607274055481,14.069063524017334L32.663718740554806,13.881313524017333L44.89457274055481,7.957303524017334L46.12487274055481,9.042213524017335L46.45037274055481,9.329253524017334L46.05957274055481,9.517923524017334L33.78296274055481,15.444353524017334L32.59421474055481,14.359423524017334Z" fill-rule="evenodd" fill="#7DEBFF" fill-opacity="1"/></g><g><path d="M34.67146885029602,17.18314642791748L35.10584685029602,17.57900642791748L36.81580585029602,19.137316427917483L50.49827585029602,12.443766427917481L48.29407585029602,10.49861742791748L34.67146885029602,17.18314642791748ZM35.69307785029602,17.57297642791748L35.37527585029602,17.283356427917482L35.76128085029602,17.09394642791748L48.23007585029602,10.97559642791748L49.46007585029602,12.061066427917481L49.78467585029602,12.34754642791748L49.39577585029602,12.53781642791748L36.88426585029602,18.65852642791748L35.69307785029602,17.57297642791748Z" fill-rule="evenodd" fill="#7DEBFF" fill-opacity="1"/></g><g><path d="M24.503900106399538,6.533431061401367L37.941932106399534,19.449391061401368L40.50993210639953,18.161691061401367L27.071902106399534,5.2456530614013674L24.503900106399538,6.533431061401367ZM24.999502106399536,6.732381061401368L24.846532106399536,6.585351061401367L25.036193106399537,6.490241061401367L27.035212106399538,5.487791061401367L40.014332106399536,17.962691061401365L40.167332106399535,18.109791061401367L39.97763210639954,18.20489106140137L37.97863210639954,19.207291061401367L24.999502106399536,6.732381061401368Z" fill-rule="evenodd" fill="#7DEBFF" fill-opacity="1"/></g><g><path d="M28.88125854298401,4.338309534683227L42.31929054298401,17.254269534683228L44.887290542984005,15.966569534683227L31.449260542984007,3.0505315346832274L28.88125854298401,4.338309534683227ZM29.37686054298401,4.537259534683228L29.22389054298401,4.390229534683227L29.41355154298401,4.295119534683227L31.41257054298401,3.2926695346832275L44.39169054298401,15.767569534683227L44.54469054298401,15.914669534683227L44.35499054298401,16.00976953468323L42.35599054298401,17.012169534683228L29.37686054298401,4.537259534683228Z" fill-rule="evenodd" fill="#7DEBFF" fill-opacity="1"/></g><g><path d="M33.25861697956848,2.143187590732574L46.69664897956848,15.059147590732575L49.26464897956848,13.771447590732574L35.82661897956848,0.8554095907325745L33.25861697956848,2.143187590732574ZM33.754218979568485,2.3421375907325745L33.60124897956848,2.1951075907325746L33.79090997956848,2.0999975907325745L35.78992897956848,1.0975475907325745L48.76904897956848,13.572447590732574L48.92204897956848,13.719547590732574L48.732348979568485,13.814647590732575L46.73334897956848,14.817047590732574L33.754218979568485,2.3421375907325745Z" fill-rule="evenodd" fill="#7DEBFF" fill-opacity="1"/></g></g></g><g><path d="M23.752192497253418,6.5853657722473145L23.752192497253418,7.408536772247315L37.978592497253416,21.128065772247314L37.978592497253416,19.756065772247315L23.752192497253418,6.5853657722473145Z" fill="#475076" fill-opacity="1"/></g><g><path d="M37.97860908508301,19.75610154449463L37.97860908508301,21.128051544494628L51.11070908508301,14.542681544494629L51.11070908508301,13.170731544494629L37.97860908508301,19.75610154449463Z" fill="#2C3146" fill-opacity="1"/></g></g><g><g><path d="M10.6201171875,13.170727666015626L24.846517187499998,26.341457666015625L37.9786171875,19.756057666015625L23.7522171875,6.585357666015625L10.6201171875,13.170727666015626Z" fill="#343A53" fill-opacity="1"/><path d="M10.6201171875,13.170727666015626L10.7768771875,13.315847666015625L24.846517187499998,26.341457666015625L37.787617187500004,19.851857666015626L37.9786171875,19.756057666015625L37.8218171875,19.610957666015626L23.7522171875,6.585357666015625L10.8110771875,13.074957666015624L10.6201171875,13.170727666015626ZM24.8807171875,26.100557666015625L10.9678371875,13.220087666015626L23.7180171875,6.826246666015625L37.6309171875,19.706757666015626L24.8807171875,26.100557666015625Z" fill-rule="evenodd" fill="url(#master_svg9_1716_27890)" fill-opacity="1"/></g><g><path d="M22.22011661529541,34.57694766601563L23.38011661529541,35.121957666015625L23.38011661529541,25.312018666015625L22.22011661529541,24.585357666015625L22.22011661529541,34.57694766601563Z" fill="#3C4157" fill-opacity="1"/></g><g><path d="M23.38011646270752,35.12193825683594L24.54011646270752,34.94849825683594L24.54011646270752,26.102972256835937L23.38011646270752,25.756088256835938L23.38011646270752,35.12193825683594Z" fill="#22273A" fill-opacity="1"/></g><g><path d="M11.714456796646118,13.17072816690445L24.84655679664612,25.51823816690445L37.157856796646115,19.48173816690445L23.75215679664612,7.1341381669044495L11.714456796646118,13.17072816690445Z" fill="#0092FF" fill-opacity="1"/></g><g><g mask="url(#master_svga_1814_29353)"><g><path d="M11.836736563110351,14.241421005859376L12.263254563110351,14.636871005859376L13.948041563110351,16.198921005859376L27.19681156311035,9.701651005859375L25.02231156311035,7.753638005859375L11.836736563110351,14.241421005859376ZM12.849333563110351,14.634781005859374L12.535211563110352,14.343541005859375L24.95661156311035,8.231781005859375L26.166711563110354,9.315831005859375L26.48801156311035,9.603731005859375L26.100611563110352,9.793711005859375L14.018551563110352,15.718831005859375L12.849333563110351,14.634781005859374Z" fill-rule="evenodd" fill="#7DEBFF" fill-opacity="1"/></g><g><path d="M15.119718390548705,17.259738065490723L15.546286390548707,17.655198065490723L17.231070390548705,19.217108065490724L30.479630390548706,12.719948065490723L28.30653039054871,10.771794065490722L15.119718390548705,17.259738065490723ZM16.132373390548707,17.653098065490724L15.818230390548706,17.361858065490722L16.202599390548706,17.172748065490723L28.240730390548705,11.249978065490723L29.449830390548705,12.333948065490723L29.771030390548706,12.621928065490723L29.383730390548706,12.811888065490722L17.301570390548704,18.737028065490723L16.132373390548707,17.653098065490724Z" fill-rule="evenodd" fill="#7DEBFF" fill-opacity="1"/></g><g><path d="M18.438209430801393,20.55182119003296L18.874350430801393,20.949871190032958L20.581097430801393,22.50757119003296L34.03459743080139,16.01298119003296L31.82759743080139,14.06670719003296L18.438209430801393,20.55182119003296ZM19.462139430801393,20.94478119003296L19.14399743080139,20.65442119003296L19.53164343080139,20.466671190032958L31.76249743080139,14.542661190032959L32.99279743080139,15.62757119003296L33.318297430801394,15.914611190032959L32.927497430801395,16.10328119003296L20.65088743080139,22.02971119003296L19.462139430801393,20.94478119003296Z" fill-rule="evenodd" fill="#7DEBFF" fill-opacity="1"/></g><g><path d="M21.5393935405426,23.768504093933107L21.973771540542604,24.164364093933106L23.6837305405426,25.722674093933108L37.3662005405426,19.029124093933106L35.1620005405426,17.083975093933105L21.5393935405426,23.768504093933107ZM22.561002540542603,24.158334093933107L22.243200540542603,23.868714093933107L22.629205540542603,23.679304093933105L35.0980005405426,17.560954093933105L36.328000540542604,18.646424093933106L36.6526005405426,18.932904093933104L36.2637005405426,19.123174093933105L23.752190540542603,25.243884093933104L22.561002540542603,24.158334093933107Z" fill-rule="evenodd" fill="#7DEBFF" fill-opacity="1"/></g><g><path d="M11.371824796646118,13.118788727416993L24.809856796646116,26.034748727416993L27.377856796646117,24.747048727416992L13.939826796646118,11.831010727416992L11.371824796646118,13.118788727416993ZM11.867426796646118,13.317738727416993L11.714456796646118,13.170708727416992L11.904117796646117,13.075598727416992L13.903136796646118,12.073148727416992L26.882256796646118,24.54804872741699L27.035256796646117,24.695148727416992L26.845556796646118,24.790248727416994L24.84655679664612,25.792648727416992L11.867426796646118,13.317738727416993Z" fill-rule="evenodd" fill="#7DEBFF" fill-opacity="1"/></g><g><path d="M15.74918323323059,10.923667200698853L29.18721523323059,23.839627200698853L31.75521523323059,22.551927200698852L18.31718523323059,9.635889200698852L15.74918323323059,10.923667200698853ZM16.24478523323059,11.122617200698853L16.09181523323059,10.975587200698852L16.281476233230592,10.880477200698852L18.280495233230592,9.878027200698853L31.25961523323059,22.35292720069885L31.41261523323059,22.500027200698852L31.22291523323059,22.595127200698855L29.223915233230592,23.597527200698853L16.24478523323059,11.122617200698853Z" fill-rule="evenodd" fill="#7DEBFF" fill-opacity="1"/></g><g><path d="M20.126541669815065,8.7285452567482L33.56457366981506,21.6445052567482L36.13257366981506,20.3568052567482L22.69454366981506,7.4407672567482L20.126541669815065,8.7285452567482ZM20.622143669815063,8.9274952567482L20.469173669815063,8.780465256748199L20.658834669815064,8.685355256748199L22.657853669815065,7.6829052567481995L35.63697366981506,20.157805256748198L35.78997366981506,20.3049052567482L35.60027366981507,20.4000052567482L33.601273669815065,21.4024052567482L20.622143669815063,8.9274952567482Z" fill-rule="evenodd" fill="#7DEBFF" fill-opacity="1"/></g></g></g><g><path d="M10.6201171875,13.17072343826294L10.6201171875,13.99389443826294L24.846517187499998,27.71342343826294L24.846517187499998,26.34142343826294L10.6201171875,13.17072343826294Z" fill="#475076" fill-opacity="1"/></g><g><path d="M24.84653377532959,26.341459210510255L24.84653377532959,27.713409210510253L37.97863377532959,21.128039210510252L37.97863377532959,19.756089210510254L24.84653377532959,26.341459210510255Z" fill="#2C3146" fill-opacity="1"/></g></g></g></g></svg>