<svg xmlns="http://www.w3.org/2000/svg" xmlns:xlink="http://www.w3.org/1999/xlink" fill="none" version="1.1" width="33" height="80.75" viewBox="0 0 33 80.75"><defs><linearGradient x1="2.25" y1="1.0120482444763184" x2="1" y2="0" id="master_svg0_1723_30247"><stop offset="0%" stop-color="#73FFFB" stop-opacity="0"/><stop offset="100%" stop-color="#0ABAB5" stop-opacity="1"/></linearGradient><filter id="master_svg1_1861_34892" filterUnits="objectBoundingBox" color-interpolation-filters="sRGB" x="0" y="0" width="1" height="1"><feFlood flood-opacity="0" result="BackgroundImageFix"/><feBlend mode="normal" in="SourceGraphic" in2="BackgroundImageFix" result="shape"/><feColorMatrix in="SourceAlpha" type="matrix" result="hardAlpha" values="0 0 0 0 0 0 0 0 0 0 0 0 0 0 0 0 0 0 127 0"/><feOffset dy="0" dx="0"/><feGaussianBlur stdDeviation="2.5"/><feComposite in2="hardAlpha" operator="arithmetic" k2="-1" k3="1"/><feColorMatrix type="matrix" values="0 0 0 0 1 0 0 0 0 1 0 0 0 0 1 0 0 0 0.5 0"/><feBlend mode="normal" in2="shape" result="effect1_innerShadow"/></filter><linearGradient x1="-0.016129031777381897" y1="1.0161290168762207" x2="1.0161290168762207" y2="1.0161290168762207" id="master_svg2_1723_30475"><stop offset="0%" stop-color="#7AFFFB" stop-opacity="1"/><stop offset="97.85714149475098%" stop-color="#0ABAB5" stop-opacity="1"/></linearGradient><clipPath id="master_svg3_1861_34894"><rect x="8.5" y="8.5" width="16" height="16" rx="0"/></clipPath><linearGradient x1="0" y1="0" x2="0" y2="1" id="master_svg4_1861_35165"><stop offset="0%" stop-color="#FFFFFF" stop-opacity="1"/><stop offset="100%" stop-color="#58FFFA" stop-opacity="1"/></linearGradient></defs><g><g><ellipse cx="16.5" cy="75.5" rx="4" ry="2" fill="#0ABAB5" fill-opacity="1"/></g><g style="opacity:0.5;"><ellipse cx="16.5" cy="75.5" rx="12" ry="5" fill-opacity="0" stroke-opacity="0.5" stroke="#0ABAB5" fill="none" stroke-width="0.5"/></g><g><ellipse cx="16.5" cy="75.5" rx="8" ry="3" fill-opacity="0" stroke-opacity="1" stroke="#41FFFA" fill="none" stroke-width="0.5"/></g><g><path d="M15.999998,31.999998L16,32.5L16,73.5L15.999998,74L17.000002,74L17,73.5L17,32.5L17.000002,31.999998L15.999998,31.999998Z" fill-rule="evenodd" fill="url(#master_svg0_1723_30247)" fill-opacity="1"/></g><g filter="url(#master_svg1_1861_34892)"><ellipse cx="16.5" cy="16.5" rx="16" ry="16" fill="#0ABAB5" fill-opacity="0.5"/></g><g><ellipse cx="16.5" cy="16.5" rx="16" ry="16" fill="#FFFFFF" fill-opacity="0.009999999776482582"/><ellipse cx="16.5" cy="16.5" rx="16" ry="16" stroke="url(#master_svg2_1723_30475)" fill-opacity="0" fill="none" stroke-width="1" stroke-linecap="ROUND"/></g><g clip-path="url(#master_svg3_1861_34894)"><g><g><path d="M9.5,21.5L9.5,15.75L10,15.75Q10.073869,15.75,10.146318,15.73559Q10.218767,15.72118,10.287013,15.692910000000001Q10.355258,15.66464,10.416678,15.6236Q10.478097,15.58256,10.53033,15.53033Q10.58256,15.478100000000001,10.6236,15.41668Q10.66464,15.355260000000001,10.69291,15.28701Q10.72118,15.21877,10.73559,15.14632Q10.75,15.07387,10.75,15Q10.75,14.92613,10.73559,14.85368Q10.72118,14.78123,10.69291,14.71299Q10.66464,14.644739999999999,10.6236,14.58332Q10.58256,14.521899999999999,10.53033,14.46967Q10.478097,14.41744,10.416678,14.3764Q10.355258,14.33536,10.287013,14.307089999999999Q10.218767,14.27882,10.146318,14.26441Q10.073869,14.25,10,14.25L9.5,14.25L9.5,11.5Q9.5,11.40175,9.50963055,11.30397Q9.5192611,11.20619,9.5384294,11.10982Q9.5575978,11.01345,9.5861193,10.91943Q9.614641,10.82541,9.652241,10.73463Q9.689841,10.64386,9.736157,10.55721Q9.782474,10.470554,9.837061,10.388859Q9.891648,10.307164,9.953979,10.231213Q10.016311,10.155262,10.085786,10.085786Q10.155262,10.016311,10.231213,9.953979Q10.307164,9.891648,10.388859,9.837061Q10.470554,9.782474,10.55721,9.736157Q10.64386,9.689841,10.73463,9.652241Q10.82541,9.614641,10.91943,9.5861193Q11.01345,9.5575978,11.10982,9.5384294Q11.20619,9.5192611,11.30397,9.50963055Q11.40175,9.5,11.5,9.5L16.5,9.5Q16.59825,9.5,16.69603,9.50963055Q16.79381,9.5192611,16.89018,9.5384294Q16.98655,9.5575978,17.08057,9.5861193Q17.174590000000002,9.614641,17.26537,9.652241Q17.35614,9.689841,17.44279,9.736157Q17.52944,9.782474,17.61114,9.837061Q17.69283,9.891648,17.76879,9.953979Q17.84474,10.016311,17.91421,10.085786Q17.98369,10.155262,18.04602,10.231213Q18.10835,10.307164,18.16294,10.388859Q18.21753,10.470554,18.263840000000002,10.55721Q18.31016,10.64386,18.34776,10.73463Q18.38536,10.82541,18.41388,10.91943Q18.4424,11.01345,18.461570000000002,11.10982Q18.48074,11.20619,18.49037,11.30397Q18.5,11.40175,18.5,11.5L18.5,14.25L18,14.25Q17.92613,14.25,17.85368,14.26441Q17.78123,14.27882,17.712989999999998,14.307089999999999Q17.64474,14.33536,17.58332,14.3764Q17.521900000000002,14.41744,17.46967,14.46967Q17.41744,14.521899999999999,17.3764,14.58332Q17.33536,14.644739999999999,17.30709,14.71299Q17.27882,14.78123,17.264409999999998,14.85368Q17.25,14.92613,17.25,15Q17.25,15.07387,17.264409999999998,15.14632Q17.27882,15.21877,17.30709,15.28701Q17.33536,15.355260000000001,17.3764,15.41668Q17.41744,15.478100000000001,17.46967,15.53033Q17.521900000000002,15.58256,17.58332,15.6236Q17.64474,15.66464,17.712989999999998,15.692910000000001Q17.78123,15.72118,17.85368,15.73559Q17.92613,15.75,18,15.75L18.5,15.75L18.5,20.25L20.5,20.25Q20.75,20.25,20.75,20L20.75,14.35462C20.017,14.057929999999999,19.5,13.33934,19.5,12.5L19.5,11Q19.5,10.92613,19.514400000000002,10.85368Q19.5288,10.78123,19.5571,10.71299Q19.5854,10.64474,19.6264,10.58332Q19.6674,10.5219,19.7197,10.46967Q19.771900000000002,10.417437,19.8333,10.376398Q19.8947,10.335359,19.963,10.30709Q20.0312,10.278822,20.1037,10.264410999999999Q20.176099999999998,10.25,20.25,10.25Q20.323900000000002,10.25,20.3963,10.264410999999999Q20.4688,10.278822,20.537,10.30709Q20.6053,10.335359,20.6667,10.376398Q20.728099999999998,10.417437,20.7803,10.46967Q20.8326,10.5219,20.8736,10.58332Q20.9146,10.64474,20.9429,10.71299Q20.9712,10.78123,20.985599999999998,10.85368Q21,10.92613,21,11L21,11.5L22,11.5L22,11Q22,10.92613,22.014400000000002,10.85368Q22.0288,10.78123,22.0571,10.71299Q22.0854,10.64474,22.1264,10.58332Q22.1674,10.5219,22.2197,10.46967Q22.271900000000002,10.417437,22.3333,10.376398Q22.3947,10.335359,22.463,10.30709Q22.5312,10.278822,22.6037,10.264410999999999Q22.676099999999998,10.25,22.75,10.25Q22.823900000000002,10.25,22.8963,10.264410999999999Q22.9688,10.278822,23.037,10.30709Q23.1053,10.335359,23.1667,10.376398Q23.228099999999998,10.417437,23.2803,10.46967Q23.3326,10.5219,23.3736,10.58332Q23.4146,10.64474,23.4429,10.71299Q23.4712,10.78123,23.485599999999998,10.85368Q23.5,10.92613,23.5,11L23.5,12.5C23.5,13.33934,22.983,14.057929999999999,22.25,14.35462L22.25,20Q22.25,20.724899999999998,21.7374,21.2374Q21.224899999999998,21.75,20.5,21.75L18.48431,21.75Q18.473010000000002,21.8397,18.453670000000002,21.928Q18.43432,22.0163,18.40709,22.1025Q18.379849999999998,22.1887,18.34495,22.272100000000002Q18.31005,22.3555,18.26777,22.4354Q18.225479999999997,22.5153,18.17617,22.5911Q18.126849999999997,22.6669,18.07089,22.7379Q18.01494,22.8089,17.95281,22.874499999999998Q17.89068,22.9402,17.822879999999998,23Q17.75507,23.0598,17.68215,23.1132Q17.60923,23.1667,17.53179,23.2133Q17.454340000000002,23.259900000000002,17.37301,23.2994Q17.29167,23.338900000000002,17.20711,23.3708Q17.12254,23.4028,17.03544,23.427Q16.94834,23.4512,16.8594,23.467399999999998Q16.77047,23.4837,16.68044,23.491799999999998Q16.5904,23.5,16.5,23.5L11.5,23.5Q11.40175,23.5,11.30397,23.4904Q11.20619,23.4807,11.10982,23.4616Q11.01345,23.4424,10.91943,23.413899999999998Q10.82541,23.3854,10.73463,23.3478Q10.64386,23.310200000000002,10.55721,23.2638Q10.470554,23.2175,10.388859,23.1629Q10.307164,23.1084,10.231213,23.046Q10.155262,22.9837,10.085786,22.9142Q10.016311,22.8447,9.953979,22.7688Q9.891648,22.6928,9.837061,22.6111Q9.782474,22.529400000000003,9.736157,22.4428Q9.689841,22.356099999999998,9.652241,22.2654Q9.614641,22.174599999999998,9.5861193,22.0806Q9.5575978,21.9865,9.5384294,21.8902Q9.5192611,21.793799999999997,9.50963055,21.695999999999998Q9.5,21.598300000000002,9.5,21.5ZM12.41358,15.1236C11.89581,15.62332,12.249559999999999,16.49922,12.96914,16.49922L13.49915,16.49922L13.10225,17.43507C12.888,17.940269999999998,13.5262,18.37178,13.91522,17.98475L15.61415,16.29447C16.12011,15.79109,15.76362,14.927340000000001,15.04991,14.927340000000001L14.61633,14.927340000000001L15.00766,13.948509999999999C15.20767,13.44824,14.583829999999999,13.02898,14.196159999999999,13.40313L12.41358,15.1236Z" fill-rule="evenodd" fill="url(#master_svg4_1861_35165)" fill-opacity="1"/></g></g></g></g></svg>