<svg xmlns="http://www.w3.org/2000/svg" xmlns:xlink="http://www.w3.org/1999/xlink" fill="none" version="1.1" width="16" height="16" viewBox="0 0 16 16"><defs><clipPath id="master_svg0_1814_29896"><rect x="0" y="0" width="16" height="16" rx="0"/></clipPath></defs><g clip-path="url(#master_svg0_1814_29896)"><g><g><path d="M0.0513805,13.951L0.639131,1.951079C0.665219,1.41845,1.10467,1,1.63793,1L5.21899,1C5.75235,1,6.19183,1.418586,6.2178,1.951311L6.39886,5.6655L13.9722,5.66654C14.4775,5.66661,14.9033,6.04352,14.9647,6.545L15.8626,13.8781C15.9356,14.4742,15.4703,14.9998,14.8697,14.9996L12.5714,14.9988L1.05028,14.9999C0.478744,15,0.0234206,14.5218,0.0513805,13.951M13.3429,7.41667L6.48457,7.4155L6.77143,13.2488L10.6286,13.2488L10.128,9.16667L11.8571,9.16667L12.3566,13.2488L14.0583,13.25L13.3429,7.41667Z" fill="#FFFFFF" fill-opacity="1"/></g><g><path d="M9.122926249999999,2.164978587C9.67149625,2.164978587,10.02578625,2.3131455,10.430356249999999,2.6316455L10.63607625,2.8043115C10.83035625,2.9711445,10.88064625,2.9968114999999997,10.99607625,2.9968114999999997C11.32521625,2.9968114999999997,11.63607625,2.8276455,11.962926249999999,2.4333115C12.22790625,2.1129468,12.69721625,2.0727376,13.01079625,2.3435325C13.32437625,2.6143264999999998,13.36333625,3.0934415,13.09778625,3.4133125C12.50578625,4.1273125,11.79492625,4.5134825,10.99607625,4.5134825C10.51949625,4.5134825,10.20407625,4.380482499999999,9.83949625,4.0958125L9.62692625,3.9184825C9.39607625,3.7201424999999997,9.31835625,3.6816424999999997,9.12407625,3.6816424999999997C8.80064625,3.6816424999999997,8.60749625,3.7738125,8.46807625,3.9931425000000003L8.41092625,4.0958125C8.22642625,4.4697825,7.77999425,4.6204325,7.41349625,4.4324025C7.04699845,4.2443725,6.89904325,3.7887725000000003,7.08292895,3.4144825C7.48407125,2.5978115,8.20292625,2.164978587,9.122926249999999,2.164978587Z" fill="#FFFFFF" fill-opacity="1"/></g></g></g></svg>