<svg xmlns="http://www.w3.org/2000/svg" xmlns:xlink="http://www.w3.org/1999/xlink" fill="none" version="1.1" width="16" height="16" viewBox="0 0 16 16"><g><g style="opacity:0;"><rect x="0" y="0" width="16" height="16" rx="0" fill="#000000" fill-opacity="1"/></g><g><ellipse cx="8" cy="8" rx="8" ry="8" fill="#AEAEAE" fill-opacity="1"/></g><g><g><path d="M8.0000180078125,3.555555582046509C9.963568007812501,3.555555582046509,11.5555680078125,5.047995582046509,11.5555680078125,6.888885582046509C11.5555680078125,8.077335582046508,10.8920180078125,9.120885582046508,9.893348007812499,9.71111558204651C9.9120380078125,9.960635582046509,9.820608007812499,10.205845582046509,9.6431280078125,10.382225582046509C9.463568007812501,10.563555582046508,9.2120180078125,10.666665582046509,8.9480180078125,10.666665582046509L7.052018007812499,10.666665582046509C6.7880180078125,10.666665582046509,6.536018007812499,10.563555582046508,6.3564580078125,10.382225582046509C6.1787980078124995,10.20577558204651,6.0873480078124995,9.960345582046509,6.1062380078125,9.71066558204651C5.1080140078125,9.120885582046508,4.4444580078125,8.077335582046508,4.4444580078125,6.888885582046509C4.4444580078125,5.047995582046509,6.0364580078125005,3.555555582046509,8.0000180078125,3.555555582046509ZM8.3233180078125,4.665135582046509C8.2081380078125,4.661035582046509,8.0992180078125,4.717525582046509,8.036208007812501,4.814025582046509C7.9763780078124995,4.907975582046509,7.9763780078124995,5.028085582046509,8.036208007812501,5.122025582046509C8.0991080078125,5.218705582046509,8.2080580078125,5.275375582046509,8.3233180078125,5.271365582046509C9.0970980078125,5.271365582046509,9.7242080078125,5.859365582046509,9.7242080078125,6.584695582046509C9.7210980078125,6.694475582046509,9.781988007812501,6.798025582046509,9.8833180078125,6.853585582046509C9.9856480078125,6.909555582046509,10.1094380078125,6.909555582046509,10.2117680078125,6.853585582046509C10.3108780078125,6.800785582046508,10.372128007812499,6.696975582046509,10.3704280078125,6.584695582046509C10.3704280078125,6.0753655820465085,10.1548780078125,5.587365582046509,9.7713180078125,5.227365582046509C9.3772580078125,4.863355582046509,8.8597680078125,4.662425582046509,8.3233180078125,4.665135582046509ZM9.067138007812499,10.887585582046508C9.2635780078125,10.887585582046508,9.4226880078125,11.036915582046507,9.4226880078125,11.220915582046509C9.4226880078125,11.40491558204651,9.2635780078125,11.554255582046508,9.067138007812499,11.554255582046508L6.9337980078125,11.554255582046508C6.7373580078124995,11.554255582046508,6.578248007812499,11.40491558204651,6.578248007812499,11.220915582046509C6.578248007812499,11.036915582046507,6.7373580078124995,10.887585582046508,6.9337980078125,10.887585582046508L9.067138007812499,10.887585582046508ZM8.7467680078125,11.778685582046508C8.844548007812499,11.778685582046508,8.9321080078125,11.834685582046509,8.9676580078125,11.920465582046509C9.0032180078125,12.00579558204651,8.9792180078125,12.102685582046508,8.9072180078125,12.164905582046508C8.6889980078125,12.35157558204651,8.386768007812499,12.445355582046508,8.0001080078125,12.445355582046508C7.6134380078124995,12.445355582046508,7.3112180078125,12.352025582046508,7.0934380078125,12.164905582046508C7.0220680078125,12.105385582046509,6.9974380078125,12.006515582046509,7.032548007812499,11.920465582046509C7.0708980078125006,11.832765582046509,7.1581780078125,11.77667558204651,7.253878007812499,11.778245582046509L8.7472180078125,11.778245582046509L8.7467680078125,11.778685582046508Z" fill-rule="evenodd" fill="#FFFFFF" fill-opacity="1"/></g></g></g></svg>