<svg xmlns="http://www.w3.org/2000/svg" xmlns:xlink="http://www.w3.org/1999/xlink" fill="none" version="1.1" width="36" height="36" viewBox="0 0 36 36"><defs><linearGradient x1="0.27025672793388367" y1="0.22605235874652863" x2="1" y2="1.1018526554107666" id="master_svg0_1627_14674"><stop offset="0%" stop-color="#40DDFB" stop-opacity="1"/><stop offset="100%" stop-color="#0789C2" stop-opacity="1"/></linearGradient></defs><g><g><g><g><path d="M8,0L28,0C32.4183,-8.11624e-16,36,3.58172,36,8L36,28C36,32.4183,32.4183,36,28,36L8,36C3.58172,36,2.70542e-16,32.4183,0,28L0,8C-5.41083e-16,3.58172,3.58172,5.41083e-16,8,0Z" fill-rule="evenodd" fill="url(#master_svg0_1627_14674)" fill-opacity="1" style="mix-blend-mode:passthrough"/></g><g><g><path d="M19.755000466918943,27.04020015563965C19.984900466918944,27.04020015563965,20.190700466918948,27.171800155639648,20.274200466918945,27.373400155639647C20.357800466918945,27.57400015563965,20.301400466918945,27.801700155639647,20.132200466918945,27.948000155639647C19.619240466918946,28.386700155639648,18.908880466918944,28.60720015563965,18.000040466918946,28.60720015563965C17.091200466918945,28.60720015563965,16.380850466918943,28.38780015563965,15.868970466918945,27.948000155639647C15.701210466918944,27.80810015563965,15.643320466918945,27.575700155639648,15.725860466918945,27.373400155639647C15.815990466918946,27.167300155639648,16.021130466918947,27.03550015563965,16.246090466918943,27.039100155639648L19.756100466918944,27.039100155639648L19.755000466918943,27.04020015563965ZM20.507200466918945,24.950900155639648C20.968900466918946,24.950900155639648,21.342900466918945,25.301900155639647,21.342900466918945,25.734400155639648C21.342900466918945,26.16690015563965,20.968900466918946,26.517900155639648,20.507200466918945,26.517900155639648L15.492900466918945,26.517900155639648C15.031170466918946,26.517900155639648,14.657190466918944,26.16690015563965,14.657190466918944,25.734400155639648C14.657190466918944,25.301900155639647,15.031170466918946,24.950900155639648,15.492900466918945,24.950900155639648L20.507200466918945,24.950900155639648ZM18.000040466918946,7.714300155639648C22.615300466918946,7.714300155639648,26.357200466918947,11.222210155639647,26.357200466918947,15.549120155639649C26.357200466918947,18.342500155639648,24.797500466918947,20.795300155639648,22.450200466918943,22.182600155639648C22.494200466918947,22.76910015563965,22.279300466918947,23.34540015563965,21.862100466918946,23.76000015563965C21.440100466918945,24.18620015563965,20.848800466918945,24.42860015563965,20.228300466918945,24.42860015563965L15.771820466918946,24.42860015563965C15.151300466918945,24.42860015563965,14.558990466918946,24.18620015563965,14.136950466918945,23.76000015563965C13.719370466918946,23.34530015563965,13.504440466918945,22.768400155639647,13.548820466918945,22.18160015563965C11.202550466918945,20.795300155639648,9.642900466918945,18.342500155639648,9.642900466918945,15.549120155639649C9.642900466918945,11.222210155639647,13.384810466918946,7.714300155639648,18.000040466918946,7.714300155639648ZM18.759500466918944,10.325910155639649C18.488770466918943,10.316260155639648,18.232750466918944,10.449030155639647,18.084660466918947,10.675860155639649C17.944020466918943,10.896680155639649,17.944020466918943,11.178980155639648,18.084660466918947,11.39980015563965C18.232500466918946,11.627040155639648,18.488570466918944,11.760220155639647,18.759500466918944,11.750800155639649C20.578200466918943,11.750800155639649,22.052200466918947,13.132860155639648,22.052200466918947,14.837720155639648C22.044900466918946,15.09575015563965,22.188000466918943,15.339150155639649,22.426200466918946,15.469730155639649C22.666700466918947,15.60128015563965,22.957700466918944,15.60128015563965,23.198200466918948,15.469730155639649C23.431100466918945,15.345620155639647,23.575100466918947,15.101640155639648,23.571100466918946,14.837720155639648C23.571100466918946,13.640560155639648,23.064500466918943,12.493540155639648,22.162900466918945,11.647380155639649C21.236700466918947,10.791810155639649,20.020400466918943,10.319530155639649,18.759500466918944,10.325910155639649Z" fill="#FFFFFF" fill-opacity="1" style="mix-blend-mode:passthrough"/></g></g></g></g></g></svg>