<svg xmlns="http://www.w3.org/2000/svg" xmlns:xlink="http://www.w3.org/1999/xlink" fill="none" version="1.1" width="22" height="22" viewBox="0 0 22 22"><defs><clipPath id="master_svg0_1650_21320"><rect x="0" y="0" width="22" height="22" rx="0"/></clipPath></defs><g clip-path="url(#master_svg0_1650_21320)"><g><g><path d="M5.90384,4.71429C6.21657,4.71429,6.47008,4.97012,6.47008,5.28571L6.47008,9.85714L6.46711,9.9L10.80767,12.4286L10.80767,18.1429L5.90384,21L1,18.1429L1,12.4286L5.33919,9.90047L5.33799,9.87891L5.33759,5.28571C5.33759,4.97012,5.59111,4.71429,5.90384,4.71429ZM5.90384,10.89086L2.1320699999999997,13.0886L2.1320699999999997,17.4823L5.90384,19.68L9.67504,17.4823L9.67504,13.0886L5.90384,10.89086ZM16.0962,1L21,3.85714L21,9.57143L16.6614,12.0982C16.662399999999998,12.1124,16.6625,12.1284,16.6625,12.1429L16.6625,16.7143C16.6625,17.0299,16.4089,17.2857,16.0962,17.2857C15.7835,17.2857,15.53,17.0299,15.53,16.7143L15.53,12.1429L15.5322,12.0982L11.1924,9.57143L11.1924,3.85714L16.0962,1ZM16.0962,2.3214300000000003L12.3249,4.517860000000001L12.3249,8.91071L16.0962,11.1071L19.8675,8.91071L19.8675,4.517860000000001L16.0962,2.3214300000000003Z" fill="#FFFFFF" fill-opacity="1" style="mix-blend-mode:passthrough"/></g><g><path d="M6.33103,15.6625L5.2255,15.6625C5.1106300000000005,15.8929,4.93175,16.1006,4.57164,16.1006C4.3729700000000005,16.1006,4.23909,16.0258,4.17856,15.9278C4.10366,15.8067,4.0648599999999995,15.6625,4.21736,14.9129C4.36947,14.1636,4.46726,14.0194,4.59105,13.89828C4.69194,13.8003,4.85608,13.72545,5.05476,13.72545C5.41486,13.72545,5.50915,13.93277,5.5305,14.1636L6.63564,14.1636C6.65854,13.25834,6.0698799999999995,12.82609,5.2317,12.82609C4.71638,12.82609,4.2926400000000005,12.98754,3.908478,13.28733C3.3547409999999998,13.71958,3.2561780000000002,14.2964,3.130452,14.9129C3.00511435,15.53,2.869299,16.1065,3.246865,16.538800000000002C3.508794,16.8385,3.866957,17,4.38228,17C5.22045,17,5.9849,16.567700000000002,6.33103,15.6625ZM16.694699999999997,6.8369599999999995L15.5889,6.8369599999999995C15.474,7.0674,15.2949,7.2730999999999995,14.9348,7.2730999999999995C14.7361,7.2730999999999995,14.6022,7.199870000000001,14.5417,7.1019000000000005C14.4668,6.98081,14.4286,6.83661,14.5811,6.0869599999999995C14.7332,5.33767,14.8301,5.1931,14.9539,5.07201C15.0548,4.974034,15.2197,4.900818,15.4184,4.900818C15.7785,4.900818,15.8722,5.10616,15.8936,5.3369599999999995L16.999299999999998,5.3369599999999995C17.022199999999998,4.431725,16.4334,4,15.5953,4C15.08,4,14.6563,4.160814,14.2722,4.460602C13.7184,4.892854,13.6191,5.4704999999999995,13.4934,6.0869599999999995C13.3681,6.70415,13.233,7.28107,13.6106,7.7133199999999995C13.8725,8.013110000000001,14.2309,8.173919999999999,14.7462,8.173919999999999C15.5844,8.173919999999999,16.348599999999998,7.74219,16.694699999999997,6.8369599999999995Z" fill="#0092FF" fill-opacity="1"/></g></g></g></svg>