<svg xmlns="http://www.w3.org/2000/svg" xmlns:xlink="http://www.w3.org/1999/xlink" fill="none" version="1.1" width="22" height="22" viewBox="0 0 22 22"><defs><clipPath id="master_svg0_1650_21321"><rect x="0" y="0" width="22" height="22" rx="0"/></clipPath></defs><g clip-path="url(#master_svg0_1650_21321)"><g><g><path d="M7.3505,5L6.6655,6L3.33333,6.00024C3.18421,6.00024,3,6.24339,3,6.60024L3,15.4002C3,15.7571,3.18421,16.0002,3.33333,16.0002L8,16L8,17L3.33333,17.0002C2.561972,17.0002,2,16.2584,2,15.4002L2,6.60024C2,5.742032,2.561972,5.000236511,3.33333,5.000236511L7.3505,5ZM17.6667,5.000244141C18.4381,5.000244141,19,5.742026,19,6.60023L19,15.4002C19,16.2584,18.4381,17.0002,17.6667,17.0002L12.8745,17L13.483,16L17.6667,16.0002C17.8158,16.0002,18,15.7571,18,15.4002L18,6.60023C18,6.24338,17.8158,6.00024,17.6667,6.00024L12.8375,6L12.8375,5L17.6667,5.000244141Z" fill="#FFFFFF" fill-opacity="1" style="mix-blend-mode:passthrough"/></g><g><path d="M19.5,8.5L20.125,8.5C20.60826,8.5,21,8.891737,21,9.375L21,12.625C21,13.10826,20.60826,13.5,20.125,13.5L19.5,13.5L19.5,8.5Z" fill="#FFFFFF" fill-opacity="1" style="mix-blend-mode:passthrough"/></g></g><g><path d="M11.09152,2.711658L5.091516,11.21166Q5,11.34131,5,11.5Q5,11.54924,5.009607,11.59754Q5.019215,11.64584,5.03806,11.69134Q5.056906,11.73684,5.084265,11.77778Q5.111625,11.81873,5.146447,11.85355Q5.181269,11.88837,5.222215,11.91573Q5.263161,11.94309,5.308658,11.96194Q5.354155,11.98078,5.4024549,11.99039Q5.4507543,12,5.5,12L9,12L9,19Q9,19.0623,9.0153,19.1227Q9.0306,19.1832,9.06026,19.238Q9.08992,19.2928,9.13212,19.3386Q9.17433,19.3845,9.2265,19.4186Q9.26773,19.4455,9.31342,19.4639Q9.35911,19.4823,9.4075,19.4914Q9.4559,19.5005,9.50514,19.5Q9.55438,19.4995,9.60258,19.4894Q9.650780000000001,19.4793,9.69608,19.4599Q9.74138,19.4406,9.78204,19.4129Q9.82271,19.3851,9.85717,19.3499Q9.89163,19.3147,9.918569999999999,19.2735L16.0865,9.83378Q16.168,9.70916,16.168,9.56029Q16.168,9.511040000000001,16.1584,9.46274Q16.1488,9.414439999999999,16.1299,9.36895Q16.1111,9.323450000000001,16.0837,9.282499999999999Q16.0563,9.24156,16.0215,9.20673Q15.9867,9.17191,15.9458,9.144549999999999Q15.9048,9.11719,15.8593,9.09835Q15.8138,9.0795,15.7655,9.0699Q15.7172,9.06029,15.668,9.06029L12,9.06029L12,3Q12,2.878154,11.94394,2.769968Q11.887889999999999,2.661783,11.78834,2.591516Q11.70709,2.534161,11.61007,2.512266Q11.51306,2.490372,11.41505,2.50727Q11.31704,2.524168,11.232949999999999,2.577287Q11.148869999999999,2.630406,11.09152,2.711658ZM6.46496,11L9.5,11Q9.54925,11,9.59755,11.00961Q9.64584,11.01921,9.69134,11.03806Q9.73684,11.05691,9.77778,11.08426Q9.81873,11.11162,9.85355,11.14645Q9.88837,11.18127,9.91573,11.22221Q9.94309,11.26316,9.96194,11.30866Q9.98078,11.35415,9.99039,11.40245Q10,11.45075,10,11.5L10,17.320700000000002L14.74399,10.06029L11.5,10.06029Q11.45075,10.06029,11.40245,10.05068Q11.35415,10.041070000000001,11.30866,10.02223Q11.26316,10.00338,11.22221,9.97602Q11.18127,9.94866,11.14645,9.91384Q11.11162,9.87902,11.08426,9.83807Q11.05691,9.79713,11.03806,9.751629999999999Q11.019210000000001,9.70613,11.00961,9.65783Q11,9.60953,11,9.56029L11,4.57536L6.46496,11Z" fill-rule="evenodd" fill="#0092FF" fill-opacity="1"/></g></g></svg>