<svg xmlns="http://www.w3.org/2000/svg" xmlns:xlink="http://www.w3.org/1999/xlink" fill="none" version="1.1" width="20" height="20" viewBox="0 0 20 20"><defs><clipPath id="master_svg0_1881_39950"><rect x="4" y="4" width="12" height="12" rx="0"/></clipPath></defs><g><g><ellipse cx="10" cy="10" rx="10" ry="10" fill="#EEBE2C" fill-opacity="1"/></g><g clip-path="url(#master_svg0_1881_39950)"><g><g><path d="M14.4985,15.991553303098678L14.06706,15.991553303098678L12.81416,16.00115330309868L12.48997,15.989253303098678L12.48997,5.531695303098679L7.83915,7.021193303098679L7.83915,6.567663303098678L12.424669999999999,4.9411704030986785C12.75687,4.823337703098678,13.12658,4.889101103098678,13.39777,5.114266303098678L14.1373,5.728294303098679C14.36612,5.918283303098678,14.4985,6.200253303098679,14.4985,6.497663303098679L14.4985,15.991553303098678ZM11.31672,15.95065330309868L9.31307,15.95065330309868L9.31307,12.661393303098679L9.31551,11.078803303098677L9.31551,7.715493303098679L5.43251,8.928103303098679L5.43251,15.96745330309868L4.75,15.96745330309868L4.75,9.280833303098678C4.75,8.85292330309868,5.02226,8.472443303098679,5.427269,8.334343303098679L9.51397,6.9408733030986784C9.78744,6.847623303098679,10.08788,6.8772233030986785,10.33791,7.022043303098679L10.81793,7.3000833030986785C11.12665,7.478893303098678,11.31672,7.808643303098679,11.31672,8.165403303098678L11.31672,15.95065330309868ZM8.60941,9.993023303098678L6.17188,10.63035330309868L6.17188,9.556203303098679L8.60941,8.773263303098679L8.60941,9.993023303098678ZM8.60941,11.952763303098678L6.17188,12.418233303098678L6.17188,11.387043303098679L8.60941,10.77835330309868L8.60941,11.952763303098678ZM8.60941,13.955473303098678L6.17188,14.179853303098678L6.17188,13.172533303098678L8.60941,12.781053303098679L8.60941,13.955473303098678ZM8.60941,15.951053303098679L6.17188,15.951053303098679L6.17188,14.886453303098678L8.60941,14.719313303098678L8.60941,15.951053303098679Z" fill-rule="evenodd" fill="#FFFFFF" fill-opacity="1"/></g></g></g></g></svg>