<svg xmlns="http://www.w3.org/2000/svg" xmlns:xlink="http://www.w3.org/1999/xlink" fill="none" version="1.1" width="20" height="20" viewBox="0 0 20 20"><defs><clipPath id="master_svg0_1881_39905"><rect x="4" y="4" width="12" height="12" rx="0"/></clipPath></defs><g><g><ellipse cx="10" cy="10" rx="10" ry="10" fill="#0ABAB5" fill-opacity="1"/></g><g clip-path="url(#master_svg0_1881_39905)"><g><path d="M4.75,6.0625Q4.75,5.99802,4.75632005,5.93385Q4.7626401,5.86968,4.7752193,5.80644Q4.7877985,5.743204,4.8065158,5.681501Q4.8252331,5.619799,4.8499081,5.560228Q4.874583,5.500657,4.904978,5.443792Q4.935374,5.386926,4.971196,5.333314Q5.007019,5.279702,5.047924,5.229859Q5.088829,5.180016,5.134422,5.134422Q5.180016,5.088829,5.229859,5.047924Q5.279702,5.007019,5.333314,4.971196Q5.386926,4.935374,5.443792,4.904978Q5.500657,4.874583,5.560228,4.8499081Q5.619799,4.8252331,5.681501,4.8065158Q5.743204,4.7877985,5.80644,4.7752193Q5.86968,4.7626401,5.93385,4.75632005Q5.99802,4.75,6.0625,4.75L13.1875,4.75Q13.25198,4.75,13.31615,4.75632005Q13.38032,4.7626401,13.44355,4.7752193Q13.5068,4.7877985,13.5685,4.8065158Q13.6302,4.8252331,13.68977,4.8499081Q13.74934,4.874583,13.80621,4.904978Q13.86307,4.935374,13.91668,4.971196Q13.9703,5.007019,14.02014,5.047924Q14.06998,5.088829,14.11558,5.134422Q14.16117,5.180016,14.20208,5.229859Q14.24298,5.279702,14.2788,5.333314Q14.31463,5.386926,14.34502,5.443792Q14.37542,5.500657,14.40009,5.560228Q14.42477,5.619799,14.44348,5.681501Q14.4622,5.743204,14.47478,5.80644Q14.48736,5.86968,14.49368,5.93385Q14.5,5.99802,14.5,6.0625Q14.5,6.12698,14.49368,6.19115Q14.48736,6.25532,14.47478,6.31856Q14.4622,6.3818,14.44348,6.4435Q14.42477,6.5052,14.40009,6.56477Q14.37542,6.62434,14.34502,6.68121Q14.31463,6.7380700000000004,14.2788,6.79169Q14.24298,6.8453,14.20208,6.89514Q14.16117,6.94498,14.11558,6.99058Q14.06998,7.03617,14.02014,7.0770800000000005Q13.9703,7.11798,13.91668,7.1538Q13.86307,7.18963,13.80621,7.22002Q13.74934,7.25042,13.68977,7.2750900000000005Q13.6302,7.2997700000000005,13.5685,7.31848Q13.5068,7.3372,13.44355,7.34978Q13.38032,7.36236,13.31615,7.3686799999999995Q13.25198,7.375,13.1875,7.375L6.0625,7.375Q5.99802,7.375,5.93385,7.3686799999999995Q5.86968,7.36236,5.80644,7.34978Q5.743204,7.3372,5.681501,7.31848Q5.619799,7.2997700000000005,5.560228,7.2750900000000005Q5.500657,7.25042,5.443792,7.22002Q5.386926,7.18963,5.333314,7.1538Q5.279702,7.11798,5.229859,7.0770800000000005Q5.180016,7.03617,5.134422,6.99058Q5.088829,6.94498,5.047924,6.89514Q5.007019,6.8453,4.971196,6.79169Q4.935374,6.7380700000000004,4.904978,6.68121Q4.874583,6.62434,4.8499081,6.56477Q4.8252331,6.5052,4.8065158,6.4435Q4.7877985,6.3818,4.7752193,6.31856Q4.7626401,6.25532,4.75632005,6.19115Q4.75,6.12698,4.75,6.0625ZM6.375,6.03125Q6.375,6.06818,6.36779,6.10441Q6.36059,6.14063,6.34645,6.17476Q6.33232,6.20888,6.3118,6.23959Q6.29128,6.2703,6.26516,6.29641Q6.23905,6.32253,6.20834,6.34305Q6.17763,6.36357,6.14351,6.3777Q6.10938,6.39184,6.07316,6.39904Q6.03693,6.40625,6,6.40625Q5.96307,6.40625,5.92684,6.39904Q5.89062,6.39184,5.85649,6.3777Q5.82237,6.36357,5.79166,6.34305Q5.76095,6.32253,5.734835,6.29641Q5.708718,6.2703,5.688199,6.23959Q5.667679,6.20888,5.653545,6.17476Q5.639411,6.14063,5.632205,6.10441Q5.625,6.06818,5.625,6.03125Q5.625,5.99432,5.632205,5.95809Q5.639411,5.92187,5.653545,5.88774Q5.667679,5.85362,5.688199,5.82291Q5.708718,5.7922,5.734835,5.7660800000000005Q5.76095,5.739968,5.79166,5.719449Q5.82237,5.698929,5.85649,5.684795Q5.89062,5.670661,5.92684,5.663455Q5.96307,5.65625,6,5.65625Q6.03693,5.65625,6.07316,5.663455Q6.10938,5.670661,6.14351,5.684795Q6.17763,5.698929,6.20834,5.719449Q6.23905,5.739968,6.26516,5.7660800000000005Q6.29128,5.7922,6.3118,5.82291Q6.33232,5.85362,6.34645,5.88774Q6.36059,5.92187,6.36779,5.95809Q6.375,5.99432,6.375,6.03125ZM7.75,6.40625Q7.78693,6.40625,7.82316,6.39904Q7.85938,6.39184,7.89351,6.3777Q7.927630000000001,6.36357,7.95834,6.34305Q7.989050000000001,6.32253,8.01516,6.29641Q8.04128,6.2703,8.0618,6.23959Q8.08232,6.20888,8.09645,6.17476Q8.11059,6.14063,8.11779,6.10441Q8.125,6.06818,8.125,6.03125Q8.125,5.99432,8.11779,5.95809Q8.11059,5.92187,8.09645,5.88774Q8.08232,5.85362,8.0618,5.82291Q8.04128,5.7922,8.01516,5.7660800000000005Q7.989050000000001,5.739968,7.95834,5.719449Q7.927630000000001,5.698929,7.89351,5.684795Q7.85938,5.670661,7.82316,5.663455Q7.78693,5.65625,7.75,5.65625Q7.71307,5.65625,7.67684,5.663455Q7.64062,5.670661,7.60649,5.684795Q7.572369999999999,5.698929,7.54166,5.719449Q7.510949999999999,5.739968,7.4848300000000005,5.7660800000000005Q7.45872,5.7922,7.4382,5.82291Q7.41768,5.85362,7.40354,5.88774Q7.38941,5.92187,7.382210000000001,5.95809Q7.375,5.99432,7.375,6.03125Q7.375,6.06818,7.382210000000001,6.10441Q7.38941,6.14063,7.40354,6.17476Q7.41768,6.20888,7.4382,6.23959Q7.45872,6.2703,7.4848300000000005,6.29641Q7.510949999999999,6.32253,7.54166,6.34305Q7.572369999999999,6.36357,7.60649,6.3777Q7.64062,6.39184,7.67684,6.39904Q7.71307,6.40625,7.75,6.40625ZM8.94922,9.818950000000001C8.94922,9.54466,9.09902,9.29392,9.33617,9.17126C9.98632,8.83497,10.63955,8.63994,11.23044,8.5L6.0625,8.5Q5.99802,8.5,5.93385,8.50632Q5.86968,8.512640000000001,5.80644,8.525220000000001Q5.743204,8.5378,5.681501,8.556519999999999Q5.619799,8.57523,5.560228,8.59991Q5.500657,8.62458,5.443792,8.65498Q5.386926,8.685369999999999,5.333314,8.7212Q5.279702,8.75702,5.229859,8.797920000000001Q5.180016,8.83883,5.134422,8.88442Q5.088829,8.930019999999999,5.047924,8.97986Q5.007019,9.0297,4.971196,9.08331Q4.935374,9.13693,4.904978,9.19379Q4.874583,9.25066,4.8499081,9.31023Q4.8252331,9.3698,4.8065158,9.4315Q4.7877985,9.4932,4.7752193,9.55644Q4.7626401,9.619679999999999,4.75632005,9.68385Q4.75,9.74802,4.75,9.8125Q4.75,9.87698,4.75632005,9.94115Q4.7626401,10.005320000000001,4.7752193,10.06856Q4.7877985,10.1318,4.8065158,10.1935Q4.8252331,10.2552,4.8499081,10.31477Q4.874583,10.37434,4.904978,10.43121Q4.935374,10.48807,4.971196,10.54169Q5.007019,10.5953,5.047924,10.64514Q5.088829,10.694980000000001,5.134422,10.74058Q5.180016,10.78617,5.229859,10.827079999999999Q5.279702,10.86798,5.333314,10.9038Q5.386926,10.939630000000001,5.443792,10.97002Q5.500657,11.00042,5.560228,11.025089999999999Q5.619799,11.049769999999999,5.681501,11.068480000000001Q5.743204,11.0872,5.80644,11.099779999999999Q5.86968,11.112359999999999,5.93385,11.118680000000001Q5.99802,11.125,6.0625,11.125L8.94922,11.125L8.94922,9.818950000000001ZM9.64844,9.81789L9.64844,11.44922L12.09844,11.44922L12.09844,9.09375Q11.04844,9.09375,9.64844,9.81789ZM15.25,9.81789L15.25,11.44922L12.8,11.44922L12.8,9.09375Q13.85,9.09375,15.25,9.81789ZM6.375,9.78125Q6.375,9.81818,6.36779,9.85441Q6.36059,9.89063,6.34645,9.92476Q6.33232,9.95888,6.3118,9.98959Q6.29128,10.020299999999999,6.26516,10.04641Q6.23905,10.07253,6.20834,10.09305Q6.17763,10.11357,6.14351,10.1277Q6.10938,10.14184,6.07316,10.14904Q6.03693,10.15625,6,10.15625Q5.96307,10.15625,5.92684,10.14904Q5.89062,10.14184,5.85649,10.1277Q5.82237,10.11357,5.79166,10.09305Q5.76095,10.07253,5.734835,10.04641Q5.708718,10.020299999999999,5.688199,9.98959Q5.667679,9.95888,5.653545,9.92476Q5.639411,9.89063,5.632205,9.85441Q5.625,9.81818,5.625,9.78125Q5.625,9.74432,5.632205,9.70809Q5.639411,9.67187,5.653545,9.63774Q5.667679,9.60362,5.688199,9.57291Q5.708718,9.542200000000001,5.734835,9.516079999999999Q5.76095,9.48997,5.79166,9.46945Q5.82237,9.44893,5.85649,9.43479Q5.89062,9.42066,5.92684,9.41346Q5.96307,9.40625,6,9.40625Q6.03693,9.40625,6.07316,9.41346Q6.10938,9.42066,6.14351,9.43479Q6.17763,9.44893,6.20834,9.46945Q6.23905,9.48997,6.26516,9.516079999999999Q6.29128,9.542200000000001,6.3118,9.57291Q6.33232,9.60362,6.34645,9.63774Q6.36059,9.67187,6.36779,9.70809Q6.375,9.74432,6.375,9.78125ZM7.75,10.15625Q7.78693,10.15625,7.82316,10.14904Q7.85938,10.14184,7.89351,10.1277Q7.927630000000001,10.11357,7.95834,10.09305Q7.989050000000001,10.07253,8.01516,10.04641Q8.04128,10.020299999999999,8.0618,9.98959Q8.08232,9.95888,8.09645,9.92476Q8.11059,9.89063,8.11779,9.85441Q8.125,9.81818,8.125,9.78125Q8.125,9.74432,8.11779,9.70809Q8.11059,9.67187,8.09645,9.63774Q8.08232,9.60362,8.0618,9.57291Q8.04128,9.542200000000001,8.01516,9.516079999999999Q7.989050000000001,9.48997,7.95834,9.46945Q7.927630000000001,9.44893,7.89351,9.43479Q7.85938,9.42066,7.82316,9.41346Q7.78693,9.40625,7.75,9.40625Q7.71307,9.40625,7.67684,9.41346Q7.64062,9.42066,7.60649,9.43479Q7.572369999999999,9.44893,7.54166,9.46945Q7.510949999999999,9.48997,7.4848300000000005,9.516079999999999Q7.45872,9.542200000000001,7.4382,9.57291Q7.41768,9.60362,7.40354,9.63774Q7.38941,9.67187,7.382210000000001,9.70809Q7.375,9.74432,7.375,9.78125Q7.375,9.81818,7.382210000000001,9.85441Q7.38941,9.89063,7.40354,9.92476Q7.41768,9.95888,7.4382,9.98959Q7.45872,10.020299999999999,7.4848300000000005,10.04641Q7.510949999999999,10.07253,7.54166,10.09305Q7.572369999999999,10.11357,7.60649,10.1277Q7.64062,10.14184,7.67684,10.14904Q7.71307,10.15625,7.75,10.15625ZM9.64844,12.71444L9.64844,12.173359999999999L12.09844,12.173359999999999L12.09844,15.2489Q9.64844,13.80065,9.64844,12.71444ZM15.25,12.71444L15.25,12.173359999999999L12.8,12.173359999999999L12.8,15.2489Q15.25,13.80065,15.25,12.71444ZM8.94922,12.715499999999999L8.94922,12.25L6.0625,12.25Q5.99802,12.25,5.93385,12.256319999999999Q5.86968,12.262640000000001,5.80644,12.275220000000001Q5.743204,12.2878,5.681501,12.306519999999999Q5.619799,12.325230000000001,5.560228,12.349910000000001Q5.500657,12.37458,5.443792,12.40498Q5.386926,12.435369999999999,5.333314,12.4712Q5.279702,12.50702,5.229859,12.547920000000001Q5.180016,12.58883,5.134422,12.63442Q5.088829,12.680019999999999,5.047924,12.72986Q5.007019,12.7797,4.971196,12.83331Q4.935374,12.88693,4.904978,12.94379Q4.874583,13.00066,4.8499081,13.06023Q4.8252331,13.1198,4.8065158,13.1815Q4.7877985,13.2432,4.7752193,13.30644Q4.7626401,13.36968,4.75632005,13.43385Q4.75,13.49802,4.75,13.5625Q4.75,13.62698,4.75632005,13.69115Q4.7626401,13.75531,4.7752193,13.81855Q4.7877985,13.8818,4.8065158,13.9435Q4.8252331,14.0052,4.8499081,14.06477Q4.874583,14.12434,4.904978,14.18121Q4.935374,14.23807,4.971196,14.29169Q5.007019,14.3453,5.047924,14.39514Q5.088829,14.44498,5.134422,14.49058Q5.180016,14.53617,5.229859,14.57708Q5.279702,14.61798,5.333314,14.6538Q5.386926,14.68962,5.443792,14.72002Q5.500657,14.7504,5.560228,14.7751Q5.619799,14.7998,5.681501,14.8185Q5.743204,14.8372,5.80644,14.8498Q5.86968,14.8624,5.93385,14.8687Q5.99802,14.875,6.0625,14.875L10.3519,14.875Q10.0663,14.62942,9.80616,14.35151Q8.94922,13.59166,8.94922,12.715499999999999ZM6.375,13.53125Q6.375,13.56818,6.36779,13.60441Q6.36059,13.64063,6.34645,13.67476Q6.33232,13.70888,6.3118,13.73959Q6.29128,13.7703,6.26516,13.79641Q6.23905,13.82253,6.20834,13.84305Q6.17763,13.86357,6.14351,13.8777Q6.10938,13.89184,6.07316,13.89904Q6.03693,13.90625,6,13.90625Q5.96307,13.90625,5.92684,13.89904Q5.89062,13.89184,5.85649,13.8777Q5.82237,13.86357,5.79166,13.84305Q5.76095,13.82253,5.734835,13.79641Q5.708718,13.7703,5.688199,13.73959Q5.667679,13.70888,5.653545,13.67476Q5.639411,13.64063,5.632205,13.60441Q5.625,13.56818,5.625,13.53125Q5.625,13.49432,5.632205,13.45809Q5.639411,13.42187,5.653545,13.38774Q5.667679,13.35362,5.688199,13.32291Q5.708718,13.2922,5.734835,13.26608Q5.76095,13.23997,5.79166,13.21945Q5.82237,13.19893,5.85649,13.18479Q5.89062,13.17066,5.92684,13.16346Q5.96307,13.15625,6,13.15625Q6.03693,13.15625,6.07316,13.16346Q6.10938,13.17066,6.14351,13.1848Q6.17763,13.19893,6.20834,13.21945Q6.23905,13.23997,6.26516,13.26608Q6.29128,13.2922,6.3118,13.32291Q6.33232,13.35362,6.34645,13.38774Q6.36059,13.42187,6.36779,13.45809Q6.375,13.49432,6.375,13.53125ZM7.75,13.90625Q7.78693,13.90625,7.82316,13.89904Q7.85938,13.89184,7.89351,13.8777Q7.927630000000001,13.86357,7.95834,13.84305Q7.989050000000001,13.82253,8.01516,13.79641Q8.04128,13.7703,8.0618,13.73959Q8.08232,13.70888,8.09645,13.67476Q8.11059,13.64063,8.11779,13.60441Q8.125,13.56818,8.125,13.53125Q8.125,13.49432,8.11779,13.45809Q8.11059,13.42187,8.09645,13.38774Q8.08232,13.35362,8.0618,13.32291Q8.04128,13.2922,8.01516,13.26608Q7.989050000000001,13.23997,7.95834,13.21945Q7.927630000000001,13.19893,7.89351,13.18479Q7.85938,13.17066,7.82316,13.16346Q7.78693,13.15625,7.75,13.15625Q7.71307,13.15625,7.67684,13.16346Q7.64062,13.17066,7.60649,13.1848Q7.572369999999999,13.19893,7.54166,13.21945Q7.510949999999999,13.23997,7.4848300000000005,13.26608Q7.45872,13.2922,7.4382,13.32291Q7.41768,13.35362,7.40354,13.38774Q7.38941,13.42187,7.382210000000001,13.45809Q7.375,13.49432,7.375,13.53125Q7.375,13.56818,7.382210000000001,13.60441Q7.38941,13.64063,7.40354,13.67476Q7.41768,13.70888,7.4382,13.73959Q7.45872,13.7703,7.4848300000000005,13.79641Q7.510949999999999,13.82253,7.54166,13.84305Q7.572369999999999,13.86357,7.60649,13.8777Q7.64062,13.89184,7.67684,13.89904Q7.71307,13.90625,7.75,13.90625Z" fill-rule="evenodd" fill="#FFFFFF" fill-opacity="1"/></g></g></g></svg>