<svg xmlns="http://www.w3.org/2000/svg" xmlns:xlink="http://www.w3.org/1999/xlink" fill="none" version="1.1" width="20" height="20" viewBox="0 0 20 20"><defs><clipPath id="master_svg0_1881_39871"><rect x="4" y="4" width="12" height="12" rx="0"/></clipPath></defs><g><g><ellipse cx="10" cy="10" rx="10" ry="10" fill="#AEAEAE" fill-opacity="1"/></g><g clip-path="url(#master_svg0_1881_39871)"><g><g><path d="M4.0513805,14.20098L4.467702,5.701079C4.49379,5.16845,4.933237,4.75,5.4665099999999995,4.75L7.676130000000001,4.75C8.209489999999999,4.75,8.64898,5.168586,8.674949999999999,5.7013110000000005L8.799140000000001,8.24912L14.258,8.249880000000001C14.7632,8.24995,15.189,8.626850000000001,15.2504,9.12834L15.8626,14.12807C15.9356,14.72425,15.4703,15.2498,14.8697,15.2496L13.42857,15.2491L5.05028,15.2499C4.478744,15.25,4.0234206,14.7718,4.0513805,14.20098M14.0071,9.5625L8.863430000000001,9.56162L9.07857,13.93662L11.97143,13.93662L11.596,10.875L12.89286,10.875L13.26743,13.93662L14.5437,13.9375L14.0071,9.5625Z" fill="#FFFFFF" fill-opacity="1"/></g><g><path d="M10.843176249999999,5.621780815C11.25460625,5.621780815,11.52031625,5.73290575,11.82374625,5.97178075L11.97802625,6.10128075C12.12374625,6.22640575,12.16145625,6.24565575,12.24802625,6.24565575C12.49488625,6.24565575,12.72802625,6.11878075,12.97317625,5.82303075C13.17190625,5.58275695,13.52388625,5.55260005,13.75907625,5.75569575C13.994266249999999,5.95879175,14.023486250000001,6.31812775,13.824316249999999,6.55803075C13.38031625,7.09353375,12.84717625,7.38315375,12.24802625,7.38315375C11.89060625,7.38315375,11.65402625,7.28340375,11.38060625,7.06990375L11.22117625,6.93690375C11.04802625,6.78815375,10.98974625,6.75928375,10.84402625,6.75928375C10.60145625,6.75928375,10.45660625,6.82840375,10.35202625,6.99290375L10.30917625,7.06990375C10.17079425,7.35038375,9.83597225,7.46337375,9.56109825,7.3223537499999996C9.28622545,7.18132375,9.17525935,6.8396237499999994,9.31317335,6.55890575C9.61403025,5.94640575,10.15317325,5.621780815,10.843176249999999,5.621780815Z" fill="#FFFFFF" fill-opacity="1"/></g></g></g></g></svg>