<svg xmlns="http://www.w3.org/2000/svg" xmlns:xlink="http://www.w3.org/1999/xlink" fill="none" version="1.1" width="20" height="20" viewBox="0 0 20 20"><defs><clipPath id="master_svg0_1881_39878"><rect x="4" y="4" width="12" height="12" rx="0"/></clipPath></defs><g><g><ellipse cx="10" cy="10" rx="10" ry="10" fill="#0A84FF" fill-opacity="1"/></g><g clip-path="url(#master_svg0_1881_39878)"><g><g><path d="M4.75,13.25L4.75,11.20711Q4.87132,11.25,5,11.25L5.5,11.25Q5.573869,11.25,5.646318,11.23559Q5.718767,11.22118,5.78701,11.192910000000001Q5.8552599999999995,11.16464,5.9166799999999995,11.1236Q5.9780999999999995,11.08256,6.03033,11.03033Q6.08256,10.978100000000001,6.1236,10.91668Q6.16464,10.855260000000001,6.1929099999999995,10.78701Q6.22118,10.71877,6.23559,10.64632Q6.25,10.57387,6.25,10.5Q6.25,10.42613,6.23559,10.35368Q6.22118,10.28123,6.1929099999999995,10.21299Q6.16464,10.144739999999999,6.1236,10.08332Q6.08256,10.021899999999999,6.03033,9.96967Q5.9780999999999995,9.91744,5.9166799999999995,9.8764Q5.8552599999999995,9.83536,5.78701,9.807089999999999Q5.718767,9.77882,5.646318,9.76441Q5.573869,9.75,5.5,9.75L5,9.75Q4.87132,9.75,4.75,9.79289L4.75,6.75Q4.75,6.65175,4.75963055,6.55397Q4.7692611,6.45619,4.7884294,6.35982Q4.8075978,6.26345,4.8361193,6.16943Q4.864641,6.07541,4.902241,5.98463Q4.939841,5.89386,4.986157,5.8072099999999995Q5.032474,5.720554,5.087061,5.638859Q5.141648,5.557164,5.203979,5.481213Q5.266311,5.4052620000000005,5.335786,5.335786Q5.4052620000000005,5.266311,5.481213,5.203979Q5.557164,5.141648,5.638859,5.087061Q5.720554,5.032474,5.8072099999999995,4.986157Q5.89386,4.939841,5.98463,4.902241Q6.07541,4.864641,6.16943,4.8361193Q6.26345,4.8075978,6.35982,4.7884294Q6.45619,4.7692611,6.55397,4.75963055Q6.65175,4.75,6.75,4.75L9.5,4.75Q9.59825,4.75,9.69603,4.75963055Q9.79382,4.7692611,9.89018,4.7884294Q9.986550000000001,4.8075978,10.08057,4.8361193Q10.17459,4.864641,10.26537,4.902241Q10.35614,4.939841,10.442789999999999,4.986157Q10.529440000000001,5.032474,10.611139999999999,5.087061Q10.69283,5.141648,10.76879,5.203979Q10.84474,5.266311,10.91421,5.335786Q10.98369,5.4052620000000005,11.04602,5.481213Q11.10835,5.557164,11.162939999999999,5.638859Q11.21753,5.720554,11.26384,5.8072099999999995Q11.31016,5.89386,11.347760000000001,5.98463Q11.38536,6.07541,11.413879999999999,6.16943Q11.4424,6.26345,11.46157,6.35982Q11.48074,6.45619,11.49037,6.55397Q11.5,6.65175,11.5,6.75L11.5,12.625L12.75,12.625Q12.85355,12.625,12.92678,12.55178Q13,12.47855,13,12.375L13,8.29933C12.72806,8.14202,12.51008,7.9017800000000005,12.380659999999999,7.6132Q12.306930000000001,7.56128,12.247620000000001,7.49336Q12.1883,7.42545,12.14677,7.34541Q12.10525,7.26537,12.083870000000001,7.177770000000001Q12.0625,7.0901700000000005,12.0625,7L12.0625,5.875Q12.0625,5.80113,12.07691,5.728682Q12.09132,5.656233,12.119589999999999,5.587987Q12.14786,5.519742,12.1889,5.458322Q12.22994,5.396903,12.28217,5.34467Q12.334399999999999,5.292437,12.39582,5.251398Q12.457239999999999,5.210359,12.52549,5.18209Q12.59373,5.153822,12.66618,5.139411Q12.73863,5.125,12.8125,5.125Q12.88637,5.125,12.95882,5.139411Q13.03127,5.153822,13.09951,5.18209Q13.16776,5.210359,13.22918,5.251398Q13.2906,5.292437,13.34283,5.34467Q13.39506,5.396903,13.4361,5.458322Q13.47714,5.519742,13.50541,5.587987Q13.53368,5.656233,13.54809,5.728682Q13.5625,5.80113,13.5625,5.875L13.5625,6.25L13.9375,6.25L13.9375,5.875Q13.9375,5.80113,13.95191,5.728682Q13.96632,5.656233,13.99459,5.587987Q14.02286,5.519742,14.0639,5.458322Q14.10494,5.396903,14.15717,5.34467Q14.2094,5.292437,14.27082,5.251398Q14.33224,5.210359,14.40049,5.18209Q14.46873,5.153822,14.54118,5.139411Q14.61363,5.125,14.6875,5.125Q14.7614,5.125,14.8338,5.139411Q14.9063,5.153822,14.9745,5.18209Q15.0428,5.210359,15.1042,5.251398Q15.1656,5.292437,15.2178,5.34467Q15.2701,5.396903,15.3111,5.458322Q15.3521,5.519742,15.3804,5.587987Q15.4087,5.656233,15.4231,5.728682Q15.4375,5.80113,15.4375,5.875L15.4375,7Q15.4375,7.0901700000000005,15.4161,7.177770000000001Q15.3948,7.26537,15.3532,7.34541Q15.3117,7.42545,15.2524,7.49336Q15.1931,7.56128,15.1193,7.6132C14.9899,7.9017800000000005,14.7719,8.14202,14.5,8.29933L14.5,12.375Q14.5,13.09987,13.98744,13.61244Q13.47487,14.125,12.75,14.125L11.29844,14.125Q11.2372,14.25087,11.15902,14.36698Q11.08085,14.48309,10.98726,14.58718Q10.89368,14.69127,10.7865,14.7813Q10.67933,14.8713,10.56066,14.9456Q10.44199,15.0198,10.31414,15.0768Q10.18628,15.1338,10.051739999999999,15.1724Q9.917200000000001,15.211,9.778590000000001,15.2305Q9.639980000000001,15.25,9.5,15.25L6.75,15.25Q6.65175,15.25,6.55397,15.2404Q6.45619,15.2307,6.35982,15.2116Q6.26345,15.1924,6.16943,15.1639Q6.07541,15.1354,5.98463,15.0978Q5.89386,15.0602,5.8072099999999995,15.0138Q5.720554,14.9675,5.638859,14.9129Q5.557164,14.8584,5.481213,14.796Q5.4052620000000005,14.73369,5.335786,14.66421Q5.266311,14.59474,5.203979,14.51879Q5.141648,14.44283,5.087061,14.36114Q5.032474,14.27945,4.986157,14.19279Q4.939841,14.10614,4.902241,14.01537Q4.864641,13.92459,4.8361193,13.83057Q4.8075978,13.73655,4.7884294,13.64018Q4.7692611,13.54381,4.75963055,13.44604Q4.75,13.34826,4.75,13.25ZM6.9345300000000005,8.968340000000001C6.54621,9.34313,6.81152,10.000060000000001,7.35121,10.000060000000001L7.74871,10.000060000000001L7.45104,10.70195C7.29035,11.08085,7.769,11.40448,8.06076,11.1142L9.334959999999999,9.84649C9.71443,9.46896,9.44707,8.82115,8.91178,8.82115L8.5866,8.82115L8.88009,8.08703C9.030100000000001,7.7118199999999995,8.56222,7.39738,8.27147,7.677989999999999L6.9345300000000005,8.968340000000001Z" fill-rule="evenodd" fill="#FFFFFF" fill-opacity="1"/></g></g></g></g></svg>