<svg xmlns="http://www.w3.org/2000/svg" xmlns:xlink="http://www.w3.org/1999/xlink" fill="none" version="1.1" width="16" height="16" viewBox="0 0 16 16"><g><g style="opacity:0;"><rect x="0" y="0" width="16" height="16" rx="0" fill="#000000" fill-opacity="1"/></g><g><ellipse cx="8" cy="8" rx="8" ry="8" fill="#AEAEAE" fill-opacity="1"/></g><g><g><path d="M11.53942,4.998365C11.575949999999999,5.00484,11.61341,4.993614,11.64015,4.9681809999999995L11.80739,4.808761C11.84921,4.764091,11.848510000000001,4.69493,11.8058,4.651097C11.76308,4.607264,11.693190000000001,4.603982,11.64647,4.643617L11.479230000000001,4.802863C11.44793,4.832828,11.43623,4.877585,11.44891,4.918789C11.4616,4.959993,11.49654,4.990716,11.53942,4.998365ZM12.05711,6.05029C12.06911,6.052379999999999,12.08137,6.05262,12.09344,6.0509900000000005L12.32333,6.01924C12.38574,6.00931,12.42866,5.9518699999999995,12.41992,5.88999C12.41118,5.8281,12.35399,5.78448,12.29121,5.7918199999999995L12.06132,5.82357C12.00485,5.8314900000000005,11.96255,5.87878,11.961500000000001,5.93516C11.96045,5.99153,12.00097,6.0403199999999995,12.05711,6.05029ZM12.13012,7.09598L11.92532,6.98808C11.88874,6.9688,11.844529999999999,6.97028,11.80935,6.99197C11.774180000000001,7.01365,11.75337,7.05223,11.75478,7.09319C11.75618,7.13414,11.77958,7.17124,11.81617,7.190519999999999L12.02096,7.29842C12.07764,7.32791,12.14767,7.30674,12.1782,7.25123C12.20807,7.195209999999999,12.18659,7.125859999999999,12.13012,7.09598ZM8.545770000000001,5.20688L8.3408,5.09898C8.284849999999999,5.0733999999999995,8.21842,5.09546,8.18947,5.14926C8.16051,5.20305,8.1791,5.26984,8.231819999999999,5.30142L8.43661,5.40949C8.49329,5.43881,8.563310000000001,5.4176400000000005,8.59385,5.3621300000000005C8.6236,5.30616,8.60214,5.23693,8.545770000000001,5.20688L8.545770000000001,5.20688ZM11.12264,7.85092C11.09318,7.79659,11.02558,7.7749500000000005,10.96949,7.801880000000001C10.9134,7.82881,10.888819999999999,7.89471,10.91381,7.95119L11.01524,8.15762C11.032309999999999,8.19621,11.06939,8.222470000000001,11.11185,8.22603C11.1543,8.2296,11.19533,8.209900000000001,11.21874,8.174710000000001C11.24216,8.139520000000001,11.2442,8.09448,11.224070000000001,8.05735L11.12264,7.85092ZM9.238769999999999,4.54682C9.256129999999999,4.585007,9.29313,4.610831,9.33534,4.614216C9.377559999999999,4.617601,9.418289999999999,4.598011,9.44164,4.563089C9.465,4.528167,9.467279999999999,4.483448,9.447600000000001,4.4463799999999996L9.34617,4.23995C9.31699,4.185002,9.24893,4.162909,9.19248,4.19006C9.13603,4.217211,9.111609999999999,4.283784,9.13734,4.34039L9.238769999999999,4.54682ZM10.49527,4.447942C10.5256,4.453335,10.55685,4.446556,10.58212,4.429106C10.60738,4.411655,10.624559999999999,4.384971,10.62987,4.354961L10.67023,4.129102C10.678,4.0684766,10.63631,4.0124765,10.57545,4.00178507C10.514579999999999,3.99109366,10.455919999999999,4.0294682,10.44209,4.0890302L10.40138,4.314889C10.39592,4.344873,10.40278,4.37577,10.42043,4.400741C10.438089999999999,4.425712,10.46508,4.442699,10.49527,4.447942L10.49527,4.447942ZM10.773240000000001,10.016359999999999L9.919139999999999,6.37C9.861229999999999,6.11985,9.61238,5.92349,9.36319,5.92349L5.43857,5.92349C5.18938,5.92349,4.940533,6.11985,4.882622,6.36983L4.0285201,10.016359999999999C3.9188399,10.490459999999999,4.135744,10.808769999999999,4.503567,10.808769999999999L10.29819,10.808769999999999C10.66602,10.808769999999999,10.88292,10.49063,10.773240000000001,10.016359999999999ZM10.40349,10.382380000000001C10.3561,10.44015,10.285910000000001,10.46912,10.19465,10.46912L4.607456,10.46912C4.516378,10.46912,4.446007,10.44015,4.398625,10.382380000000001C4.325797,10.29409,4.308073,10.14213,4.349664,9.96605L5.1734100000000005,6.5289C5.20763,6.38457,5.36118,6.26279,5.50912,6.26279L9.293,6.26279C9.440760000000001,6.26279,9.59448,6.38474,9.6287,6.52959L10.45227,9.965530000000001C10.49386,10.14213,10.47596,10.29409,10.40349,10.382380000000001L10.40349,10.382380000000001Z" fill="#FFFFFF" fill-opacity="1" style="mix-blend-mode:passthrough"/></g><g><path d="M7.046922614059448,6.442166379261017L5.704082614059448,6.442166379261017C5.539825614059448,6.442166379261017,5.379429614059449,6.566366379261017,5.346262614059448,6.722496379261017L5.154979614059449,7.626966379261017C5.114617614059449,7.819176379261017,5.235704614059448,7.981546379261017,5.426109614059448,7.981546379261017L6.983212614059449,7.981546379261017C7.173622614059449,7.981546379261017,7.330862614059448,7.819176379261017,7.332962614059449,7.626966379261017L7.342632614059449,6.722496379261017C7.3443726140594485,6.566196379261017,7.211172614059448,6.442166379261017,7.046922614059448,6.442166379261017ZM7.834862614059448,7.981546379261017L9.380912614059447,7.981546379261017C9.570092614059448,7.981546379261017,9.690472614059448,7.819176379261017,9.650112614059449,7.626966379261017L9.459882614059449,6.722496379261017C9.427072614059448,6.566196379261017,9.267722614059448,6.442166379261017,9.104522614059448,6.442166379261017L7.770812614059448,6.442166379261017C7.607952614059448,6.442166379261017,7.475992614059448,6.566366379261017,7.477722614059449,6.722496379261017L7.4873926140594484,7.626966379261017C7.4895026140594485,7.819176379261017,7.645682614059448,7.981546379261017,7.834862614059448,7.981546379261017ZM6.976202614059448,8.098636379261016L5.396802614059448,8.098636379261016C5.203589614059448,8.098636379261016,5.009148614059448,8.270726379261017,4.962995614059448,8.488256379261017L4.690637614059448,9.774196379261017C4.631498114059449,10.052786379261017,4.769607414059449,10.290096379261016,5.000023614059448,10.290096379261016L6.884942614059448,10.290096379261016C7.115182614059448,10.290096379261016,7.306292614059448,10.053136379261016,7.309452614059449,9.774196379261017L7.323162614059449,8.488256379261017C7.325422614059448,8.270726379261017,7.169412614059448,8.098636379261016,6.976202614059448,8.098636379261016ZM9.840522614059449,8.488256379261017C9.794542614059448,8.270726379261017,9.601502614059449,8.098636379261016,9.409692614059448,8.098636379261016L7.841532614059448,8.098636379261016C7.649722614059448,8.098636379261016,7.494762614059448,8.270726379261017,7.4972226140594485,8.488256379261017L7.510912614059448,9.774196379261017C7.514072614059448,10.052786379261017,7.703592614059448,10.290096379261016,7.932262614059448,10.290096379261016L9.803842614059448,10.290096379261016C10.032682614059448,10.290096379261016,10.169912614059449,10.053136379261016,10.111122614059449,9.774196379261017L9.840522614059449,8.488256379261017ZM8.34360261405945,11.495376379261018L7.687272614059449,11.495376379261018L7.687272614059449,11.243146379261017C7.687292614059448,11.153026379261018,7.638662614059449,11.069736379261016,7.559712614059448,11.024676379261017C7.480752614059448,10.979606379261018,7.383472614059448,10.979606379261018,7.304522614059448,11.024676379261017C7.225572614059448,11.069736379261016,7.176942614059448,11.153026379261018,7.176952614059449,11.243146379261017L7.176952614059449,11.495376379261018L6.5202826140594485,11.495376379261018C6.389712614059448,11.495376379261018,6.283722614059448,11.599806379261016,6.283722614059448,11.729036379261018L6.283722614059448,11.766166379261016C6.283722614059448,11.895226379261016,6.389542614059448,11.999996379261017,6.5202826140594485,11.999996379261017L8.34360261405945,11.999996379261017C8.474342614059449,11.999996379261017,8.580332614059447,11.895226379261016,8.580332614059447,11.766166379261016L8.580332614059447,11.729036379261018C8.580332614059447,11.599976379261017,8.474342614059449,11.495376379261018,8.34360261405945,11.495376379261018L8.34360261405945,11.495376379261018ZM10.180612614059449,4.592616379261017C9.48192261405945,4.592915888261017,8.861702614059448,5.034849379261017,8.640532614059449,5.689996379261017L9.630812614059447,5.689996379261017C9.880002614059448,5.689996379261017,10.128842614059447,5.886186379261017,10.186752614059447,6.136336379261017L10.566512614059448,7.757246379261017C11.277242614059448,7.586036379261017,11.805462614059447,6.954076379261017,11.805462614059447,6.198786379261017C11.805512614059449,5.7728063792610165,11.634362614059448,5.364248379261017,11.329682614059449,5.063001379261017C11.024992614059448,4.761753379261017,10.611722614059449,4.592488955261016,10.180612614059449,4.592616379261017L10.180612614059449,4.592616379261017Z" fill="#FFFFFF" fill-opacity="1" style="mix-blend-mode:passthrough"/></g></g></g></svg>