<svg xmlns="http://www.w3.org/2000/svg" xmlns:xlink="http://www.w3.org/1999/xlink" fill="none" version="1.1" width="28" height="28" viewBox="0 0 28 28"><g><g style="opacity:0;"><rect x="0" y="0" width="28" height="28" rx="0" fill="#000000" fill-opacity="1"/></g><g><path d="M4,11.0279C4,5.49857,8.48521,1,13.99999,1C19.5139,1,24,5.49857,24,11.0279C24.0027,13.0727,23.3788,15.0687,22.213,16.744999999999997C22.18,16.8061,22.1182,16.911,22.0469,17.0071L14.7817,26.6157C14.5496,26.8768,14.2817,27,13.99999,27C13.71477,27,13.44869,26.8777,13.25043,26.6567L5.9513,17.0079C5.88261,16.9145,5.82435,16.8184,5.76696,16.7188C4.615652,15.0565,4,13.0806,4,11.0279ZM14,14Q14.1474,14,14.2941,13.9856Q14.4407,13.9711,14.5853,13.9424Q14.7298,13.9136,14.8709,13.8708Q15.0119,13.828,15.148,13.7716Q15.2842,13.7152,15.4142,13.6458Q15.5442,13.5763,15.6667,13.4944Q15.7893,13.4125,15.9032,13.319Q16.0171,13.2255,16.121299999999998,13.1213Q16.2255,13.0171,16.319000000000003,12.9032Q16.4125,12.7893,16.4944,12.6667Q16.5763,12.5442,16.6458,12.4142Q16.7152,12.2842,16.7716,12.148Q16.828,12.0119,16.8708,11.8709Q16.913600000000002,11.7298,16.9424,11.5853Q16.9711,11.4407,16.985599999999998,11.2941Q17,11.1474,17,11Q17,10.85262,16.985599999999998,10.70595Q16.9711,10.55928,16.9424,10.41473Q16.913600000000002,10.27018,16.8708,10.12915Q16.828,9.98811,16.7716,9.85195Q16.7152,9.71579,16.6458,9.58581Q16.5763,9.45583,16.4944,9.33329Q16.4125,9.21075,16.319000000000003,9.09682Q16.2255,8.982890000000001,16.121299999999998,8.87868Q16.0171,8.77447,15.9032,8.68097Q15.7893,8.58747,15.6667,8.50559Q15.5442,8.42371,15.4142,8.35424Q15.2842,8.28476,15.148,8.22836Q15.0119,8.17196,14.8709,8.12918Q14.7298,8.086400000000001,14.5853,8.05764Q14.4407,8.02889,14.2941,8.01445Q14.1474,8,14,8Q13.85262,8,13.70595,8.01445Q13.55928,8.02889,13.41473,8.05764Q13.27018,8.086400000000001,13.12915,8.12918Q12.98811,8.17196,12.85195,8.22836Q12.71579,8.28476,12.58581,8.35424Q12.45583,8.42371,12.33329,8.50559Q12.21075,8.58747,12.09682,8.68097Q11.982890000000001,8.77447,11.87868,8.87868Q11.77447,8.982890000000001,11.68097,9.09682Q11.58747,9.21075,11.50559,9.33329Q11.42371,9.45583,11.35424,9.58581Q11.28476,9.71579,11.22836,9.85195Q11.17196,9.98811,11.12918,10.12915Q11.086400000000001,10.27018,11.05764,10.41473Q11.02889,10.55928,11.01445,10.70595Q11,10.85262,11,11Q11,11.1474,11.01445,11.2941Q11.02889,11.4407,11.05764,11.5853Q11.086400000000001,11.7298,11.12918,11.8709Q11.17196,12.0119,11.22836,12.148Q11.28476,12.2842,11.35424,12.4142Q11.42371,12.5442,11.50559,12.6667Q11.58747,12.7893,11.68097,12.9032Q11.77447,13.0171,11.87868,13.1213Q11.982890000000001,13.2255,12.09682,13.319Q12.21075,13.4125,12.33329,13.4944Q12.45583,13.5763,12.58581,13.6458Q12.71579,13.7152,12.85195,13.7716Q12.98811,13.828,13.12915,13.8708Q13.27018,13.9136,13.41473,13.9424Q13.55928,13.9711,13.70595,13.9856Q13.85262,14,14,14Z" fill-rule="evenodd" fill="#0092FF" fill-opacity="1"/><path d="M22.213,16.744999999999997C23.3788,15.0687,24.0027,13.0727,24,11.0279C24,5.49857,19.5139,1,13.99999,1C8.48521,1,4,5.49857,4,11.0279C4,13.0806,4.615652,15.0565,5.76696,16.7188C5.82435,16.8184,5.88261,16.9145,5.9513,17.0079L13.25043,26.6567C13.44869,26.8777,13.71477,27,13.99999,27C14.2817,27,14.5496,26.8768,14.7817,26.6157L22.0469,17.0071C22.1182,16.911,22.18,16.8061,22.213,16.744999999999997ZM14.0005,25.9908L21.2439,16.411099999999998Q21.2913,16.3473,21.3333,16.2696L21.36,16.2202L21.392,16.174Q23.0037,13.8566,23,11.0279Q23,7.2943,20.3596,4.6465700000000005Q17.720399999999998,2,13.99999,1.9999989999999999Q10.2791,1.9999989999999999,7.64007,4.6465499999999995Q5,7.29414,5,11.0279Q5,13.8551,6.58903,16.1494L6.61265,16.183500000000002L6.63336,16.2195Q6.70792,16.3488,6.74882,16.404600000000002L14.0005,25.9908ZM11.17157,13.8284Q12.34315,15,14,15Q15.6569,15,16.828400000000002,13.8284Q18,12.6569,18,11Q18,9.34315,16.828400000000002,8.17157Q15.6569,7,14,7Q12.34315,7,11.17157,8.17157Q10,9.34315,10,11Q10,12.6569,11.17157,13.8284ZM17,11Q17,11.1474,16.985599999999998,11.2941Q16.9711,11.4407,16.9424,11.5853Q16.913600000000002,11.7298,16.8708,11.8709Q16.828,12.0119,16.7716,12.148Q16.7152,12.2842,16.6458,12.4142Q16.5763,12.5442,16.4944,12.6667Q16.4125,12.7893,16.319000000000003,12.9032Q16.2255,13.0171,16.121299999999998,13.1213Q16.0171,13.2255,15.9032,13.319Q15.7893,13.4125,15.6667,13.4944Q15.5442,13.5763,15.4142,13.6458Q15.2842,13.7152,15.148,13.7716Q15.0119,13.828,14.8709,13.8708Q14.7298,13.9136,14.5853,13.9424Q14.4407,13.9711,14.2941,13.9856Q14.1474,14,14,14Q13.85262,14,13.70595,13.9856Q13.55928,13.9711,13.41473,13.9424Q13.27018,13.9136,13.12915,13.8708Q12.98811,13.828,12.85195,13.7716Q12.71579,13.7152,12.58581,13.6458Q12.45583,13.5763,12.33329,13.4944Q12.21075,13.4125,12.09682,13.319Q11.982890000000001,13.2255,11.87868,13.1213Q11.77447,13.0171,11.68097,12.9032Q11.58747,12.7893,11.50559,12.6667Q11.42371,12.5442,11.35424,12.4142Q11.28476,12.2842,11.22836,12.148Q11.17196,12.0119,11.12918,11.8709Q11.086400000000001,11.7298,11.05764,11.5853Q11.02889,11.4407,11.01445,11.2941Q11,11.1474,11,11Q11,10.85262,11.01445,10.70595Q11.02889,10.55928,11.05764,10.41473Q11.086400000000001,10.27018,11.12918,10.12915Q11.17196,9.98811,11.22836,9.85195Q11.28476,9.71579,11.35424,9.58581Q11.42371,9.45583,11.50559,9.33329Q11.58747,9.21075,11.68097,9.09682Q11.77447,8.982890000000001,11.87868,8.87868Q11.982890000000001,8.77447,12.09682,8.68097Q12.21075,8.58747,12.33329,8.50559Q12.45583,8.42371,12.58581,8.35424Q12.71579,8.28476,12.85195,8.22836Q12.98811,8.17196,13.12915,8.12918Q13.27018,8.086400000000001,13.41473,8.05764Q13.55928,8.02889,13.70595,8.01445Q13.85262,8,14,8Q14.1474,8,14.2941,8.01445Q14.4407,8.02889,14.5853,8.05764Q14.7298,8.086400000000001,14.8709,8.12918Q15.0119,8.17196,15.148,8.22836Q15.2842,8.28476,15.4142,8.35424Q15.5442,8.42371,15.6667,8.50559Q15.7893,8.58747,15.9032,8.68097Q16.0171,8.77447,16.121299999999998,8.87868Q16.2255,8.982890000000001,16.319000000000003,9.09682Q16.4125,9.21075,16.4944,9.33329Q16.5763,9.45583,16.6458,9.58581Q16.7152,9.71579,16.7716,9.85195Q16.828,9.98811,16.8708,10.12915Q16.913600000000002,10.27018,16.9424,10.41473Q16.9711,10.55928,16.985599999999998,10.70595Q17,10.85262,17,11Z" fill-rule="evenodd" fill="#FFFFFF" fill-opacity="1"/></g></g></svg>