<svg xmlns="http://www.w3.org/2000/svg" xmlns:xlink="http://www.w3.org/1999/xlink" fill="none" version="1.1" width="16" height="16" viewBox="0 0 16 16"><g><g style="opacity:0;"><rect x="0" y="0" width="16" height="16" rx="0" fill="#000000" fill-opacity="1"/></g><g><ellipse cx="8" cy="8" rx="8" ry="8" fill="#0A84FF" fill-opacity="1"/></g><g><path d="M8.54533,4.00000054045C8.5937,3.99988269,8.64012,4.019043,8.67431,4.053242C8.70851,4.087441,8.72767,4.133859,8.72756,4.182223L8.72756,4.727112L11.81822,4.727112C11.90596,4.727383,11.98105,4.790145,11.99689,4.876445L12,4.9088899999999995L12,5.27289C12,5.32118,11.980789999999999,5.3674800000000005,11.9466,5.40158C11.912410000000001,5.43569,11.866060000000001,5.45479,11.817779999999999,5.45467L11.27289,5.45467L11.27289,11.27244L11.81822,11.27244C11.86651,11.27244,11.91281,11.29166,11.946909999999999,11.32584C11.981020000000001,11.36003,12.00012,11.40638,12,11.45467L12,11.81822C12,11.86651,11.980789999999999,11.91281,11.9466,11.946909999999999C11.912410000000001,11.981020000000001,11.866060000000001,12.00012,11.817779999999999,12L4.182223,12C4.133859,12.00012,4.087441,11.98096,4.053242,11.946760000000001C4.019043,11.91256,3.99988269,11.86614,4.00000054045,11.817779999999999L4.00000054045,11.45467C4.00000054045,11.35403,4.0815847,11.27244,4.182223,11.27244L4.727112,11.27244L4.727112,5.4551099999999995L4.182223,5.4551099999999995C4.133818,5.4551099999999995,4.0874014,5.43585,4.0532153,5.40158C4.0190292,5.36731,3.999883024,5.32085,4.00000054045,5.27245L4.00000054045,4.9088899999999995C4.00000054045,4.860602,4.0192135,4.814299,4.0533996,4.780196C4.0875857,4.746093,4.133936,4.726994,4.182223,4.727112L7.27289,4.727112L7.27289,4.182223C7.2731200000000005,4.0946213,7.335649999999999,4.0195811,7.42178,4.00355664L7.45467,4.00000054045L8.54533,4.00000054045ZM8.00756,6.233779999999999L7.99111,6.2502200000000006L6.23778,8.62489C6.223,8.64512,6.21856,8.67112,6.22578,8.69511C6.23213,8.71846,6.24985,8.737020000000001,6.27289,8.74444L6.2915600000000005,8.74711L7.61511,8.74711C7.65156,8.74711,7.68178,8.77778,7.684,8.81689L7.68267,8.83689L7.44356,10.13289C7.43794,10.16178,7.44913,10.19137,7.472440000000001,10.20933C7.49511,10.22622,7.52489,10.22667,7.548,10.21022L7.56489,10.19422L9.31822,7.81911C9.33285,7.7988,9.337119999999999,7.77281,9.32978,7.748889999999999C9.323229999999999,7.72575,9.30555,7.7074,9.28267,7.7L9.26444,7.69733L7.94089,7.69733C7.90444,7.69733,7.87422,7.66667,7.871560000000001,7.62756L7.87333,7.6071100000000005L8.11244,6.31156C8.11795,6.2826699999999995,8.10679,6.25314,8.08356,6.235110000000001C8.061209999999999,6.21818,8.03048,6.217639999999999,8.00756,6.233779999999999Z" fill="#FFFFFF" fill-opacity="1" style="mix-blend-mode:passthrough"/></g></g></svg>