<svg xmlns="http://www.w3.org/2000/svg" xmlns:xlink="http://www.w3.org/1999/xlink" fill="none" version="1.1" width="40" height="40" viewBox="0 0 40 40"><g><g style="opacity:0;"><rect x="0" y="0" width="40" height="40" rx="0" fill="#000000" fill-opacity="1"/></g><g><g style="opacity:0.1590401828289032;"><ellipse cx="20" cy="32" rx="7" ry="7" fill="#0A84FF" fill-opacity="1"/></g><g><ellipse cx="20" cy="32" rx="4" ry="4" fill="#0A84FF" fill-opacity="1"/><ellipse cx="20" cy="32" rx="3.5" ry="3.5" fill-opacity="0" stroke-opacity="1" stroke="#FFFFFF" fill="none" stroke-width="1"/></g></g><g><path d="M8,12.9563C8,6.36368,13.382259999999999,1,20,1C26.6167,1,32,6.36368,32,12.9563C32.0032,15.3943,31.2545,17.7743,29.8556,19.7729C29.816,19.8458,29.7419,19.9708,29.6563,20.0853L20.9381,31.5417C20.6595,31.8531,20.3381,32,20,32C19.6577,32,19.3384,31.8542,19.1005,31.5907L10.34156,20.0864C10.259129999999999,19.9749,10.18922,19.8604,10.12035,19.7416C8.738782,17.7597,8,15.4038,8,12.9563ZM20,17Q20.1965,17,20.3921,16.9807Q20.587600000000002,16.9615,20.7804,16.923099999999998Q20.973100000000002,16.8848,21.161099999999998,16.8278Q21.3492,16.770699999999998,21.5307,16.6955Q21.7123,16.6203,21.8856,16.5277Q22.0589,16.4351,22.2223,16.3259Q22.3857,16.2167,22.537599999999998,16.092Q22.689500000000002,15.9674,22.828400000000002,15.8284Q22.967399999999998,15.6895,23.092,15.5376Q23.2167,15.3857,23.3259,15.2223Q23.4351,15.0589,23.5277,14.8856Q23.6203,14.7123,23.6955,14.5307Q23.770699999999998,14.3492,23.8278,14.1611Q23.8848,13.9731,23.923099999999998,13.7804Q23.9615,13.5876,23.9807,13.3921Q24,13.1965,24,13Q24,12.8035,23.9807,12.6079Q23.9615,12.4124,23.923099999999998,12.2196Q23.8848,12.0269,23.8278,11.8389Q23.770699999999998,11.6508,23.6955,11.4693Q23.6203,11.2877,23.5277,11.1144Q23.4351,10.94111,23.3259,10.77772Q23.2167,10.61433,23.092,10.46243Q22.967399999999998,10.31052,22.828400000000002,10.17157Q22.689500000000002,10.03262,22.537599999999998,9.90796Q22.3857,9.7833,22.2223,9.67412Q22.0589,9.56495,21.8856,9.47231Q21.7123,9.37968,21.5307,9.30448Q21.3492,9.22928,21.161099999999998,9.17224Q20.973100000000002,9.1152,20.7804,9.07686Q20.587600000000002,9.03852,20.3921,9.01926Q20.1965,9,20,9Q19.8035,9,19.6079,9.01926Q19.412399999999998,9.03852,19.2196,9.07686Q19.026899999999998,9.1152,18.838900000000002,9.17224Q18.6508,9.22928,18.4693,9.30448Q18.2877,9.37968,18.1144,9.47231Q17.941110000000002,9.56495,17.777720000000002,9.67412Q17.614330000000002,9.7833,17.462429999999998,9.90796Q17.31052,10.03262,17.17157,10.17157Q17.03262,10.31052,16.90796,10.46243Q16.7833,10.61433,16.674120000000002,10.77772Q16.56495,10.94111,16.47231,11.1144Q16.37968,11.2877,16.304479999999998,11.4693Q16.22928,11.6508,16.172240000000002,11.8389Q16.11519,12.0269,16.07686,12.2196Q16.03852,12.4124,16.01926,12.6079Q16,12.8035,16,13Q16,13.1965,16.01926,13.3921Q16.03852,13.5876,16.07686,13.7804Q16.11519,13.9731,16.172240000000002,14.1611Q16.22928,14.3492,16.304479999999998,14.5307Q16.37968,14.7123,16.47231,14.8856Q16.56495,15.0589,16.674120000000002,15.2223Q16.7833,15.3857,16.90796,15.5376Q17.03262,15.6895,17.17157,15.8284Q17.31052,15.9674,17.462429999999998,16.092Q17.614330000000002,16.2167,17.777720000000002,16.3259Q17.941110000000002,16.4351,18.1144,16.5277Q18.2877,16.6203,18.4693,16.6955Q18.6508,16.770699999999998,18.838900000000002,16.8278Q19.026899999999998,16.8848,19.2196,16.923099999999998Q19.412399999999998,16.9615,19.6079,16.9807Q19.8035,17,20,17Z" fill-rule="evenodd" fill="#0A84FF" fill-opacity="1"/><path d="M29.8556,19.7729C31.2545,17.7743,32.0032,15.3943,32,12.9563C32,6.36368,26.6167,1,20,1C13.382259999999999,1,8,6.36368,8,12.9563C8,15.4038,8.738782,17.7597,10.12035,19.7416C10.18922,19.8604,10.259129999999999,19.9749,10.34156,20.0864L19.1005,31.5907C19.3384,31.8542,19.6577,32,20,32C20.3381,32,20.6595,31.8531,20.9381,31.5417L29.6563,20.0853C29.7419,19.9708,29.816,19.8458,29.8556,19.7729ZM20.000700000000002,30.792L28.6949,19.3672Q28.7514,19.2916,28.8015,19.1995L28.8338,19.1402L28.8725,19.0848Q30.8045,16.3246,30.8,12.9563Q30.8,8.51019,27.6343,5.356Q24.4667,2.2,20,2.2Q15.53266,2.2,12.36535,5.35597Q9.2,8.509979999999999,9.2,12.9563Q9.2,16.3229,11.10478,19.0554L11.13332,19.0964L11.15836,19.1395Q11.24758,19.2934,11.296330000000001,19.3595L20.000700000000002,30.792ZM16.32304,16.677Q17.84609,18.2,20,18.2Q22.1539,18.2,23.677,16.677Q25.2,15.1539,25.2,13Q25.2,10.84609,23.677,9.32304Q22.1539,7.8,20,7.8Q17.84609,7.8,16.32304,9.32304Q14.8,10.84609,14.8,13Q14.8,15.1539,16.32304,16.677ZM24,13Q24,13.1965,23.9807,13.3921Q23.9615,13.5876,23.923099999999998,13.7804Q23.8848,13.9731,23.8278,14.1611Q23.770699999999998,14.3492,23.6955,14.5307Q23.6203,14.7123,23.5277,14.8856Q23.4351,15.0589,23.3259,15.2223Q23.2167,15.3857,23.092,15.5376Q22.967399999999998,15.6895,22.828400000000002,15.8284Q22.689500000000002,15.9674,22.537599999999998,16.092Q22.3857,16.2167,22.2223,16.3259Q22.0589,16.4351,21.8856,16.5277Q21.7123,16.6203,21.5307,16.6955Q21.3492,16.770699999999998,21.161099999999998,16.8278Q20.973100000000002,16.8848,20.7804,16.923099999999998Q20.587600000000002,16.9615,20.3921,16.9807Q20.1965,17,20,17Q19.8035,17,19.6079,16.9807Q19.412399999999998,16.9615,19.2196,16.923099999999998Q19.026899999999998,16.8848,18.838900000000002,16.8278Q18.6508,16.770699999999998,18.4693,16.6955Q18.2877,16.6203,18.1144,16.5277Q17.941110000000002,16.4351,17.777720000000002,16.3259Q17.614330000000002,16.2167,17.462429999999998,16.092Q17.31052,15.9674,17.17157,15.8284Q17.03262,15.6895,16.90796,15.5376Q16.7833,15.3857,16.674120000000002,15.2223Q16.56495,15.0589,16.47231,14.8856Q16.37968,14.7123,16.304479999999998,14.5307Q16.22928,14.3492,16.172240000000002,14.1611Q16.11519,13.9731,16.07686,13.7804Q16.03852,13.5876,16.01926,13.3921Q16,13.1965,16,13Q16,12.8035,16.01926,12.6079Q16.03852,12.4124,16.07686,12.2196Q16.11519,12.0269,16.172240000000002,11.8389Q16.22928,11.6508,16.304479999999998,11.4693Q16.37968,11.2877,16.47231,11.1144Q16.56495,10.94111,16.674120000000002,10.77772Q16.7833,10.61433,16.90796,10.46243Q17.03262,10.31052,17.17157,10.17157Q17.31052,10.03262,17.462429999999998,9.90796Q17.614330000000002,9.7833,17.777720000000002,9.67412Q17.941110000000002,9.56495,18.1144,9.47231Q18.2877,9.37968,18.4693,9.30448Q18.6508,9.22928,18.838900000000002,9.17224Q19.026899999999998,9.1152,19.2196,9.07686Q19.412399999999998,9.03852,19.6079,9.01926Q19.8035,9,20,9Q20.1965,9,20.3921,9.01926Q20.587600000000002,9.03852,20.7804,9.07686Q20.973100000000002,9.1152,21.161099999999998,9.17224Q21.3492,9.22928,21.5307,9.30448Q21.7123,9.37968,21.8856,9.47231Q22.0589,9.56495,22.2223,9.67412Q22.3857,9.7833,22.537599999999998,9.90796Q22.689500000000002,10.03262,22.828400000000002,10.17157Q22.967399999999998,10.31052,23.092,10.46243Q23.2167,10.61433,23.3259,10.77772Q23.4351,10.94111,23.5277,11.1144Q23.6203,11.2877,23.6955,11.4693Q23.770699999999998,11.6508,23.8278,11.8389Q23.8848,12.0269,23.923099999999998,12.2196Q23.9615,12.4124,23.9807,12.6079Q24,12.8035,24,13Z" fill-rule="evenodd" fill="#FFFFFF" fill-opacity="1"/></g></g></svg>