<svg xmlns="http://www.w3.org/2000/svg" xmlns:xlink="http://www.w3.org/1999/xlink" fill="none" version="1.1" width="16" height="16" viewBox="0 0 16 16"><g><g style="opacity:0;"><rect x="0" y="0" width="16" height="16" rx="0" fill="#000000" fill-opacity="1"/></g><g><ellipse cx="8" cy="8" rx="8" ry="8" fill="#0A84FF" fill-opacity="1"/></g><g><g><path d="M7.55556,4C9.519110000000001,4,11.11111,5.49244,11.11111,7.33333C11.11111,8.52178,10.44756,9.56533,9.448889999999999,10.155560000000001C9.46758,10.40508,9.376149999999999,10.65029,9.19867,10.82667C9.019110000000001,11.008,8.76756,11.11111,8.50356,11.11111L6.607559999999999,11.11111C6.34356,11.11111,6.091559999999999,11.008,5.912,10.82667C5.7343399999999995,10.650220000000001,5.6428899999999995,10.40479,5.66178,10.15511C4.663556,9.56533,4,8.52178,4,7.33333C4,5.49244,5.5920000000000005,4,7.55556,4ZM7.8788599999999995,5.10958C7.76368,5.10548,7.65476,5.16197,7.59175,5.25847C7.5319199999999995,5.35242,7.5319199999999995,5.47253,7.59175,5.56647C7.65465,5.66315,7.7636,5.71982,7.8788599999999995,5.71581C8.65264,5.71581,9.27975,6.30381,9.27975,7.02914C9.27664,7.138920000000001,9.337530000000001,7.24247,9.43886,7.29803C9.54119,7.354,9.66498,7.354,9.76731,7.29803C9.86642,7.245229999999999,9.927669999999999,7.14142,9.92597,7.02914C9.92597,6.51981,9.71042,6.03181,9.32686,5.67181C8.9328,5.3078,8.41531,5.10687,7.8788599999999995,5.10958ZM8.622679999999999,11.33203C8.81912,11.33203,8.97823,11.481359999999999,8.97823,11.66536C8.97823,11.84936,8.81912,11.9987,8.622679999999999,11.9987L6.48934,11.9987C6.2928999999999995,11.9987,6.133789999999999,11.84936,6.133789999999999,11.66536C6.133789999999999,11.481359999999999,6.2928999999999995,11.33203,6.48934,11.33203L8.622679999999999,11.33203ZM8.30231,12.22313C8.400089999999999,12.22313,8.48765,12.27913,8.5232,12.36491C8.55876,12.45024,8.53476,12.54713,8.46276,12.60935C8.24454,12.79602,7.94231,12.8898,7.55565,12.8898C7.1689799999999995,12.8898,6.86676,12.79647,6.64898,12.60935C6.57761,12.54983,6.55298,12.45096,6.588089999999999,12.36491C6.6264400000000006,12.27721,6.71372,12.22112,6.809419999999999,12.22269L8.30276,12.22269L8.30231,12.22313Z" fill-rule="evenodd" fill="#FFFFFF" fill-opacity="1"/></g></g></g></svg>