<svg xmlns="http://www.w3.org/2000/svg" xmlns:xlink="http://www.w3.org/1999/xlink" fill="none" version="1.1" width="16" height="16" viewBox="0 0 16 16"><defs><clipPath id="master_svg0_1632_00431"><rect x="0" y="0" width="16" height="16" rx="0"/></clipPath></defs><g clip-path="url(#master_svg0_1632_00431)"><g><path d="M9.25902,1.876709L9.26039,1.876989Q9.33479,1.892215,9.41074,1.892215Q9.48461,1.892215,9.55706,1.877804Q9.62951,1.8633929999999999,9.69775,1.8351250000000001Q9.766,1.806856,9.82742,1.765817Q9.88884,1.7247780000000001,9.94107,1.672545Q9.99331,1.620312,10.03434,1.5588929999999999Q10.07538,1.497473,10.10365,1.429228Q10.13192,1.360982,10.14633,1.288533Q10.16074,1.216084,10.16074,1.142215Q10.16074,1.0778884,10.14979,1.0145012Q10.13884,0.9511139,10.11725,0.890518Q10.09566,0.829922,10.06407,0.773887Q10.03248,0.717851,9.99181,0.668014Q9.95113,0.618177,9.90257,0.575994Q9.85401,0.53381,9.79897,0.500513Q9.74393,0.46721500000000005,9.68402,0.44377599999999995Q9.62412,0.42033699999999996,9.5611,0.40744100000000005L9.56104,0.407428L9.56029,0.40727500000000005Q8.79129,0.25,8,0.25Q4.78984,0.25,2.51992,2.51992Q0.25,4.78984,0.24999899999999997,8Q0.25,11.2102,2.51992,13.4801Q4.7898499999999995,15.75,8,15.75Q11.2102,15.75,13.4801,13.4801Q15.7496,11.2106,15.75,8.001249999999999L15.75,8Q15.75,7.92613,15.7356,7.85368Q15.7212,7.78123,15.6929,7.71298Q15.6646,7.64474,15.6236,7.58332Q15.5826,7.5219,15.5303,7.46967Q15.4781,7.41744,15.4167,7.3764Q15.3553,7.33536,15.287,7.30709Q15.2188,7.27882,15.1463,7.26441Q15.0739,7.25,15,7.25Q14.9261,7.25,14.8537,7.26441Q14.7812,7.27882,14.713,7.30709Q14.6447,7.33536,14.5833,7.3764Q14.5219,7.41744,14.4697,7.46967Q14.4174,7.5219,14.3764,7.58332Q14.3354,7.64474,14.3071,7.71299Q14.2788,7.78123,14.2644,7.85368Q14.25,7.92613,14.25,8Q14.25,10.58883,12.4194,12.4194Q10.58884,14.25,8,14.25Q5.41116,14.25,3.58058,12.4194Q1.75,10.58884,1.7499989999999999,8Q1.75,5.41116,3.58058,3.58058Q5.41116,1.75,8,1.75Q8.638539999999999,1.75,9.25793,1.8764859999999999L9.25902,1.876709Z" fill-rule="evenodd" fill="#0092FF" fill-opacity="1"/></g><g><path d="M14.03033,4.53033Q14.13582,4.424841,14.19291,4.287012Q14.25,4.149184,14.25,4Q14.25,3.9261315,14.23559,3.853682Q14.22118,3.781233,14.19291,3.712987Q14.16464,3.644742,14.1236,3.583322Q14.08256,3.521903,14.03033,3.46967Q13.9781,3.417437,13.91668,3.376398Q13.85526,3.335359,13.78701,3.30709Q13.71877,3.278822,13.64632,3.264411Q13.57387,3.25,13.5,3.25Q13.35081,3.25,13.21299,3.30709Q13.07516,3.364181,12.96967,3.46967L12.96921,3.470132L7.44434,8.995000000000001L5.468591,7.4144000000000005L5.468521,7.414350000000001Q5.368783,7.33456,5.248255,7.29228Q5.127728,7.25,5,7.25Q4.9261315,7.25,4.853682,7.26441Q4.781233,7.27882,4.712987,7.3070900000000005Q4.644742,7.33536,4.583322,7.3764Q4.521903,7.41744,4.46967,7.46967Q4.417437,7.5219000000000005,4.376398,7.5833200000000005Q4.335359,7.6447400000000005,4.30709,7.71299Q4.278822,7.78123,4.264411,7.853680000000001Q4.25,7.926130000000001,4.25,8Q4.25,8.08436,4.26874,8.16661Q4.28748,8.24886,4.324023,8.32489Q4.360566,8.40092,4.413086,8.466940000000001Q4.465606,8.53295,4.531479,8.585650000000001L7.03148,10.585650000000001Q7.08507,10.62853,7.14556,10.66096Q7.206049999999999,10.6934,7.27142,10.71432Q7.336790000000001,10.735240000000001,7.40487,10.74394Q7.47295,10.75265,7.54148,10.748850000000001Q7.609999999999999,10.745059999999999,7.67671,10.72889Q7.74341,10.712710000000001,7.80607,10.684709999999999Q7.868729999999999,10.6567,7.92526,10.61778Q7.9818,10.578859999999999,8.03033,10.53033L14.03033,4.53033L14.03033,4.53033Z" fill-rule="evenodd" fill="#0092FF" fill-opacity="1"/></g></g></svg>