<svg xmlns="http://www.w3.org/2000/svg" xmlns:xlink="http://www.w3.org/1999/xlink" fill="none" version="1.1" width="16" height="16" viewBox="0 0 16 16"><g><g transform="matrix(0,1,-1,0,19,-7)"><path d="M12.609566,6.312348Q12.5,6.175391,12.5,6Q12.5,5.9507543,12.509607,5.9024549Q12.519214999999999,5.854155,12.53806,5.808658Q12.556906,5.763161,12.584265,5.722215Q12.611625,5.681269,12.646447,5.646447Q12.681269,5.611625,12.722215,5.584265Q12.763161,5.556906,12.808658,5.53806Q12.854155,5.519215,12.9024549,5.509607Q12.9507543,5.5,13,5.5Q13.113919,5.5,13.216594,5.549348Q13.31927,5.598697,13.390434,5.687652L17.390430000000002,10.68765Q17.44363,10.75415,17.471809999999998,10.8345Q17.5,10.914850000000001,17.5,11Q17.5,11.085149999999999,17.471809999999998,11.1655Q17.44363,11.24586,17.390430000000002,11.31235L13.390589,16.3122L13.390434,16.3123Q13.31927,16.4013,13.216594,16.450699999999998Q13.113919,16.5,13,16.5Q12.9507543,16.5,12.9024549,16.4904Q12.854155,16.480800000000002,12.808658,16.4619Q12.763161,16.4431,12.722215,16.4157Q12.681269,16.3884,12.646447,16.3536Q12.611625,16.3187,12.584265,16.2778Q12.556906,16.236800000000002,12.53806,16.1913Q12.519214999999999,16.1458,12.509607,16.0975Q12.5,16.0492,12.5,16Q12.5,15.82461,12.609566,15.68765L12.60972,15.68746L16.35969,11L12.609566,6.312348Z" fill-rule="evenodd" fill="#C1C8D3" fill-opacity="1"/></g></g></svg>