<svg xmlns="http://www.w3.org/2000/svg" xmlns:xlink="http://www.w3.org/1999/xlink" fill="none" version="1.1" width="16" height="16" viewBox="0 0 16 16"><defs><clipPath id="master_svg0_1703_06012/1703_04322"><rect x="0" y="0" width="16" height="16" rx="0"/></clipPath></defs><g clip-path="url(#master_svg0_1703_06012/1703_04322)"><g><path d="M12.5167,6.543637Q12.6284,6.437445,12.6892,6.295795Q12.75,6.154145,12.75,6Q12.75,5.9261315,12.7356,5.853682Q12.7212,5.781233,12.6929,5.712987Q12.6646,5.644742,12.6236,5.583322Q12.5826,5.521903,12.5303,5.46967Q12.4781,5.417437,12.4167,5.376398Q12.3553,5.335359,12.287,5.30709Q12.2188,5.278822,12.1463,5.264411Q12.0739,5.25,12,5.25Q11.8558,5.25,11.7218,5.303499Q11.5879,5.356997,11.4833,5.456362L11.4829,5.456799L7.69565,9.05621L5.34277,6.819999Q5.29097,6.770768,5.2308,6.732204Q5.17064,6.693642,5.10427,6.667135Q5.0379,6.640629,4.9677299999999995,6.627132Q4.89755,6.613636,4.826090000000001,6.613636Q4.75462,6.613636,4.68445,6.627132Q4.614269999999999,6.640629,4.5479,6.667135Q4.48154,6.693642,4.42137,6.732205Q4.36121,6.770768,4.30941,6.819999L0.48346100000000003,10.45623L0.48331999999999997,10.45636Q0.37158800000000003,10.56255,0.310794,10.7042Q0.25,10.84585,0.25,11Q0.25,11.07387,0.26441099999999995,11.14632Q0.278822,11.21877,0.30709,11.28701Q0.33535899999999996,11.355260000000001,0.376398,11.41668Q0.41743699999999995,11.478100000000001,0.46967000000000003,11.53033Q0.521903,11.58256,0.583322,11.6236Q0.6447419999999999,11.66464,0.712987,11.692910000000001Q0.7812330000000001,11.72118,0.853682,11.73559Q0.9261315,11.75,1,11.75Q1.144236,11.75,1.278183,11.6965Q1.412131,11.643,1.51668,11.54364L1.516822,11.5435L4.826090000000001,8.39833L7.17897,10.63455Q7.23077,10.683779999999999,7.29094,10.722339999999999Q7.3511,10.7609,7.41747,10.787410000000001Q7.48383,10.81392,7.55401,10.82741Q7.62419,10.840910000000001,7.69565,10.840910000000001Q7.76711,10.840910000000001,7.83729,10.82741Q7.90747,10.81392,7.97383,10.787410000000001Q8.040199999999999,10.7609,8.10037,10.722339999999999Q8.16053,10.683779999999999,8.21233,10.63455L12.5167,6.543637L12.5167,6.543637Z" fill-rule="evenodd" fill="#0F9D90" fill-opacity="1"/></g><g><path d="M13.530484,12.969824L15.03033,14.46967Q15.135819999999999,14.57516,15.19291,14.71299Q15.25,14.85082,15.25,15Q15.25,15.07387,15.23559,15.14632Q15.22118,15.21877,15.19291,15.28701Q15.16464,15.35526,15.1236,15.41668Q15.08256,15.4781,15.03033,15.53033Q14.9781,15.58256,14.91668,15.6236Q14.85526,15.66464,14.78701,15.69291Q14.71877,15.72118,14.64632,15.73559Q14.57387,15.75,14.5,15.75Q14.35082,15.75,14.21299,15.69291Q14.07516,15.635819999999999,13.96967,15.53033L12.469824,14.030484L12.46967,14.03033Q12.364181,13.924841,12.30709,13.787013Q12.25,13.649184,12.25,13.5Q12.25,13.4261315,12.264410999999999,13.353682Q12.278822,13.281233,12.30709,13.212987Q12.335359,13.144742,12.376398,13.083322Q12.417437,13.021903,12.46967,12.96967Q12.521903,12.917437,12.583322,12.876398Q12.644742,12.835359,12.712987,12.80709Q12.781233,12.778822,12.853682,12.764410999999999Q12.9261315,12.75,13,12.75Q13.149184,12.75,13.287013,12.80709Q13.424841,12.864181,13.53033,12.96967L13.530484,12.969824Z" fill-rule="evenodd" fill="#0F9D90" fill-opacity="1"/></g><g><path d="M7.85779,14.25Q5.26895,14.25,3.43837,12.4194Q3.33288,12.3139,3.19505,12.2568Q3.05722,12.1997,2.9080399999999997,12.1997Q2.8341700000000003,12.1997,2.76172,12.2142Q2.68927,12.2286,2.6210199999999997,12.2568Q2.5527800000000003,12.2851,2.4913600000000002,12.3261Q2.42994,12.3672,2.37771,12.4194Q2.32547,12.4716,2.28443,12.5331Q2.2434000000000003,12.5945,2.2151300000000003,12.6627Q2.1868600000000002,12.731,2.17245,12.8034Q2.1580399999999997,12.8759,2.1580399999999997,12.9497Q2.1580399999999997,13.0989,2.2151300000000003,13.2368Q2.27222,13.3746,2.37771,13.4801L2.37814,13.4805Q4.647930000000001,15.75,7.85779,15.75Q11.0679,15.75,13.3379,13.4801Q15.6078,11.2102,15.6078,8Q15.6078,4.78984,13.3379,2.51992Q11.0679,0.25,7.85779,0.25Q4.6476299999999995,0.25,2.37771,2.51992Q1.30544,3.59219,0.7171259999999999,4.9831199999999995Q0.41878400000000005,5.68848,0.26522599999999996,6.4389Q0.25,6.51331,0.25,6.58926Q0.25,6.66312,0.26441099999999995,6.73557Q0.278822,6.80802,0.30709,6.87627Q0.33535899999999996,6.94451,0.376398,7.00593Q0.41743699999999995,7.06735,0.46967000000000003,7.11959Q0.521903,7.17182,0.583322,7.21286Q0.6447419999999999,7.2539,0.712987,7.28217Q0.7812330000000001,7.31043,0.853682,7.32484Q0.9261315,7.33926,1,7.33926Q1.0643267,7.33926,1.127714,7.3283Q1.191101,7.31735,1.251697,7.29576Q1.312294,7.27417,1.3683290000000001,7.24258Q1.424364,7.21099,1.4742009999999999,7.17032Q1.524038,7.12965,1.566221,7.08108Q1.6084049999999999,7.03252,1.641702,6.97748Q1.675,6.92244,1.698439,6.86254Q1.721878,6.80263,1.734774,6.73961Q1.858418,6.13538,2.09863,5.56745Q2.5729800000000003,4.44597,3.43837,3.58058Q5.26895,1.75,7.85779,1.75Q10.44662,1.75,12.2772,3.58058Q14.1078,5.41116,14.1078,8Q14.1078,10.58884,12.2772,12.4194Q10.44662,14.25,7.85779,14.25Z" fill-rule="evenodd" fill="#0F9D90" fill-opacity="1"/></g></g></svg>