<svg xmlns="http://www.w3.org/2000/svg" xmlns:xlink="http://www.w3.org/1999/xlink" fill="none" version="1.1" width="16" height="16" viewBox="0 0 16 16"><g transform="matrix(1,0,0,-1,0,32)"><g transform="matrix(0,1,-1,0,35,9)"><path d="M12.609566,22.312348Q12.5,22.175391,12.5,22Q12.5,21.9507543,12.509607,21.9024549Q12.519214999999999,21.854155,12.53806,21.808658Q12.556906,21.763161,12.584265,21.722215Q12.611625,21.681269,12.646447,21.646447Q12.681269,21.611625,12.722215,21.584265Q12.763161,21.556906,12.808658,21.53806Q12.854155,21.519215,12.9024549,21.509607Q12.9507543,21.5,13,21.5Q13.113919,21.5,13.216594,21.549348Q13.31927,21.598697,13.390434,21.687652L17.390430000000002,26.687649999999998Q17.44363,26.75415,17.471809999999998,26.8345Q17.5,26.91485,17.5,27Q17.5,27.08515,17.471809999999998,27.1655Q17.44363,27.24586,17.390430000000002,27.312350000000002L13.390589,32.312200000000004L13.390434,32.3123Q13.31927,32.4013,13.216594,32.4507Q13.113919,32.5,13,32.5Q12.9507543,32.5,12.9024549,32.4904Q12.854155,32.4808,12.808658,32.4619Q12.763161,32.4431,12.722215,32.4157Q12.681269,32.388400000000004,12.646447,32.3536Q12.611625,32.3187,12.584265,32.2778Q12.556906,32.2368,12.53806,32.1913Q12.519214999999999,32.1458,12.509607,32.0975Q12.5,32.0492,12.5,32Q12.5,31.82461,12.609566,31.687649999999998L12.60972,31.68746L16.35969,27L12.609566,22.312348Z" fill-rule="evenodd" fill="#C1C8D3" fill-opacity="1"/></g></g></svg>