<svg xmlns="http://www.w3.org/2000/svg" xmlns:xlink="http://www.w3.org/1999/xlink" fill="none" version="1.1" width="90" height="32" viewBox="0 0 90 32"><g><g><rect x="0.5" y="0.5" width="89" height="31" rx="4.5" fill-opacity="0" stroke-opacity="1" stroke="#0ABAB5" fill="none" stroke-width="1"/></g><g><path d="M20.374,9.492C19.772,11.648,18.806,13.58,17.49,15.26L17.826,16.323999999999998C18.288,15.792,18.722,15.218,19.114,14.63L19.114,22.4L20.136,22.4L20.136,12.879999999999999C20.598,11.956,20.990000000000002,10.962,21.312,9.926L20.374,9.492ZM25.582,9.492L24.56,9.66C24.714,9.982,24.854,10.332,24.98,10.696L21.312,10.696L21.312,11.591999999999999L29.978,11.591999999999999L29.978,10.696L25.988,10.696C25.848,10.248000000000001,25.722,9.842,25.582,9.492ZM22.236,12.404L22.236,15.05L28.9,15.05L28.9,12.404L22.236,12.404ZM27.92,14.28L23.216,14.28L23.216,13.174L27.92,13.174L27.92,14.28ZM30.006,15.862L21.186,15.862L21.186,18.256L22.124,18.256L22.124,18.886L25.189999999999998,18.886L25.189999999999998,20.902C25.189999999999998,21.21,25.008,21.378,24.644,21.378C24.182000000000002,21.378,23.706,21.35,23.201999999999998,21.322L23.412,22.302L24.994,22.302C25.805999999999997,22.302,26.226,21.91,26.226,21.154L26.226,18.886L29.25,18.886L29.25,18.256L30.006,18.256L30.006,15.862ZM22.166,18.018L22.166,16.744L29.04,16.744L29.04,18.018L22.166,18.018ZM38.098,9.632L38.098,20.817999999999998L35.172,20.817999999999998L35.172,12.082L34.164,12.082L34.164,20.817999999999998L31.784,20.817999999999998L31.784,21.798000000000002L44.216,21.798000000000002L44.216,20.817999999999998L39.134,20.817999999999998L39.134,15.162L43.446,15.162L43.446,14.182L39.134,14.182L39.134,9.632L38.098,9.632ZM48.373999999999995,13.146L51.734,13.146L51.734,16.380000000000003L47.617999999999995,16.380000000000003L47.617999999999995,17.36L51.734,17.36L51.734,20.916L45.924,20.916L45.924,21.924L58.258,21.924L58.258,20.916L52.756,20.916L52.756,17.36L57.082,17.36L57.082,16.380000000000003L52.756,16.380000000000003L52.756,13.146L57.362,13.146L57.362,12.166L52.756,12.166L52.756,9.674L51.734,9.674L51.734,12.166L48.738,12.166C48.948,11.536,49.13,10.864,49.284,10.136L48.262,9.954C47.8,12.292,46.903999999999996,14.154,45.588,15.526L46.232,16.352C47.1,15.484,47.814,14.42,48.373999999999995,13.146ZM69.416,9.52L68.77199999999999,10.136C69.48599999999999,10.682,70.04599999999999,11.2,70.46600000000001,11.704L67.848,11.704C67.82,11.032,67.806,10.318,67.806,9.533999999999999L66.77000000000001,9.533999999999999C66.77000000000001,10.29,66.78399999999999,11.004,66.812,11.704L61.03,11.704L61.03,16.366C60.988,18.648,60.526,20.426000000000002,59.63,21.714L60.4,22.4C61.436,20.887999999999998,61.996,18.872,62.052,16.366L62.052,15.946L64.47399999999999,15.946C64.446,17.486,64.404,18.494,64.32,18.97C64.23599999999999,19.362000000000002,64.03999999999999,19.572,63.732,19.586C63.354,19.586,62.892,19.572,62.346,19.544L62.654,20.454C63.102,20.482,63.508,20.509999999999998,63.844,20.509999999999998C64.544,20.482,64.97800000000001,20.174,65.16,19.572C65.342,18.886,65.45400000000001,17.36,65.482,14.994L62.052,14.994L62.052,12.67L66.854,12.67C66.96600000000001,14.42,67.162,15.89,67.47,17.066000000000003C67.624,17.668,67.806,18.228,68.00200000000001,18.746000000000002C67.036,19.964,65.846,20.887999999999998,64.446,21.518L65.006,22.358C66.322,21.77,67.47,20.916,68.45,19.768C68.66,20.201999999999998,68.898,20.594,69.15,20.93C69.822,21.77,70.452,22.19,71.03999999999999,22.19C71.67,22.19,72.146,21.252000000000002,72.482,19.39L71.572,18.886C71.362,20.328,71.124,21.055999999999997,70.872,21.07C70.592,21.07,70.214,20.734,69.75200000000001,20.061999999999998C69.52799999999999,19.740000000000002,69.318,19.348,69.122,18.9C70.018,17.64,70.74600000000001,16.072,71.306,14.224L70.396,13.832C69.962,15.33,69.402,16.646,68.702,17.766C68.604,17.458,68.506,17.136,68.422,16.786C68.17,15.778,67.988,14.406,67.89,12.67L72.202,12.67L72.202,11.704L70.494,11.704L71.138,11.059999999999999C70.662,10.542,70.088,10.024000000000001,69.416,9.52Z" fill="#0ABAB5" fill-opacity="1"/><path d="M20.07558,10.45578C20.03436,10.576640000000001,19.99193,10.69674,19.94829,10.81607C19.71267,11.46034,19.44176,12.082139999999999,19.136,12.68063C18.88839,13.165289999999999,18.61793,13.63466,18.32483,14.08828C18.06437,14.4914,17.786042,14.88207,17.49,15.26L17.826,16.323999999999998C17.923285,16.212,18.01933,16.098100000000002,18.114,15.9826C18.15286,15.93519,18.1915,15.88751,18.22989,15.83958C18.34868,15.69127,18.46517,15.54056,18.57909,15.38797C18.76459,15.13951,18.94328,14.88608,19.114,14.63L19.114,22.4L20.136,22.4L20.136,12.879999999999999C20.19584,12.76032,20.25451,12.63946,20.312,12.517489999999999C20.52465,12.06636,20.72123,11.59999,20.90174,11.12147C21.04922,10.73053,21.18597,10.331479999999999,21.312,9.926L21.292839999999998,9.91714L20.8149,9.696L20.374,9.492C20.35495,9.560220000000001,20.33554,9.62823,20.31576,9.696C20.31451,9.700289999999999,20.31325,9.70457,20.312,9.70886C20.23823,9.96097,20.15941,10.20995,20.07558,10.45578ZM25.189999999999998,19.886L25.189999999999998,20.902C25.189999999999998,21.089100000000002,25.12286,21.2245,24.98858,21.302C24.90178,21.3521,24.786920000000002,21.378,24.644,21.378C24.50908,21.378,24.37297,21.3756,24.23532,21.371499999999997C23.967570000000002,21.363599999999998,23.69399,21.3493,23.412,21.3337C23.34252,21.3298,23.27254,21.3259,23.201999999999998,21.322L23.412,22.302L24.994,22.302C25.072319999999998,22.302,25.146990000000002,22.2984,25.21799,22.2911C25.883110000000002,22.223,26.226,21.8371,26.226,21.154L26.226,18.886L29.25,18.886L29.25,18.256L30.006,18.256L30.006,15.862L21.186,15.862L21.186,18.256L22.124,18.256L22.124,18.886L25.189999999999998,18.886L25.189999999999998,19.886ZM25.226,18.018L29.04,18.018L29.04,16.744L22.166,16.744L22.166,18.018L25.226,18.018ZM29.978,11.591999999999999L29.978,10.696L25.988,10.696C25.97709,10.66108,25.96626,10.62641,25.9555,10.591999999999999C25.82827,10.18504,25.71109,9.81472,25.582,9.492L24.56,9.66C24.56572,9.67196,24.57142,9.683959999999999,24.57711,9.696C24.60306,9.751,24.628619999999998,9.80678,24.65377,9.86329C24.75715,10.095559999999999,24.85372,10.34005,24.94348,10.591999999999999C24.94554,10.59779,24.9476,10.603580000000001,24.94965,10.60937C24.95986,10.63815,24.96997,10.66703,24.98,10.696L21.312,10.696L21.312,11.591999999999999L29.978,11.591999999999999ZM28.9,14.862L28.9,12.404L22.236,12.404L22.236,15.05L28.9,15.05L28.9,14.862ZM27.9,14.28L27.92,14.28L27.92,13.174L23.216,13.174L23.216,14.28L27.9,14.28ZM67.80619999999999,9.67604C67.806,9.62895,67.806,9.5816,67.806,9.533999999999999L66.77000000000001,9.533999999999999C66.77000000000001,9.87502,66.77289999999999,10.2075,66.77850000000001,10.533999999999999C66.7795,10.59084,66.78059999999999,10.6475,66.7818,10.704C66.7885,11.03073,66.7981,11.35186,66.8107,11.67C66.81110000000001,11.681339999999999,66.8116,11.69267,66.812,11.704L61.03,11.704L61.03,16.366C61.005,17.7245,60.8312,18.904400000000003,60.5055,19.9086C60.4754,20.0014,60.4441,20.092599999999997,60.4114,20.1824C60.2036,20.7532,59.9433,21.2636,59.63,21.714L59.6463,21.7286L60.4,22.4C60.5888,22.1244,60.7619,21.832,60.9189,21.523C61.1396,21.0887,61.3287,20.6216,61.4858,20.1217C61.6435,19.619999999999997,61.7689,19.0852,61.8616,18.5178C61.9712,17.8462,62.035,17.1288,62.052,16.366L62.052,15.946L64.47399999999999,15.946C64.47370000000001,15.96206,64.4734,15.97806,64.4731,15.994C64.4667,16.3383,64.4597,16.6556,64.45150000000001,16.945999999999998C64.4239,17.9315,64.38419999999999,18.6062,64.32,18.97C64.2937,19.0927,64.2564,19.1976,64.2082,19.2842C64.2043,19.2912,64.2003,19.298099999999998,64.1962,19.3049C64.1951,19.3067,64.194,19.3086,64.19290000000001,19.3104C64.1671,19.3527,64.1385,19.3902,64.1071,19.422800000000002C64.03450000000001,19.4981,63.9469,19.547800000000002,63.844,19.571199999999997C63.8318,19.573999999999998,63.8194,19.5764,63.8067,19.578400000000002C63.7826,19.5823,63.7577,19.5848,63.732,19.586C63.6322,19.586,63.5265,19.585,63.415,19.5831C63.2014,19.5793,62.9663,19.572,62.7098,19.5611C62.6985,19.5606,62.6872,19.560200000000002,62.6759,19.5597C62.5695,19.555,62.4596,19.549799999999998,62.346,19.544L62.5357,20.1045L62.654,20.454C63.102,20.482,63.508,20.509999999999998,63.844,20.509999999999998C64.544,20.482,64.97800000000001,20.174,65.16,19.572C65.3149,18.988,65.4191,17.7954,65.464,15.994C65.4718,15.67925,65.4778,15.34592,65.482,14.994L62.052,14.994L62.052,12.67L66.854,12.67C66.85470000000001,12.68135,66.8555,12.69268,66.8562,12.704C66.9413,14.01809,67.074,15.17358,67.2664,16.1645C67.328,16.482,67.39580000000001,16.7825,67.47,17.066000000000003C67.624,17.668,67.806,18.228,68.00200000000001,18.746000000000002C67.9931,18.7573,67.9841,18.7685,67.9751,18.7797C67.953,18.807299999999998,67.9308,18.8348,67.9085,18.8622C67.8124,18.9797,67.7141,19.0944,67.6137,19.2063C66.9487,19.947699999999998,66.19,20.564999999999998,65.3414,21.0583C65.31389999999999,21.0743,65.2864,21.0901,65.25880000000001,21.105800000000002C65.13839999999999,21.1742,65.0163,21.240099999999998,64.89240000000001,21.3035C64.8389,21.3309,64.785,21.3579,64.7308,21.3844C64.6871,21.4057,64.64330000000001,21.4268,64.5992,21.447499999999998C64.5484,21.4714,64.4973,21.4949,64.446,21.518L65.006,22.358C65.05879999999999,22.3344,65.1113,22.3104,65.1635,22.286C66.1034,21.8463,66.9559,21.267400000000002,67.7208,20.539C67.9314,20.3384,68.1353,20.1266,68.3326,19.9032C68.3398,19.8951,68.3469,19.887,68.3541,19.8788C68.38069999999999,19.848399999999998,68.40729999999999,19.8178,68.4337,19.787C68.4391,19.7807,68.44460000000001,19.7744,68.45,19.768C68.4503,19.7685,68.4505,19.7691,68.4508,19.7696C68.4767,19.8231,68.5031,19.8761,68.5298,19.9283C68.6687,20.1996,68.8184,20.4529,68.9752,20.6846C69.0326,20.7693,69.0909,20.8512,69.15,20.93C69.3776,21.2145,69.6003,21.4508,69.8183,21.6389C70.2439,22.0063,70.6511,22.19,71.03999999999999,22.19C71.343,22.19,71.6104,21.973,71.8437,21.540599999999998C72.0955,21.073900000000002,72.30760000000001,20.3564,72.482,19.39L71.572,18.886C71.5553,19.000700000000002,71.5384,19.111,71.5213,19.2166C71.4785,19.4824,71.4345,19.7195,71.3896,19.9281C71.2646,20.5083,71.1322,20.8675,70.9948,21.005499999999998C70.9543,21.0462,70.91329999999999,21.067700000000002,70.872,21.07C70.7602,21.07,70.6327,21.0164,70.4906,20.9092C70.3281,20.7868,70.1465,20.5945,69.947,20.3323C69.94069999999999,20.3241,69.9345,20.3158,69.9282,20.307499999999997C69.8709,20.231299999999997,69.81219999999999,20.1495,69.75200000000001,20.061999999999998C69.5359,19.7514,69.3329,19.375700000000002,69.1429,18.947400000000002C69.14,18.9409,69.1371,18.9343,69.13419999999999,18.9277C69.1301,18.9185,69.12610000000001,18.9093,69.122,18.9C69.12360000000001,18.8977,69.1252,18.895400000000002,69.1269,18.8931C69.12899999999999,18.8901,69.1311,18.8871,69.13329999999999,18.8841C70.0241,17.6269,70.7483,16.0643,71.306,14.224L70.396,13.832C70.3857,13.86769,70.3752,13.90329,70.3648,13.93877C70.2789,14.22953,70.18809999999999,14.51334,70.0925,14.7901C69.8814,15.4011,69.6462,15.97773,69.386,16.518900000000002C69.1774,16.9527,68.95259999999999,17.3637,68.7111,17.7514C68.7081,17.7563,68.705,17.7611,68.702,17.766C68.6991,17.7569,68.6962,17.747700000000002,68.6933,17.738500000000002C68.59819999999999,17.4389,68.5035,17.1256,68.422,16.786C68.39070000000001,16.660899999999998,68.3605,16.530099999999997,68.3314,16.3938C68.3038,16.264499999999998,68.2772,16.130200000000002,68.2517,15.99087C68.1305,15.33048,68.0321,14.55686,67.9589,13.67C67.93350000000001,13.36169,67.9111,13.03968,67.89189999999999,12.704C67.8913,12.69268,67.8906,12.68135,67.89,12.67L72.202,12.67L72.202,11.704L70.494,11.704L70.52799999999999,11.67L71.138,11.059999999999999C71.0289,10.941279999999999,70.91470000000001,10.82255,70.7953,10.704C70.69579999999999,10.60521,70.59270000000001,10.506540000000001,70.4861,10.40808C70.467,10.39047,70.4478,10.37286,70.4285,10.35527C70.1202,10.07419,69.7827,9.79501,69.416,9.52L68.8086,10.10096L68.77199999999999,10.136C68.78450000000001,10.14553,68.7969,10.155059999999999,68.80930000000001,10.16458C68.8355,10.18474,68.8615,10.20487,68.88730000000001,10.22496C69.09530000000001,10.38694,69.28970000000001,10.54649,69.4708,10.704C69.4978,10.72756,69.52459999999999,10.75108,69.55109999999999,10.77455C69.6339,10.847819999999999,69.7137,10.92065,69.7907,10.993089999999999C70.0344,11.22231,70.2495,11.44754,70.4375,11.67C70.4428,11.67634,70.4482,11.682680000000001,70.45349999999999,11.68902C70.4577,11.694009999999999,70.4618,11.699010000000001,70.46600000000001,11.704L67.848,11.704C67.8475,11.69268,67.8471,11.68135,67.8466,11.67C67.83330000000001,11.34565,67.8233,11.01144,67.8166,10.66425C67.8104,10.34652,67.8069,10.01792,67.80619999999999,9.67604ZM50.734,20.916L45.924,20.916L45.924,21.924L58.258,21.924L58.258,20.916L52.756,20.916L52.756,17.36L57.082,17.36L57.082,16.380000000000003L52.756,16.380000000000003L52.756,13.146L57.362,13.146L57.362,12.166L52.756,12.166L52.756,9.674L51.734,9.674L51.734,12.166L48.738,12.166C48.7402,12.15934,48.7424,12.15267,48.7447,12.146C48.8494,11.83046,48.9471,11.504380000000001,49.0378,11.166C49.0428,11.147549999999999,49.0477,11.129059999999999,49.0526,11.11053C49.1357,10.79672,49.2129,10.472339999999999,49.284,10.136L48.299,9.96058L48.262,9.954C47.8,12.292,46.903999999999996,14.154,45.588,15.526L45.6119,15.55659L46.232,16.352C46.3642,16.2198,46.4929,16.083,46.617999999999995,15.94158C46.717600000000004,15.82903,46.8149,15.71356,46.9099,15.59516C46.9667,15.52449,47.0226,15.45277,47.0777,15.38C47.5717,14.7278,48.0008,13.99108,48.3652,13.166C48.3681,13.15934,48.3711,13.15267,48.373999999999995,13.146L51.734,13.146L51.734,16.380000000000003L47.617999999999995,16.380000000000003L47.617999999999995,17.36L51.734,17.36L51.734,20.916L50.734,20.916ZM43.446,15.162L43.446,14.182L39.134,14.182L39.134,9.632L38.098,9.632L38.098,20.817999999999998L35.172,20.817999999999998L35.172,12.082L34.164,12.082L34.164,20.817999999999998L31.784,20.817999999999998L31.784,21.798000000000002L44.216,21.798000000000002L44.216,20.817999999999998L39.134,20.817999999999998L39.134,15.162L43.446,15.162Z" fill-rule="evenodd" fill="#0ABAB5" fill-opacity="1"/></g></g></svg>