<svg xmlns="http://www.w3.org/2000/svg" xmlns:xlink="http://www.w3.org/1999/xlink" fill="none" version="1.1" width="21.21484375" height="21.212890625" viewBox="0 0 21.21484375 21.212890625"><g><g transform="matrix(0.7071067690849304,-0.7071067690849304,0.7071067690849304,0.7071067690849304,-4.6891432600379375,2.8220629071018237)"><path d="M2.9123295050811766,7.480950163146972Q1.9622425050811767,8.485488163146973,1.3130565050811769,10.219608163146972L2.717849505081177,10.745498163146973Q3.260609505081177,9.295658163146973,4.002109505081177,8.511658163146972Q4.655019505081176,7.821328163146973,5.311959505081177,7.821328163146973Q6.591589505081177,7.821328163146973,7.635659505081176,10.093688163146972Q8.811959505081177,12.653848163146971,8.811959505081177,16.321268163146975L10.311959505081177,16.321268163146975Q10.311959505081177,12.325738163146973,8.998669505081176,9.467428163146973Q7.553149505081176,6.321328163146973,5.311959505081177,6.321328163146973Q4.009089505081176,6.321328163146973,2.9123295050811766,7.480950163146972ZM7.794169505081177,25.072128163146974Q8.770619505081177,23.990128163146974,9.413679505081177,22.137528163146975L7.996619505081177,21.645628163146974Q7.453299505081176,23.210928163146974,6.680629505081177,24.067128163146972Q6.000019505081177,24.821228163146973,5.311839505081177,24.821228163146973Q4.032219505081176,24.821228163146973,2.9882095050811768,22.548928163146975Q1.8119595050811768,19.988728163146973,1.8119595050811768,16.321328163146973L0.31195950508117676,16.321328163146973Q0.31195950508117676,20.316828163146972,1.6251845050811768,23.175128163146972Q3.070649505081177,26.321228163146973,5.311839505081177,26.321228163146973Q6.666809505081177,26.321228163146973,7.794169505081177,25.072128163146974Z" fill-rule="evenodd" fill="#0092FF" fill-opacity="1"/></g><g transform="matrix(0.7071067690849304,0.7071067094802856,-0.7071067094802856,0.7071067690849304,4.892676559935353,-9.690138678866788)"><path d="M15.99374158203125,1.4705350859375Q15.04365458203125,2.4750730859375,14.39446858203125,4.2091930859375L15.79926158203125,4.7350830859375Q16.34202158203125,3.2852430859375,17.08352158203125,2.5012430859375003Q17.73643158203125,1.8109130859375,18.39337158203125,1.8109130859375Q19.67300158203125,1.8109130859375,20.71707158203125,4.0832730859375Q21.89337158203125,6.6434330859375,21.89337158203125,10.3108530859375L23.39337158203125,10.3108530859375Q23.39337158203125,6.3153230859375,22.080081582031248,3.4570130859375Q20.63456158203125,0.3109130859375,18.39337158203125,0.3109130859375Q17.09050158203125,0.3109130859375,15.99374158203125,1.4705350859375ZM20.875581582031252,19.0617130859375Q21.852031582031252,17.9797130859375,22.49509158203125,16.127113085937502L21.07803158203125,15.6352130859375Q20.53471158203125,17.2005130859375,19.76204158203125,18.0567130859375Q19.08143158203125,18.8108130859375,18.39325158203125,18.8108130859375Q17.11363158203125,18.8108130859375,16.06962158203125,16.538513085937502Q14.89337158203125,13.9783130859375,14.89337158203125,10.3109130859375L13.39337158203125,10.3109130859375Q13.39337158203125,14.3064130859375,14.70659658203125,17.1647130859375Q16.15206158203125,20.3108130859375,18.39325158203125,20.3108130859375Q19.74822158203125,20.3108130859375,20.875581582031252,19.0617130859375Z" fill-rule="evenodd" fill="#0092FF" fill-opacity="1"/></g><g><path d="M12.6484375,10.611328125Q12.6484375,10.709578125,12.6388075,10.807358125Q12.6291775,10.905138125,12.6100075,11.001508125Q12.5908375,11.097878125,12.562317499999999,11.191898125Q12.5337975,11.285918125,12.496197500000001,11.376698125Q12.4585975,11.467468125,12.4122775,11.554118125Q12.3659675,11.640778125,12.311377499999999,11.722468124999999Q12.2567875,11.804168125,12.1944575,11.880118125Q12.1321275,11.956068125,12.0626475,12.025538125Q11.9931775,12.095018125,11.9172275,12.157348125Q11.8412775,12.219678125,11.759577499999999,12.274268124999999Q11.6778875,12.328858125,11.5912275,12.375168125Q11.5045775,12.421488125,11.4138075,12.459088125000001Q11.3230275,12.496688125,11.2290075,12.525208124999999Q11.1349875,12.553728125,11.0386175,12.572898125Q10.9422475,12.592068125,10.8444675,12.601698125Q10.7466875,12.611328125,10.6484375,12.611328125Q10.5501875,12.611328125,10.4524075,12.601698125Q10.3546275,12.592068125,10.2582575,12.572898125Q10.1618875,12.553728125,10.0678675,12.525208124999999Q9.9738475,12.496688125,9.8830675,12.459088125000001Q9.7922975,12.421488125,9.7056475,12.375168125Q9.6189915,12.328858125,9.5372965,12.274268124999999Q9.4556015,12.219678125,9.3796505,12.157348125Q9.3036995,12.095018125,9.2342235,12.025538125Q9.1647485,11.956068125,9.1024165,11.880118125Q9.0400855,11.804168125,8.9854985,11.722468124999999Q8.9309115,11.640778125,8.8845945,11.554118125Q8.8382785,11.467468125,8.8006785,11.376698125Q8.7630785,11.285918125,8.7345568,11.191898125Q8.7060353,11.097878125,8.6868669,11.001508125Q8.6676986,10.905138125,8.65806805,10.807358125Q8.6484375,10.709578125,8.6484375,10.611328125Q8.6484375,10.513078125,8.65806805,10.415298125Q8.6676986,10.317518125,8.6868669,10.221148125Q8.7060353,10.124778125,8.7345568,10.030758125Q8.7630785,9.936738125,8.8006785,9.845958125Q8.8382785,9.755188125,8.8845945,9.668538125Q8.9309115,9.581882125,8.9854985,9.500187125Q9.0400855,9.418492125,9.1024165,9.342541125Q9.1647485,9.266590125,9.2342235,9.197114125Q9.3036995,9.127639125,9.3796505,9.065307125Q9.4556015,9.002976125,9.5372965,8.948389125Q9.6189915,8.893802125,9.7056475,8.847485125Q9.7922975,8.801169125,9.8830675,8.763569125Q9.9738475,8.725969125,10.0678675,8.697447425Q10.1618875,8.668925925,10.2582575,8.649757525Q10.3546275,8.630589225,10.4524075,8.620958675Q10.5501875,8.611328125,10.6484375,8.611328125Q10.7466875,8.611328125,10.8444675,8.620958675Q10.9422475,8.630589225,11.0386175,8.649757525Q11.1349875,8.668925925,11.2290075,8.697447425Q11.3230275,8.725969125,11.4138075,8.763569125Q11.5045775,8.801169125,11.5912275,8.847485125Q11.6778875,8.893802125,11.759577499999999,8.948389125Q11.8412775,9.002976125,11.9172275,9.065307125Q11.9931775,9.127639125,12.0626475,9.197114125Q12.1321275,9.266590125,12.1944575,9.342541125Q12.2567875,9.418492125,12.311377499999999,9.500187125Q12.3659675,9.581882125,12.4122775,9.668538125Q12.4585975,9.755188125,12.496197500000001,9.845958125Q12.5337975,9.936738125,12.562317499999999,10.030758125Q12.5908375,10.124778125,12.6100075,10.221148125Q12.6291775,10.317518125,12.6388075,10.415298125Q12.6484375,10.513078125,12.6484375,10.611328125Z" fill="#0092FF" fill-opacity="1"/></g></g></svg>