<svg xmlns="http://www.w3.org/2000/svg" xmlns:xlink="http://www.w3.org/1999/xlink" fill="none" version="1.1" width="64" height="64" viewBox="0 0 64 64"><defs><filter id="master_svg0_1832_62039" filterUnits="objectBoundingBox" color-interpolation-filters="sRGB" x="-0.625" y="-0.625" width="2.25" height="2.25"><feFlood flood-opacity="0" result="BackgroundImageFix"/><feColorMatrix in="SourceAlpha" type="matrix" values="0 0 0 0 0 0 0 0 0 0 0 0 0 0 0 0 0 0 127 0"/><feOffset dy="0" dx="0"/><feGaussianBlur stdDeviation="5"/><feColorMatrix type="matrix" values="0 0 0 0 0.125490203499794 0 0 0 0 0.125490203499794 0 0 0 0 0.4117647111415863 0 0 0 0.4000000059604645 0"/><feBlend mode="normal" in2="BackgroundImageFix" result="effect1_dropShadow"/><feBlend mode="normal" in="SourceGraphic" in2="effect1_dropShadow" result="shape"/></filter><clipPath id="master_svg1_1832_62040"><rect x="22" y="22" width="20" height="20" rx="0"/></clipPath></defs><g><g filter="url(#master_svg0_1832_62039)"><rect x="16" y="16" width="32" height="32" rx="6" fill="#31313A" fill-opacity="1"/><rect x="15.5" y="15.5" width="33" height="33" rx="6.5" fill-opacity="0" fill="none" stroke-width="1"/></g><g clip-path="url(#master_svg1_1832_62040)"><g><g><path d="M24,25.5L24,35.5Q24,36.1213,24.4393399,36.5607Q24.878678999999998,37,25.5,37L38.5,37Q39.1213,37,39.5607,36.5607Q40,36.1213,40,35.5L40,25.5Q40,24.878678999999998,39.5607,24.4393401Q39.1213,24,38.5,24L25.5,24Q24.87868,24,24.4393398,24.4393399Q24,24.87868,24,25.5ZM25.5,36Q25,36,25,35.5L25,25.5Q25,25,25.5,25L38.5,25Q39,25,39,25.5L39,35.5Q39,36,38.5,36L25.5,36Z" fill-rule="evenodd" fill="#FFFFFF" fill-opacity="1"/></g></g><g><path d="M29,39L35,39Q35.04925,39,35.09755,39.009607Q35.14584,39.019215,35.19134,39.03806Q35.23684,39.056906,35.27778,39.084265Q35.31873,39.111625,35.35355,39.146447Q35.38837,39.181269,35.415729999999996,39.222215Q35.44309,39.263161,35.46194,39.308658Q35.48078,39.354155,35.49039,39.4024549Q35.5,39.4507543,35.5,39.5Q35.5,39.5492457,35.49039,39.5975451Q35.48078,39.645845,35.46194,39.691342Q35.44309,39.736839,35.415729999999996,39.777785Q35.38837,39.818731,35.35355,39.853553Q35.31873,39.888375,35.27778,39.915735Q35.23684,39.943094,35.19134,39.96194Q35.14584,39.980785,35.09755,39.990393Q35.04925,40,35,40L29,40Q28.9507543,40,28.9024549,39.990393Q28.854155,39.980785,28.808658,39.96194Q28.763161,39.943094,28.722215,39.915735Q28.681269,39.888375,28.646447,39.853553Q28.611625,39.818731,28.584265,39.777785Q28.556906,39.736839,28.53806,39.691342Q28.519215,39.645845,28.509607,39.5975451Q28.5,39.5492457,28.5,39.5Q28.5,39.4507543,28.509607,39.4024549Q28.519215,39.354155,28.53806,39.308658Q28.556906,39.263161,28.584265,39.222215Q28.611625,39.181269,28.646447,39.146447Q28.681269,39.111625,28.722215,39.084265Q28.763161,39.056906,28.808658,39.03806Q28.854155,39.019215,28.9024549,39.009607Q28.9507543,39,29,39Z" fill-rule="evenodd" fill="#FFFFFF" fill-opacity="1"/></g><g><path d="M27.5159912109375,33.0000001411438L28.5899912109375,33.0000001411438L28.5899912109375,28.529999741143797L27.5159912109375,28.529999741143797L27.5159912109375,33.0000001411438ZM31.4579912109375,33.0840001411438C32.6759912109375,33.0840001411438,33.5039912109375,32.2080001411438,33.5039912109375,30.7440001411438C33.5039912109375,29.2860001411438,32.6759912109375,28.4520001411438,31.4579912109375,28.4520001411438C30.2399912109375,28.4520001411438,29.4119912109375,29.2800001411438,29.4119912109375,30.7440001411438C29.4119912109375,32.2080001411438,30.2399912109375,33.0840001411438,31.4579912109375,33.0840001411438ZM31.4579912109375,32.1600001411438C30.8699912109375,32.1600001411438,30.5099912109375,31.608000141143798,30.5099912109375,30.7440001411438C30.5099912109375,29.8800001411438,30.8699912109375,29.370000141143798,31.4579912109375,29.370000141143798C32.0459912109375,29.370000141143798,32.4119912109375,29.8800001411438,32.4119912109375,30.7440001411438C32.4119912109375,31.608000141143798,32.0459912109375,32.1600001411438,31.4579912109375,32.1600001411438ZM34.9979912109375,33.0000001411438L36.0719912109375,33.0000001411438L36.0719912109375,29.4240001411438L37.2839912109375,29.4240001411438L37.2839912109375,28.529999741143797L33.791991210937496,28.529999741143797L33.791991210937496,29.4240001411438L34.9979912109375,29.4240001411438L34.9979912109375,33.0000001411438Z" fill="#FFFFFF" fill-opacity="1"/></g></g></g></svg>