<svg xmlns="http://www.w3.org/2000/svg" xmlns:xlink="http://www.w3.org/1999/xlink" fill="none" version="1.1" width="64" height="64" viewBox="0 0 64 64"><defs><filter id="master_svg0_1832_61918" filterUnits="objectBoundingBox" color-interpolation-filters="sRGB" x="-0.625" y="-0.625" width="2.25" height="2.25"><feFlood flood-opacity="0" result="BackgroundImageFix"/><feColorMatrix in="SourceAlpha" type="matrix" values="0 0 0 0 0 0 0 0 0 0 0 0 0 0 0 0 0 0 127 0"/><feOffset dy="0" dx="0"/><feGaussianBlur stdDeviation="5"/><feColorMatrix type="matrix" values="0 0 0 0 0.125490203499794 0 0 0 0 0.125490203499794 0 0 0 0 0.4117647111415863 0 0 0 0.4000000059604645 0"/><feBlend mode="normal" in2="BackgroundImageFix" result="effect1_dropShadow"/><feBlend mode="normal" in="SourceGraphic" in2="effect1_dropShadow" result="shape"/></filter><clipPath id="master_svg1_1832_61919"><rect x="22" y="22" width="20" height="20" rx="0"/></clipPath></defs><g><g filter="url(#master_svg0_1832_61918)"><rect x="16" y="16" width="32" height="32" rx="6" fill="#31313A" fill-opacity="1"/><rect x="15.5" y="15.5" width="33" height="33" rx="6.5" fill-opacity="0" fill="none" stroke-width="1"/></g><g clip-path="url(#master_svg1_1832_61919)"><g><path d="M26.5,26L26.5,38.5L27.5,38.5L27.5,26Q27.5,25.792893,27.646447,25.646447Q27.792893,25.5,28,25.5L36,25.5Q36.5,25.5,36.5,26L36.5,38.5L37.5,38.5L37.5,26Q37.5,25.378678999999998,37.0607,24.93934Q36.62132,24.5,36,24.5L28,24.5Q27.37868,24.5,26.9393399,24.9393399Q26.5,25.37868,26.5,26Z" fill-rule="evenodd" fill="#FFFFFF" fill-opacity="1"/></g><g><path d="M28.792893,30.20711Q29.0857863,30.5,29.5,30.5L34.5,30.5Q34.91421,30.5,35.20711,30.20711Q35.5,29.91421,35.5,29.5L35.5,27.5Q35.5,27.0857863,35.20711,26.792893Q34.91421,26.5,34.5,26.5L29.5,26.5Q29.0857866,26.5,28.792893,26.792893Q28.5,27.0857864,28.5,27.5L28.5,29.5Q28.5,29.91421,28.792893,30.20711ZM34.5,29.5L29.5,29.5L29.5,27.5L34.5,27.5L34.5,29.5Z" fill-rule="evenodd" fill="#FFFFFF" fill-opacity="1"/></g><g><path d="M31.14242,32L34,32L32.57273,34.4L34,34.4L30.284849,38L31.42727,35L30,35L31.14242,32Z" fill="#FFFFFF" fill-opacity="1" style="mix-blend-mode:passthrough"/></g><g><path d="M25,38.5L39,38.5Q39.0492,38.5,39.0975,38.509607Q39.1458,38.519215,39.1913,38.53806Q39.2368,38.556906,39.2778,38.584265Q39.3187,38.611625,39.3536,38.646447Q39.388400000000004,38.681269,39.4157,38.722215Q39.4431,38.763161,39.4619,38.808658Q39.4808,38.854155,39.4904,38.9024549Q39.5,38.9507543,39.5,39Q39.5,39.0492457,39.4904,39.0975451Q39.4808,39.145845,39.4619,39.191342Q39.4431,39.236839,39.4157,39.277785Q39.388400000000004,39.318731,39.3536,39.353553Q39.3187,39.388375,39.2778,39.415735Q39.2368,39.443094,39.1913,39.46194Q39.1458,39.480785,39.0975,39.490393Q39.0492,39.5,39,39.5L25,39.5Q24.9507543,39.5,24.9024549,39.490393Q24.854155,39.480785,24.808658,39.46194Q24.763161,39.443094,24.722215,39.415735Q24.681269,39.388375,24.646447,39.353553Q24.611625,39.318731,24.584265,39.277785Q24.556906,39.236839,24.53806,39.191342Q24.519215,39.145845,24.509607,39.0975451Q24.5,39.0492457,24.5,39Q24.5,38.9507543,24.509607,38.9024549Q24.519215,38.854155,24.53806,38.808658Q24.556906,38.763161,24.584265,38.722215Q24.611625,38.681269,24.646447,38.646447Q24.681269,38.611625,24.722215,38.584265Q24.763161,38.556906,24.808658,38.53806Q24.854155,38.519215,24.9024549,38.509607Q24.9507543,38.5,25,38.5Z" fill-rule="evenodd" fill="#FFFFFF" fill-opacity="1"/></g></g></g></svg>