<svg xmlns="http://www.w3.org/2000/svg" xmlns:xlink="http://www.w3.org/1999/xlink" fill="none" version="1.1" width="64" height="64" viewBox="0 0 64 64"><defs><filter id="master_svg0_1837_37824" filterUnits="objectBoundingBox" color-interpolation-filters="sRGB" x="-0.625" y="-0.625" width="2.25" height="2.25"><feFlood flood-opacity="0" result="BackgroundImageFix"/><feColorMatrix in="SourceAlpha" type="matrix" values="0 0 0 0 0 0 0 0 0 0 0 0 0 0 0 0 0 0 127 0"/><feOffset dy="0" dx="0"/><feGaussianBlur stdDeviation="5"/><feColorMatrix type="matrix" values="0 0 0 0 0.125490203499794 0 0 0 0 0.125490203499794 0 0 0 0 0.4117647111415863 0 0 0 0.4000000059604645 0"/><feBlend mode="normal" in2="BackgroundImageFix" result="effect1_dropShadow"/><feBlend mode="normal" in="SourceGraphic" in2="effect1_dropShadow" result="shape"/></filter><clipPath id="master_svg1_1837_37825"><rect x="22" y="22" width="20" height="20" rx="0"/></clipPath></defs><g><g filter="url(#master_svg0_1837_37824)"><rect x="16" y="16" width="32" height="32" rx="6" fill="#31313A" fill-opacity="1"/><rect x="15.5" y="15.5" width="33" height="33" rx="6.5" fill-opacity="0" fill="none" stroke-width="1"/></g><g clip-path="url(#master_svg1_1837_37825)"><g><path d="M35.25,24.25L35.25,24L34.25,24L34.25,24.25C34.25,24.526142,34.0261,24.75,33.75,24.75L28.5,24.75C27.67157,24.75,27,25.42157,27,26.25L27,27.5C26.44772,27.5,26,27.94772,26,28.5L25,28.5C24.447715,28.5,24,28.94772,24,29.5L24,39C24,39.5523,24.447715,40,25,40L39,40C39.5523,40,40,39.5523,40,39L40,29.5C40,28.94772,39.5523,28.5,39,28.5L38,28.5C38,27.94772,37.5523,27.5,37,27.5L37,24L36,24L36,27.5C35.4477,27.5,35,27.94772,35,28.5L29,28.5C29,27.94772,28.55228,27.5,28,27.5L28,26.25C28,25.97386,28.223860000000002,25.75,28.5,25.75L33.75,25.75C34.5784,25.75,35.25,25.07843,35.25,24.25ZM39,29.5L25,29.5L25,39L39,39L39,29.5ZM27.5,30.5C27.5,30.223860000000002,27.276139999999998,30,27,30C26.723860000000002,30,26.5,30.223860000000002,26.5,30.5L26.5,31L26,31C25.72386,31,25.5,31.223860000000002,25.5,31.5C25.5,31.776139999999998,25.72386,32,26,32L26.5,32L26.5,32.5C26.5,32.77614,26.723860000000002,33,27,33C27.276139999999998,33,27.5,32.77614,27.5,32.5L27.5,32L28,32C28.276139999999998,32,28.5,31.776139999999998,28.5,31.5C28.5,31.223860000000002,28.276139999999998,31,28,31L27.5,31L27.5,30.5ZM38.5,31.5C38.5,31.223860000000002,38.2761,31,38,31L36,31C35.7239,31,35.5,31.223860000000002,35.5,31.5C35.5,31.776139999999998,35.7239,32,36,32L38,32C38.2761,32,38.5,31.776139999999998,38.5,31.5Z" fill-rule="evenodd" fill="#FFFFFF" fill-opacity="1"/></g><g><path d="M31.14242,32L34,32L32.57273,34.4L34,34.4L30.284849,38L31.42727,35L30,35L31.14242,32Z" fill="#FFFFFF" fill-opacity="1" style="mix-blend-mode:passthrough"/></g></g></g></svg>