<svg xmlns="http://www.w3.org/2000/svg" xmlns:xlink="http://www.w3.org/1999/xlink" fill="none" version="1.1" width="64" height="64" viewBox="0 0 64 64"><defs><filter id="master_svg0_1837_37732" filterUnits="objectBoundingBox" color-interpolation-filters="sRGB" x="-0.625" y="-0.625" width="2.25" height="2.25"><feFlood flood-opacity="0" result="BackgroundImageFix"/><feColorMatrix in="SourceAlpha" type="matrix" values="0 0 0 0 0 0 0 0 0 0 0 0 0 0 0 0 0 0 127 0"/><feOffset dy="0" dx="0"/><feGaussianBlur stdDeviation="5"/><feColorMatrix type="matrix" values="0 0 0 0 0.125490203499794 0 0 0 0 0.125490203499794 0 0 0 0 0.4117647111415863 0 0 0 0.4000000059604645 0"/><feBlend mode="normal" in2="BackgroundImageFix" result="effect1_dropShadow"/><feBlend mode="normal" in="SourceGraphic" in2="effect1_dropShadow" result="shape"/></filter><clipPath id="master_svg1_1837_37733"><rect x="22" y="22" width="20" height="20" rx="0"/></clipPath></defs><g><g filter="url(#master_svg0_1837_37732)"><rect x="16" y="16" width="32" height="32" rx="6" fill="#31313A" fill-opacity="1"/><rect x="15.5" y="15.5" width="33" height="33" rx="6.5" fill-opacity="0" fill="none" stroke-width="1"/></g><g clip-path="url(#master_svg1_1837_37733)"><g><g><path d="M30.50899,31.849067679367067C30.50899,30.118227679367067,29.10587,28.715107679367065,27.37503,28.715107679367065L27.133960000000002,28.715107679367065C25.40312,28.715107679367065,24,30.118227679367067,24,31.849067679367067C24,33.579897679367065,25.40312,34.98302767936707,27.133960000000002,34.98302767936707L37.259100000000004,34.98302767936707C37.5253,34.98302767936707,37.7412,34.76715767936707,37.7412,34.500877679367065C37.7412,34.23459767936706,37.5253,34.01872767936707,37.259100000000004,34.01872767936707L27.133960000000002,34.01872767936707C25.93569,34.01872767936707,24.964295,33.04733767936707,24.964295,31.849067679367067C24.964295,30.650797679367066,25.93569,29.679402679367065,27.133960000000002,29.679402679367065L27.37503,29.679402679367065C28.5733,29.679402679367065,29.54469,30.650797679367066,29.54469,31.849067679367067C29.54469,32.11534767936706,29.760559999999998,32.331217679367064,30.02684,32.331217679367064C30.293129999999998,32.331217679367064,30.50899,32.11534767936706,30.50899,31.849067679367067ZM36.920500000000004,31.067267679367067C36.7322,30.878967679367065,36.4233,30.878967679367065,36.235,31.067267679367067C36.0467,31.255557679367065,36.0467,31.564527679367064,36.235,31.752817679367066C36.4568,31.974607679367065,36.6597,32.173737679367065,36.8452,32.359267679367065L38.6984,34.21251767936707L38.9018,34.415927679367066L38.9734,34.48749767936707L38.996,34.510097679367064L38.9885,34.51762767936707C38.649699999999996,34.884657679367066,38.186,35.39014767936707,36.2237,37.515987679367065C36.0431,37.71164767936706,36.0544,38.01715767936707,36.25,38.19776767936706C36.4457,38.378387679367066,36.7512,38.363297679367065,36.9318,38.16763767936706C39.0249,35.900077679367065,39.4146,35.48046767936707,39.7644,35.101477679367065L39.8322,35.029907679367064L39.8737,34.98094767936706C39.9186,34.932267679367065,39.968199999999996,34.87942767936707,40.0206,34.822737679367066C40.1961,34.63257767936707,40.188500000000005,34.339007679367064,40.0055,34.15601767936707L39.952799999999996,34.103287679367064L39.858599999999996,34.009117679367066L39.7042,33.854677679367065L39.6552,33.80570767936707L39.583600000000004,33.734137679367066L39.3802,33.530737679367064L38.664500000000004,32.81504767936707L38.5252,32.67567767936706L38.3745,32.525007679367064L37.9413,32.091827679367064L37.527,31.677477679367065C37.3414,31.491947679367065,37.1423,31.289057679367065,36.920500000000004,31.067267679367067ZM29.30414,36.43162767936707C29.30414,36.165347679367066,29.08827,35.94948767936707,28.82199,35.94948767936707C28.55571,35.94948767936707,28.33984,36.165347679367066,28.33984,36.43162767936707L28.33984,39.519007679367064C28.33984,39.785307679367065,28.55571,40.00110767936707,28.82199,40.00110767936707C29.08827,40.00110767936707,29.30414,39.785307679367065,29.30414,39.519007679367064L29.30414,36.43162767936707Z" fill-rule="evenodd" fill="#FFFFFF" fill-opacity="1"/></g><g><path d="M29.21960526043701,27.231748109054564C29.031314660437012,27.420038109054566,29.031314660437012,27.725318109054566,29.21960526043701,27.913608109054564C29.407895260437012,28.101898109054567,29.71317426043701,28.101898109054567,29.901464260437013,27.913608109054564L30.511457260437012,27.303608109054565L30.924837260437013,26.890238109054565L31.35824726043701,26.456828109054566L31.50812726043701,26.306948109054566L31.645727260437013,26.169348109054564L31.887127260437012,25.927948109054565L32.17612726043701,25.638938109054564L32.36300726043701,25.452068109054565L32.56614726043701,25.248928109054564L32.63944726043701,25.175628109054564L32.66122726043701,25.154228109054564L32.66821726043701,25.160228109054565L35.66550726043701,27.926958109054567C35.86117726043701,28.107578109054565,36.16620726043701,28.095378109054565,36.34682726043701,27.899708109054565C36.52743726043701,27.704048109054565,36.51523726043701,27.399008109054567,36.319577260437015,27.218398109054565L33.25026726043701,24.385187109054566L33.17927726043701,24.319660109054567L33.13121726043701,24.275299109054565L32.97492726043701,24.131032109054566C32.78477726043701,23.955502709054567,32.48995726043701,23.961396909054564,32.30696726043701,24.144386109054565L32.25544726043701,24.195907109054566L32.20683726043701,24.244517109054566L32.16037726043701,24.290975109054564L32.00375726043701,24.447596109054565L31.957587260437013,24.493770109054566L31.68114726043701,24.770207109054567L31.494267260437013,24.957083109054565L30.963867260437013,25.487488109054567L30.82626726043701,25.625088109054566L30.67638726043701,25.774968109054566L30.242977260437012,26.208378109054564L29.21960526043701,27.231748109054564ZM33.15986726043701,26.544788109054565C33.15986726043701,26.278508109054567,32.94400726043701,26.062638109054564,32.677717260437014,26.062638109054564C32.41143726043701,26.062638109054564,32.19557726043701,26.278508109054567,32.19557726043701,26.544788109054565L32.19557726043701,32.73572810905456C32.19557726043701,33.002008109054564,32.41143726043701,33.217868109054564,32.677717260437014,33.217868109054564C32.94400726043701,33.217868109054564,33.15986726043701,33.002008109054564,33.15986726043701,32.73572810905456L33.15986726043701,26.544788109054565ZM33.15986726043701,36.43154810905457C33.15986726043701,36.165248109054566,32.94400726043701,35.94934810905457,32.677717260437014,35.94934810905457C32.41143726043701,35.94934810905457,32.19557726043701,36.165248109054566,32.19557726043701,36.43154810905457L32.19557726043701,39.51884810905457C32.19557726043701,39.78514810905457,32.41143726043701,40.001048109054565,32.677717260437014,40.001048109054565C32.94400726043701,40.001048109054565,33.15986726043701,39.78514810905457,33.15986726043701,39.51884810905457L33.15986726043701,36.43154810905457Z" fill-rule="evenodd" fill="#FFFFFF" fill-opacity="1"/></g></g></g></g></svg>