<svg xmlns="http://www.w3.org/2000/svg" xmlns:xlink="http://www.w3.org/1999/xlink" fill="none" version="1.1" width="64" height="64" viewBox="0 0 64 64"><defs><filter id="master_svg0_1832_61908" filterUnits="objectBoundingBox" color-interpolation-filters="sRGB" x="-0.625" y="-0.625" width="2.25" height="2.25"><feFlood flood-opacity="0" result="BackgroundImageFix"/><feColorMatrix in="SourceAlpha" type="matrix" values="0 0 0 0 0 0 0 0 0 0 0 0 0 0 0 0 0 0 127 0"/><feOffset dy="0" dx="0"/><feGaussianBlur stdDeviation="5"/><feColorMatrix type="matrix" values="0 0 0 0 0.125490203499794 0 0 0 0 0.125490203499794 0 0 0 0 0.4117647111415863 0 0 0 0.4000000059604645 0"/><feBlend mode="normal" in2="BackgroundImageFix" result="effect1_dropShadow"/><feBlend mode="normal" in="SourceGraphic" in2="effect1_dropShadow" result="shape"/></filter><clipPath id="master_svg1_1832_61909"><rect x="22" y="22" width="20" height="20" rx="0"/></clipPath></defs><g><g filter="url(#master_svg0_1832_61908)"><rect x="16" y="16" width="32" height="32" rx="6" fill="#31313A" fill-opacity="1"/><rect x="15.5" y="15.5" width="33" height="33" rx="6.5" fill-opacity="0" fill="none" stroke-width="1"/></g><g clip-path="url(#master_svg1_1832_61909)"><g><g><path d="M26.47434,34.658114Q26.5,34.5811388,26.5,34.5Q26.5,34.4507543,26.49039,34.4024549Q26.48079,34.354155,26.46194,34.308658Q26.44309,34.263161,26.41573,34.222215Q26.38838,34.181269,26.35355,34.146447Q26.31873,34.111625,26.27778,34.084265Q26.23684,34.056906,26.19134,34.03806Q26.14584,34.019215,26.09755,34.009607Q26.04925,34,26,34Q25.92129,34,25.84639,34.024179Q25.77149,34.048359,25.70765,34.094379Q25.6438,34.140399,25.59717,34.203809Q25.55055,34.267219,25.52566,34.341886L25.52562,34.342009L24.025752,38.84161L24.025658,38.84189Q24,38.91886,24,39Q24,39.04925,24.009607,39.09755Q24.019215,39.14584,24.03806,39.19134Q24.056906,39.23684,24.084265,39.27778Q24.111625,39.31873,24.146447,39.35355Q24.181269,39.38837,24.222215,39.415729999999996Q24.263161,39.44309,24.308658,39.46194Q24.354155,39.48078,24.4024549,39.49039Q24.4507543,39.5,24.5,39.5Q24.578706,39.5,24.653606,39.47582Q24.728506,39.45164,24.792355,39.40562Q24.856205,39.3596,24.902829,39.29619Q24.949453,39.23278,24.974342,39.15811L24.974435,39.15783L26.4743,34.658237L26.47434,34.658114Z" fill-rule="evenodd" fill="#FFFFFF" fill-opacity="1"/></g><g><path d="M26,33.5L37.5,33.5Q37.5492,33.5,37.5975,33.509607Q37.6458,33.519215,37.6913,33.53806Q37.7368,33.556906,37.7778,33.584265Q37.8187,33.611625,37.8536,33.646447Q37.888400000000004,33.681269,37.9157,33.722215Q37.9431,33.763161,37.9619,33.808658Q37.9808,33.854155,37.9904,33.9024549Q38,33.9507543,38,34Q38,34.0492457,37.9904,34.0975451Q37.9808,34.145845,37.9619,34.191342Q37.9431,34.236839,37.9157,34.277785Q37.888400000000004,34.318731,37.8536,34.353553Q37.8187,34.388375,37.7778,34.415735Q37.7368,34.443094,37.6913,34.46194Q37.6458,34.480785,37.5975,34.490393Q37.5492,34.5,37.5,34.5L26,34.5Q25.9507543,34.5,25.9024549,34.490393Q25.854155,34.480785,25.808658,34.46194Q25.763161,34.443094,25.722215,34.415735Q25.681269,34.388375,25.646447,34.353553Q25.611625,34.318731,25.584265,34.277785Q25.556906,34.236839,25.53806,34.191342Q25.519215,34.145845,25.509607,34.0975451Q25.5,34.0492457,25.5,34Q25.5,33.9507543,25.509607,33.9024549Q25.519215,33.854155,25.53806,33.808658Q25.556906,33.763161,25.584265,33.722215Q25.611625,33.681269,25.646447,33.646447Q25.681269,33.611625,25.722215,33.584265Q25.763161,33.556906,25.808658,33.53806Q25.854155,33.519215,25.9024549,33.509607Q25.9507543,33.5,26,33.5Z" fill-rule="evenodd" fill="#FFFFFF" fill-opacity="1"/></g><g><path d="M30.8424375,26.22168L30.8422815,26.22191Q30.7578125,26.34813,30.7578125,26.5Q30.7578125,26.54925,30.7674195,26.59754Q30.7770275,26.64584,30.7958725,26.69134Q30.8147185,26.73684,30.8420775,26.77778Q30.8694375,26.81873,30.9042595,26.85355Q30.9390815,26.88838,30.9800275,26.91573Q31.0209735,26.94309,31.0664705,26.96194Q31.1119675,26.98078,31.1602674,26.99039Q31.2085668,27,31.2578125,27Q31.319435,27,31.3792135,26.98504Q31.4389915,26.97008,31.4933485,26.94105Q31.5477055,26.91202,31.5933875,26.87066Q31.6390695,26.8293,31.6733435,26.77809Q32.2219375,25.95836,33.0860925,25.486526Q33.9771525,25,35.0000025,25Q36.6568525,25,37.8284325,26.17157Q39.0000025,27.34314,39.0000025,29Q39.0000025,29.68516,38.7709725,30.3328L38.7708125,30.33324Q38.7421925,30.41416,38.7421925,30.5Q38.7421925,30.54925,38.7517925,30.59755Q38.7614025,30.64584,38.7802425,30.69134Q38.7990925,30.73684,38.8264525,30.77778Q38.853812500000004,30.818730000000002,38.8886325,30.85355Q38.923452499999996,30.888370000000002,38.9644025,30.91573Q39.0053425,30.943089999999998,39.0508425,30.96194Q39.0963425,30.98078,39.1446425,30.990389999999998Q39.1929425,31,39.2421925,31Q39.3197225,31,39.3936225,30.97652Q39.4675125,30.95303,39.5308225,30.90828Q39.5941325,30.86352,39.6409225,30.80168Q39.6877025,30.73985,39.7135625,30.66676Q40.0000025,29.85707,40.0000025,29Q40.0000025,26.92893,38.5355325,25.464466Q37.0710625,24,35.0000025,24Q33.7219325,24,32.6068725,24.608835Q31.5274705,25.198197,30.8424375,26.22168Z" fill-rule="evenodd" fill="#FFFFFF" fill-opacity="1"/></g><g><path d="M30.021087,29.143674Q30,29.0733844,30,29Q30,28.9507543,30.009607,28.9024549Q30.019215,28.854155,30.03806,28.808658Q30.056906,28.763161,30.084265,28.722215Q30.111625,28.681269,30.146447,28.646447Q30.181269,28.611625,30.222215,28.584265Q30.263161,28.556906,30.308658,28.53806Q30.354155,28.519215,30.4024549,28.509607Q30.4507543,28.5,30.5,28.5Q30.5806474,28.5,30.657205,28.525356Q30.733762,28.550713000000002,30.798465,28.598854Q30.863168,28.646994,30.909454,28.713037Q30.955739,28.77908,30.978913,28.856326L33.97891,38.85633Q34,38.92662,34,39Q34,39.0492,33.99039,39.0975Q33.98078,39.1458,33.96194,39.1913Q33.94309,39.2368,33.915729999999996,39.2778Q33.88837,39.3187,33.85355,39.3536Q33.81873,39.388400000000004,33.77778,39.4157Q33.73684,39.4431,33.69134,39.4619Q33.64584,39.4808,33.59754,39.4904Q33.54925,39.5,33.5,39.5Q33.41935,39.5,33.3428,39.4746Q33.266239999999996,39.4493,33.20153,39.4011Q33.13683,39.353,33.09055,39.287Q33.04426,39.2209,33.02109,39.1437L30.021087,29.143674Z" fill-rule="evenodd" fill="#FFFFFF" fill-opacity="1"/></g><g><path d="M28.24403,39.5L37.656,39.5Q38.4096,39.5,38.8594,38.8954Q39.3093,38.29079,39.0927,37.568979999999996L36.6927,29.568979Q36.372,28.5,35.256,28.5L25.84403,28.5Q25.090435,28.5,24.640591,29.104604Q24.190747,29.709208,24.4072912,30.43102L26.807290000000002,38.431020000000004Q27.12798,39.5,28.24403,39.5ZM38.0571,38.29847Q37.9072,38.5,37.656,38.5L28.24403,38.5Q27.87202,38.5,27.76512,38.14367L25.365117,30.14367Q25.292936,29.903069,25.442884,29.701535Q25.59283,29.5,25.84403,29.5L35.256,29.5Q35.628,29.5,35.734899999999996,29.856326L38.1349,37.85633Q38.2071,38.09693,38.0571,38.29847Z" fill-rule="evenodd" fill="#FFFFFF" fill-opacity="1"/></g></g></g></g></svg>