<svg xmlns="http://www.w3.org/2000/svg" xmlns:xlink="http://www.w3.org/1999/xlink" fill="none" version="1.1" width="64" height="64" viewBox="0 0 64 64"><defs><filter id="master_svg0_1837_37794" filterUnits="objectBoundingBox" color-interpolation-filters="sRGB" x="-0.625" y="-0.625" width="2.25" height="2.25"><feFlood flood-opacity="0" result="BackgroundImageFix"/><feColorMatrix in="SourceAlpha" type="matrix" values="0 0 0 0 0 0 0 0 0 0 0 0 0 0 0 0 0 0 127 0"/><feOffset dy="0" dx="0"/><feGaussianBlur stdDeviation="5"/><feColorMatrix type="matrix" values="0 0 0 0 0.125490203499794 0 0 0 0 0.125490203499794 0 0 0 0 0.4117647111415863 0 0 0 0.4000000059604645 0"/><feBlend mode="normal" in2="BackgroundImageFix" result="effect1_dropShadow"/><feBlend mode="normal" in="SourceGraphic" in2="effect1_dropShadow" result="shape"/></filter><clipPath id="master_svg1_1837_37795"><rect x="22" y="22" width="20" height="20" rx="0"/></clipPath></defs><g><g filter="url(#master_svg0_1837_37794)"><rect x="16" y="16" width="32" height="32" rx="6" fill="#31313A" fill-opacity="1"/><rect x="15.5" y="15.5" width="33" height="33" rx="6.5" fill-opacity="0" fill="none" stroke-width="1"/></g><g clip-path="url(#master_svg1_1837_37795)"><g><g><g><path d="M32.000566482543945,24C32.27669648254395,24,32.500566482543945,24.223866,32.500566482543945,24.5L32.50053648254394,25.19995C32.50053648254394,25.47608,32.276686482543944,25.69994,32.00055648254394,25.69994C31.724416482543944,25.69994,31.500566482543945,25.47608,31.500566482543945,25.19995L31.500566482543945,24.5C31.500566482543945,24.223866,31.724436482543943,24,32.000566482543945,24ZM34.75088648254395,25.39421C34.946146482543945,25.19896,35.26273648254394,25.19896,35.45799648254395,25.39421C35.65324648254395,25.58947,35.65324648254395,25.90606,35.45799648254395,26.10132L34.963536482543944,26.59573C34.76828648254394,26.79099,34.45170648254395,26.79099,34.256456482543946,26.59573C34.06119648254395,26.40047,34.06119648254395,26.0839,34.256456482543946,25.88864L34.75088648254395,25.39421ZM29.472906482543944,25.39812C29.277646482543947,25.20286,28.961053482543946,25.20286,28.765796482543944,25.39812C28.570540482543944,25.59337,28.570540482543944,25.90997,28.765796482543944,26.10522L29.260246482543945,26.59964C29.455506482543946,26.79489,29.772076482543945,26.79489,29.967336482543946,26.59964C30.162596482543947,26.40438,30.162596482543947,26.08781,29.967336482543946,25.89255L29.472906482543944,25.39812ZM32.00050648254395,26.5C33.10504648254395,26.5,34.00044648254394,27.3954,34.00044648254394,28.49994L33.206716482543946,28.49994L33.20126648254394,28.49997L30.801336482543945,28.49997L30.795886482543946,28.49994L30.000566482543945,28.49994C30.000566482543945,27.3954,30.895966482543944,26.5,32.00050648254395,26.5ZM29.200516482543946,27.5C29.476646482543945,27.5,29.700506482543947,27.72385,29.700506482543947,27.99999C29.700506482543947,28.27612,29.476646482543945,28.49997,29.200516482543946,28.49997L28.500566482543945,28.5C28.224432482543946,28.5,28.000566482543945,28.276130000000002,28.000566482543945,28C28.000566482543945,27.723869999999998,28.224432482543946,27.5,28.500566482543945,27.5L29.200516482543946,27.5ZM35.500566482543945,27.5C35.77669648254395,27.5,36.000566482543945,27.723869999999998,36.000566482543945,28C36.000566482543945,28.276130000000002,35.77669648254395,28.5,35.500566482543945,28.5L34.801336482543945,28.49997C34.52519648254395,28.49997,34.30134648254395,28.27612,34.30134648254395,27.99999C34.30134648254395,27.72385,34.52519648254395,27.5,34.801336482543945,27.5L35.500566482543945,27.5Z" fill-rule="evenodd" fill="#FFFFFF" fill-opacity="1"/></g><g><path d="M37.1709,29.5C37.6326,29.5,38.0343,29.78097,38.1428,30.179865L39.9857,36.95104C40.0619,37.23072,39.823499999999996,37.5,39.4998,37.5L32.49997,37.5L32.49997,39L34.9998,39C35.552099999999996,39,35.9998,39.4477,35.9998,40L28,40C28,39.4477,28.4477,39,28.99997,39L31.5,39L31.5,37.5L24.500219,37.5C24.17651,37.5,23.9381333,37.23072,24.0142537,36.95104L25.85716,30.179865C25.96573,29.78097,26.3674,29.5,26.82909,29.5L37.1709,29.5ZM33.11362,30.5L30.88638,30.5L30.699930000000002,32L33.30007,32L33.11362,30.5ZM29.735129999999998,30.5L26.72732,30.5L26.29549,32L29.54867,32L29.735129999999998,30.5ZM26.00761,32.99997L25.71971,34L29.300069999999998,34L29.40584,33.14909L29.42438,32.99997L26.00761,32.99997ZM25.43184,34.99997L25,36.5L28.98509,36.5C29.01733,36.24798,29.082810000000002,35.74196,29.17565,34.99997L25.43184,34.99997ZM30.13599,36.5L33.84278,36.5C33.81453,36.23565,33.76475,35.75447,33.67271,34.99997L30.32695,34.99997C30.23722,35.71807,30.17304,36.213300000000004,30.13599,36.5ZM34.9914,36.5L39,36.5L38.5683,34.99997L34.8237,34.99997C34.919,35.78956,34.9669,36.27881,34.9914,36.5ZM38.2805,34L37.9927,32.99997L34.5756,32.99997L34.5942,33.14909L34.6999,34L38.2805,34ZM37.7049,32L34.4513,32L34.2649,30.5L37.2732,30.5L37.7049,32ZM33.44393,33.15733L33.54867,34L30.45133,34L30.55607,33.15733L30.57525,33.00306L30.57563,32.99997L33.424369999999996,32.99997L33.42475,33.00306L33.44393,33.15733Z" fill-rule="evenodd" fill="#FFFFFF" fill-opacity="1"/></g></g></g></g></g></svg>