<svg xmlns="http://www.w3.org/2000/svg" xmlns:xlink="http://www.w3.org/1999/xlink" fill="none" version="1.1" width="64" height="64" viewBox="0 0 64 64"><defs><filter id="master_svg0_1837_37696" filterUnits="objectBoundingBox" color-interpolation-filters="sRGB" x="-0.625" y="-0.625" width="2.25" height="2.25"><feFlood flood-opacity="0" result="BackgroundImageFix"/><feColorMatrix in="SourceAlpha" type="matrix" values="0 0 0 0 0 0 0 0 0 0 0 0 0 0 0 0 0 0 127 0"/><feOffset dy="0" dx="0"/><feGaussianBlur stdDeviation="5"/><feColorMatrix type="matrix" values="0 0 0 0 0.125490203499794 0 0 0 0 0.125490203499794 0 0 0 0 0.4117647111415863 0 0 0 0.4000000059604645 0"/><feBlend mode="normal" in2="BackgroundImageFix" result="effect1_dropShadow"/><feBlend mode="normal" in="SourceGraphic" in2="effect1_dropShadow" result="shape"/></filter><clipPath id="master_svg1_1837_37697"><rect x="22" y="22" width="20" height="20" rx="0"/></clipPath></defs><g><g filter="url(#master_svg0_1837_37696)"><rect x="16" y="16" width="32" height="32" rx="6" fill="#31313A" fill-opacity="1"/><rect x="15.5" y="15.5" width="33" height="33" rx="6.5" fill-opacity="0" fill="none" stroke-width="1"/></g><g clip-path="url(#master_svg1_1837_37697)"><g><g><path d="M24.327372,30.46138Q25.363635,30.8426,25.363635,32Q25.363635,33.1574,24.327373,33.53862Q24.255355,33.56511,24.194596,33.61198Q24.133837,33.65885,24.089931,33.72179Q24.046025,33.78472,24.023012,33.857929999999996Q24,33.931129999999996,24,34.00787L24,38Q24,38.0492,24.009607,38.0975Q24.019215,38.1458,24.03806,38.1913Q24.056906,38.2368,24.084265,38.2778Q24.111625,38.3187,24.146447,38.3536Q24.181269,38.388400000000004,24.222215,38.4157Q24.263161,38.4431,24.308658,38.4619Q24.354155,38.4808,24.4024549,38.4904Q24.4507543,38.5,24.5,38.5L39.5,38.5Q39.5492,38.5,39.5975,38.4904Q39.6458,38.4808,39.6913,38.4619Q39.7368,38.4431,39.7778,38.4157Q39.8187,38.388400000000004,39.8536,38.3536Q39.888400000000004,38.3187,39.9157,38.2778Q39.9431,38.2368,39.9619,38.1913Q39.9808,38.1458,39.9904,38.0975Q40,38.0492,40,38L40,34.00787Q40,33.931129999999996,39.977000000000004,33.857929999999996Q39.954,33.78472,39.9101,33.72179Q39.8662,33.65885,39.8054,33.61198Q39.7446,33.56511,39.6726,33.53862Q38.6364,33.15739,38.6364,32Q38.6364,30.84261,39.6726,30.46138Q39.7446,30.43489,39.8054,30.38802Q39.8662,30.34115,39.9101,30.27821Q39.954,30.21528,39.977000000000004,30.14207Q40,30.06887,40,29.99213L40,26Q40,25.9507543,39.9904,25.9024549Q39.9808,25.854155,39.9619,25.808658Q39.9431,25.763161,39.9157,25.722215Q39.888400000000004,25.681269,39.8536,25.646447Q39.8187,25.611625,39.7778,25.584265Q39.7368,25.556906,39.6913,25.53806Q39.6458,25.519215,39.5975,25.509607Q39.5492,25.5,39.5,25.5L24.5,25.5Q24.4507543,25.5,24.4024549,25.509607Q24.354155,25.519215,24.308658,25.53806Q24.263161,25.556906,24.222215,25.584265Q24.181269,25.611625,24.146447,25.646447Q24.111625,25.681269,24.084265,25.722215Q24.056906,25.763161,24.03806,25.808658Q24.019215,25.854155,24.009607,25.9024549Q24,25.9507543,24,26L24,29.99213Q24,30.06887,24.023012,30.14207Q24.046024,30.21528,24.089931,30.27821Q24.133837,30.34115,24.194595,30.38802Q24.255354,30.43489,24.327372,30.46138ZM25.89105,33.52624Q26.36363,32.84249,26.36363,32Q26.36363,31.157510000000002,25.89105,30.47376Q25.5311,29.95297,25,29.66929L25,26.5L39,26.5L39,29.66929Q38.4689,29.95297,38.1089,30.47375Q37.6363,31.157519999999998,37.6364,32Q37.6364,32.84248,38.1089,33.52625Q38.4689,34.04703,39,34.330709999999996L39,37.5L25,37.5L25,34.330709999999996Q25.5311,34.04704,25.89105,33.52624Z" fill-rule="evenodd" fill="#FFFFFF" fill-opacity="1" style="mix-blend-mode:passthrough"/></g></g><g><path d="M31.14242,29L34,29L32.57273,31.4L34,31.4L30.284849,35L31.42727,32L30,32L31.14242,29Z" fill="#FFFFFF" fill-opacity="1" style="mix-blend-mode:passthrough"/></g></g></g></svg>