<svg xmlns="http://www.w3.org/2000/svg" xmlns:xlink="http://www.w3.org/1999/xlink" fill="none" version="1.1" width="64" height="64" viewBox="0 0 64 64"><defs><filter id="master_svg0_1837_37784" filterUnits="objectBoundingBox" color-interpolation-filters="sRGB" x="-0.625" y="-0.625" width="2.25" height="2.25"><feFlood flood-opacity="0" result="BackgroundImageFix"/><feColorMatrix in="SourceAlpha" type="matrix" values="0 0 0 0 0 0 0 0 0 0 0 0 0 0 0 0 0 0 127 0"/><feOffset dy="0" dx="0"/><feGaussianBlur stdDeviation="5"/><feColorMatrix type="matrix" values="0 0 0 0 0.125490203499794 0 0 0 0 0.125490203499794 0 0 0 0 0.4117647111415863 0 0 0 0.4000000059604645 0"/><feBlend mode="normal" in2="BackgroundImageFix" result="effect1_dropShadow"/><feBlend mode="normal" in="SourceGraphic" in2="effect1_dropShadow" result="shape"/></filter><clipPath id="master_svg1_1837_37785"><rect x="22" y="22" width="20" height="20" rx="0"/></clipPath></defs><g><g filter="url(#master_svg0_1837_37784)"><rect x="16" y="16" width="32" height="32" rx="6" fill="#31313A" fill-opacity="1"/><rect x="15.5" y="15.5" width="33" height="33" rx="6.5" fill-opacity="0" fill="none" stroke-width="1"/></g><g clip-path="url(#master_svg1_1837_37785)"><g><g><g><path d="M37.5,36.16796875L37.5,30.783348750000002Q37.5,28.65268875,35.87467,27.15238475Q34.26655,25.66796875,32,25.66796875Q29.73345,25.66796875,28.125329999999998,27.15238475Q26.5,28.65268875,26.5,30.783348750000002L26.5,36.16796875Q26.5,36.21716875,26.509607,36.26546875Q26.519215,36.31376875,26.53806,36.35926875Q26.556906,36.40476875,26.584265,36.44576875Q26.611625,36.48666875,26.646447,36.52156875Q26.681269,36.556368750000004,26.722215,36.58366875Q26.763161,36.61106875,26.808658,36.62986875Q26.854155,36.64876875,26.9024549,36.65836875Q26.9507543,36.66796875,27,36.66796875L37,36.66796875Q37.0492,36.66796875,37.0975,36.65836875Q37.1458,36.64876875,37.1913,36.62986875Q37.2368,36.61106875,37.2778,36.58366875Q37.3187,36.556368750000004,37.3536,36.52156875Q37.388400000000004,36.48666875,37.4157,36.44576875Q37.4431,36.40476875,37.4619,36.35926875Q37.4808,36.31376875,37.4904,36.26546875Q37.5,36.21716875,37.5,36.16796875ZM35.19639,27.88718875Q36.5,29.09051875,36.5,30.783348750000002L36.5,35.66796875L27.5,35.66796875L27.5,30.783348750000002Q27.5,29.09051875,28.80361,27.88718875Q30.12443,26.66796875,32,26.66796875Q33.875569999999996,26.66796875,35.19639,27.88718875Z" fill-rule="evenodd" fill="#FFFFFF" fill-opacity="1" style="mix-blend-mode:passthrough"/></g><g><path d="M25.5,38L38.5,38Q38.5492,38,38.5975,38.009607Q38.6458,38.019215,38.6913,38.03806Q38.7368,38.056906,38.7778,38.084265Q38.8187,38.111625,38.8536,38.146447Q38.888400000000004,38.181269,38.9157,38.222215Q38.9431,38.263161,38.9619,38.308658Q38.9808,38.354155,38.9904,38.4024549Q39,38.4507543,39,38.5Q39,38.5492457,38.9904,38.5975451Q38.9808,38.645845,38.9619,38.691342Q38.9431,38.736839,38.9157,38.777785Q38.888400000000004,38.818731,38.8536,38.853553Q38.8187,38.888375,38.7778,38.915735Q38.7368,38.943094,38.6913,38.96194Q38.6458,38.980785,38.5975,38.990393Q38.5492,39,38.5,39L25.5,39Q25.4507543,39,25.4024549,38.990393Q25.354155,38.980785,25.308658,38.96194Q25.263161,38.943094,25.222215,38.915735Q25.181269,38.888375,25.146447,38.853553Q25.111625,38.818731,25.084265,38.777785Q25.056906,38.736839,25.03806,38.691342Q25.019215,38.645845,25.009607,38.5975451Q25,38.5492457,25,38.5Q25,38.4507543,25.009607,38.4024549Q25.019215,38.354155,25.03806,38.308658Q25.056906,38.263161,25.084265,38.222215Q25.111625,38.181269,25.146447,38.146447Q25.181269,38.111625,25.222215,38.084265Q25.263161,38.056906,25.308658,38.03806Q25.354155,38.019215,25.4024549,38.009607Q25.4507543,38,25.5,38Z" fill-rule="evenodd" fill="#FFFFFF" fill-opacity="1" style="mix-blend-mode:passthrough"/></g><g><path d="M23.82608275,26.94362675L25.07607875,27.36029415Q25.150748749999998,27.38518315,25.21415875,27.43180705Q25.27756875,27.47843105,25.32358875,27.54228075Q25.36960875,27.60612975,25.39378875,27.68102975Q25.41796875,27.75592975,25.41796875,27.83463575Q25.41796875,27.88388175,25.40835875,27.93218075Q25.39875875,27.98048075,25.37990875,28.02597775Q25.36105875,28.07147475,25.33369875,28.11242075Q25.30634875,28.15336675,25.27151875,28.18818875Q25.23669875,28.22301075,25.19575875,28.25037075Q25.15480875,28.27772975,25.10930875,28.29657575Q25.06380875,28.31542075,25.01551875,28.32502875Q24.96721875,28.33463575,24.91796875,28.33463575Q24.83682875,28.33463575,24.75985875,28.30897775L23.50985475,27.89231075Q23.43518775,27.86742175,23.37177775,27.82079775Q23.30836775,27.77417375,23.26234775,27.71032375Q23.21632775,27.64647475,23.19214775,27.57157475Q23.16796875,27.49667465,23.16796875,27.41796875Q23.16796875,27.36872305,23.17757575,27.32042365Q23.18718375,27.27212375,23.20602875,27.22662675Q23.22487475,27.18112975,23.25223375,27.14018375Q23.27959375,27.09923775,23.31441575,27.06441575Q23.34923775,27.02959375,23.39018375,27.00223375Q23.43112975,26.97487475,23.47662675,26.95602875Q23.52212375,26.93718375,23.57042365,26.92757575Q23.61872305,26.91796875,23.66796875,26.91796875Q23.74910765,26.91796875,23.82608275,26.94362675Z" fill-rule="evenodd" fill="#FFFFFF" fill-opacity="1" style="mix-blend-mode:passthrough"/></g><g><path d="M26.94362675,23.82608275Q26.91796875,23.74910765,26.91796875,23.66796875Q26.91796875,23.61872305,26.92757575,23.57042365Q26.93718375,23.52212375,26.95602875,23.47662675Q26.97487475,23.43112975,27.00223375,23.39018375Q27.02959375,23.34923775,27.06441575,23.31441575Q27.09923775,23.27959375,27.14018375,23.25223375Q27.18112975,23.22487475,27.22662675,23.20602875Q27.27212375,23.18718375,27.32042365,23.17757575Q27.36872305,23.16796875,27.41796875,23.16796875Q27.49667465,23.16796875,27.57157475,23.19214775Q27.64647475,23.21632775,27.71032375,23.26234775Q27.77417375,23.30836775,27.82079775,23.37177775Q27.86742175,23.43518775,27.89231075,23.50985475L28.30897775,24.75985875Q28.33463575,24.83682875,28.33463575,24.91796875Q28.33463575,24.96721875,28.32502875,25.01551875Q28.31542075,25.06380875,28.29657575,25.10930875Q28.27772975,25.15480875,28.25037075,25.19574875Q28.22301075,25.23669875,28.18818875,25.27151875Q28.15336675,25.30634875,28.11242075,25.33369875Q28.07147475,25.36105875,28.02597775,25.37990875Q27.98048075,25.39875875,27.93218075,25.40835875Q27.88388175,25.41796875,27.83463575,25.41796875Q27.75592975,25.41796875,27.68102975,25.39378875Q27.60612975,25.36960875,27.54228075,25.32358875Q27.47843105,25.27756875,27.43180705,25.21415875Q27.38518315,25.150748749999998,27.36029415,25.07607875L26.94362675,23.82608275L26.94362675,23.82608275Z" fill-rule="evenodd" fill="#FFFFFF" fill-opacity="1" style="mix-blend-mode:passthrough"/></g><g><path d="M24.56441575,25.27152275Q24.49408975,25.20119675,24.45602875,25.10931075Q24.41796875,25.01742515,24.41796875,24.91796875Q24.41796875,24.86872305,24.42757575,24.82042365Q24.43718375,24.77212375,24.45602875,24.72662675Q24.47487475,24.68112975,24.50223375,24.64018375Q24.52959375,24.59923775,24.56441575,24.56441575Q24.59923775,24.52959375,24.64018375,24.50223375Q24.68112975,24.47487475,24.72662675,24.45602875Q24.77212375,24.43718375,24.82042365,24.42757575Q24.86872305,24.41796875,24.91796875,24.41796875Q25.01742475,24.41796875,25.10930975,24.45602875Q25.20119575,24.49408875,25.27152175,24.56441475L26.52152875,25.81441475Q26.59184875,25.88474075,26.62990875,25.97662875Q26.66796875,26.06850875,26.66796875,26.16796875Q26.66796875,26.21721875,26.65836875,26.26551875Q26.64875875,26.31380875,26.62990875,26.35930875Q26.61106875,26.40480875,26.58370875,26.44574875Q26.55634875,26.48669875,26.52152875,26.52151875Q26.48670875,26.55634875,26.44575875,26.58369875Q26.40480875,26.61105875,26.35931875,26.62990875Q26.31381875,26.64875875,26.26551875,26.65835875Q26.21721875,26.66796875,26.16796875,26.66796875Q26.06851875,26.66796875,25.97662875,26.62990875Q25.88474675,26.59184875,25.81441975,26.52151875L24.56441575,25.27152275L24.56441575,25.27152275Z" fill-rule="evenodd" fill="#FFFFFF" fill-opacity="1" style="mix-blend-mode:passthrough"/></g></g></g></g></g></svg>