<svg xmlns="http://www.w3.org/2000/svg" xmlns:xlink="http://www.w3.org/1999/xlink" fill="none" version="1.1" width="64" height="64" viewBox="0 0 64 64"><defs><filter id="master_svg0_1837_37840" filterUnits="objectBoundingBox" color-interpolation-filters="sRGB" x="-0.625" y="-0.625" width="2.25" height="2.25"><feFlood flood-opacity="0" result="BackgroundImageFix"/><feColorMatrix in="SourceAlpha" type="matrix" values="0 0 0 0 0 0 0 0 0 0 0 0 0 0 0 0 0 0 127 0"/><feOffset dy="0" dx="0"/><feGaussianBlur stdDeviation="5"/><feColorMatrix type="matrix" values="0 0 0 0 0.125490203499794 0 0 0 0 0.125490203499794 0 0 0 0 0.4117647111415863 0 0 0 0.4000000059604645 0"/><feBlend mode="normal" in2="BackgroundImageFix" result="effect1_dropShadow"/><feBlend mode="normal" in="SourceGraphic" in2="effect1_dropShadow" result="shape"/></filter><clipPath id="master_svg1_1837_37841"><rect x="22" y="22" width="20" height="20" rx="0"/></clipPath></defs><g><g filter="url(#master_svg0_1837_37840)"><rect x="16" y="16" width="32" height="32" rx="6" fill="#31313A" fill-opacity="1"/><rect x="15.5" y="15.5" width="33" height="33" rx="6.5" fill-opacity="0" fill="none" stroke-width="1"/></g><g clip-path="url(#master_svg1_1837_37841)"><g><g><g><path d="M36.5,26.5L36.5,28.97222Q36.5,29.02147,36.5096,29.06977Q36.5192,29.11807,36.5381,29.16356Q36.5569,29.20906,36.5843,29.25001Q36.611599999999996,29.29095,36.6464,29.32578Q36.6813,29.360599999999998,36.7222,29.38796Q36.7632,29.41532,36.8087,29.43416Q36.8542,29.45301,36.9025,29.462609999999998Q36.9508,29.47222,37,29.47222Q37.0492,29.47222,37.0975,29.462609999999998Q37.1458,29.45301,37.1913,29.43416Q37.2368,29.41532,37.2778,29.38796Q37.3187,29.360599999999998,37.3536,29.32578Q37.388400000000004,29.29095,37.4157,29.25001Q37.4431,29.20906,37.4619,29.16356Q37.4808,29.11807,37.4904,29.06977Q37.5,29.02147,37.5,28.97222L37.5,26.5Q37.5,25.671572,36.9142,25.0857865Q36.3284,24.5,35.5,24.5L26.5,24.5Q25.671573,24.5,25.0857864,25.0857865Q24.5,25.671573,24.5,26.5L24.5,36.5Q24.5,37.3284,25.0857874,37.9142Q25.671573,38.5,26.5,38.5L28.46875,38.5Q28.518,38.5,28.5663,38.4904Q28.61459,38.4808,28.66009,38.4619Q28.70559,38.4431,28.74654,38.4157Q28.78748,38.388400000000004,28.8223,38.3535Q28.85713,38.3187,28.88448,38.2778Q28.91184,38.2368,28.93069,38.1913Q28.94953,38.1458,28.95914,38.0975Q28.96875,38.0492,28.96875,38Q28.96875,37.9507,28.95914,37.9024Q28.94953,37.8541,28.93069,37.8087Q28.91184,37.7632,28.88448,37.7222Q28.857120000000002,37.6813,28.8223,37.6464Q28.78748,37.611599999999996,28.74653,37.5843Q28.70559,37.5569,28.66009,37.5381Q28.61459,37.5192,28.56629,37.5096Q28.518,37.5,28.46875,37.5L28.46777,37.5L26.5,37.5Q26.08579,37.5,25.792894,37.2071Q25.5,36.9142,25.5,36.5L25.5,26.5Q25.5,26.08579,25.792893,25.792893Q26.08579,25.5,26.5,25.5L35.5,25.5Q35.9142,25.5,36.2071,25.792893Q36.5,26.08579,36.5,26.5Z" fill-rule="evenodd" fill="#FFFFFF" fill-opacity="1"/></g><g><path d="M33.70299375,29.15026075C33.70299375,29.40799375,33.49406375,29.61692675,33.23632375,29.61692675L28.49401075,29.61692675C28.23627775,29.61692675,28.02734375,29.40799375,28.02734375,29.15026075C28.02734375,28.89252775,28.23627775,28.68359375,28.49401075,28.68359375L33.23632375,28.68359375C33.49406375,28.68359375,33.70299375,28.89252775,33.70299375,29.15026075" fill="#FFFFFF" fill-opacity="1"/></g><g><path d="M32.02732375,32.466667C32.02732375,32.7244,31.81839375,32.933333,31.56066375,32.933333L28.49401075,32.933333C28.23627775,32.933333,28.02734375,32.7244,28.02734375,32.466667C28.02734375,32.208934,28.23627775,32,28.49401075,32L31.56066375,32C31.81839375,32,32.02732375,32.208934,32.02732375,32.466667" fill="#FFFFFF" fill-opacity="1"/></g></g><g><ellipse cx="35.25" cy="36.24999976158142" rx="3.25" ry="3.249999761581421" fill-opacity="0" stroke-opacity="1" stroke="#FFFFFF" fill="none" stroke-width="1"/></g><g><path d="M34.65234375,35.46119975L34.65234375,37.16837875C34.652686269,37.29566875,34.75588875,37.39875875,34.88317875,37.39901875C34.92493275,37.39907875,34.96587175,37.38767875,35.00158675,37.36604875L36.47839375,36.51290875L36.48974375,36.50588875C36.56323375,36.45662875,36.60256375,36.37004875,36.59130375,36.28228875C36.58188375,36.20870875,36.53632375,36.14466675,36.46997375,36.11151375L35.00122075,35.26323185C34.92997675,35.22055299,34.84127575,35.21950105,34.76904275,35.26048525C34.69680995,35.30146945,34.6522494862,35.37814875,34.65234375,35.46119975Z" fill="#FFFFFF" fill-opacity="1"/></g></g></g></g></svg>