<svg xmlns="http://www.w3.org/2000/svg" xmlns:xlink="http://www.w3.org/1999/xlink" fill="none" version="1.1" width="64" height="64" viewBox="0 0 64 64"><defs><filter id="master_svg0_1837_37686" filterUnits="objectBoundingBox" color-interpolation-filters="sRGB" x="-0.625" y="-0.625" width="2.25" height="2.25"><feFlood flood-opacity="0" result="BackgroundImageFix"/><feColorMatrix in="SourceAlpha" type="matrix" values="0 0 0 0 0 0 0 0 0 0 0 0 0 0 0 0 0 0 127 0"/><feOffset dy="0" dx="0"/><feGaussianBlur stdDeviation="5"/><feColorMatrix type="matrix" values="0 0 0 0 0.125490203499794 0 0 0 0 0.125490203499794 0 0 0 0 0.4117647111415863 0 0 0 0.4000000059604645 0"/><feBlend mode="normal" in2="BackgroundImageFix" result="effect1_dropShadow"/><feBlend mode="normal" in="SourceGraphic" in2="effect1_dropShadow" result="shape"/></filter><clipPath id="master_svg1_1837_37687"><rect x="22" y="22" width="20" height="20" rx="0"/></clipPath></defs><g><g filter="url(#master_svg0_1837_37686)"><rect x="16" y="16" width="32" height="32" rx="6" fill="#31313A" fill-opacity="1"/><rect x="15.5" y="15.5" width="33" height="33" rx="6.5" fill-opacity="0" fill="none" stroke-width="1"/></g><g clip-path="url(#master_svg1_1837_37687)"><g><g><g><path d="M36.5,26.5L36.5,28.97222Q36.5,29.02147,36.5096,29.06977Q36.5192,29.11807,36.5381,29.16356Q36.5569,29.20906,36.5843,29.25001Q36.611599999999996,29.29095,36.6464,29.32578Q36.6813,29.360599999999998,36.7222,29.38796Q36.7632,29.41532,36.8087,29.43416Q36.8542,29.45301,36.9025,29.462609999999998Q36.9508,29.47222,37,29.47222Q37.0492,29.47222,37.0975,29.462609999999998Q37.1458,29.45301,37.1913,29.43416Q37.2368,29.41532,37.2778,29.38796Q37.3187,29.360599999999998,37.3536,29.32578Q37.388400000000004,29.29095,37.4157,29.25001Q37.4431,29.20906,37.4619,29.16356Q37.4808,29.11807,37.4904,29.06977Q37.5,29.02147,37.5,28.97222L37.5,26.5Q37.5,25.671572,36.9142,25.0857865Q36.3284,24.5,35.5,24.5L26.5,24.5Q25.671573,24.5,25.0857864,25.0857865Q24.5,25.671573,24.5,26.5L24.5,36.5Q24.5,37.3284,25.0857874,37.9142Q25.671573,38.5,26.5,38.5L28.46875,38.5Q28.518,38.5,28.5663,38.4904Q28.61459,38.4808,28.66009,38.4619Q28.70559,38.4431,28.74654,38.4157Q28.78748,38.388400000000004,28.8223,38.3535Q28.85713,38.3187,28.88448,38.2778Q28.91184,38.2368,28.93069,38.1913Q28.94953,38.1458,28.95914,38.0975Q28.96875,38.0492,28.96875,38Q28.96875,37.9507,28.95914,37.9024Q28.94953,37.8541,28.93069,37.8087Q28.91184,37.7632,28.88448,37.7222Q28.857120000000002,37.6813,28.8223,37.6464Q28.78748,37.611599999999996,28.74653,37.5843Q28.70559,37.5569,28.66009,37.5381Q28.61459,37.5192,28.56629,37.5096Q28.518,37.5,28.46875,37.5L28.46777,37.5L26.5,37.5Q26.08579,37.5,25.792894,37.2071Q25.5,36.9142,25.5,36.5L25.5,26.5Q25.5,26.08579,25.792893,25.792893Q26.08579,25.5,26.5,25.5L35.5,25.5Q35.9142,25.5,36.2071,25.792893Q36.5,26.08579,36.5,26.5Z" fill-rule="evenodd" fill="#FFFFFF" fill-opacity="1"/></g><g><path d="M33.70299375,29.15026075C33.70299375,29.40799375,33.49406375,29.61692675,33.23632375,29.61692675L28.49401075,29.61692675C28.23627775,29.61692675,28.02734375,29.40799375,28.02734375,29.15026075C28.02734375,28.89252775,28.23627775,28.68359375,28.49401075,28.68359375L33.23632375,28.68359375C33.49406375,28.68359375,33.70299375,28.89252775,33.70299375,29.15026075" fill="#FFFFFF" fill-opacity="1"/></g><g><path d="M32.02732375,32.466667C32.02732375,32.7244,31.81839375,32.933333,31.56066375,32.933333L28.49401075,32.933333C28.23627775,32.933333,28.02734375,32.7244,28.02734375,32.466667C28.02734375,32.208934,28.23627775,32,28.49401075,32L31.56066375,32C31.81839375,32,32.02732375,32.208934,32.02732375,32.466667" fill="#FFFFFF" fill-opacity="1"/></g></g></g><g transform="matrix(-1,0,0,1,80.4287109375,0)"><g><path d="M44.65543546875,33.888222Q44.65543546875,33.931857,44.64474546875,33.975283Q44.63405546875,34.01871,44.61277546875,34.06151Q44.59149546875,34.1043,44.55982546875,34.14606Q44.52815546875,34.18782,44.486415468749996,34.22813Q44.44466546875,34.26844,44.39324546875,34.30693Q44.34181546875,34.34541,44.28121546875,34.38169Q44.22060546875,34.41797,44.15139546875,34.4517Q44.08219546875,34.48543,44.00505546875,34.51629Q43.92792546875,34.54714,43.84359546875,34.57483Q43.75926546875,34.60251,43.66856546875,34.62675Q43.57786546875,34.65099,43.48165546875,34.67156Q43.38544546875,34.69213,43.28466546875,34.70883Q43.18387546875,34.72553,43.07948546875,34.7382Q42.97509546875,34.75086,42.86810546875,34.75938Q42.76111546875,34.76789,42.65254546875,34.77217Q42.54398546875,34.77644,42.43489546875,34.77644Q42.32580546875,34.77644,42.21724546875,34.77217Q42.10868546875,34.76789,42.00169546875,34.75938Q41.89469546875,34.75086,41.79030546875,34.7382Q41.68591546875,34.72553,41.58513546875,34.70883Q41.48434546875,34.69213,41.38814546875,34.67156Q41.29193546875,34.65099,41.20123046875,34.62675Q41.11052746875,34.60251,41.02620046875,34.57483Q40.94187446875,34.54714,40.86473746875,34.51629Q40.78760046875,34.48543,40.71839546875,34.4517Q40.64919046875,34.41797,40.58858446875,34.38169Q40.52797846875,34.34541,40.47655446875,34.30693Q40.42513046875,34.26844,40.38338446875,34.22813Q40.34163746875,34.18782,40.30997126875,34.14606Q40.27830466875,34.1043,40.25702256875,34.06151Q40.23574046875,34.01871,40.22504796875,33.975283Q40.21435546875,33.931857,40.21435546875,33.888222Q40.21435546875,33.844586,40.22504796875,33.801161Q40.23574046875,33.757735,40.25702256875,33.714938Q40.27830466875,33.672141,40.30997126875,33.630385Q40.34163746875,33.588628,40.38338446875,33.548314Q40.42513046875,33.508,40.47655446875,33.469517Q40.52797846875,33.431034,40.58858446875,33.394752Q40.64919046875,33.35847,40.71839546875,33.32474Q40.78760046875,33.291009,40.86473746875,33.260154Q40.94187446875,33.229299,41.02620046875,33.201617Q41.11052746875,33.173935,41.20123046875,33.149692Q41.29193546875,33.12545,41.38814546875,33.10488Q41.48434546875,33.0843104,41.58513546875,33.0676118Q41.68591546875,33.0509133,41.79030546875,33.0382465Q41.89469546875,33.0255798,42.00169546875,33.0170669Q42.10868546875,33.00855406,42.21724546875,33.00427703Q42.32580546875,33,42.43489546875,33Q42.54398546875,33,42.65254546875,33.00427703Q42.76111546875,33.00855406,42.86810546875,33.0170669Q42.97509546875,33.0255798,43.07948546875,33.0382465Q43.18387546875,33.0509133,43.28466546875,33.0676118Q43.38544546875,33.0843104,43.48165546875,33.10488Q43.57786546875,33.12545,43.66856546875,33.149692Q43.75926546875,33.173935,43.84359546875,33.201617Q43.92792546875,33.229299,44.00505546875,33.260154Q44.08219546875,33.291009,44.15139546875,33.32474Q44.22060546875,33.35847,44.28120546875,33.394752Q44.34181546875,33.431034,44.39324546875,33.469517Q44.44466546875,33.508,44.486415468749996,33.548314Q44.52815546875,33.588628,44.55982546875,33.630385Q44.59149546875,33.672141,44.61277546875,33.714938Q44.63405546875,33.757735,44.64474546875,33.801161Q44.65543546875,33.844586,44.65543546875,33.888222Z" fill="#FFFFFF" fill-opacity="1"/></g><g><path d="M50.42887296875,36.10698Q50.42887296875,36.150616,50.41818296875,36.194042Q50.40749296875,36.23747,50.38621296875,36.28026Q50.36493296875,36.32306,50.33326296875,36.36482Q50.30159296875,36.40658,50.259852968749996,36.44689Q50.21810296875,36.4872,50.16668296875,36.52569Q50.11525296875,36.56417,50.05465296875,36.60045Q49.99404296875,36.63674,49.92483296875,36.67047Q49.85563296875,36.7042,49.77849296875,36.73505Q49.70136296875,36.76591,49.61703296875,36.79359Q49.53270296875,36.82127,49.44200296875,36.84552Q49.35130296875,36.86976,49.25509296875,36.89033Q49.15888296875,36.9109,49.05810296875,36.9276Q48.95731296875,36.9443,48.85292296875,36.95696Q48.74853296875,36.96963,48.64154296875,36.97814Q48.53455296875,36.98666,48.42598296875,36.99093Q48.31742296875,36.99521,48.20833296875,36.99521Q48.09924296875,36.99521,47.99068296875,36.99093Q47.88212296875,36.98666,47.77513296875,36.97814Q47.66813296875,36.96963,47.56374296875,36.95696Q47.45935296875,36.9443,47.35857296875,36.9276Q47.25778296875,36.9109,47.16158296875,36.89033Q47.06537296875,36.86976,46.97466796875,36.84552Q46.88396496875,36.82127,46.79963796875,36.79359Q46.71531196875,36.76591,46.63817496875,36.73505Q46.56103796875,36.7042,46.49183296875,36.67047Q46.42262796875,36.63674,46.36202196875,36.60045Q46.30141596875,36.56417,46.24999196875,36.52569Q46.19856796875,36.4872,46.15682196875,36.44689Q46.11507496875,36.40658,46.08340876875,36.36482Q46.05174216875,36.32306,46.03046006875,36.28026Q46.00917796875,36.23747,45.99848546875,36.194042Q45.98779296875,36.150616,45.98779296875,36.10698Q45.98779296875,36.063344,45.99848546875,36.019918Q46.00917796875,35.976492,46.03046006875,35.933695Q46.05174216875,35.890897,46.08340876875,35.84914Q46.11507496875,35.807383,46.15682196875,35.767069Q46.19856796875,35.726755,46.24999196875,35.688271Q46.30141596875,35.649788,46.36202196875,35.613506Q46.42262796875,35.577224,46.49183296875,35.543493Q46.56103796875,35.509762,46.63817496875,35.478906Q46.71531196875,35.448051,46.79963796875,35.420369Q46.88396496875,35.392687,46.97466796875,35.368444Q47.06537296875,35.344201,47.16158296875,35.323631Q47.25778296875,35.3030612,47.35857296875,35.2863625Q47.45935296875,35.2696637,47.56374296875,35.2569969Q47.66813296875,35.24433,47.77513296875,35.2358171Q47.88212296875,35.22730414,47.99068296875,35.22302707Q48.09924296875,35.21875,48.20833296875,35.21875Q48.31742296875,35.21875,48.42598296875,35.22302707Q48.53455296875,35.22730414,48.64154296875,35.2358171Q48.74853296875,35.24433,48.85292296875,35.2569969Q48.95731296875,35.2696637,49.05810296875,35.2863625Q49.15888296875,35.3030612,49.25509296875,35.323631Q49.35130296875,35.344201,49.44200296875,35.368444Q49.53270296875,35.392687,49.61703296875,35.420369Q49.70136296875,35.448051,49.77849296875,35.478906Q49.85563296875,35.509762,49.92483296875,35.543493Q49.99404296875,35.577224,50.05464296875,35.613506Q50.11525296875,35.649788,50.16668296875,35.688271Q50.21810296875,35.726755,50.259852968749996,35.767069Q50.30159296875,35.807383,50.33326296875,35.84914Q50.36493296875,35.890897,50.38621296875,35.933695Q50.40749296875,35.976492,50.41818296875,36.019918Q50.42887296875,36.063344,50.42887296875,36.10698Z" fill="#FFFFFF" fill-opacity="1"/></g><g><path d="M42.43492546875,35.66554175C41.20851346875,35.66554175,40.21435546875,35.26785975,40.21435546875,34.77734375L40.21435546875,36.10965375C40.21441942185,36.60018375,41.20854546875,36.99785375,42.43492546875,36.99785375C43.661245468749996,36.99785375,44.65537546875,36.60018375,44.65543546875,36.10965375L44.65543546875,34.77734375C44.65543546875,35.26785975,43.66128546875,35.66554175,42.43492546875,35.66554175Z" fill="#FFFFFF" fill-opacity="1"/></g><g><path d="M42.43492546875,37.88435575C41.20851346875,37.88435575,40.21435546875,37.48667375,40.21435546875,36.99609375L40.21435546875,38.32840375C40.21441942185,38.81893375,41.20854546875,39.21660375,42.43492546875,39.21660375C43.661245468749996,39.21660375,44.65537546875,38.81893375,44.65543546875,38.32840375L44.65543546875,36.99609375C44.65543546875,37.48667375,43.66128546875,37.88435575,42.43492546875,37.88435575Z" fill="#FFFFFF" fill-opacity="1"/></g><g><path d="M48.20835296875,37.88435575C46.98195096875,37.88435575,45.98779296875,37.48667375,45.98779296875,36.99609375L45.98779296875,38.32840375C45.98785686495,38.81893375,46.98198296875,39.21660375,48.20835296875,39.21660375C49.434682968749996,39.21660375,50.42881296875,38.81893375,50.42887296875,38.32840375L50.42887296875,36.99609375C50.42887296875,37.48667375,49.43473296875,37.88435575,48.20835296875,37.88435575Z" fill="#FFFFFF" fill-opacity="1"/></g></g></g></g></svg>