<svg xmlns="http://www.w3.org/2000/svg" xmlns:xlink="http://www.w3.org/1999/xlink" fill="none" version="1.1" width="64" height="64" viewBox="0 0 64 64"><defs><filter id="master_svg0_1837_37860" filterUnits="objectBoundingBox" color-interpolation-filters="sRGB" x="-0.625" y="-0.625" width="2.25" height="2.25"><feFlood flood-opacity="0" result="BackgroundImageFix"/><feColorMatrix in="SourceAlpha" type="matrix" values="0 0 0 0 0 0 0 0 0 0 0 0 0 0 0 0 0 0 127 0"/><feOffset dy="0" dx="0"/><feGaussianBlur stdDeviation="5"/><feColorMatrix type="matrix" values="0 0 0 0 0.125490203499794 0 0 0 0 0.125490203499794 0 0 0 0 0.4117647111415863 0 0 0 0.4000000059604645 0"/><feBlend mode="normal" in2="BackgroundImageFix" result="effect1_dropShadow"/><feBlend mode="normal" in="SourceGraphic" in2="effect1_dropShadow" result="shape"/></filter><clipPath id="master_svg1_1837_37861"><rect x="22" y="22" width="20" height="20" rx="0"/></clipPath></defs><g><g filter="url(#master_svg0_1837_37860)"><rect x="16" y="16" width="32" height="32" rx="6" fill="#31313A" fill-opacity="1"/><rect x="15.5" y="15.5" width="33" height="33" rx="6.5" fill-opacity="0" fill="none" stroke-width="1"/></g><g clip-path="url(#master_svg1_1837_37861)"><g><g><g><path d="M36.5,26.5L36.5,28.97222Q36.5,29.02147,36.5096,29.06977Q36.5192,29.11807,36.5381,29.16356Q36.5569,29.20906,36.5843,29.25001Q36.611599999999996,29.29095,36.6464,29.32578Q36.6813,29.360599999999998,36.7222,29.38796Q36.7632,29.41532,36.8087,29.43416Q36.8542,29.45301,36.9025,29.462609999999998Q36.9508,29.47222,37,29.47222Q37.0492,29.47222,37.0975,29.462609999999998Q37.1458,29.45301,37.1913,29.43416Q37.2368,29.41532,37.2778,29.38796Q37.3187,29.360599999999998,37.3536,29.32578Q37.388400000000004,29.29095,37.4157,29.25001Q37.4431,29.20906,37.4619,29.16356Q37.4808,29.11807,37.4904,29.06977Q37.5,29.02147,37.5,28.97222L37.5,26.5Q37.5,25.671572,36.9142,25.0857865Q36.3284,24.5,35.5,24.5L26.5,24.5Q25.671573,24.5,25.0857864,25.0857865Q24.5,25.671573,24.5,26.5L24.5,36.5Q24.5,37.3284,25.0857874,37.9142Q25.671573,38.5,26.5,38.5L28.46875,38.5Q28.518,38.5,28.5663,38.4904Q28.61459,38.4808,28.66009,38.4619Q28.70559,38.4431,28.74654,38.4157Q28.78748,38.388400000000004,28.8223,38.3535Q28.85713,38.3187,28.88448,38.2778Q28.91184,38.2368,28.93069,38.1913Q28.94953,38.1458,28.95914,38.0975Q28.96875,38.0492,28.96875,38Q28.96875,37.9507,28.95914,37.9024Q28.94953,37.8541,28.93069,37.8087Q28.91184,37.7632,28.88448,37.7222Q28.857120000000002,37.6813,28.8223,37.6464Q28.78748,37.611599999999996,28.74653,37.5843Q28.70559,37.5569,28.66009,37.5381Q28.61459,37.5192,28.56629,37.5096Q28.518,37.5,28.46875,37.5L28.46777,37.5L26.5,37.5Q26.08579,37.5,25.792894,37.2071Q25.5,36.9142,25.5,36.5L25.5,26.5Q25.5,26.08579,25.792893,25.792893Q26.08579,25.5,26.5,25.5L35.5,25.5Q35.9142,25.5,36.2071,25.792893Q36.5,26.08579,36.5,26.5Z" fill-rule="evenodd" fill="#FFFFFF" fill-opacity="1"/></g><g><path d="M33.70299375,29.15026075C33.70299375,29.40799375,33.49406375,29.61692675,33.23632375,29.61692675L28.49401075,29.61692675C28.23627775,29.61692675,28.02734375,29.40799375,28.02734375,29.15026075C28.02734375,28.89252775,28.23627775,28.68359375,28.49401075,28.68359375L33.23632375,28.68359375C33.49406375,28.68359375,33.70299375,28.89252775,33.70299375,29.15026075" fill="#FFFFFF" fill-opacity="1"/></g><g><path d="M32.02732375,32.466667C32.02732375,32.7244,31.81839375,32.933333,31.56066375,32.933333L28.49401075,32.933333C28.23627775,32.933333,28.02734375,32.7244,28.02734375,32.466667C28.02734375,32.208934,28.23627775,32,28.49401075,32L31.56066375,32C31.81839375,32,32.02732375,32.208934,32.02732375,32.466667" fill="#FFFFFF" fill-opacity="1"/></g></g><g><ellipse cx="35.25" cy="36.24999976158142" rx="3.25" ry="3.249999761581421" fill-opacity="0" stroke-opacity="1" stroke="#FFFFFF" fill="none" stroke-width="1"/></g><g><path d="M34.5,35Q34.5,34.9507543,34.509607,34.9024549Q34.519215,34.854155,34.53806,34.808658Q34.556906,34.763161,34.584265,34.722215Q34.611625,34.681269,34.646447,34.646447Q34.681269,34.611625,34.722215,34.584265Q34.763161,34.556906,34.808658,34.53806Q34.854155,34.519215,34.9024549,34.509607Q34.9507543,34.5,35,34.5Q35.0492457,34.5,35.0975451,34.509607Q35.145845,34.519215,35.191342,34.53806Q35.236839,34.556906,35.277785,34.584265Q35.318731,34.611625,35.353553,34.646447Q35.388375,34.681269,35.415735,34.722215Q35.443094,34.763161,35.46194,34.808658Q35.480785,34.854155,35.490393,34.9024549Q35.5,34.9507543,35.5,35L35.5,36.12162L36.62162,36.12162Q36.67087,36.12162,36.71917,36.13123Q36.76747,36.14084,36.81296,36.15968Q36.85846,36.17853,36.89941,36.20589Q36.94035,36.23325,36.97517,36.26807Q37.01,36.30289,37.03736,36.34384Q37.06472,36.38478,37.08356,36.43028Q37.10241,36.47578,37.11201,36.52408Q37.12162,36.57238,37.12162,36.62162Q37.12162,36.67087,37.11201,36.71917Q37.10241,36.76747,37.08356,36.81296Q37.06472,36.85846,37.03736,36.89941Q37.01,36.94035,36.97517,36.97517Q36.94035,37.01,36.89941,37.03736Q36.85846,37.06472,36.81296,37.08356Q36.76747,37.10241,36.71917,37.11201Q36.67087,37.12162,36.62162,37.12162L35,37.12162Q34.9507543,37.12162,34.9024549,37.11201Q34.854155,37.10241,34.808658,37.08356Q34.763161,37.06472,34.722215,37.03736Q34.681269,37.01,34.646447,36.97517Q34.611625,36.94035,34.584265,36.89941Q34.556906,36.85846,34.53806,36.81296Q34.519215,36.76747,34.509607,36.71917Q34.5,36.67087,34.5,36.62162L34.5,35Z" fill-rule="evenodd" fill="#FFFFFF" fill-opacity="1"/></g></g></g></g></svg>