<svg xmlns="http://www.w3.org/2000/svg" xmlns:xlink="http://www.w3.org/1999/xlink" fill="none" version="1.1" width="64" height="64" viewBox="0 0 64 64"><defs><filter id="master_svg0_1837_37850" filterUnits="objectBoundingBox" color-interpolation-filters="sRGB" x="-0.625" y="-0.625" width="2.25" height="2.25"><feFlood flood-opacity="0" result="BackgroundImageFix"/><feColorMatrix in="SourceAlpha" type="matrix" values="0 0 0 0 0 0 0 0 0 0 0 0 0 0 0 0 0 0 127 0"/><feOffset dy="0" dx="0"/><feGaussianBlur stdDeviation="5"/><feColorMatrix type="matrix" values="0 0 0 0 0.125490203499794 0 0 0 0 0.125490203499794 0 0 0 0 0.4117647111415863 0 0 0 0.4000000059604645 0"/><feBlend mode="normal" in2="BackgroundImageFix" result="effect1_dropShadow"/><feBlend mode="normal" in="SourceGraphic" in2="effect1_dropShadow" result="shape"/></filter><clipPath id="master_svg1_1837_37851"><rect x="22" y="22" width="20" height="20" rx="0"/></clipPath></defs><g><g filter="url(#master_svg0_1837_37850)"><rect x="16" y="16" width="32" height="32" rx="6" fill="#31313A" fill-opacity="1"/><rect x="15.5" y="15.5" width="33" height="33" rx="6.5" fill-opacity="0" fill="none" stroke-width="1"/></g><g clip-path="url(#master_svg1_1837_37851)"><g><g><g><path d="M36.5,26.5L36.5,28.97222Q36.5,29.02147,36.5096,29.06977Q36.5192,29.11807,36.5381,29.16356Q36.5569,29.20906,36.5843,29.25001Q36.611599999999996,29.29095,36.6464,29.32578Q36.6813,29.360599999999998,36.7222,29.38796Q36.7632,29.41532,36.8087,29.43416Q36.8542,29.45301,36.9025,29.462609999999998Q36.9508,29.47222,37,29.47222Q37.0492,29.47222,37.0975,29.462609999999998Q37.1458,29.45301,37.1913,29.43416Q37.2368,29.41532,37.2778,29.38796Q37.3187,29.360599999999998,37.3536,29.32578Q37.388400000000004,29.29095,37.4157,29.25001Q37.4431,29.20906,37.4619,29.16356Q37.4808,29.11807,37.4904,29.06977Q37.5,29.02147,37.5,28.97222L37.5,26.5Q37.5,25.671572,36.9142,25.0857865Q36.3284,24.5,35.5,24.5L26.5,24.5Q25.671573,24.5,25.0857864,25.0857865Q24.5,25.671573,24.5,26.5L24.5,36.5Q24.5,37.3284,25.0857874,37.9142Q25.671573,38.5,26.5,38.5L28.46875,38.5Q28.518,38.5,28.5663,38.4904Q28.61459,38.4808,28.66009,38.4619Q28.70559,38.4431,28.74654,38.4157Q28.78748,38.388400000000004,28.8223,38.3535Q28.85713,38.3187,28.88448,38.2778Q28.91184,38.2368,28.93069,38.1913Q28.94953,38.1458,28.95914,38.0975Q28.96875,38.0492,28.96875,38Q28.96875,37.9507,28.95914,37.9024Q28.94953,37.8541,28.93069,37.8087Q28.91184,37.7632,28.88448,37.7222Q28.857120000000002,37.6813,28.8223,37.6464Q28.78748,37.611599999999996,28.74653,37.5843Q28.70559,37.5569,28.66009,37.5381Q28.61459,37.5192,28.56629,37.5096Q28.518,37.5,28.46875,37.5L28.46777,37.5L26.5,37.5Q26.08579,37.5,25.792894,37.2071Q25.5,36.9142,25.5,36.5L25.5,26.5Q25.5,26.08579,25.792893,25.792893Q26.08579,25.5,26.5,25.5L35.5,25.5Q35.9142,25.5,36.2071,25.792893Q36.5,26.08579,36.5,26.5Z" fill-rule="evenodd" fill="#FFFFFF" fill-opacity="1"/></g><g><path d="M33.70299375,29.15026075C33.70299375,29.40799375,33.49406375,29.61692675,33.23632375,29.61692675L28.49401075,29.61692675C28.23627775,29.61692675,28.02734375,29.40799375,28.02734375,29.15026075C28.02734375,28.89252775,28.23627775,28.68359375,28.49401075,28.68359375L33.23632375,28.68359375C33.49406375,28.68359375,33.70299375,28.89252775,33.70299375,29.15026075" fill="#FFFFFF" fill-opacity="1"/></g></g><g><g><path d="M32,34.49999898672104L31,34.49999898672104Q30.9507543,34.49999898672104,30.9024549,34.490391986721036Q30.854155,34.480783986721036,30.808658,34.46193898672104Q30.763161,34.44309298672104,30.722215,34.41573398672104Q30.681269,34.38837398672104,30.646447,34.35355198672104Q30.611625,34.31872998672104,30.584265,34.27778398672104Q30.556906,34.23683798672104,30.53806,34.19134098672104Q30.519215,34.14584398672104,30.509607,34.09754408672104Q30.5,34.04924468672104,30.5,33.99999898672104Q30.5,33.95075328672104,30.509607,33.90245388672104Q30.519215,33.85415398672104,30.53806,33.80865698672104Q30.556906,33.763159986721035,30.584265,33.72221398672104Q30.611625,33.68126798672104,30.646447,33.64644598672104Q30.681269,33.611623986721035,30.722215,33.58426398672104Q30.763161,33.55690498672104,30.808658,33.53805898672104Q30.854155,33.51921398672104,30.9024549,33.50960598672104Q30.9507543,33.49999898672104,31,33.49999898672104L32,33.49999898672104Q32.04925,33.49999898672104,32.09755,33.50960598672104Q32.14584,33.51921398672104,32.19134,33.53805898672104Q32.23684,33.55690498672104,32.27779,33.58426398672104Q32.31873,33.611623986721035,32.35355,33.64644598672104Q32.38838,33.68126798672104,32.415729999999996,33.72221398672104Q32.44309,33.763159986721035,32.46194,33.80865698672104Q32.48079,33.85415398672104,32.49039,33.90245388672104Q32.5,33.95075328672104,32.5,33.99999898672104Q32.5,34.04924468672104,32.49039,34.09754408672104Q32.48079,34.14584398672104,32.46194,34.19134098672104Q32.44309,34.23683798672104,32.415729999999996,34.27778398672104Q32.38838,34.31872998672104,32.35355,34.35355198672104Q32.31873,34.38837398672104,32.27779,34.41573398672104Q32.23684,34.44309298672104,32.19134,34.46193898672104Q32.14584,34.480783986721036,32.09755,34.490391986721036Q32.04925,34.49999898672104,32,34.49999898672104Z" fill-rule="evenodd" fill="#FFFFFF" fill-opacity="1"/></g><g><path d="M36,33.49999898672104L39,33.49999898672104Q39.04925,33.49999898672104,39.09754,33.50960598672104Q39.14584,33.51921398672104,39.19134,33.53805898672104Q39.23684,33.55690498672104,39.27778,33.58426398672104Q39.31873,33.611623986721035,39.35355,33.64644598672104Q39.38837,33.68126798672104,39.415729999999996,33.72221398672104Q39.44309,33.763159986721035,39.46194,33.80865698672104Q39.48078,33.85415398672104,39.49039,33.90245388672104Q39.5,33.95075328672104,39.5,33.99999898672104Q39.5,34.04924468672104,39.49039,34.09754408672104Q39.48078,34.14584398672104,39.46194,34.19134098672104Q39.44309,34.23683798672104,39.415729999999996,34.27778398672104Q39.38837,34.31872998672104,39.35355,34.35355198672104Q39.31873,34.38837398672104,39.27778,34.41573398672104Q39.23684,34.44309298672104,39.19134,34.46193898672104Q39.14584,34.480783986721036,39.09754,34.490391986721036Q39.04925,34.49999898672104,39,34.49999898672104L36,34.49999898672104Q35.9507543,34.49999898672104,35.9024549,34.490391986721036Q35.854155,34.480783986721036,35.808658,34.46193898672104Q35.763161,34.44309298672104,35.722215,34.41573398672104Q35.681269,34.38837398672104,35.646447,34.35355198672104Q35.611625,34.31872998672104,35.584265,34.27778398672104Q35.556906,34.23683798672104,35.53806,34.19134098672104Q35.519215,34.14584398672104,35.509607,34.09754408672104Q35.5,34.04924468672104,35.5,33.99999898672104Q35.5,33.95075328672104,35.509607,33.90245388672104Q35.519215,33.85415398672104,35.53806,33.80865698672104Q35.556906,33.763159986721035,35.584265,33.72221398672104Q35.611625,33.68126798672104,35.646447,33.64644598672104Q35.681269,33.611623986721035,35.722215,33.58426398672104Q35.763161,33.55690498672104,35.808658,33.53805898672104Q35.854155,33.51921398672104,35.9024549,33.50960598672104Q35.9507543,33.49999898672104,36,33.49999898672104Z" fill-rule="evenodd" fill="#FFFFFF" fill-opacity="1"/></g><g><path d="M34.06066,32.9393398Q33.62132,32.5,33,32.5Q32.37868,32.5,31.9393398,32.9393398Q31.5,33.37868,31.5,34Q31.5,34.62132,31.9393398,35.06066Q32.37868,35.5,33,35.5Q33.62132,35.5,34.06066,35.06066Q34.5,34.62132,34.5,34Q34.5,33.37868,34.06066,32.9393398ZM32.646447,33.646447Q32.792893,33.5,33,33.5Q33.20711,33.5,33.35355,33.646447Q33.5,33.792893,33.5,34Q33.5,34.20711,33.35355,34.35355Q33.20711,34.5,33,34.5Q32.792893,34.5,32.646447,34.35355Q32.5,34.20711,32.5,34Q32.5,33.792893,32.646447,33.646447Z" fill-rule="evenodd" fill="#FFFFFF" fill-opacity="1"/></g></g><g transform="matrix(-1,0,0,1,78,0)"><g><path d="M40,38.49999898672104L39,38.49999898672104Q38.9507543,38.49999898672104,38.9024549,38.490391986721036Q38.854155,38.480783986721036,38.808658,38.46193898672104Q38.763161,38.44309298672104,38.722215,38.41573398672104Q38.681269,38.38837398672104,38.646447,38.35355198672104Q38.611625,38.31872998672104,38.584265,38.27778398672104Q38.556906,38.23683798672104,38.53806,38.19134098672104Q38.519215,38.14584398672104,38.509607,38.09754408672104Q38.5,38.04924468672104,38.5,37.99999898672104Q38.5,37.95075328672104,38.509607,37.90245388672104Q38.519215,37.85415398672104,38.53806,37.80865698672104Q38.556906,37.763159986721035,38.584265,37.72221398672104Q38.611625,37.68126798672104,38.646447,37.64644598672104Q38.681269,37.611623986721035,38.722215,37.58426398672104Q38.763161,37.55690498672104,38.808658,37.53805898672104Q38.854155,37.51921398672104,38.9024549,37.50960598672104Q38.9507543,37.49999898672104,39,37.49999898672104L40,37.49999898672104Q40.04925,37.49999898672104,40.09755,37.50960598672104Q40.14584,37.51921398672104,40.19134,37.53805898672104Q40.23684,37.55690498672104,40.27779,37.58426398672104Q40.31873,37.611623986721035,40.35355,37.64644598672104Q40.38838,37.68126798672104,40.415729999999996,37.72221398672104Q40.44309,37.763159986721035,40.46194,37.80865698672104Q40.48079,37.85415398672104,40.49039,37.90245388672104Q40.5,37.95075328672104,40.5,37.99999898672104Q40.5,38.04924468672104,40.49039,38.09754408672104Q40.48079,38.14584398672104,40.46194,38.19134098672104Q40.44309,38.23683798672104,40.415729999999996,38.27778398672104Q40.38838,38.31872998672104,40.35355,38.35355198672104Q40.31873,38.38837398672104,40.27779,38.41573398672104Q40.23684,38.44309298672104,40.19134,38.46193898672104Q40.14584,38.480783986721036,40.09755,38.490391986721036Q40.04925,38.49999898672104,40,38.49999898672104Z" fill-rule="evenodd" fill="#FFFFFF" fill-opacity="1"/></g><g><path d="M44,37.49999898672104L47,37.49999898672104Q47.04925,37.49999898672104,47.09754,37.50960598672104Q47.14584,37.51921398672104,47.19134,37.53805898672104Q47.23684,37.55690498672104,47.27778,37.58426398672104Q47.31873,37.611623986721035,47.35355,37.64644598672104Q47.38837,37.68126798672104,47.415729999999996,37.72221398672104Q47.44309,37.763159986721035,47.46194,37.80865698672104Q47.48078,37.85415398672104,47.49039,37.90245388672104Q47.5,37.95075328672104,47.5,37.99999898672104Q47.5,38.04924468672104,47.49039,38.09754408672104Q47.48078,38.14584398672104,47.46194,38.19134098672104Q47.44309,38.23683798672104,47.415729999999996,38.27778398672104Q47.38837,38.31872998672104,47.35355,38.35355198672104Q47.31873,38.38837398672104,47.27778,38.41573398672104Q47.23684,38.44309298672104,47.19134,38.46193898672104Q47.14584,38.480783986721036,47.09754,38.490391986721036Q47.04925,38.49999898672104,47,38.49999898672104L44,38.49999898672104Q43.9507543,38.49999898672104,43.9024549,38.490391986721036Q43.854155,38.480783986721036,43.808658,38.46193898672104Q43.763161,38.44309298672104,43.722215,38.41573398672104Q43.681269,38.38837398672104,43.646447,38.35355198672104Q43.611625,38.31872998672104,43.584265,38.27778398672104Q43.556906,38.23683798672104,43.53806,38.19134098672104Q43.519215,38.14584398672104,43.509607,38.09754408672104Q43.5,38.04924468672104,43.5,37.99999898672104Q43.5,37.95075328672104,43.509607,37.90245388672104Q43.519215,37.85415398672104,43.53806,37.80865698672104Q43.556906,37.763159986721035,43.584265,37.72221398672104Q43.611625,37.68126798672104,43.646447,37.64644598672104Q43.681269,37.611623986721035,43.722215,37.58426398672104Q43.763161,37.55690498672104,43.808658,37.53805898672104Q43.854155,37.51921398672104,43.9024549,37.50960598672104Q43.9507543,37.49999898672104,44,37.49999898672104Z" fill-rule="evenodd" fill="#FFFFFF" fill-opacity="1"/></g><g><path d="M42.06066,36.9393398Q41.62132,36.5,41,36.5Q40.37868,36.5,39.9393398,36.9393398Q39.5,37.37868,39.5,38Q39.5,38.62132,39.9393398,39.06066Q40.37868,39.5,41,39.5Q41.62132,39.5,42.06066,39.06066Q42.5,38.62132,42.5,38Q42.5,37.37868,42.06066,36.9393398ZM40.646447,37.646447Q40.792893,37.5,41,37.5Q41.20711,37.5,41.35355,37.646447Q41.5,37.792893,41.5,38Q41.5,38.20711,41.35355,38.35355Q41.20711,38.5,41,38.5Q40.792893,38.5,40.646447,38.35355Q40.5,38.20711,40.5,38Q40.5,37.792893,40.646447,37.646447Z" fill-rule="evenodd" fill="#FFFFFF" fill-opacity="1"/></g></g></g></g></g></svg>