<svg xmlns="http://www.w3.org/2000/svg" xmlns:xlink="http://www.w3.org/1999/xlink" fill="none" version="1.1" width="64" height="64" viewBox="0 0 64 64"><defs><filter id="master_svg0_1837_37914" filterUnits="objectBoundingBox" color-interpolation-filters="sRGB" x="-0.625" y="-0.625" width="2.25" height="2.25"><feFlood flood-opacity="0" result="BackgroundImageFix"/><feColorMatrix in="SourceAlpha" type="matrix" values="0 0 0 0 0 0 0 0 0 0 0 0 0 0 0 0 0 0 127 0"/><feOffset dy="0" dx="0"/><feGaussianBlur stdDeviation="5"/><feColorMatrix type="matrix" values="0 0 0 0 0.125490203499794 0 0 0 0 0.125490203499794 0 0 0 0 0.4117647111415863 0 0 0 0.4000000059604645 0"/><feBlend mode="normal" in2="BackgroundImageFix" result="effect1_dropShadow"/><feBlend mode="normal" in="SourceGraphic" in2="effect1_dropShadow" result="shape"/></filter><clipPath id="master_svg1_1837_37915"><rect x="22" y="22" width="20" height="20" rx="0"/></clipPath></defs><g><g filter="url(#master_svg0_1837_37914)"><rect x="16" y="16" width="32" height="32" rx="6" fill="#31313A" fill-opacity="1"/><rect x="15.5" y="15.5" width="33" height="33" rx="6.5" fill-opacity="0" fill="none" stroke-width="1"/></g><g clip-path="url(#master_svg1_1837_37915)"><g><g><g><path d="M24.5,25.333333L24.5,38.6667Q24.5,39.2261,24.9112584,39.6179Q25.312265,40,25.874605,40L38.1191,40Q38.6814,40,39.0824,39.6179Q39.493700000000004,39.2261,39.493700000000004,38.6667L39.493700000000004,29.5Q39.493700000000004,29.45075,39.4841,29.40245Q39.4745,29.35416,39.455600000000004,29.30866Q39.4368,29.26316,39.4094,29.22221Q39.3821,29.181269999999998,39.3472,29.14645Q39.3124,29.111620000000002,39.2715,29.08426Q39.2305,29.056910000000002,39.185,29.03806Q39.1395,29.01921,39.0912,29.009610000000002Q39.0429,29,38.993700000000004,29L33.80875,29L33.80875,24.5Q33.80875,24.4507543,33.79914,24.4024549Q33.78953,24.354155,33.77069,24.308658Q33.75184,24.263161,33.72448,24.222215Q33.69712,24.181269,33.6623,24.146447Q33.62748,24.111625,33.586529999999996,24.084265Q33.545590000000004,24.056906,33.50009,24.03806Q33.454589999999996,24.019215,33.40629,24.009607Q33.358000000000004,24,33.30875,24L25.874605,24Q25.312266,24,24.9112567,24.382086Q24.5,24.773936,24.5,25.333333ZM25.874605,39Q25.5,39,25.5,38.6667L25.5,25.333333Q25.5,25.202374,25.601075,25.106069Q25.712397,25,25.874605,25L32.80875,25L32.80875,29.5Q32.80875,29.54925,32.81836,29.59755Q32.82796,29.64584,32.84681,29.69134Q32.86565,29.73684,32.893010000000004,29.77778Q32.92037,29.818730000000002,32.95519,29.85355Q32.99002,29.888370000000002,33.03096,29.91573Q33.07191,29.943089999999998,33.11741,29.96194Q33.1629,29.98078,33.2112,29.990389999999998Q33.2595,30,33.30875,30L38.493700000000004,30L38.493700000000004,38.6667Q38.493700000000004,39,38.1191,39L25.874605,39Z" fill-rule="evenodd" fill="#FFFFFF" fill-opacity="1" style="mix-blend-mode:passthrough"/></g><g><path d="M33.642665,24.124513L39.32902,29.12451Q39.40999,29.19571,39.45442,29.29395Q39.49885,29.39218,39.49885,29.5Q39.49885,29.54925,39.48925,29.59755Q39.47964,29.64584,39.46079,29.69134Q39.44195,29.73684,39.41459,29.77778Q39.38723,29.818730000000002,39.35241,29.85355Q39.31758,29.888370000000002,39.27664,29.91573Q39.23569,29.943089999999998,39.19019,29.96194Q39.1447,29.98078,39.0964,29.990389999999998Q39.0481,30,38.99885,30Q38.90771,30,38.82242,29.96784Q38.73714,29.935670000000002,38.66869,29.87549L38.66847,29.8753L32.982335,24.875487Q32.901366,24.804292,32.856933,24.706055Q32.8125,24.607818,32.8125,24.5Q32.8125,24.4507543,32.822107,24.4024549Q32.831715,24.354155,32.85056,24.308658Q32.869406,24.263161,32.896765,24.222215Q32.924125,24.181269,32.958947,24.146447Q32.993769,24.111625,33.034715,24.084265Q33.075661,24.056906,33.121158,24.03806Q33.166655,24.019215,33.2149549,24.009607Q33.2632543,24,33.3125,24Q33.4036474,24,33.488932,24.032163Q33.574216,24.064325,33.642665,24.124513Z" fill-rule="evenodd" fill="#FFFFFF" fill-opacity="1" style="mix-blend-mode:passthrough"/></g><g><path d="M33.82421875,24.500172633L33.82421875,29.03408L38.99972875,29.03408Q39.04896875,29.03408,39.09726875,29.043689999999998Q39.14556875,29.0533,39.19106875,29.07214Q39.23655875,29.090989999999998,39.27750875,29.11835Q39.31845875,29.14571,39.35327875,29.18053Q39.38809875,29.21535,39.41545875,29.2563Q39.44281875,29.297240000000002,39.46165875,29.34274Q39.48050875,29.38824,39.49011875,29.43654Q39.49972875,29.48484,39.49972875,29.53408Q39.49972875,29.58333,39.49011875,29.63163Q39.48050875,29.67993,39.46165875,29.72542Q39.44281875,29.77092,39.41545875,29.81187Q39.38809875,29.852809999999998,39.35327875,29.88764Q39.31845875,29.92246,39.27750875,29.94982Q39.23655875,29.97718,39.19106875,29.99602Q39.14556875,30.014870000000002,39.09726875,30.02448Q39.04896875,30.03408,38.99972875,30.03408L33.32421875,30.03408Q33.27497305,30.03408,33.22667365,30.02448Q33.17837375,30.014870000000002,33.13287675,29.99602Q33.08737975,29.97718,33.04643375,29.94982Q33.00548775,29.92246,32.97066575,29.88764Q32.93584375,29.852809999999998,32.90848375,29.81187Q32.88112475,29.77092,32.86227875,29.72542Q32.84343375,29.67993,32.83382575,29.63163Q32.82421875,29.58333,32.82421875,29.53408L32.82421875,24.5Q32.82421875,24.4507543,32.83382575,24.4024549Q32.84343375,24.354155,32.86227875,24.308658Q32.88112475,24.263161,32.90848375,24.222215Q32.93584375,24.181269,32.97066575,24.146447Q33.00548775,24.111625,33.04643375,24.084265Q33.08737975,24.056906,33.13287675,24.03806Q33.17837375,24.019215,33.22667365,24.009607Q33.27497305,24,33.32421875,24Q33.37346445,24,33.42176385,24.009607Q33.47006375,24.019215,33.51556075,24.03806Q33.56105775,24.056906,33.60200375,24.084265Q33.64294975,24.111625,33.67777175,24.146447Q33.71259375,24.181269,33.73995375,24.222215Q33.76731275,24.263161,33.78615875,24.308658Q33.80500375,24.354155,33.81461175,24.4024549Q33.82421875,24.4507543,33.82421875,24.5L33.82421875,24.500172633Z" fill-rule="evenodd" fill="#FFFFFF" fill-opacity="1" style="mix-blend-mode:passthrough"/></g></g></g><g><path d="M28.14242,32L31,32L29.57273,34.4L31,34.4L27.284849,38L28.42727,35L27,35L28.14242,32Z" fill="#FFFFFF" fill-opacity="1" style="mix-blend-mode:passthrough"/></g></g></g></svg>