<svg xmlns="http://www.w3.org/2000/svg" xmlns:xlink="http://www.w3.org/1999/xlink" fill="none" version="1.1" width="64" height="64" viewBox="0 0 64 64"><defs><filter id="master_svg0_1832_61186" filterUnits="objectBoundingBox" color-interpolation-filters="sRGB" x="-0.625" y="-0.625" width="2.25" height="2.25"><feFlood flood-opacity="0" result="BackgroundImageFix"/><feColorMatrix in="SourceAlpha" type="matrix" values="0 0 0 0 0 0 0 0 0 0 0 0 0 0 0 0 0 0 127 0"/><feOffset dy="0" dx="0"/><feGaussianBlur stdDeviation="5"/><feColorMatrix type="matrix" values="0 0 0 0 0.125490203499794 0 0 0 0 0.125490203499794 0 0 0 0 0.4117647111415863 0 0 0 0.4000000059604645 0"/><feBlend mode="normal" in2="BackgroundImageFix" result="effect1_dropShadow"/><feBlend mode="normal" in="SourceGraphic" in2="effect1_dropShadow" result="shape"/></filter><clipPath id="master_svg1_1832_61191"><rect x="22" y="22" width="20" height="20" rx="0"/></clipPath></defs><g><g filter="url(#master_svg0_1832_61186)"><rect x="16" y="16" width="32" height="32" rx="6" fill="#31313A" fill-opacity="1"/><rect x="15.5" y="15.5" width="33" height="33" rx="6.5" fill-opacity="0" fill="none" stroke-width="1"/></g><g clip-path="url(#master_svg1_1832_61191)"><g><g><path d="M32.16337,24.402443Q32,24.345963,31.83663,24.402443L24.33663,26.99531Q24.290087,27.011400000000002,24.247578,27.03626Q24.205068,27.06112,24.168226,27.0938Q24.131384,27.12647,24.101624,27.16571Q24.071865,27.20495,24.050332,27.24923Q24.028799,27.29352,24.01632,27.34116Q24.003841,27.3888,24.000895,27.43796Q23.99795,27.48711,24.004651,27.535899999999998Q24.011352,27.584690000000002,24.027443,27.63123Q24.064725,27.739069999999998,24.1451,27.820059999999998Q24.225474,27.90105,24.333027,27.93916L31.83303,30.5963Q32,30.655450000000002,32.16697,30.5963L39.667,27.93916Q39.7134,27.92271,39.7557,27.89753Q39.798,27.87234,39.8346,27.83938Q39.8712,27.80643,39.9007,27.76697Q39.930099999999996,27.7275,39.9513,27.68305Q39.9725,27.6386,39.9846,27.59087Q39.996700000000004,27.54313,39.9993,27.49396Q40.0019,27.44478,39.9948,27.39604Q39.987700000000004,27.34731,39.9713,27.30089Q39.9332,27.19334,39.852199999999996,27.11296Q39.7712,27.03259,39.663399999999996,26.99531L32.16337,24.402443ZM32,25.404037L26.01356,27.47364L32,29.594549999999998L37.9864,27.47364L32,25.404037Z" fill-rule="evenodd" fill="#FFFFFF" fill-opacity="1" style="mix-blend-mode:passthrough"/></g><g><path d="M24.665261,30.028101L32,32.59526L39.3344,30.028218L39.3348,30.028071Q39.415,30,39.5,30Q39.5492,30,39.5975,30.009607Q39.6458,30.019215,39.6913,30.03806Q39.7368,30.056906,39.7778,30.084265Q39.8187,30.111625,39.8536,30.146447Q39.888400000000004,30.181269,39.9157,30.222215Q39.9431,30.263161,39.9619,30.308658Q39.9808,30.354155,39.9904,30.4024549Q40,30.4507543,40,30.5Q40,30.5777502,39.9764,30.651829Q39.952799999999996,30.725908,39.9078,30.78932Q39.8628,30.852732,39.8007,30.899488Q39.7386,30.946244,39.6652,30.971929L32.16517,33.59693Q32,33.65474,31.83482,33.59693L24.334911,30.971959L24.334825,30.971929Q24.26144,30.946244,24.199319,30.899488Q24.137198,30.852732,24.092209,30.78932Q24.047219,30.725908,24.02361,30.651829Q24,30.5777503,24,30.5Q24,30.4507543,24.009607,30.4024549Q24.019215,30.354155,24.03806,30.308658Q24.056906,30.263161,24.084265,30.222215Q24.111625,30.181269,24.146447,30.146447Q24.181269,30.111625,24.222215,30.084265Q24.263161,30.056906,24.308658,30.03806Q24.354155,30.019215,24.4024549,30.009607Q24.4507543,30,24.5,30Q24.5849729,30,24.665175,30.028071L24.665261,30.028101Z" fill-rule="evenodd" fill="#FFFFFF" fill-opacity="1" style="mix-blend-mode:passthrough"/></g><g><path d="M24.665261,33.028101L32,35.59526L39.3344,33.028218L39.3348,33.028071Q39.415,33,39.5,33Q39.5492,33,39.5975,33.009607Q39.6458,33.019215,39.6913,33.03806Q39.7368,33.056906,39.7778,33.084265Q39.8187,33.111625,39.8536,33.146447Q39.888400000000004,33.181269,39.9157,33.222215Q39.9431,33.263161,39.9619,33.308658Q39.9808,33.354155,39.9904,33.4024549Q40,33.4507543,40,33.5Q40,33.5777502,39.9764,33.651829Q39.952799999999996,33.725908,39.9078,33.789320000000004Q39.8628,33.852732,39.8007,33.899488Q39.7386,33.946244,39.6652,33.971929L32.16517,36.59693Q32,36.65474,31.83482,36.59693L24.334911,33.971959L24.334825,33.971929Q24.26144,33.946244,24.199319,33.899488Q24.137198,33.852732,24.092209,33.789320000000004Q24.047219,33.725908,24.02361,33.651829Q24,33.5777503,24,33.5Q24,33.4507543,24.009607,33.4024549Q24.019215,33.354155,24.03806,33.308658Q24.056906,33.263161,24.084265,33.222215Q24.111625,33.181269,24.146447,33.146447Q24.181269,33.111625,24.222215,33.084265Q24.263161,33.056906,24.308658,33.03806Q24.354155,33.019215,24.4024549,33.009607Q24.4507543,33,24.5,33Q24.5849729,33,24.665175,33.028071L24.665261,33.028101Z" fill-rule="evenodd" fill="#FFFFFF" fill-opacity="1" style="mix-blend-mode:passthrough"/></g><g><path d="M24.665261,36.028101L32,38.59526L39.3344,36.028218L39.3348,36.028071Q39.415,36,39.5,36Q39.5492,36,39.5975,36.009607Q39.6458,36.019215,39.6913,36.03806Q39.7368,36.056906,39.7778,36.084265Q39.8187,36.111625,39.8536,36.146447Q39.888400000000004,36.181269,39.9157,36.222215Q39.9431,36.263161,39.9619,36.308658Q39.9808,36.354155,39.9904,36.4024549Q40,36.4507543,40,36.5Q40,36.5777502,39.9764,36.651829Q39.952799999999996,36.725908,39.9078,36.789320000000004Q39.8628,36.852732,39.8007,36.899488Q39.7386,36.946244,39.6652,36.971929L32.16517,39.59693Q32,39.65474,31.83482,39.59693L24.334911,36.971959L24.334825,36.971929Q24.26144,36.946244,24.199319,36.899488Q24.137198,36.852732,24.092209,36.789320000000004Q24.047219,36.725908,24.02361,36.651829Q24,36.5777503,24,36.5Q24,36.4507543,24.009607,36.4024549Q24.019215,36.354155,24.03806,36.308658Q24.056906,36.263161,24.084265,36.222215Q24.111625,36.181269,24.146447,36.146447Q24.181269,36.111625,24.222215,36.084265Q24.263161,36.056906,24.308658,36.03806Q24.354155,36.019215,24.4024549,36.009607Q24.4507543,36,24.5,36Q24.5849729,36,24.665175,36.028071L24.665261,36.028101Z" fill-rule="evenodd" fill="#FFFFFF" fill-opacity="1" style="mix-blend-mode:passthrough"/></g></g></g></g></svg>