<svg xmlns="http://www.w3.org/2000/svg" xmlns:xlink="http://www.w3.org/1999/xlink" fill="none" version="1.1" width="64" height="64" viewBox="0 0 64 64"><defs><filter id="master_svg0_1832_61404" filterUnits="objectBoundingBox" color-interpolation-filters="sRGB" x="-0.625" y="-0.625" width="2.25" height="2.25"><feFlood flood-opacity="0" result="BackgroundImageFix"/><feColorMatrix in="SourceAlpha" type="matrix" values="0 0 0 0 0 0 0 0 0 0 0 0 0 0 0 0 0 0 127 0"/><feOffset dy="0" dx="0"/><feGaussianBlur stdDeviation="5"/><feColorMatrix type="matrix" values="0 0 0 0 0.125490203499794 0 0 0 0 0.125490203499794 0 0 0 0 0.4117647111415863 0 0 0 0.4000000059604645 0"/><feBlend mode="normal" in2="BackgroundImageFix" result="effect1_dropShadow"/><feBlend mode="normal" in="SourceGraphic" in2="effect1_dropShadow" result="shape"/></filter><clipPath id="master_svg1_1832_61405"><rect x="22" y="22" width="20" height="20" rx="0"/></clipPath></defs><g><g filter="url(#master_svg0_1832_61404)"><rect x="16" y="16" width="32" height="32" rx="6" fill="#31313A" fill-opacity="1"/><rect x="15.5" y="15.5" width="33" height="33" rx="6.5" fill-opacity="0" fill="none" stroke-width="1"/></g><g clip-path="url(#master_svg1_1832_61405)"><g><g><g><path d="M30,30.375L33.75,30.375Q33.79925,30.375,33.84754,30.384607Q33.89584,30.394215,33.94134,30.41306Q33.98684,30.431906,34.02778,30.459265Q34.06873,30.486625,34.10355,30.521447Q34.13837,30.556269,34.165729999999996,30.597215Q34.19309,30.638161,34.21194,30.683658Q34.23078,30.729155,34.24039,30.7774549Q34.25,30.8257543,34.25,30.875Q34.25,30.9242457,34.24039,30.9725451Q34.23078,31.020845,34.21194,31.066342Q34.19309,31.111839,34.165729999999996,31.152785Q34.13837,31.193731,34.10355,31.228553Q34.06873,31.263375,34.02778,31.290735Q33.98684,31.318094,33.94134,31.33694Q33.89584,31.355785,33.84754,31.365393Q33.79925,31.375,33.75,31.375L30,31.375Q29.9507543,31.375,29.9024549,31.365393Q29.854155,31.355785,29.808658,31.33694Q29.763161,31.318094,29.722215,31.290735Q29.681269,31.263375,29.646447,31.228553Q29.611625,31.193731,29.584265,31.152785Q29.556906,31.111839,29.53806,31.066342Q29.519215,31.020845,29.509607,30.9725451Q29.5,30.9242457,29.5,30.875Q29.5,30.8257543,29.509607,30.7774549Q29.519215,30.729155,29.53806,30.683658Q29.556906,30.638161,29.584265,30.597215Q29.611625,30.556269,29.646447,30.521447Q29.681269,30.486625,29.722215,30.459265Q29.763161,30.431906,29.808658,30.41306Q29.854155,30.394215,29.9024549,30.384607Q29.9507543,30.375,30,30.375Z" fill-rule="evenodd" fill="#FFFFFF" fill-opacity="1"/></g><g><path d="M30,32.875L33.75,32.875Q33.79925,32.875,33.84754,32.884607Q33.89584,32.894215,33.94134,32.91306Q33.98684,32.931906,34.02778,32.959265Q34.06873,32.986625,34.10355,33.021447Q34.13837,33.056269,34.165729999999996,33.097215Q34.19309,33.138161,34.21194,33.183658Q34.23078,33.229155,34.24039,33.2774549Q34.25,33.3257543,34.25,33.375Q34.25,33.4242457,34.24039,33.4725451Q34.23078,33.520845,34.21194,33.566342Q34.19309,33.611839,34.165729999999996,33.652785Q34.13837,33.693731,34.10355,33.728553Q34.06873,33.763375,34.02778,33.790735Q33.98684,33.818094,33.94134,33.83694Q33.89584,33.855785,33.84754,33.865393Q33.79925,33.875,33.75,33.875L30,33.875Q29.9507543,33.875,29.9024549,33.865393Q29.854155,33.855785,29.808658,33.83694Q29.763161,33.818094,29.722215,33.790735Q29.681269,33.763375,29.646447,33.728553Q29.611625,33.693731,29.584265,33.652785Q29.556906,33.611839,29.53806,33.566342Q29.519215,33.520845,29.509607,33.4725451Q29.5,33.4242457,29.5,33.375Q29.5,33.3257543,29.509607,33.2774549Q29.519215,33.229155,29.53806,33.183658Q29.556906,33.138161,29.584265,33.097215Q29.611625,33.056269,29.646447,33.021447Q29.681269,32.986625,29.722215,32.959265Q29.763161,32.931906,29.808658,32.91306Q29.854155,32.894215,29.9024549,32.884607Q29.9507543,32.875,30,32.875Z" fill-rule="evenodd" fill="#FFFFFF" fill-opacity="1"/></g><g><path d="M30.696658,28.679965L31.875,30.09397L33.05339,28.679908Q33.12464,28.594411,33.22542,28.547205Q33.32621,28.5,33.4375,28.5Q33.48675,28.5,33.53505,28.509607Q33.58334,28.519215,33.62884,28.53806Q33.67434,28.556906,33.71528,28.584265Q33.75623,28.611625,33.79105,28.646447Q33.82587,28.681269,33.853229999999996,28.722215Q33.88059,28.763161,33.89944,28.808658Q33.91828,28.854155,33.92789,28.9024549Q33.9375,28.9507543,33.9375,29Q33.9375,29.181024999999998,33.82161,29.320092L32.375,31.05602L32.375,35.25Q32.375,35.29925,32.36539,35.34755Q32.35578,35.39584,32.33694,35.44134Q32.31809,35.48684,32.290729999999996,35.52778Q32.26338,35.56873,32.22855,35.60355Q32.19373,35.63837,32.15278,35.665729999999996Q32.11184,35.69309,32.06634,35.71194Q32.02084,35.73078,31.97255,35.74039Q31.92425,35.75,31.875,35.75Q31.82575,35.75,31.77745,35.74039Q31.72916,35.73078,31.68366,35.71194Q31.63816,35.69309,31.59721,35.665729999999996Q31.55627,35.63837,31.52145,35.60355Q31.48662,35.56873,31.45926,35.52778Q31.43191,35.48684,31.41306,35.44134Q31.39421,35.39584,31.38461,35.34754Q31.375,35.29925,31.375,35.25L31.375,31.05602L29.928437,29.320149L29.928389,29.320092Q29.8125,29.181024999999998,29.8125,29Q29.8125,28.9507543,29.822107,28.9024549Q29.831715,28.854155,29.85056,28.808658Q29.869406,28.763161,29.896765,28.722215Q29.924125,28.681269,29.958947,28.646447Q29.993769,28.611625,30.034715,28.584265Q30.075661,28.556906,30.121158,28.53806Q30.166655,28.519215,30.2149549,28.509607Q30.2632543,28.5,30.3125,28.5Q30.423792,28.5,30.524577999999998,28.547205Q30.625363,28.594411,30.696611,28.679908L30.696658,28.679965Z" fill-rule="evenodd" fill="#FFFFFF" fill-opacity="1"/></g></g><g><path d="M38.411699999999996,36.034616Q38.512,35.964442,38.5685,35.855905Q38.625,35.747368,38.625,35.625Q38.625,35.5757543,38.6154,35.5274549Q38.6058,35.479155,38.5869,35.433658Q38.5681,35.388161,38.5407,35.347215Q38.513400000000004,35.306269,38.4786,35.271447Q38.4437,35.236625,38.4028,35.209265Q38.3618,35.181906,38.3163,35.16306Q38.2708,35.144215,38.2225,35.134607Q38.1742,35.125,38.125,35.125Q37.96739,35.125,37.83827,35.215384L37.83788,35.215658L31.96484,39.32678L30.69661,37.80491Q30.66659,37.76888,30.63039,37.73907Q30.59419,37.70925,30.55308,37.68668Q30.511969999999998,37.66412,30.46738,37.64959Q30.42279,37.63507,30.37628,37.62908Q30.32976,37.6231,30.28295,37.62587Q30.23614,37.62865,30.19065,37.64007Q30.14517,37.6515,30.10261,37.67119Q30.06004,37.69088,30.02188,37.71813L27.83469,39.28041L27.834381,39.28063Q27.735832,39.35103,27.680416,39.458709999999996Q27.625,39.56639,27.625,39.6875Q27.625,39.73675,27.634607,39.78504Q27.644215,39.83334,27.66306,39.87884Q27.681906,39.92434,27.709265,39.96528Q27.736625,40.00623,27.771447,40.04105Q27.806269,40.07587,27.847215,40.103229999999996Q27.888161,40.13059,27.933658,40.14944Q27.979155,40.16828,28.0274549,40.17789Q28.0757543,40.1875,28.125,40.1875Q28.285232,40.1875,28.415619,40.09437L30.22548,38.80161L31.49089,40.32009Q31.52072,40.35589,31.55665,40.38556Q31.592579999999998,40.41522,31.63338,40.43774Q31.67417,40.46026,31.718420000000002,40.47485Q31.76267,40.48944,31.80886,40.49561Q31.85505,40.50177,31.90158,40.49929Q31.94811,40.49682,31.993380000000002,40.48578Q32.03865,40.47475,32.0811,40.45554Q32.12356,40.43634,32.16173,40.409620000000004L38.411699999999996,36.034616L38.411699999999996,36.034616Z" fill-rule="evenodd" fill="#FFFFFF" fill-opacity="1"/></g><g><path d="M37.135418,34.673394C36.747336,34.713819,36.553038,35.163362,36.789505,35.47372L37.86112,36.88021C38.08191,37.17001,38.52856,37.13395,38.70001,36.81249L39.5573,35.20507C39.74584,34.851555,39.46281,34.4309572,39.06432,34.472467L37.135418,34.673394Z" fill="#FFFFFF" fill-opacity="1"/></g><g><path d="M25.8393,37.3497L25.8403,37.3507Q25.91079,37.4223,26.00349,37.4612Q26.09619,37.5,26.1967,37.5Q26.24594,37.5,26.29424,37.4904Q26.34254,37.4808,26.38804,37.4619Q26.43354,37.4431,26.47448,37.4157Q26.51543,37.388400000000004,26.55025,37.3536Q26.58507,37.3187,26.61243,37.2778Q26.63979,37.2368,26.65864,37.1913Q26.67748,37.1458,26.68709,37.0975Q26.6967,37.0492,26.6967,37Q26.6967,36.9015,26.65936,36.8104Q26.62203,36.719300000000004,26.55294,36.6492Q24.5,34.5647,24.5,31.61523Q24.5,28.665770000000002,26.55294,26.5813Q28.60274,24.5,31.5,24.5Q34.3973,24.5,36.4471,26.5813Q38.5,28.665770000000002,38.5,31.61522Q38.5,31.66447,38.5096,31.71277Q38.5192,31.76107,38.5381,31.80656Q38.5569,31.85206,38.5843,31.89301Q38.611599999999996,31.93395,38.6464,31.96878Q38.6813,32.0036,38.7222,32.03096Q38.7632,32.05832,38.8087,32.07716Q38.8542,32.09601,38.9025,32.10561Q38.9508,32.11522,39,32.11522Q39.0492,32.11522,39.0975,32.10561Q39.1458,32.09601,39.1913,32.07716Q39.2368,32.05832,39.2778,32.03096Q39.3187,32.0036,39.3536,31.96878Q39.388400000000004,31.93395,39.4157,31.89301Q39.4431,31.85206,39.4619,31.80656Q39.4808,31.76107,39.4904,31.71277Q39.5,31.66447,39.5,31.61522L39.5,31.61422Q39.499700000000004,28.25566,37.1595,25.8796Q34.8159,23.5,31.5,23.5Q28.18406,23.5,25.84046,25.8796Q23.5,28.25602,23.5,31.61523Q23.5,34.9736,25.8393,37.3497Z" fill-rule="evenodd" fill="#FFFFFF" fill-opacity="1"/></g></g></g></g></svg>