<svg xmlns="http://www.w3.org/2000/svg" xmlns:xlink="http://www.w3.org/1999/xlink" fill="none" version="1.1" width="64" height="64" viewBox="0 0 64 64"><defs><filter id="master_svg0_1837_37814" filterUnits="objectBoundingBox" color-interpolation-filters="sRGB" x="-0.625" y="-0.625" width="2.25" height="2.25"><feFlood flood-opacity="0" result="BackgroundImageFix"/><feColorMatrix in="SourceAlpha" type="matrix" values="0 0 0 0 0 0 0 0 0 0 0 0 0 0 0 0 0 0 127 0"/><feOffset dy="0" dx="0"/><feGaussianBlur stdDeviation="5"/><feColorMatrix type="matrix" values="0 0 0 0 0.125490203499794 0 0 0 0 0.125490203499794 0 0 0 0 0.4117647111415863 0 0 0 0.4000000059604645 0"/><feBlend mode="normal" in2="BackgroundImageFix" result="effect1_dropShadow"/><feBlend mode="normal" in="SourceGraphic" in2="effect1_dropShadow" result="shape"/></filter><clipPath id="master_svg1_1837_37815"><rect x="22" y="22" width="20" height="20" rx="0"/></clipPath></defs><g><g filter="url(#master_svg0_1837_37814)"><rect x="16" y="16" width="32" height="32" rx="6" fill="#31313A" fill-opacity="1"/><rect x="15.5" y="15.5" width="33" height="33" rx="6.5" fill-opacity="0" fill="none" stroke-width="1"/></g><g clip-path="url(#master_svg1_1837_37815)"><g><g><path d="M29.32074,25.5321805Q29.38923,25.5037815,29.44653,25.4567285Q29.50383,25.4096755,29.54501,25.3480195Q29.586190000000002,25.2863635,29.60771,25.2154095Q29.62923,25.1444565,29.62922,25.0703125Q29.62922,25.0210668,29.61962,24.9727674Q29.61001,24.9244675,29.591160000000002,24.8789705Q29.57232,24.8334735,29.54496,24.7925275Q29.5176,24.7515815,29.482779999999998,24.7167595Q29.447960000000002,24.6819375,29.40701,24.6545775Q29.36606,24.6272185,29.32057,24.6083725Q29.27507,24.5895275,29.226770000000002,24.5799195Q29.17847,24.5703125,29.12922,24.5703125Q29.02967,24.5703125,28.93771,24.6084445Q27.47089,25.2166655,26.34314,26.3444025Q24,28.6875825,23.999999,32.0012625Q24,35.3150125,26.34314,37.6581125Q28.68629,40.0012125,32,40.0012125Q35.3137,40.0012125,37.656800000000004,37.6581125Q38.7846,36.5304125,39.3928,35.0635425Q39.4309,34.9715825,39.4309,34.8720325Q39.4309,34.8227825,39.4213,34.7744825Q39.411699999999996,34.726192499999996,39.3929,34.6806925Q39.374,34.6351925,39.3467,34.5942425Q39.3193,34.5533025,39.2845,34.5184825Q39.249700000000004,34.4836525,39.2087,34.4563025Q39.1678,34.4289425,39.122299999999996,34.4100925Q39.0768,34.391242500000004,39.0285,34.3816425Q38.980199999999996,34.3720325,38.9309,34.3720325Q38.8568,34.3720325,38.7858,34.3935525Q38.7149,34.4150625,38.6532,34.4562525Q38.5916,34.4974325,38.5445,34.5547325Q38.4975,34.6120325,38.4691,34.6805225Q37.937,35.9638125,36.9497,36.9510125Q34.8995,39.0012125,32,39.0012125Q29.1005,39.0012125,27.05025,36.9510125Q24.999999,34.900752499999996,24.999999,32.0012625Q25,29.101792500000002,27.05025,27.0515125Q28.03738,26.0643895,29.32047,25.5322905L29.32074,25.5321805L29.32074,25.5321805Z" fill-rule="evenodd" fill="#FFFFFF" fill-opacity="1" style="mix-blend-mode:passthrough"/></g><g><path d="M31.646447,24.146447Q31.57612,24.216773,31.53806,24.308658Q31.5,24.4005438,31.5,24.5L31.5,32Q31.5,32.04925,31.509607,32.09754Q31.519215,32.14584,31.53806,32.19134Q31.556906,32.23684,31.584265,32.27778Q31.611625,32.31873,31.646447,32.35355Q31.681269,32.38837,31.722215,32.415729999999996Q31.763161,32.44309,31.808658,32.46194Q31.854155,32.48078,31.9024549,32.49039Q31.9507543,32.5,32,32.5L39.5,32.5Q39.54925,32.5,39.59755,32.49039Q39.64584,32.48078,39.69134,32.46194Q39.73684,32.44309,39.77778,32.415729999999996Q39.81873,32.38837,39.85355,32.35355Q39.88837,32.31873,39.915729999999996,32.27778Q39.94309,32.23684,39.96194,32.19134Q39.98078,32.14584,39.99039,32.09754Q40,32.04925,40,32Q40,28.68629,37.65685,26.34315Q35.31371,24,32,24Q31.9005438,24,31.808658,24.03806Q31.716773,24.076121,31.646447,24.146447ZM32.5,25.01564L32.5,31.5L38.98436,31.5Q38.82093,28.92144,36.94975,27.05025Q35.07856,25.179067,32.5,25.01564Z" fill-rule="evenodd" fill="#FFFFFF" fill-opacity="1" style="mix-blend-mode:passthrough"/></g></g></g></g></svg>