<svg xmlns="http://www.w3.org/2000/svg" xmlns:xlink="http://www.w3.org/1999/xlink" fill="none" version="1.1" width="64" height="64" viewBox="0 0 64 64"><defs><filter id="master_svg0_1832_62029" filterUnits="objectBoundingBox" color-interpolation-filters="sRGB" x="-0.625" y="-0.625" width="2.25" height="2.25"><feFlood flood-opacity="0" result="BackgroundImageFix"/><feColorMatrix in="SourceAlpha" type="matrix" values="0 0 0 0 0 0 0 0 0 0 0 0 0 0 0 0 0 0 127 0"/><feOffset dy="0" dx="0"/><feGaussianBlur stdDeviation="5"/><feColorMatrix type="matrix" values="0 0 0 0 0.125490203499794 0 0 0 0 0.125490203499794 0 0 0 0 0.4117647111415863 0 0 0 0.4000000059604645 0"/><feBlend mode="normal" in2="BackgroundImageFix" result="effect1_dropShadow"/><feBlend mode="normal" in="SourceGraphic" in2="effect1_dropShadow" result="shape"/></filter><clipPath id="master_svg1_1832_62030"><rect x="22" y="22" width="20" height="20" rx="0"/></clipPath></defs><g><g filter="url(#master_svg0_1832_62029)"><rect x="16" y="16" width="32" height="32" rx="6" fill="#31313A" fill-opacity="1"/><rect x="15.5" y="15.5" width="33" height="33" rx="6.5" fill-opacity="0" fill="none" stroke-width="1"/></g><g clip-path="url(#master_svg1_1832_62030)"><g><g><path d="M24.3828125,29.092363481407165L24.3828125,29.885273481407165Q24.3828125,29.934513481407166,24.3924195,29.982813481407167Q24.4020275,30.031113481407164,24.4208725,30.076613481407165Q24.4397185,30.122103481407166,24.4670775,30.163053481407164Q24.4944375,30.204003481407167,24.5292595,30.238823481407167Q24.5640815,30.273643481407166,24.6050275,30.301003481407164Q24.6459735,30.328363481407166,24.6914705,30.347213481407167Q24.7369675,30.366053481407164,24.7852674,30.375663481407166Q24.8335668,30.385273481407165,24.8828125,30.385273481407165Q24.9320582,30.385273481407165,24.9803576,30.375663481407166Q25.0286575,30.366053481407164,25.0741545,30.347213481407167Q25.1196515,30.328363481407166,25.1605975,30.301003481407164Q25.2015435,30.273643481407166,25.2363655,30.238823481407167Q25.2711875,30.204003481407167,25.2985475,30.163053481407164Q25.3259065,30.122103481407166,25.3447525,30.076613481407165Q25.3635975,30.031113481407164,25.3732055,29.982813481407167Q25.3828125,29.934513481407166,25.3828125,29.885273481407165L25.3828125,29.092363481407165Q25.3828125,28.119303481407165,26.1823925,27.649753481407167L31.1933425,24.700030481407165Q31.9411625,24.259030481407166,32.6886425,24.699830481407165L37.7004125,27.649503481407166Q38.4950125,28.113313481407165,38.4995125,29.091433481407165L38.4995125,29.092813481407166L38.4995125,29.093333481407164Q38.4997125,29.142463481407166,38.509412499999996,29.190613481407166Q38.5192125,29.238763481407165,38.5381125,29.284093481407165Q38.5570125,29.329423481407165,38.5844125,29.370203481407167Q38.6118125,29.410983481407165,38.6466125,29.445653481407167Q38.6814125,29.480323481407165,38.7223125,29.507563481407168Q38.7632125,29.534793481407164,38.8086125,29.553553481407164Q38.854012499999996,29.572303481407165,38.9022125,29.581873481407165Q38.9504125,29.591433481407165,38.9995125,29.591433481407165Q39.0487125,29.591433481407165,39.0970125,29.581823481407167Q39.1453125,29.572213481407164,39.1908125,29.553373481407164Q39.2363125,29.534523481407167,39.2773125,29.507163481407165Q39.3182125,29.479803481407167,39.3531125,29.444983481407164Q39.3879125,29.410163481407167,39.4152125,29.369213481407165Q39.442612499999996,29.328273481407166,39.4614125,29.282773481407165Q39.4803125,29.237273481407165,39.4899125,29.188973481407167Q39.4995125,29.140673481407166,39.4995125,29.091433481407165L39.4995125,29.089523481407166Q39.4936125,27.538293481407166,38.207612499999996,26.787693481407167L33.1966125,23.838453481407164Q31.9411625,23.098098481407167,30.6860525,23.838254481407166L25.6760045,26.787443481407166Q24.3828125,27.546873481407165,24.3828125,29.092363481407165ZM38.4995125,34.15188348140717Q38.4995125,34.10268348140717,38.5091125,34.054383481407164Q38.5187125,34.00608348140717,38.5376125,33.960593481407166Q38.5564125,33.91509348140717,38.5838125,33.87414348140717Q38.611112500000004,33.83320348140717,38.6459125,33.79837348140717Q38.6808125,33.763553481407165,38.7217125,33.73619348140716Q38.7627125,33.70883348140717,38.808212499999996,33.689993481407164Q38.8537125,33.671143481407164,38.9020125,33.661543481407165Q38.9503125,33.65193348140717,38.9995125,33.65193348140717Q39.0487125,33.65193348140717,39.0970125,33.661543481407165Q39.1453125,33.671143481407164,39.1908125,33.689993481407164Q39.2363125,33.70883348140717,39.2773125,33.73619348140716Q39.3182125,33.763553481407165,39.3531125,33.79837348140717Q39.3879125,33.83320348140717,39.4152125,33.87414348140717Q39.442612499999996,33.91509348140717,39.4614125,33.960593481407166Q39.4803125,34.00608348140717,39.4899125,34.054383481407164Q39.4995125,34.10268348140717,39.4995125,34.15188348140717L39.4995125,34.89998348140716Q39.4995125,36.443983481407166,38.207412500000004,37.203783481407164L33.1980725,40.15408348140717Q31.9411525,40.885083481407165,30.6866025,40.15538348140717L25.6754905,37.20458348140717Q24.3886375,36.45438348140716,24.3828175,34.90228348140717L24.3828155,34.901783481407165L24.3828125,34.89998348140716Q24.3828125,34.85078348140716,24.3924195,34.802483481407165Q24.4020275,34.75418348140717,24.4208725,34.708683481407164Q24.4397185,34.66318348140717,24.4670775,34.62218348140716Q24.4944375,34.58128348140717,24.5292595,34.546483481407165Q24.5640815,34.511583481407165,24.6050275,34.48428348140717Q24.6459735,34.45688348140717,24.6914705,34.43808348140716Q24.7369675,34.41918348140717,24.7852674,34.40958348140717Q24.8335668,34.39998348140716,24.8828125,34.39998348140716Q24.9319439,34.39998348140716,24.9801356,34.40958348140717Q25.0283275,34.419083481407164,25.0737355,34.43788348140717Q25.1191445,34.45668348140717,25.1600325,34.48388348140716Q25.2009205,34.51108348140717,25.2357245,34.54578348140716Q25.2705285,34.580483481407164,25.2979175,34.62128348140716Q25.3253055,34.662083481407166,25.3442305,34.70738348140716Q25.3631555,34.752783481407164,25.3728935,34.80088348140717Q25.3826315,34.84908348140716,25.3828095,34.898183481407166L25.3828165,34.89998348140716Q25.3870965,35.87898348140716,26.1829025,36.34288348140716L31.1893825,39.29098348140717Q31.9411625,39.72828348140717,32.6906025,39.292383481407164L37.7005125,36.34178348140716Q38.4995125,35.87198348140716,38.4995125,34.89998348140716L38.4995125,34.15188348140717Z" fill-rule="evenodd" fill="#FFFFFF" fill-opacity="1"/></g><g><path d="M26.125,33.874889731407166Q26.125,33.930159731407166,26.11958,33.985159731407165Q26.11417,34.040159731407165,26.10338,34.09436973140716Q26.0926,34.148569731407164,26.07656,34.20145973140716Q26.06051,34.25434973140717,26.03936,34.30540973140717Q26.01821,34.35646973140717,25.99216,34.40520973140717Q25.96611,34.453949731407164,25.9354,34.499909731407165Q25.9047,34.54585973140716,25.86964,34.588579731407165Q25.83458,34.63129973140717,25.79549,34.670379731407166Q25.75641,34.70946973140717,25.71369,34.74452973140716Q25.67097,34.779589731407164,25.62502,34.81028973140717Q25.57906,34.840999731407166,25.53032,34.867049731407164Q25.48158,34.89309973140716,25.43052,34.91424973140717Q25.37946,34.935399731407166,25.32657,34.951449731407166Q25.27368,34.96748973140716,25.21948,34.97826973140717Q25.16527,34.98905973140717,25.11027,34.994469731407165Q25.05527,34.999889731407166,25,34.999889731407166Q24.94473,34.999889731407166,24.88973,34.994469731407165Q24.834729,34.98905973140717,24.780523,34.97826973140717Q24.726318,34.96748973140716,24.67343,34.951449731407166Q24.620542,34.935399731407166,24.569481,34.91424973140717Q24.51842,34.89309973140716,24.469679,34.867049731407164Q24.420937,34.840999731407166,24.374983,34.81028973140717Q24.32903,34.779589731407164,24.286308,34.74452973140716Q24.243585,34.70946973140717,24.204505,34.670379731407166Q24.165425,34.63129973140717,24.130363,34.588579731407165Q24.095302,34.54585973140716,24.064597,34.499909731407165Q24.033892,34.453949731407164,24.007839,34.40520973140717Q23.981786,34.35646973140717,23.9606355,34.30540973140717Q23.9394855,34.25434973140717,23.9234421,34.20145973140716Q23.9073988,34.148569731407164,23.8966166,34.09436973140716Q23.8858344,34.040159731407165,23.88041718,33.985159731407165Q23.875,33.930159731407166,23.875,33.874889731407166Q23.875,33.819619731407165,23.88041718,33.764619731407166Q23.8858344,33.70961873140717,23.8966166,33.65541273140717Q23.9073988,33.601207731407165,23.9234421,33.54831973140717Q23.9394855,33.495431731407166,23.9606355,33.44437073140717Q23.981786,33.393309731407165,24.007839,33.344568731407165Q24.033892,33.29582673140717,24.064597,33.249872731407166Q24.095302,33.20391973140717,24.130363,33.161197731407164Q24.165425,33.11847473140717,24.204505,33.07939473140716Q24.243585,33.040314731407165,24.286308,33.00525273140717Q24.32903,32.97019173140716,24.374983,32.939486731407165Q24.420937,32.90878173140717,24.469679,32.88272873140716Q24.51842,32.856675731407165,24.569481,32.83552523140717Q24.620542,32.81437523140717,24.67343,32.79833183140717Q24.726318,32.78228853140717,24.780523,32.77150633140717Q24.834729,32.760724131407166,24.88973,32.75530691140717Q24.94473,32.749889731407166,25,32.749889731407166Q25.05527,32.749889731407166,25.11027,32.75530691140717Q25.16527,32.760724131407166,25.21948,32.77150633140717Q25.27368,32.78228853140717,25.32657,32.79833183140717Q25.37946,32.81437523140717,25.43052,32.83552523140717Q25.48158,32.856675731407165,25.53032,32.88272873140716Q25.57906,32.90878173140717,25.62502,32.939486731407165Q25.67097,32.97019173140716,25.71369,33.00525273140717Q25.75641,33.040314731407165,25.79549,33.07939473140716Q25.83458,33.11847473140717,25.86964,33.161197731407164Q25.9047,33.20391973140717,25.9354,33.249872731407166Q25.96611,33.29582673140717,25.99216,33.344568731407165Q26.01821,33.393309731407165,26.03936,33.44437073140717Q26.06051,33.495431731407166,26.07656,33.54831973140717Q26.0926,33.601207731407165,26.10338,33.65541273140717Q26.11417,33.70961873140717,26.11958,33.764619731407166Q26.125,33.819619731407165,26.125,33.874889731407166Z" fill="#FFFFFF" fill-opacity="1"/></g><g><path d="M40.125,30.124889731407166Q40.125,30.180159731407166,40.11958,30.235159731407165Q40.11417,30.290159731407165,40.10338,30.344369731407166Q40.0926,30.398569731407164,40.07656,30.451459731407166Q40.06051,30.504349731407167,40.03936,30.555409731407167Q40.018209999999996,30.606469731407167,39.99216,30.655209731407165Q39.96611,30.703949731407164,39.9354,30.749909731407165Q39.9047,30.795859731407166,39.86964,30.838579731407165Q39.83458,30.881299731407164,39.79549,30.920379731407166Q39.75641,30.959469731407165,39.71369,30.994529731407166Q39.67097,31.029589731407164,39.62502,31.060289731407167Q39.57906,31.090999731407166,39.53032,31.117049731407164Q39.48158,31.143099731407165,39.43052,31.164249731407164Q39.37946,31.185399731407166,39.32657,31.201449731407166Q39.27368,31.217489731407166,39.21948,31.228269731407167Q39.16527,31.239059731407167,39.11027,31.244469731407165Q39.05527,31.249889731407166,39,31.249889731407166Q38.94473,31.249889731407166,38.88973,31.244469731407165Q38.834729,31.239059731407167,38.780523,31.228269731407167Q38.726318,31.217489731407166,38.67343,31.201449731407166Q38.620542,31.185399731407166,38.569481,31.164249731407164Q38.51842,31.143099731407165,38.469679,31.117049731407164Q38.420937,31.090999731407166,38.374983,31.060289731407167Q38.32903,31.029589731407164,38.286308,30.994529731407166Q38.243585,30.959469731407165,38.204505,30.920379731407166Q38.165425,30.881299731407164,38.130363,30.838579731407165Q38.095302,30.795859731407166,38.064597,30.749909731407165Q38.033892,30.703949731407164,38.007839,30.655209731407165Q37.981786,30.606469731407167,37.9606355,30.555409731407167Q37.9394855,30.504349731407167,37.9234421,30.451459731407166Q37.9073988,30.398569731407164,37.8966166,30.344369731407166Q37.8858344,30.290159731407165,37.88041718,30.235159731407165Q37.875,30.180159731407166,37.875,30.124889731407166Q37.875,30.069619731407165,37.88041718,30.014619731407166Q37.8858344,29.959618731407165,37.8966166,29.905412731407164Q37.9073988,29.851207731407165,37.9234421,29.798319731407165Q37.9394855,29.745431731407166,37.9606355,29.694370731407165Q37.981786,29.643309731407165,38.007839,29.594568731407165Q38.033892,29.545826731407164,38.064597,29.499872731407166Q38.095302,29.453919731407165,38.130363,29.411197731407164Q38.165425,29.368474731407165,38.204505,29.329394731407167Q38.243585,29.290314731407165,38.286308,29.255252731407165Q38.32903,29.220191731407166,38.374983,29.189486731407165Q38.420937,29.158781731407167,38.469679,29.132728731407166Q38.51842,29.106675731407165,38.569481,29.085525231407164Q38.620542,29.064375231407166,38.67343,29.048331831407165Q38.726318,29.032288531407165,38.780523,29.021506331407167Q38.834729,29.010724131407166,38.88973,29.005306911407164Q38.94473,28.999889731407166,39,28.999889731407166Q39.05527,28.999889731407166,39.11027,29.005306911407164Q39.16527,29.010724131407166,39.21948,29.021506331407167Q39.27368,29.032288531407165,39.32657,29.048331831407165Q39.37946,29.064375231407166,39.43052,29.085525231407164Q39.48158,29.106675731407165,39.53032,29.132728731407166Q39.57906,29.158781731407167,39.62502,29.189486731407165Q39.67097,29.220191731407166,39.71369,29.255252731407165Q39.75641,29.290314731407165,39.79549,29.329394731407167Q39.83458,29.368474731407165,39.86964,29.411197731407164Q39.9047,29.453919731407165,39.9354,29.499872731407166Q39.96611,29.545826731407164,39.99216,29.594568731407165Q40.018209999999996,29.643309731407165,40.03936,29.694370731407165Q40.06051,29.745431731407166,40.07656,29.798319731407165Q40.0926,29.851207731407165,40.10338,29.905412731407164Q40.11417,29.959618731407165,40.11958,30.014619731407166Q40.125,30.069619731407165,40.125,30.124889731407166Z" fill="#FFFFFF" fill-opacity="1"/></g></g><g><g><path d="M32,29.172069L34.72222,30.57221L34.72222,33.4005L32,34.80065L29.277779,33.4005L29.277779,30.60022L32,29.200072M32,28.5C31.8634,28.500218256,31.72927,28.5328147,31.61111,28.5945097L28.88889,29.99465C28.648491,30.11958,28.50028497,30.35036,28.5,30.60022L28.5,33.4005C28.500284553,33.65036,28.64849,33.88114,28.888889,34.00607L31.61111,35.40621C31.85176,35.53126,32.14824,35.53126,32.38889,35.40621L35.11111,34.00607C35.35151,33.88114,35.499719999999996,33.65036,35.5,33.4005L35.5,30.60022C35.499719999999996,30.35036,35.35151,30.11958,35.11111,29.99465L32.38889,28.5945098C32.27073,28.5328147,32.1366,28.500218256,32,28.5Z" fill="#FFFFFF" fill-opacity="1"/></g><g><path d="M31.998264,31.6484375Q32.387153,31.6484375,32.387153,31.9984735L32.387153,34.7987575Q32.387153,35.1487975,31.998264,35.1487975Q31.609375,35.1487975,31.609375,34.7987575L31.609375,31.9984735Q31.609375,31.6484375,31.998264,31.6484375Z" fill="#FFFFFF" fill-opacity="1"/></g><g><path d="M29.16101545,30.43046425Q29.35545975,30.12732425,29.69224775,30.30234215L32.03629375,31.52047125Q32.37307375,31.69548125,32.17863375,31.99862125Q31.98418375,32.30176125,31.64740375,32.12675125L29.30335875,30.90862225Q28.96657075,30.73360425,29.16101545,30.43046425Z" fill="#FFFFFF" fill-opacity="1"/></g><g><path d="M31.963515,31.52272125L34.43217,30.23984215Q34.76896,30.06482425,34.9634,30.36796425Q35.15784,30.67110425,34.82106,30.84612225L32.352404,32.12900125Q32.015616,32.30402125,31.8211715,32.00088125Q31.626727,31.69774125,31.963515,31.52272125Z" fill="#FFFFFF" fill-opacity="1"/></g></g></g></g></svg>