<svg xmlns="http://www.w3.org/2000/svg" xmlns:xlink="http://www.w3.org/1999/xlink" fill="none" version="1.1" width="64" height="64" viewBox="0 0 64 64"><defs><filter id="master_svg0_1832_61855" filterUnits="objectBoundingBox" color-interpolation-filters="sRGB" x="-0.625" y="-0.625" width="2.25" height="2.25"><feFlood flood-opacity="0" result="BackgroundImageFix"/><feColorMatrix in="SourceAlpha" type="matrix" values="0 0 0 0 0 0 0 0 0 0 0 0 0 0 0 0 0 0 127 0"/><feOffset dy="0" dx="0"/><feGaussianBlur stdDeviation="5"/><feColorMatrix type="matrix" values="0 0 0 0 0.125490203499794 0 0 0 0 0.125490203499794 0 0 0 0 0.4117647111415863 0 0 0 0.4000000059604645 0"/><feBlend mode="normal" in2="BackgroundImageFix" result="effect1_dropShadow"/><feBlend mode="normal" in="SourceGraphic" in2="effect1_dropShadow" result="shape"/></filter><clipPath id="master_svg1_1832_61856"><rect x="22" y="22" width="20" height="20" rx="0"/></clipPath></defs><g><g filter="url(#master_svg0_1832_61855)"><rect x="16" y="16" width="32" height="32" rx="6" fill="#31313A" fill-opacity="1"/><rect x="15.5" y="15.5" width="33" height="33" rx="6.5" fill-opacity="0" fill="none" stroke-width="1"/></g><g clip-path="url(#master_svg1_1832_61856)"><g><g><g><path d="M34.0833,27.41667Q34.0833,27.58452,34.066900000000004,27.75156Q34.050399999999996,27.9186,34.0177,28.08322Q33.98494,28.24785,33.93621,28.40847Q33.88749,28.5691,33.82325,28.72417Q33.75902,28.87924,33.6799,29.02727Q33.60077,29.1753,33.50752,29.31486Q33.41427,29.454430000000002,33.30779,29.58418Q33.2013,29.71393,33.08262,29.83261Q32.96393,29.9513,32.83418,30.05779Q32.70443,30.164270000000002,32.56487,30.25752Q32.4253,30.35077,32.27727,30.4299Q32.129239999999996,30.50902,31.97417,30.57326Q31.8191,30.63749,31.65847,30.68621Q31.49785,30.73494,31.33323,30.76768Q31.168599999999998,30.80043,31.001559999999998,30.81688Q30.83452,30.83333,30.66667,30.83333Q30.498820000000002,30.83333,30.331780000000002,30.81688Q30.16473,30.80043,30.00011,30.76768Q29.83548,30.73494,29.67486,30.68621Q29.51424,30.63749,29.35916,30.57325Q29.20409,30.50902,29.056060000000002,30.4299Q28.90803,30.35077,28.76847,30.25752Q28.62891,30.164270000000002,28.49916,30.05779Q28.369410000000002,29.9513,28.25072,29.83261Q28.13203,29.71393,28.02555,29.58418Q27.91906,29.454430000000002,27.82581,29.31486Q27.73256,29.1753,27.65344,29.02727Q27.57431,28.87924,27.51008,28.72417Q27.44584,28.56909,27.39712,28.40847Q27.348399999999998,28.24785,27.31565,28.08322Q27.2829,27.9186,27.26645,27.75156Q27.25,27.58452,27.25,27.41667Q27.25,27.24882,27.26645,27.08177Q27.2829,26.91473,27.31565,26.75011Q27.348399999999998,26.58548,27.39712,26.42486Q27.44584,26.26424,27.51008,26.10916Q27.57431,25.95409,27.65344,25.80606Q27.73256,25.65803,27.82581,25.51847Q27.91906,25.37891,28.02555,25.24916Q28.13203,25.11941,28.25072,25.00072Q28.369410000000002,24.882031,28.49916,24.775548Q28.62891,24.669065,28.76847,24.575812Q28.90803,24.48256,29.056060000000002,24.403436Q29.20409,24.324312,29.35916,24.260078Q29.51424,24.195845,29.67486,24.14712Q29.83548,24.0983962,30.00011,24.0656503Q30.16473,24.0329044,30.331780000000002,24.0164522Q30.498820000000002,24,30.66667,24Q30.83452,24,31.001559999999998,24.0164522Q31.168599999999998,24.0329044,31.33322,24.0656503Q31.49785,24.0983962,31.65847,24.14712Q31.8191,24.195845,31.97417,24.260078Q32.129239999999996,24.324312,32.27727,24.403436Q32.4253,24.48256,32.56487,24.575812Q32.70443,24.669065,32.83418,24.775548Q32.96393,24.882031,33.08261,25.00072Q33.2013,25.11941,33.30779,25.24916Q33.41427,25.37891,33.50752,25.51847Q33.60077,25.65803,33.6799,25.80606Q33.75902,25.95409,33.82325,26.10916Q33.88749,26.26424,33.93621,26.42486Q33.98494,26.58548,34.0177,26.75011Q34.050399999999996,26.91473,34.066900000000004,27.08177Q34.0833,27.24882,34.0833,27.41667ZM33.083330000000004,27.41667Q33.083330000000004,27.53539,33.0717,27.65354Q33.06006,27.77169,33.0369,27.88813Q33.01374,28.00458,32.97927,28.11819Q32.944810000000004,28.2318,32.89937,28.34148Q32.85394,28.45117,32.79798,28.555880000000002Q32.74201,28.66058,32.676050000000004,28.75929Q32.61009,28.85801,32.53478,28.94978Q32.45946,29.04156,32.37551,29.12551Q32.291560000000004,29.20946,32.19979,29.28477Q32.10801,29.36009,32.00929,29.42605Q31.91058,29.49201,31.805880000000002,29.54798Q31.70117,29.60394,31.59148,29.64937Q31.4818,29.69481,31.36819,29.72927Q31.25458,29.76374,31.13813,29.7869Q31.02169,29.81006,30.90354,29.8217Q30.78539,29.83333,30.66667,29.83333Q30.54794,29.83333,30.42979,29.8217Q30.31164,29.81006,30.1952,29.7869Q30.07876,29.76374,29.96515,29.72927Q29.85153,29.69481,29.74185,29.64937Q29.63216,29.60394,29.527459999999998,29.54798Q29.42275,29.49201,29.32404,29.42605Q29.22532,29.36009,29.13355,29.28477Q29.04178,29.20946,28.95783,29.12551Q28.87388,29.04156,28.798560000000002,28.94978Q28.72324,28.85801,28.65728,28.75929Q28.59132,28.66058,28.53536,28.55587Q28.479390000000002,28.45117,28.43396,28.34148Q28.38852,28.2318,28.35406,28.11819Q28.3196,28.00458,28.29643,27.88813Q28.27327,27.77169,28.26164,27.65354Q28.25,27.53539,28.25,27.41667Q28.25,27.29794,28.26164,27.17979Q28.27327,27.06164,28.29643,26.9452Q28.3196,26.82876,28.35406,26.71515Q28.38852,26.60153,28.43396,26.49185Q28.479390000000002,26.38216,28.53536,26.27746Q28.59132,26.17275,28.65728,26.07404Q28.72324,25.97532,28.798560000000002,25.88355Q28.87388,25.79178,28.95783,25.70783Q29.04178,25.62388,29.13355,25.54856Q29.22532,25.47324,29.32404,25.40728Q29.42275,25.34132,29.527459999999998,25.28536Q29.63216,25.22939,29.74185,25.18396Q29.85153,25.13852,29.96515,25.10406Q30.07876,25.0696,30.1952,25.04644Q30.31164,25.02327,30.42979,25.01164Q30.54794,25,30.66667,25Q30.78539,25,30.90354,25.01164Q31.02169,25.02327,31.13813,25.04644Q31.25458,25.0696,31.36819,25.10406Q31.4818,25.13852,31.59148,25.18396Q31.70117,25.22939,31.80587,25.28536Q31.91058,25.34132,32.00929,25.40728Q32.10801,25.47324,32.199780000000004,25.54856Q32.291560000000004,25.62388,32.37551,25.70783Q32.45946,25.79178,32.53477,25.88355Q32.61009,25.97532,32.676050000000004,26.07404Q32.74201,26.17275,32.79798,26.27746Q32.85394,26.38216,32.89937,26.49185Q32.944810000000004,26.60153,32.97927,26.71515Q33.01374,26.82876,33.0369,26.9452Q33.06006,27.06164,33.0717,27.17979Q33.083330000000004,27.29794,33.083330000000004,27.41667ZM32.03125,33.24609C32.03125,32.95919,31.807389999999998,32.72656,31.53125,32.72656L30.08333,32.72656C27.51451,32.72656,26.81175,32.78018,26.09306,33.16062C25.371760000000002,33.54246,24.785324,34.1518,24.417808,34.9012C24.050304,35.6505,24,36.3382,24,38.960300000000004L24,39.4798C24,39.7667,24.223858,39.9993,24.5,39.9993L31.53125,40C31.807389999999998,40,32.03125,39.7674,32.03125,39.4805L32.02734,39.418C31.99846,39.1596,31.78767,38.9609,31.53125,38.9609L25,38.960300000000004L25.00042,38.5957C25.00564,36.4917,25.061700000000002,35.8767,25.30882,35.3728C25.58046,34.8189,26.01391,34.3686,26.54704,34.0863C27.02836,33.831559999999996,27.66397,33.77159,29.7262,33.76598L31.53125,33.76562C31.807389999999998,33.76562,32.03125,33.533,32.03125,33.24609Z" fill-rule="evenodd" fill="#FFFFFF" fill-opacity="1"/></g><g><g><path d="M36.5,33.672069L39.22222,35.07221L39.22222,37.9005L36.5,39.30065L33.777779,37.9005L33.777779,35.10022L36.5,33.700072M36.5,33C36.3634,33.000218256,36.22927,33.0328147,36.11111,33.0945097L33.38889,34.49465C33.148491,34.61958,33.00028497,34.85036,33,35.10022L33,37.9005C33.000284553,38.15036,33.14849,38.38114,33.388889,38.50607L36.11111,39.90621C36.35176,40.03126,36.64824,40.03126,36.88889,39.90621L39.61111,38.50607C39.85151,38.38114,39.999719999999996,38.15036,40,37.9005L40,35.10022C39.999719999999996,34.85036,39.85151,34.61958,39.61111,34.49465L36.88889,33.0945098C36.77073,33.0328147,36.6366,33.000218256,36.5,33Z" fill="#FFFFFF" fill-opacity="1"/></g><g><path d="M36.498264,36.1484375Q36.887153,36.1484375,36.887153,36.4984735L36.887153,39.2987575Q36.887153,39.6487975,36.498264,39.6487975Q36.109375,39.6487975,36.109375,39.2987575L36.109375,36.4984735Q36.109375,36.1484375,36.498264,36.1484375Z" fill="#FFFFFF" fill-opacity="1"/></g><g><path d="M33.66101545,34.93046425Q33.85545975,34.62732425,34.19224775,34.80234215L36.53629375,36.02047125Q36.87307375,36.19548125,36.67863375,36.49862125Q36.48418375,36.80176125,36.14740375,36.62675125L33.80335875,35.40862225Q33.46657075,35.23360425,33.66101545,34.93046425Z" fill="#FFFFFF" fill-opacity="1"/></g><g><path d="M36.463515,36.022721250000004L38.93217,34.73984215Q39.26896,34.56482425,39.4634,34.86796425Q39.65784,35.17110425,39.32106,35.34612225L36.852404,36.62900125Q36.515616,36.80402125,36.3211715,36.50088125Q36.126727,36.19774125,36.463515,36.022721250000004Z" fill="#FFFFFF" fill-opacity="1"/></g></g></g></g></g></g></svg>