<svg xmlns="http://www.w3.org/2000/svg" xmlns:xlink="http://www.w3.org/1999/xlink" fill="none" version="1.1" width="64" height="64" viewBox="0 0 64 64"><defs><filter id="master_svg0_1832_61679" filterUnits="objectBoundingBox" color-interpolation-filters="sRGB" x="-0.625" y="-0.625" width="2.25" height="2.25"><feFlood flood-opacity="0" result="BackgroundImageFix"/><feColorMatrix in="SourceAlpha" type="matrix" values="0 0 0 0 0 0 0 0 0 0 0 0 0 0 0 0 0 0 127 0"/><feOffset dy="0" dx="0"/><feGaussianBlur stdDeviation="5"/><feColorMatrix type="matrix" values="0 0 0 0 0.125490203499794 0 0 0 0 0.125490203499794 0 0 0 0 0.4117647111415863 0 0 0 0.4000000059604645 0"/><feBlend mode="normal" in2="BackgroundImageFix" result="effect1_dropShadow"/><feBlend mode="normal" in="SourceGraphic" in2="effect1_dropShadow" result="shape"/></filter><clipPath id="master_svg1_1832_61680"><rect x="22" y="22" width="20" height="20" rx="0"/></clipPath></defs><g><g filter="url(#master_svg0_1832_61679)"><rect x="16" y="16" width="32" height="32" rx="6" fill="#31313A" fill-opacity="1"/><rect x="15.5" y="15.5" width="33" height="33" rx="6.5" fill-opacity="0" fill="none" stroke-width="1"/></g><g clip-path="url(#master_svg1_1832_61680)"><g><g><g><path d="M34.4609375,33.7109375L39.0014775,33.7109375Q39.0507275,33.7109375,39.0990275,33.7205445Q39.1473275,33.7301525,39.192817500000004,33.7489975Q39.2383175,33.7678435,39.2792675,33.7952025Q39.3202075,33.8225625,39.3550275,33.8573845Q39.3898575,33.8922065,39.4172075,33.9331525Q39.4445675,33.9740985,39.4634175,34.0195955Q39.4822675,34.0650925,39.4918675,34.1133924Q39.5014775,34.1616918,39.5014775,34.2109375Q39.5014775,34.2601832,39.4918675,34.3084826Q39.4822675,34.3567825,39.4634175,34.4022795Q39.4445675,34.4477765,39.4172075,34.4887225Q39.3898575,34.5296685,39.3550275,34.5644905Q39.3202075,34.5993125,39.2792675,34.6266725Q39.2383175,34.6540315,39.192817500000004,34.6728775Q39.1473275,34.6917225,39.0990275,34.7013305Q39.0507275,34.7109375,39.0014775,34.7109375L34.4609375,34.7109375Q34.4116918,34.7109375,34.3633924,34.7013305Q34.3150925,34.6917225,34.2695955,34.6728775Q34.2240985,34.6540315,34.1831525,34.6266725Q34.1422065,34.5993125,34.1073845,34.5644905Q34.0725625,34.5296685,34.0452025,34.4887225Q34.0178435,34.4477765,33.9989975,34.4022795Q33.9801525,34.3567825,33.9705445,34.3084826Q33.9609375,34.2601832,33.9609375,34.2109375Q33.9609375,34.1616918,33.9705445,34.1133924Q33.9801525,34.0650925,33.9989975,34.0195955Q34.0178435,33.9740985,34.0452025,33.9331525Q34.0725625,33.8922065,34.1073845,33.8573845Q34.1422065,33.8225625,34.1831525,33.7952025Q34.2240985,33.7678435,34.2695955,33.7489975Q34.3150925,33.7301525,34.3633924,33.7205445Q34.4116918,33.7109375,34.4609375,33.7109375Z" fill-rule="evenodd" fill="#FFFFFF" fill-opacity="1"/></g><g><path d="M34.4609375,36.2890625L39.0014775,36.2890625Q39.0507275,36.2890625,39.0990275,36.2986695Q39.1473275,36.3082775,39.192817500000004,36.3271225Q39.2383175,36.3459685,39.2792675,36.3733275Q39.3202075,36.4006875,39.3550275,36.4355095Q39.3898575,36.4703315,39.4172075,36.5112775Q39.4445675,36.5522235,39.4634175,36.5977205Q39.4822675,36.6432175,39.4918675,36.6915174Q39.5014775,36.7398168,39.5014775,36.7890625Q39.5014775,36.8383082,39.4918675,36.8866076Q39.4822675,36.9349075,39.4634175,36.9804045Q39.4445675,37.0259015,39.4172075,37.0668475Q39.3898575,37.1077935,39.3550275,37.1426155Q39.3202075,37.1774375,39.2792675,37.2047975Q39.2383175,37.2321565,39.192817500000004,37.2510025Q39.1473275,37.2698475,39.0990275,37.2794555Q39.0507275,37.2890625,39.0014775,37.2890625L34.4609375,37.2890625Q34.4116918,37.2890625,34.3633924,37.2794555Q34.3150925,37.2698475,34.2695955,37.2510025Q34.2240985,37.2321565,34.1831525,37.2047975Q34.1422065,37.1774375,34.1073845,37.1426155Q34.0725625,37.1077935,34.0452025,37.0668475Q34.0178435,37.0259015,33.9989975,36.9804045Q33.9801525,36.9349075,33.9705445,36.8866076Q33.9609375,36.8383082,33.9609375,36.7890625Q33.9609375,36.7398168,33.9705445,36.6915174Q33.9801525,36.6432175,33.9989975,36.5977205Q34.0178435,36.5522235,34.0452025,36.5112775Q34.0725625,36.4703315,34.1073845,36.4355095Q34.1422065,36.4006875,34.1831525,36.3733275Q34.2240985,36.3459685,34.2695955,36.3271225Q34.3150925,36.3082775,34.3633924,36.2986695Q34.4116918,36.2890625,34.4609375,36.2890625Z" fill-rule="evenodd" fill="#FFFFFF" fill-opacity="1"/></g><g><path d="M35.56365175,32.0089515L36.72835375,33.1430065L37.89293375,32.0090785L37.89306375,32.0089515Q37.96308375,31.9407775,38.05361375,31.9039825Q38.14414375,31.8671875,38.241873749999996,31.8671875Q38.29111375,31.8671875,38.33941375,31.8767945Q38.38771375,31.8864025,38.43321375,31.9052475Q38.47871375,31.9240935,38.51965375,31.9514525Q38.56060375,31.9788125,38.59542375,32.0136345Q38.63024375,32.0484565,38.65760375,32.0894025Q38.68496375,32.1303485,38.70381375,32.1758455Q38.72265375,32.2213425,38.73226375,32.2696424Q38.741873749999996,32.3179418,38.741873749999996,32.3671875Q38.741873749999996,32.4683775,38.70252375,32.5616045Q38.66318375,32.6548315,38.59068375,32.7254235L38.59055375,32.7255495L37.22835375,34.0518975L37.22835375,38.9987675Q37.22835375,39.0480075,37.21875375,39.0963075Q37.20914375,39.1446075,37.19029375,39.190107499999996Q37.17145375,39.2356075,37.14409375,39.2765475Q37.11673375,39.3174975,37.08191375,39.3523175Q37.04708375,39.3871375,37.00614375,39.4144975Q36.96519375,39.4418575,36.91969375,39.4607075Q36.87420375,39.4795475,36.82590375,39.4891575Q36.77760375,39.4987675,36.72835375,39.4987675Q36.67911375,39.4987675,36.63081375,39.4891575Q36.58251375,39.4795475,36.53701375,39.4607075Q36.49151375,39.4418575,36.45057375,39.4144975Q36.40962375,39.3871375,36.37480375,39.3523175Q36.33998375,39.3174975,36.31262375,39.2765475Q36.28526375,39.2356075,36.26641375,39.190107499999996Q36.24757375,39.1446075,36.23796375,39.0963075Q36.22835375,39.0480075,36.22835375,38.9987675L36.22835375,34.0518975L34.86603575,32.7254235Q34.79353575,32.6548315,34.75418975,32.5616045Q34.71484375,32.4683775,34.71484375,32.3671875Q34.71484375,32.3179418,34.72445075,32.2696424Q34.73405875,32.2213425,34.75290375,32.1758455Q34.77174975,32.1303485,34.79910875,32.0894025Q34.82646875,32.0484565,34.86129075,32.0136345Q34.89611275,31.9788125,34.93705875,31.9514525Q34.97800475,31.9240935,35.02350175,31.9052475Q35.06899875,31.8864025,35.11729865,31.8767945Q35.16559805,31.8671875,35.21484375,31.8671875Q35.31256855,31.8671875,35.40310175,31.9039825Q35.49363475,31.9407775,35.56365175,32.0089515Z" fill-rule="evenodd" fill="#FFFFFF" fill-opacity="1"/></g><g><path d="M36.5,26.5L36.5,28.97222Q36.5,29.02147,36.5096,29.06977Q36.5192,29.11807,36.5381,29.16356Q36.5569,29.20906,36.5843,29.25001Q36.611599999999996,29.29095,36.6464,29.32578Q36.6813,29.360599999999998,36.7222,29.38796Q36.7632,29.41532,36.8087,29.43416Q36.8542,29.45301,36.9025,29.462609999999998Q36.9508,29.47222,37,29.47222Q37.0492,29.47222,37.0975,29.462609999999998Q37.1458,29.45301,37.1913,29.43416Q37.2368,29.41532,37.2778,29.38796Q37.3187,29.360599999999998,37.3536,29.32578Q37.388400000000004,29.29095,37.4157,29.25001Q37.4431,29.20906,37.4619,29.16356Q37.4808,29.11807,37.4904,29.06977Q37.5,29.02147,37.5,28.97222L37.5,26.5Q37.5,25.671572,36.9142,25.0857865Q36.3284,24.5,35.5,24.5L26.5,24.5Q25.671573,24.5,25.0857864,25.0857865Q24.5,25.671573,24.5,26.5L24.5,36.5Q24.5,37.3284,25.0857866,37.9142Q25.671572,38.5,26.5,38.5L31.58064,38.5Q31.62989,38.5,31.67819,38.4904Q31.72649,38.4808,31.77199,38.4619Q31.81748,38.4431,31.85843,38.4157Q31.89938,38.388400000000004,31.9342,38.3536Q31.96902,38.3187,31.996380000000002,38.2778Q32.023740000000004,38.2368,32.04258,38.1913Q32.06143,38.1458,32.071039999999996,38.0975Q32.08064,38.0492,32.08064,38Q32.08064,37.9508,32.071039999999996,37.9025Q32.06143,37.8542,32.04258,37.8087Q32.023740000000004,37.7632,31.996380000000002,37.7222Q31.96902,37.6813,31.9342,37.6464Q31.89938,37.611599999999996,31.85843,37.5843Q31.81748,37.5569,31.77199,37.5381Q31.72649,37.5192,31.67819,37.5096Q31.62989,37.5,31.58064,37.5L31.57967,37.5L26.5,37.5Q26.08579,37.5,25.792893,37.2071Q25.5,36.9142,25.5,36.5L25.5,26.5Q25.5,26.08579,25.792893,25.792893Q26.08579,25.5,26.5,25.5L35.5,25.5Q35.9142,25.5,36.2071,25.792893Q36.5,26.08579,36.5,26.5Z" fill-rule="evenodd" fill="#FFFFFF" fill-opacity="1"/></g></g></g><g><path d="M30.14242,28L33,28L31.57273,30.4L33,30.4L29.284849,34L30.42727,31L29,31L30.14242,28Z" fill="#FFFFFF" fill-opacity="1" style="mix-blend-mode:passthrough"/></g></g></g></svg>