<svg xmlns="http://www.w3.org/2000/svg" xmlns:xlink="http://www.w3.org/1999/xlink" fill="none" version="1.1" width="64" height="64" viewBox="0 0 64 64"><defs><filter id="master_svg0_1832_61730" filterUnits="objectBoundingBox" color-interpolation-filters="sRGB" x="-0.625" y="-0.625" width="2.25" height="2.25"><feFlood flood-opacity="0" result="BackgroundImageFix"/><feColorMatrix in="SourceAlpha" type="matrix" values="0 0 0 0 0 0 0 0 0 0 0 0 0 0 0 0 0 0 127 0"/><feOffset dy="0" dx="0"/><feGaussianBlur stdDeviation="5"/><feColorMatrix type="matrix" values="0 0 0 0 0.125490203499794 0 0 0 0 0.125490203499794 0 0 0 0 0.4117647111415863 0 0 0 0.4000000059604645 0"/><feBlend mode="normal" in2="BackgroundImageFix" result="effect1_dropShadow"/><feBlend mode="normal" in="SourceGraphic" in2="effect1_dropShadow" result="shape"/></filter><clipPath id="master_svg1_1832_61731"><rect x="22" y="22" width="20" height="20" rx="0"/></clipPath></defs><g><g filter="url(#master_svg0_1832_61730)"><rect x="16" y="16" width="32" height="32" rx="6" fill="#31313A" fill-opacity="1"/><rect x="15.5" y="15.5" width="33" height="33" rx="6.5" fill-opacity="0" fill="none" stroke-width="1"/></g><g clip-path="url(#master_svg1_1832_61731)"><g><g><path d="M25.07143,33.64286143051147L30.42805,33.64286143051147C30.72371,33.64286143051147,30.96347,33.40333143051147,30.96376,33.10767143051147C30.96405,32.81159143051148,30.72412,32.571431430511474,30.42805,32.571431430511474L25.07143,32.571431430511474L25.07143,29.357141430511476L37.9286,29.357141430511476L37.9286,29.892861430511473C37.9286,30.188721430511475,38.1684,30.428571430511475,38.4643,30.428571430511475C38.7602,30.428571430511475,39,30.188721430511475,39,29.892861430511473L39,25.000001430511475C39,24.447716430511473,38.5523,24.000001430511475,38,24.000001430511475L25,24.000001430511475C24.447715,24.000001430511475,24,24.447716430511473,24,25.000001430511475L24,38.000001430511475C24,38.55230143051148,24.447715,39.000001430511475,25,39.000001430511475L30.42805,39.000001430511475C30.72412,39.000001430511475,30.96405,38.75980143051147,30.96376,38.463801430511474C30.96347,38.16810143051148,30.72371,37.92860143051148,30.42805,37.92860143051148L25.07143,37.92860143051148L25.07143,33.64286143051147ZM25.07031,25.070311430511474L37.9275,25.070311430511474L37.9275,28.284601430511476L25.07031,28.284601430511476L25.07031,25.070311430511474Z" fill-rule="evenodd" fill="#FFFFFF" fill-opacity="1"/></g><g><g><path d="M36.5,32.672069L39.22222,34.07221L39.22222,36.9005L36.5,38.30065L33.777779,36.9005L33.777779,34.10022L36.5,32.700072M36.5,32C36.3634,32.000218256,36.22927,32.0328147,36.11111,32.0945097L33.38889,33.49465C33.148491,33.61958,33.00028497,33.85036,33,34.10022L33,36.9005C33.000284553,37.15036,33.14849,37.38114,33.388889,37.50607L36.11111,38.90621C36.35176,39.03126,36.64824,39.03126,36.88889,38.90621L39.61111,37.50607C39.85151,37.38114,39.999719999999996,37.15036,40,36.9005L40,34.10022C39.999719999999996,33.85036,39.85151,33.61958,39.61111,33.49465L36.88889,32.0945098C36.77073,32.0328147,36.6366,32.000218256,36.5,32Z" fill="#FFFFFF" fill-opacity="1"/></g><g><path d="M36.498264,35.1484375Q36.887153,35.1484375,36.887153,35.4984735L36.887153,38.2987575Q36.887153,38.6487975,36.498264,38.6487975Q36.109375,38.6487975,36.109375,38.2987575L36.109375,35.4984735Q36.109375,35.1484375,36.498264,35.1484375Z" fill="#FFFFFF" fill-opacity="1"/></g><g><path d="M33.66101545,33.93046425Q33.85545975,33.62732425,34.19224775,33.80234215L36.53629375,35.02047125Q36.87307375,35.19548125,36.67863375,35.49862125Q36.48418375,35.80176125,36.14740375,35.62675125L33.80335875,34.40862225Q33.46657075,34.23360425,33.66101545,33.93046425Z" fill="#FFFFFF" fill-opacity="1"/></g><g><path d="M36.463515,35.022721250000004L38.93217,33.73984215Q39.26896,33.56482425,39.4634,33.86796425Q39.65784,34.17110425,39.32106,34.34612225L36.852404,35.62900125Q36.515616,35.80402125,36.3211715,35.50088125Q36.126727,35.19774125,36.463515,35.022721250000004Z" fill="#FFFFFF" fill-opacity="1"/></g></g></g></g></g></svg>