<svg xmlns="http://www.w3.org/2000/svg" xmlns:xlink="http://www.w3.org/1999/xlink" fill="none" version="1.1" width="64" height="64" viewBox="0 0 64 64"><defs><filter id="master_svg0_1832_62049" filterUnits="objectBoundingBox" color-interpolation-filters="sRGB" x="-0.625" y="-0.625" width="2.25" height="2.25"><feFlood flood-opacity="0" result="BackgroundImageFix"/><feColorMatrix in="SourceAlpha" type="matrix" values="0 0 0 0 0 0 0 0 0 0 0 0 0 0 0 0 0 0 127 0"/><feOffset dy="0" dx="0"/><feGaussianBlur stdDeviation="5"/><feColorMatrix type="matrix" values="0 0 0 0 0.125490203499794 0 0 0 0 0.125490203499794 0 0 0 0 0.4117647111415863 0 0 0 0.4000000059604645 0"/><feBlend mode="normal" in2="BackgroundImageFix" result="effect1_dropShadow"/><feBlend mode="normal" in="SourceGraphic" in2="effect1_dropShadow" result="shape"/></filter><clipPath id="master_svg1_1832_62050"><rect x="22" y="22" width="20" height="20" rx="0"/></clipPath></defs><g><g filter="url(#master_svg0_1832_62049)"><rect x="16" y="16" width="32" height="32" rx="6" fill="#31313A" fill-opacity="1"/><rect x="15.5" y="15.5" width="33" height="33" rx="6.5" fill-opacity="0" fill="none" stroke-width="1"/></g><g clip-path="url(#master_svg1_1832_62050)"><g><g><path d="M24,25.5L24,35.5Q24,36.1213,24.4393399,36.5607Q24.878678999999998,37,25.5,37L38.5,37Q39.1213,37,39.5607,36.5607Q40,36.1213,40,35.5L40,25.5Q40,24.878678999999998,39.5607,24.4393401Q39.1213,24,38.5,24L25.5,24Q24.87868,24,24.4393398,24.4393399Q24,24.87868,24,25.5ZM25.5,36Q25,36,25,35.5L25,25.5Q25,25,25.5,25L38.5,25Q39,25,39,25.5L39,35.5Q39,36,38.5,36L25.5,36Z" fill-rule="evenodd" fill="#FFFFFF" fill-opacity="1"/></g></g><g><path d="M29,39L35,39Q35.04925,39,35.09755,39.009607Q35.14584,39.019215,35.19134,39.03806Q35.23684,39.056906,35.27778,39.084265Q35.31873,39.111625,35.35355,39.146447Q35.38837,39.181269,35.415729999999996,39.222215Q35.44309,39.263161,35.46194,39.308658Q35.48078,39.354155,35.49039,39.4024549Q35.5,39.4507543,35.5,39.5Q35.5,39.5492457,35.49039,39.5975451Q35.48078,39.645845,35.46194,39.691342Q35.44309,39.736839,35.415729999999996,39.777785Q35.38837,39.818731,35.35355,39.853553Q35.31873,39.888375,35.27778,39.915735Q35.23684,39.943094,35.19134,39.96194Q35.14584,39.980785,35.09755,39.990393Q35.04925,40,35,40L29,40Q28.9507543,40,28.9024549,39.990393Q28.854155,39.980785,28.808658,39.96194Q28.763161,39.943094,28.722215,39.915735Q28.681269,39.888375,28.646447,39.853553Q28.611625,39.818731,28.584265,39.777785Q28.556906,39.736839,28.53806,39.691342Q28.519215,39.645845,28.509607,39.5975451Q28.5,39.5492457,28.5,39.5Q28.5,39.4507543,28.509607,39.4024549Q28.519215,39.354155,28.53806,39.308658Q28.556906,39.263161,28.584265,39.222215Q28.611625,39.181269,28.646447,39.146447Q28.681269,39.111625,28.722215,39.084265Q28.763161,39.056906,28.808658,39.03806Q28.854155,39.019215,28.9024549,39.009607Q28.9507543,39,29,39Z" fill-rule="evenodd" fill="#FFFFFF" fill-opacity="1"/></g><g><g transform="matrix(-1,0,0,1,56.000244140625,0)"><g transform="matrix(0,1,-1,0,56.0001220703125,-0.0001220703125)"><path d="M28.0001220703125,27.5L29.5001220703125,27.5Q29.5493720703125,27.5,29.5976620703125,27.509607Q29.6459620703125,27.519215,29.6914620703125,27.53806Q29.7369620703125,27.556906,29.7779020703125,27.584265Q29.8188520703125,27.611625,29.8536720703125,27.646447Q29.8885020703125,27.681269,29.9158520703125,27.722215Q29.9432120703125,27.763161,29.9620620703125,27.808658Q29.9809120703125,27.854155,29.9905120703125,27.9024549Q30.0001220703125,27.9507543,30.0001220703125,28Q30.0001220703125,28.0492457,29.9905120703125,28.0975451Q29.9809120703125,28.145845,29.9620620703125,28.191342Q29.9432120703125,28.236839,29.9158520703125,28.277785Q29.8885020703125,28.318731,29.8536720703125,28.353553Q29.8188520703125,28.388375,29.7779020703125,28.415735Q29.7369620703125,28.443094,29.6914620703125,28.46194Q29.6459620703125,28.480785,29.5976720703125,28.490393Q29.5493720703125,28.5,29.5001220703125,28.5L28.0001220703125,28.5Q27.9508763703125,28.5,27.9025769703125,28.490393Q27.8542770703125,28.480785,27.8087800703125,28.46194Q27.7632830703125,28.443094,27.7223370703125,28.415735Q27.6813910703125,28.388375,27.6465690703125,28.353553Q27.6117470703125,28.318731,27.5843870703125,28.277785Q27.5570280703125,28.236839,27.5381820703125,28.191342Q27.5193370703125,28.145845,27.5097290703125,28.0975451Q27.5001220703125,28.0492457,27.5001220703125,28Q27.5001220703125,27.9507543,27.5097290703125,27.9024549Q27.5193370703125,27.854155,27.5381820703125,27.808658Q27.5570280703125,27.763161,27.5843870703125,27.722215Q27.6117470703125,27.681269,27.6465690703125,27.646447Q27.6813910703125,27.611625,27.7223370703125,27.584265Q27.7632830703125,27.556906,27.8087800703125,27.53806Q27.8542770703125,27.519215,27.9025769703125,27.509607Q27.9508763703125,27.5,28.0001220703125,27.5Z" fill-rule="evenodd" fill="#FFFFFF" fill-opacity="1"/></g><g transform="matrix(0,1,-1,0,59.5001220703125,3.4998779296875)"><path d="M28.0001220703125,31L29.5001220703125,31Q29.5493720703125,31,29.5976620703125,31.009607Q29.6459620703125,31.019215,29.6914620703125,31.03806Q29.7369620703125,31.056906,29.7779020703125,31.084265Q29.8188520703125,31.111625,29.8536720703125,31.146447Q29.8885020703125,31.181269,29.9158520703125,31.222215Q29.9432120703125,31.263161,29.9620620703125,31.308658Q29.9809120703125,31.354155,29.9905120703125,31.4024549Q30.0001220703125,31.4507543,30.0001220703125,31.5Q30.0001220703125,31.5492457,29.9905120703125,31.5975451Q29.9809120703125,31.645845,29.9620620703125,31.691342Q29.9432120703125,31.736839,29.9158520703125,31.777785Q29.8885020703125,31.818731,29.8536720703125,31.853553Q29.8188520703125,31.888375,29.7779020703125,31.915735Q29.7369620703125,31.943094,29.6914620703125,31.96194Q29.6459620703125,31.980785,29.5976720703125,31.990393Q29.5493720703125,32,29.5001220703125,32L28.0001220703125,32Q27.9508763703125,32,27.9025769703125,31.990393Q27.8542770703125,31.980785,27.8087800703125,31.96194Q27.7632830703125,31.943094,27.7223370703125,31.915735Q27.6813910703125,31.888375,27.6465690703125,31.853553Q27.6117470703125,31.818731,27.5843870703125,31.777785Q27.5570280703125,31.736839,27.5381820703125,31.691342Q27.5193370703125,31.645845,27.5097290703125,31.5975451Q27.5001220703125,31.5492457,27.5001220703125,31.5Q27.5001220703125,31.4507543,27.5097290703125,31.4024549Q27.5193370703125,31.354155,27.5381820703125,31.308658Q27.5570280703125,31.263161,27.5843870703125,31.222215Q27.6117470703125,31.181269,27.6465690703125,31.146447Q27.6813910703125,31.111625,27.7223370703125,31.084265Q27.7632830703125,31.056906,27.8087800703125,31.03806Q27.8542770703125,31.019215,27.9025769703125,31.009607Q27.9508763703125,31,28.0001220703125,31Z" fill-rule="evenodd" fill="#FFFFFF" fill-opacity="1"/></g></g><g transform="matrix(0,1,1,0,8.000274658203125,-8.000274658203125)"><g><path d="M36.0001220703125,27.499847412109375L37.5001220703125,27.499847412109375Q37.5493720703125,27.499847412109375,37.5976620703125,27.509454412109374Q37.6459620703125,27.519062412109374,37.6914620703125,27.537907412109377Q37.7369620703125,27.556753412109376,37.7779020703125,27.584112412109373Q37.8188520703125,27.611472412109375,37.8536720703125,27.646294412109373Q37.8885020703125,27.681116412109375,37.915852070312496,27.722062412109373Q37.9432120703125,27.763008412109375,37.9620620703125,27.808505412109376Q37.9809120703125,27.854002412109374,37.9905120703125,27.902302312109374Q38.0001220703125,27.950601712109375,38.0001220703125,27.999847412109375Q38.0001220703125,28.049093112109375,37.9905120703125,28.097392512109376Q37.9809120703125,28.145692412109376,37.9620620703125,28.191189412109374Q37.9432120703125,28.236686412109375,37.915852070312496,28.277632412109377Q37.8885020703125,28.318578412109375,37.8536720703125,28.353400412109377Q37.8188520703125,28.388222412109375,37.7779020703125,28.415582412109377Q37.7369620703125,28.442941412109374,37.6914620703125,28.461787412109373Q37.6459620703125,28.480632412109376,37.5976720703125,28.490240412109376Q37.5493720703125,28.499847412109375,37.5001220703125,28.499847412109375L36.0001220703125,28.499847412109375Q35.9508763703125,28.499847412109375,35.9025769703125,28.490240412109376Q35.8542770703125,28.480632412109376,35.8087800703125,28.461787412109373Q35.7632830703125,28.442941412109374,35.7223370703125,28.415582412109377Q35.6813910703125,28.388222412109375,35.6465690703125,28.353400412109377Q35.6117470703125,28.318578412109375,35.5843870703125,28.277632412109377Q35.5570280703125,28.236686412109375,35.5381820703125,28.191189412109374Q35.5193370703125,28.145692412109376,35.5097290703125,28.097392512109376Q35.5001220703125,28.049093112109375,35.5001220703125,27.999847412109375Q35.5001220703125,27.950601712109375,35.5097290703125,27.902302312109374Q35.5193370703125,27.854002412109374,35.5381820703125,27.808505412109376Q35.5570280703125,27.763008412109375,35.5843870703125,27.722062412109373Q35.6117470703125,27.681116412109375,35.6465690703125,27.646294412109373Q35.6813910703125,27.611472412109375,35.7223370703125,27.584112412109373Q35.7632830703125,27.556753412109376,35.8087800703125,27.537907412109377Q35.8542770703125,27.519062412109374,35.9025769703125,27.509454412109374Q35.9508763703125,27.499847412109375,36.0001220703125,27.499847412109375Z" fill-rule="evenodd" fill="#FFFFFF" fill-opacity="1"/></g><g><path d="M39.5001220703125,27.499847412109375L41.0001220703125,27.499847412109375Q41.0493720703125,27.499847412109375,41.0976620703125,27.509454412109374Q41.1459620703125,27.519062412109374,41.1914620703125,27.537907412109377Q41.2369620703125,27.556753412109376,41.2779020703125,27.584112412109373Q41.3188520703125,27.611472412109375,41.3536720703125,27.646294412109373Q41.3885020703125,27.681116412109375,41.415852070312496,27.722062412109373Q41.4432120703125,27.763008412109375,41.4620620703125,27.808505412109376Q41.4809120703125,27.854002412109374,41.4905120703125,27.902302312109374Q41.5001220703125,27.950601712109375,41.5001220703125,27.999847412109375Q41.5001220703125,28.049093112109375,41.4905120703125,28.097392512109376Q41.4809120703125,28.145692412109376,41.4620620703125,28.191189412109374Q41.4432120703125,28.236686412109375,41.415852070312496,28.277632412109377Q41.3885020703125,28.318578412109375,41.3536720703125,28.353400412109377Q41.3188520703125,28.388222412109375,41.2779020703125,28.415582412109377Q41.2369620703125,28.442941412109374,41.1914620703125,28.461787412109373Q41.1459620703125,28.480632412109376,41.0976720703125,28.490240412109376Q41.0493720703125,28.499847412109375,41.0001220703125,28.499847412109375L39.5001220703125,28.499847412109375Q39.4508763703125,28.499847412109375,39.4025769703125,28.490240412109376Q39.3542770703125,28.480632412109376,39.3087800703125,28.461787412109373Q39.2632830703125,28.442941412109374,39.2223370703125,28.415582412109377Q39.1813910703125,28.388222412109375,39.1465690703125,28.353400412109377Q39.1117470703125,28.318578412109375,39.0843870703125,28.277632412109377Q39.0570280703125,28.236686412109375,39.0381820703125,28.191189412109374Q39.0193370703125,28.145692412109376,39.0097290703125,28.097392512109376Q39.0001220703125,28.049093112109375,39.0001220703125,27.999847412109375Q39.0001220703125,27.950601712109375,39.0097290703125,27.902302312109374Q39.0193370703125,27.854002412109374,39.0381820703125,27.808505412109376Q39.0570280703125,27.763008412109375,39.0843870703125,27.722062412109373Q39.1117470703125,27.681116412109375,39.1465690703125,27.646294412109373Q39.1813910703125,27.611472412109375,39.2223370703125,27.584112412109373Q39.2632830703125,27.556753412109376,39.3087800703125,27.537907412109377Q39.3542770703125,27.519062412109374,39.4025769703125,27.509454412109374Q39.4508763703125,27.499847412109375,39.5001220703125,27.499847412109375Z" fill-rule="evenodd" fill="#FFFFFF" fill-opacity="1"/></g></g><g><rect x="27" y="28.999847412109375" width="2" height="1" rx="0.5" fill="#FFFFFF" fill-opacity="1"/></g><g><rect x="35" y="28.999847412109375" width="2" height="1" rx="0.5" fill="#FFFFFF" fill-opacity="1"/></g><g transform="matrix(-1,-5.2146120310681e-8,5.2146120310681e-8,-1,65.99950999792803,66.00000172080924)"><g transform="matrix(0,1,1,0,0.9998779296875,-0.9998779296875)"><g><path d="M33.9998779296875,32.5L35.4998779296875,32.5Q35.5491279296875,32.5,35.5974179296875,32.509607Q35.6457179296875,32.519215,35.6912179296875,32.53806Q35.7367179296875,32.556906,35.7776579296875,32.584265Q35.8186079296875,32.611625,35.8534279296875,32.646447Q35.8882579296875,32.681269,35.915607929687496,32.722215Q35.9429679296875,32.763161,35.9618179296875,32.808658Q35.9806679296875,32.854155,35.9902679296875,32.9024549Q35.9998779296875,32.9507543,35.9998779296875,33Q35.9998779296875,33.0492457,35.9902679296875,33.0975451Q35.9806679296875,33.145845,35.9618179296875,33.191342Q35.9429679296875,33.236839,35.915607929687496,33.277785Q35.8882579296875,33.318731,35.8534279296875,33.353553Q35.8186079296875,33.388375,35.7776579296875,33.415735Q35.7367179296875,33.443094,35.6912179296875,33.46194Q35.6457179296875,33.480785,35.5974279296875,33.490393Q35.5491279296875,33.5,35.4998779296875,33.5L33.9998779296875,33.5Q33.9506322296875,33.5,33.9023328296875,33.490393Q33.8540329296875,33.480785,33.8085359296875,33.46194Q33.7630389296875,33.443094,33.7220929296875,33.415735Q33.6811469296875,33.388375,33.6463249296875,33.353553Q33.6115029296875,33.318731,33.5841429296875,33.277785Q33.5567839296875,33.236839,33.5379379296875,33.191342Q33.5190929296875,33.145845,33.5094849296875,33.0975451Q33.4998779296875,33.0492457,33.4998779296875,33Q33.4998779296875,32.9507543,33.5094849296875,32.9024549Q33.5190929296875,32.854155,33.5379379296875,32.808658Q33.5567839296875,32.763161,33.5841429296875,32.722215Q33.6115029296875,32.681269,33.6463249296875,32.646447Q33.6811469296875,32.611625,33.7220929296875,32.584265Q33.7630389296875,32.556906,33.8085359296875,32.53806Q33.8540329296875,32.519215,33.9023328296875,32.509607Q33.9506322296875,32.5,33.9998779296875,32.5Z" fill-rule="evenodd" fill="#FFFFFF" fill-opacity="1"/></g><g><path d="M37.4998779296875,32.5L38.9998779296875,32.5Q39.0491279296875,32.5,39.0974179296875,32.509607Q39.1457179296875,32.519215,39.1912179296875,32.53806Q39.2367179296875,32.556906,39.2776579296875,32.584265Q39.3186079296875,32.611625,39.3534279296875,32.646447Q39.3882579296875,32.681269,39.415607929687496,32.722215Q39.4429679296875,32.763161,39.4618179296875,32.808658Q39.4806679296875,32.854155,39.4902679296875,32.9024549Q39.4998779296875,32.9507543,39.4998779296875,33Q39.4998779296875,33.0492457,39.4902679296875,33.0975451Q39.4806679296875,33.145845,39.4618179296875,33.191342Q39.4429679296875,33.236839,39.415607929687496,33.277785Q39.3882579296875,33.318731,39.3534279296875,33.353553Q39.3186079296875,33.388375,39.2776579296875,33.415735Q39.2367179296875,33.443094,39.1912179296875,33.46194Q39.1457179296875,33.480785,39.0974279296875,33.490393Q39.0491279296875,33.5,38.9998779296875,33.5L37.4998779296875,33.5Q37.4506322296875,33.5,37.4023328296875,33.490393Q37.3540329296875,33.480785,37.3085359296875,33.46194Q37.2630389296875,33.443094,37.2220929296875,33.415735Q37.1811469296875,33.388375,37.1463249296875,33.353553Q37.1115029296875,33.318731,37.0841429296875,33.277785Q37.0567839296875,33.236839,37.0379379296875,33.191342Q37.0190929296875,33.145845,37.0094849296875,33.0975451Q36.9998779296875,33.0492457,36.9998779296875,33Q36.9998779296875,32.9507543,37.0094849296875,32.9024549Q37.0190929296875,32.854155,37.0379379296875,32.808658Q37.0567839296875,32.763161,37.0841429296875,32.722215Q37.1115029296875,32.681269,37.1463249296875,32.646447Q37.1811469296875,32.611625,37.2220929296875,32.584265Q37.2630389296875,32.556906,37.3085359296875,32.53806Q37.3540329296875,32.519215,37.4023328296875,32.509607Q37.4506322296875,32.5,37.4998779296875,32.5Z" fill-rule="evenodd" fill="#FFFFFF" fill-opacity="1"/></g></g><g><path d="M32.999755859375,34.5C32.999755859375,34.776142,33.223613859375,35,33.499755859375,35L34.499755859375,35C34.775895859375,35,34.999755859375,34.776142,34.999755859375,34.5C34.999755859375,34.223858,34.775895859375,34,34.499755859375,34L33.499755859375,34C33.223613859375,34,32.999755859375,34.223858,32.999755859375,34.5Z" fill="#FFFFFF" fill-opacity="1"/></g></g></g></g></g></svg>