<svg xmlns="http://www.w3.org/2000/svg" xmlns:xlink="http://www.w3.org/1999/xlink" fill="none" version="1.1" width="64" height="64" viewBox="0 0 64 64"><defs><filter id="master_svg0_1837_37870" filterUnits="objectBoundingBox" color-interpolation-filters="sRGB" x="-0.625" y="-0.625" width="2.25" height="2.25"><feFlood flood-opacity="0" result="BackgroundImageFix"/><feColorMatrix in="SourceAlpha" type="matrix" values="0 0 0 0 0 0 0 0 0 0 0 0 0 0 0 0 0 0 127 0"/><feOffset dy="0" dx="0"/><feGaussianBlur stdDeviation="5"/><feColorMatrix type="matrix" values="0 0 0 0 0.125490203499794 0 0 0 0 0.125490203499794 0 0 0 0 0.4117647111415863 0 0 0 0.4000000059604645 0"/><feBlend mode="normal" in2="BackgroundImageFix" result="effect1_dropShadow"/><feBlend mode="normal" in="SourceGraphic" in2="effect1_dropShadow" result="shape"/></filter><clipPath id="master_svg1_1837_37871"><rect x="22" y="22" width="20" height="20" rx="0"/></clipPath></defs><g><g filter="url(#master_svg0_1837_37870)"><rect x="16" y="16" width="32" height="32" rx="6" fill="#31313A" fill-opacity="1"/><rect x="15.5" y="15.5" width="33" height="33" rx="6.5" fill-opacity="0" fill="none" stroke-width="1"/></g><g clip-path="url(#master_svg1_1837_37871)"><g><path d="M24,25.5L24,35.5Q24,36.1213,24.4393399,36.5607Q24.878678999999998,37,25.5,37L38.5,37Q39.1213,37,39.5607,36.5607Q40,36.1213,40,35.5L40,25.5Q40,24.878678999999998,39.5607,24.4393401Q39.1213,24,38.5,24L25.5,24Q24.87868,24,24.4393398,24.4393399Q24,24.87868,24,25.5ZM25.5,36Q25,36,25,35.5L25,25.5Q25,25,25.5,25L38.5,25Q39,25,39,25.5L39,35.5Q39,36,38.5,36L25.5,36Z" fill-rule="evenodd" fill="#FFFFFF" fill-opacity="1"/></g><g><path d="M29,39L35,39Q35.04925,39,35.09755,39.009607Q35.14584,39.019215,35.19134,39.03806Q35.23684,39.056906,35.27778,39.084265Q35.31873,39.111625,35.35355,39.146447Q35.38837,39.181269,35.415729999999996,39.222215Q35.44309,39.263161,35.46194,39.308658Q35.48078,39.354155,35.49039,39.4024549Q35.5,39.4507543,35.5,39.5Q35.5,39.5492457,35.49039,39.5975451Q35.48078,39.645845,35.46194,39.691342Q35.44309,39.736839,35.415729999999996,39.777785Q35.38837,39.818731,35.35355,39.853553Q35.31873,39.888375,35.27778,39.915735Q35.23684,39.943094,35.19134,39.96194Q35.14584,39.980785,35.09755,39.990393Q35.04925,40,35,40L29,40Q28.9507543,40,28.9024549,39.990393Q28.854155,39.980785,28.808658,39.96194Q28.763161,39.943094,28.722215,39.915735Q28.681269,39.888375,28.646447,39.853553Q28.611625,39.818731,28.584265,39.777785Q28.556906,39.736839,28.53806,39.691342Q28.519215,39.645845,28.509607,39.5975451Q28.5,39.5492457,28.5,39.5Q28.5,39.4507543,28.509607,39.4024549Q28.519215,39.354155,28.53806,39.308658Q28.556906,39.263161,28.584265,39.222215Q28.611625,39.181269,28.646447,39.146447Q28.681269,39.111625,28.722215,39.084265Q28.763161,39.056906,28.808658,39.03806Q28.854155,39.019215,28.9024549,39.009607Q28.9507543,39,29,39Z" fill-rule="evenodd" fill="#FFFFFF" fill-opacity="1"/></g><g><path d="M35.31235,29.890434Q35.4013,29.81927,35.45065,29.716594Q35.5,29.613919,35.5,29.5Q35.5,29.4507543,35.49039,29.4024549Q35.48078,29.354155,35.46194,29.308658Q35.44309,29.263161,35.415729999999996,29.222215Q35.38837,29.181269,35.35355,29.146447Q35.31873,29.111625,35.27778,29.084265Q35.23684,29.056906,35.19134,29.03806Q35.14584,29.019215,35.09755,29.009607Q35.04925,29,35,29Q34.82461,29,34.68765,29.109566L34.68746,29.10972L32.53711,30.83L31.35355,29.646447Q31.31873,29.611625,31.27779,29.5842652Q31.23684,29.5569057,31.19134,29.5380602Q31.14584,29.5192147,31.09754,29.50960735Q31.04925,29.4999999912711,31,29.4999999912711Q30.95075,29.4999999912711,30.90245,29.50960735Q30.85416,29.5192147,30.80866,29.5380602Q30.76316,29.5569057,30.72221,29.5842652Q30.68127,29.611625,30.64645,29.646447L28.646447,31.64645Q28.57612,31.71677,28.53806,31.80866Q28.5,31.90054,28.5,32Q28.5,32.04925,28.509607,32.09754Q28.519215,32.14584,28.53806,32.19134Q28.556906,32.23684,28.584265,32.27778Q28.611625,32.31873,28.646447,32.35355Q28.681269,32.38837,28.722215,32.415729999999996Q28.763161,32.44309,28.808658,32.46194Q28.854155,32.48078,28.9024549,32.49039Q28.9507543,32.5,29,32.5Q29.0994562,32.5,29.191342,32.46194Q29.283227,32.42388,29.353553,32.35355L29.35371,32.3534L31,30.70711L32.14645,31.85355Q32.1788,31.88591,32.21649,31.91185Q32.25418,31.9378,32.29595,31.95647Q32.33773,31.97514,32.3822,31.98592Q32.42666,31.9967,32.47235,31.99923Q32.51804,32.00177,32.56342,31.99596Q32.60881,31.99016,32.65239,31.976210000000002Q32.69597,31.96227,32.73629,31.940640000000002Q32.77662,31.91902,32.81235,31.89043L35.31215,29.890589L35.31235,29.890434L35.31235,29.890434Z" fill-rule="evenodd" fill="#FFFFFF" fill-opacity="1"/></g></g></g></svg>