<svg xmlns="http://www.w3.org/2000/svg" xmlns:xlink="http://www.w3.org/1999/xlink" fill="none" version="1.1" width="64" height="64" viewBox="0 0 64 64"><defs><filter id="master_svg0_1832_61720" filterUnits="objectBoundingBox" color-interpolation-filters="sRGB" x="-0.625" y="-0.625" width="2.25" height="2.25"><feFlood flood-opacity="0" result="BackgroundImageFix"/><feColorMatrix in="SourceAlpha" type="matrix" values="0 0 0 0 0 0 0 0 0 0 0 0 0 0 0 0 0 0 127 0"/><feOffset dy="0" dx="0"/><feGaussianBlur stdDeviation="5"/><feColorMatrix type="matrix" values="0 0 0 0 0.125490203499794 0 0 0 0 0.125490203499794 0 0 0 0 0.4117647111415863 0 0 0 0.4000000059604645 0"/><feBlend mode="normal" in2="BackgroundImageFix" result="effect1_dropShadow"/><feBlend mode="normal" in="SourceGraphic" in2="effect1_dropShadow" result="shape"/></filter><clipPath id="master_svg1_1832_61721"><rect x="22" y="22" width="20" height="20" rx="0"/></clipPath></defs><g><g filter="url(#master_svg0_1832_61720)"><rect x="16" y="16" width="32" height="32" rx="6" fill="#31313A" fill-opacity="1"/><rect x="15.5" y="15.5" width="33" height="33" rx="6.5" fill-opacity="0" fill="none" stroke-width="1"/></g><g clip-path="url(#master_svg1_1832_61721)"><g><g><path d="M24,25.5L24,35.5Q24,36.1213,24.4393399,36.5607Q24.878678999999998,37,25.5,37L38.5,37Q39.1213,37,39.5607,36.5607Q40,36.1213,40,35.5L40,25.5Q40,24.878678999999998,39.5607,24.4393401Q39.1213,24,38.5,24L25.5,24Q24.87868,24,24.4393398,24.4393399Q24,24.87868,24,25.5ZM25.5,36Q25,36,25,35.5L25,25.5Q25,25,25.5,25L38.5,25Q39,25,39,25.5L39,35.5Q39,36,38.5,36L25.5,36Z" fill-rule="evenodd" fill="#FFFFFF" fill-opacity="1"/></g><g><g><path d="M32,27.768079L35.11111,29.36824L35.11111,32.60057L32,34.200739999999996L28.88889,32.60057L28.88889,29.40025L32,27.800082M32,27C31.843890000000002,27.000249435,31.6906,27.0375025,31.55556,27.108011L28.444446,28.70818C28.169704,28.85095,28.00032568,29.1147,28,29.40025L28,32.60057C28.000325203,32.88612,28.169703,33.14987,28.444445,33.29265L31.55556,34.89281C31.83058,35.03573,32.16942,35.03573,32.44444,34.89281L35.55556,33.29265C35.8303,33.14987,35.99967,32.88612,36,32.60057L36,29.40025C35.99967,29.1147,35.8303,28.85095,35.55556,28.70818L32.44445,27.108011C32.30941,27.0375026,32.15612,27.000249435,32,27Z" fill="#FFFFFF" fill-opacity="1"/></g><g><path d="M31.9991315,30.6015625Q32.4435765,30.6015625,32.4435765,31.0016035L32.4435765,34.2019325Q32.4435765,34.6019725,31.9991315,34.6019725Q31.5546875,34.6019725,31.5546875,34.2019325L31.5546875,31.0016035Q31.5546875,30.6015625,31.9991315,30.6015625Z" fill="#FFFFFF" fill-opacity="1"/></g><g><path d="M28.75712025,29.20791925Q28.97934225,28.86147325,29.36424225,29.06149375L32.04315125,30.45363125Q32.42805125,30.65366125,32.20582125,31.00010125Q31.98360125,31.34655125,31.59870125,31.14653125L28.91979825,29.75438525Q28.53489825,29.55436425,28.75712025,29.20791925Z" fill="#FFFFFF" fill-opacity="1"/></g><g><path d="M31.9549545,30.4534225L34.7762675,28.987275Q35.1611775,28.7872545,35.3833975,29.1337005Q35.6056175,29.4801455,35.2207175,29.6801665L32.3993985,31.1463125Q32.0144985,31.3463325,31.7922764,30.9998925Q31.5700545,30.6534425,31.9549545,30.4534225Z" fill="#FFFFFF" fill-opacity="1"/></g></g></g><g><path d="M29,39L35,39Q35.04925,39,35.09755,39.009607Q35.14584,39.019215,35.19134,39.03806Q35.23684,39.056906,35.27778,39.084265Q35.31873,39.111625,35.35355,39.146447Q35.38837,39.181269,35.415729999999996,39.222215Q35.44309,39.263161,35.46194,39.308658Q35.48078,39.354155,35.49039,39.4024549Q35.5,39.4507543,35.5,39.5Q35.5,39.5492457,35.49039,39.5975451Q35.48078,39.645845,35.46194,39.691342Q35.44309,39.736839,35.415729999999996,39.777785Q35.38837,39.818731,35.35355,39.853553Q35.31873,39.888375,35.27778,39.915735Q35.23684,39.943094,35.19134,39.96194Q35.14584,39.980785,35.09755,39.990393Q35.04925,40,35,40L29,40Q28.9507543,40,28.9024549,39.990393Q28.854155,39.980785,28.808658,39.96194Q28.763161,39.943094,28.722215,39.915735Q28.681269,39.888375,28.646447,39.853553Q28.611625,39.818731,28.584265,39.777785Q28.556906,39.736839,28.53806,39.691342Q28.519215,39.645845,28.509607,39.5975451Q28.5,39.5492457,28.5,39.5Q28.5,39.4507543,28.509607,39.4024549Q28.519215,39.354155,28.53806,39.308658Q28.556906,39.263161,28.584265,39.222215Q28.611625,39.181269,28.646447,39.146447Q28.681269,39.111625,28.722215,39.084265Q28.763161,39.056906,28.808658,39.03806Q28.854155,39.019215,28.9024549,39.009607Q28.9507543,39,29,39Z" fill-rule="evenodd" fill="#FFFFFF" fill-opacity="1"/></g></g></g></svg>