<svg xmlns="http://www.w3.org/2000/svg" xmlns:xlink="http://www.w3.org/1999/xlink" fill="none" version="1.1" width="64" height="64" viewBox="0 0 64 64"><defs><filter id="master_svg0_1832_61898" filterUnits="objectBoundingBox" color-interpolation-filters="sRGB" x="-0.625" y="-0.625" width="2.25" height="2.25"><feFlood flood-opacity="0" result="BackgroundImageFix"/><feColorMatrix in="SourceAlpha" type="matrix" values="0 0 0 0 0 0 0 0 0 0 0 0 0 0 0 0 0 0 127 0"/><feOffset dy="0" dx="0"/><feGaussianBlur stdDeviation="5"/><feColorMatrix type="matrix" values="0 0 0 0 0.125490203499794 0 0 0 0 0.125490203499794 0 0 0 0 0.4117647111415863 0 0 0 0.4000000059604645 0"/><feBlend mode="normal" in2="BackgroundImageFix" result="effect1_dropShadow"/><feBlend mode="normal" in="SourceGraphic" in2="effect1_dropShadow" result="shape"/></filter><clipPath id="master_svg1_1832_61899"><rect x="22" y="22" width="20" height="20" rx="0"/></clipPath></defs><g><g filter="url(#master_svg0_1832_61898)"><rect x="16" y="16" width="32" height="32" rx="6" fill="#31313A" fill-opacity="1"/><rect x="15.5" y="15.5" width="33" height="33" rx="6.5" fill-opacity="0" fill="none" stroke-width="1"/></g><g clip-path="url(#master_svg1_1832_61899)"><g><g><path d="M35.85689,39.56028Q35.96796,39.21283,36.333330000000004,39.21283Q36.6987,39.21283,36.80978,39.56028Q36.82458,39.60658,36.84803,39.64917Q36.87147,39.69175,36.902680000000004,39.72902Q36.93389,39.7663,36.97169,39.79686Q37.0095,39.827420000000004,37.05248,39.85013Q37.09547,39.87284,37.14202,39.88684Q37.18857,39.90084,37.23695,39.90561Q37.28533,39.91038,37.33372,39.90575Q37.38211,39.90111,37.42871,39.88724Q38.39387,39.59989,39.09562,38.87068Q39.1275,38.837559999999996,39.1528,38.799170000000004Q39.178110000000004,38.76079,39.19599,38.71843Q39.21387,38.67608,39.22372,38.63117Q39.23358,38.58627,39.235079999999996,38.54032Q39.23659,38.49437,39.22968,38.44892Q39.22278,38.40346,39.20771,38.36003Q39.19263,38.3166,39.16989,38.27664Q39.147149999999996,38.23669,39.1175,38.20155Q39,38.06228,39,37.87949Q39,37.67239,39.14645,37.52594Q39.29289,37.37949,39.5,37.37949Q39.52514,37.37949,39.550110000000004,37.38195Q39.59586,37.38644,39.64166,37.38252Q39.68747,37.3786,39.731790000000004,37.36639Q39.77611,37.35418,39.81746,37.33409Q39.85881,37.314009999999996,39.89581,37.28672Q39.93281,37.25943,39.9642,37.22585Q39.995599999999996,37.19227,40.02036,37.15353Q40.0451,37.11479,40.06238,37.07218Q40.07965,37.02958,40.08886,36.98454Q40.166669999999996,36.60412,40.166669999999996,36.21283Q40.166669999999996,35.62199,39.99106,35.06289Q39.967,34.98631,39.92018,34.9211Q39.87335,34.85589,39.80847,34.80862Q39.74359,34.76134,39.66717,34.73675Q39.59075,34.71217,39.51048,34.71274L39.5,34.71283Q39.29289,34.71283,39.14645,34.56638Q39,34.41993,39,34.21283Q39,34.09576,39.05103,33.992253Q39.0867,33.919893,39.09781,33.839986Q39.10891,33.760079,39.094319999999996,33.680734Q39.07973,33.60139,39.04093,33.53066Q39.00212,33.459931,38.943039999999996,33.404995Q38.25681,32.766916,37.35804,32.518122Q37.31671,32.50668,37.274029999999996,32.502444Q37.23135,32.498209,37.18857,32.501303Q37.14579,32.504398,37.104169999999996,32.514733Q37.06254,32.525068,37.02329,32.54234Q36.98403,32.559613,36.94829,32.583319Q36.91254,32.607025,36.88136,32.636472Q36.85018,32.665919,36.82447,32.700246Q36.79875,32.734573,36.77926,32.772778Q36.63979,33.0461651,36.333330000000004,33.0461651Q36.02688,33.0461651,35.8874,32.772778Q35.86791,32.734574,35.8422,32.700247Q35.81649,32.665919,35.78531,32.636472Q35.75412,32.607026,35.718379999999996,32.583319Q35.68264,32.559613,35.64338,32.542341Q35.60412,32.525068,35.5625,32.514733Q35.52087,32.504398,35.4781,32.501303Q35.43532,32.498209,35.39264,32.502444Q35.34996,32.50668,35.30862,32.518122Q34.40986,32.766916,33.723627,33.404995Q33.664546,33.459931,33.625741,33.53066Q33.586936,33.60139,33.572345,33.680734Q33.557755,33.760079,33.56886,33.839986Q33.579964,33.919893,33.615638,33.992253Q33.666667,34.09576,33.666667,34.21283Q33.666667,34.41993,33.52022,34.56638Q33.373773,34.71283,33.170225,34.71284L33.15619,34.71274Q33.075915,34.71217,32.999495926,34.73675Q32.9230768,34.76134,32.858195,34.80861Q32.793313,34.85589,32.746491,34.92109Q32.699668,34.9863,32.675611,35.06289Q32.5,35.62196,32.5,36.21283Q32.5,36.60413,32.577806,36.98454Q32.587018,37.02957,32.604289,37.07218Q32.62156,37.114779999999996,32.64631,37.15353Q32.67106,37.19227,32.702459,37.22585Q32.733859,37.25943,32.770855,37.28672Q32.807851,37.314009999999996,32.849203,37.33409Q32.890555,37.35418,32.9348761,37.36639Q32.9791975,37.3786,33.0250022,37.38252Q33.0708069,37.38644,33.116559,37.38195Q33.14153,37.37949,33.166667,37.37949Q33.373773,37.37949,33.52022,37.52594Q33.666667,37.67239,33.666667,37.87949Q33.666667,38.06228,33.549166,38.20154Q33.519518,38.23668,33.496775,38.27664Q33.474032,38.31659,33.458956,38.36002Q33.443881,38.40346,33.436979,38.44891Q33.430076,38.49436,33.431578,38.54031Q33.433081,38.58627,33.442937,38.63117Q33.452794,38.67608,33.470674,38.71843Q33.488555,38.76079,33.513859,38.799170000000004Q33.539163,38.837559999999996,33.571043,38.87068Q34.2728,39.59989,35.23796,39.88724Q35.28455,39.90111,35.33294,39.90575Q35.38134,39.91038,35.42971,39.90561Q35.47809,39.90084,35.52465,39.88684Q35.5712,39.87284,35.61418,39.85013Q35.65717,39.827420000000004,35.69497,39.79686Q35.73278,39.7663,35.76399,39.72902Q35.7952,39.69175,35.81864,39.64917Q35.84209,39.60658,35.85689,39.56028ZM37.22653,38.50768Q36.82913,38.21283,36.333330000000004,38.21283Q35.83753,38.21283,35.44014,38.50768Q35.272149999999996,38.63232,35.14931,38.7889Q34.835679999999996,38.64568,34.56577,38.42856Q34.66667,38.17255,34.66667,37.87949Q34.66667,37.25817,34.22733,36.81883Q33.913605,36.50511,33.50709,36.41541Q33.5,36.31466,33.5,36.21283Q33.5,35.93424,33.552571,35.66568Q33.931897,35.56892,34.22733,35.27349Q34.66667,34.83415,34.66667,34.21283Q34.66667,34.07276,34.64201,33.938701Q34.92279,33.728302,35.24535,33.595042Q35.65132,34.046170000000004,36.333330000000004,34.046170000000004Q37.01535,34.046170000000004,37.42132,33.595042Q37.74387,33.728302,38.02466,33.938702Q38,34.07276,38,34.21283Q38,34.83415,38.43934,35.27349Q38.73543,35.56958,39.11418,35.66612Q39.166669999999996,35.93447,39.166669999999996,36.21283Q39.166669999999996,36.31466,39.15958,36.41541Q38.75306,36.50511,38.43934,36.81883Q38,37.25817,38,37.87949Q38,38.17255,38.1009,38.42856Q37.83099,38.64568,37.51735,38.7889Q37.39452,38.63232,37.22653,38.50768Z" fill-rule="evenodd" fill="#FFFFFF" fill-opacity="1" style="mix-blend-mode:passthrough"/></g><g><path d="M37.497392500000004,36.20963875Q37.497392500000004,36.26694875,37.4917825,36.32398875Q37.4861625,36.38102875,37.4749825,36.43723875Q37.4637925,36.49345875,37.4471625,36.54829875Q37.4305225,36.60314875,37.4085925,36.65609875Q37.3866525,36.70904875,37.359632500000004,36.75959875Q37.3326225,36.81014875,37.3007725,36.85779875Q37.2689325,36.90545875,37.2325725,36.94975875Q37.1962125,36.99406875,37.1556825,37.03458875Q37.1151625,37.07511875,37.0708525,37.11147875Q37.0265525,37.14783875,36.9788925,37.17967875Q36.9312425,37.21152875,36.8806925,37.238538750000004Q36.8301425,37.26555875,36.7771925,37.28749875Q36.7242425,37.30942875,36.6693925,37.32606875Q36.6145525,37.34269875,36.5583325,37.35388875Q36.5021225,37.36506875,36.4450825,37.37068875Q36.3880425,37.376298750000004,36.3307325,37.376298750000004Q36.2734125,37.376298750000004,36.2163725,37.37068875Q36.1593375,37.36506875,36.1031235,37.35388875Q36.0469105,37.34269875,35.9920635,37.32606875Q35.9372175,37.30942875,35.8842655,37.28749875Q35.8313135,37.26555875,35.7807665,37.238538750000004Q35.7302195,37.21152875,35.6825635,37.17967875Q35.6349085,37.14783875,35.5906035,37.11147875Q35.5462985,37.07511875,35.5057715,37.03458875Q35.4652435,36.99406875,35.4288835,36.94975875Q35.3925235,36.90545875,35.3606815,36.85779875Q35.3288385,36.81014875,35.3018215,36.75959875Q35.2748035,36.70904875,35.2528697,36.65609875Q35.2309363,36.60314875,35.2142988,36.54829875Q35.1976612,36.49345875,35.1864797,36.43723875Q35.1752981,36.38102875,35.16968032,36.32398875Q35.1640625,36.26694875,35.1640625,36.20963875Q35.1640625,36.15231875,35.16968032,36.09527875Q35.1752981,36.03824375,35.1864797,35.98202975Q35.1976612,35.92581675,35.2142988,35.87096975Q35.2309363,35.81612375,35.2528697,35.76317175Q35.2748035,35.71021975,35.3018215,35.65967275Q35.3288385,35.60912575,35.3606815,35.56146975Q35.3925235,35.51381475,35.4288835,35.46950975Q35.4652435,35.42520475,35.5057715,35.38467775Q35.5462985,35.34414975,35.5906035,35.30778975Q35.6349085,35.27142975,35.6825635,35.23958775Q35.7302195,35.20774475,35.7807665,35.18072775Q35.8313135,35.15370975,35.8842655,35.13177595Q35.9372175,35.10984255,35.9920635,35.09320505Q36.0469105,35.07656745,36.1031235,35.06538595Q36.1593375,35.05420435,36.2163725,35.04858657Q36.2734125,35.04296875,36.3307325,35.04296875Q36.3880425,35.04296875,36.4450825,35.04858657Q36.5021225,35.05420435,36.5583325,35.06538595Q36.6145525,35.07656745,36.6693925,35.09320505Q36.7242425,35.10984255,36.7771925,35.13177595Q36.8301425,35.15370975,36.8806925,35.18072775Q36.9312425,35.20774475,36.9788925,35.23958775Q37.0265525,35.27142975,37.0708525,35.30778975Q37.1151625,35.34414975,37.1556825,35.38467775Q37.1962125,35.42520475,37.2325725,35.46950975Q37.2689325,35.51381475,37.3007725,35.56146975Q37.3326225,35.60912575,37.359632500000004,35.65967275Q37.3866525,35.71021975,37.4085925,35.76317175Q37.4305225,35.81612375,37.4471625,35.87096975Q37.4637925,35.92581675,37.4749825,35.98202975Q37.4861625,36.03824375,37.4917825,36.09527875Q37.497392500000004,36.15231875,37.497392500000004,36.20963875Z" fill="#FFFFFF" fill-opacity="1"/></g></g><g><g><path d="M25.07143,33.64286L30.42805,33.64286C30.72371,33.64286,30.96347,33.40333,30.96376,33.10767C30.96405,32.81159,30.72412,32.57143,30.42805,32.57143L25.07143,32.57143L25.07143,29.35714L37.9286,29.35714L37.9286,29.89286C37.9286,30.18872,38.1684,30.42857,38.4643,30.42857C38.7602,30.42857,39,30.18872,39,29.89286L39,25C39,24.447715,38.5523,24,38,24L25,24C24.447715,24,24,24.447715,24,25L24,38C24,38.5523,24.447715,39,25,39L30.42805,39C30.72412,39,30.96405,38.7598,30.96376,38.4638C30.96347,38.1681,30.72371,37.9286,30.42805,37.9286L25.07143,37.9286L25.07143,33.64286ZM25.07031,25.07031L37.9275,25.07031L37.9275,28.2846L25.07031,28.2846L25.07031,25.07031Z" fill-rule="evenodd" fill="#FFFFFF" fill-opacity="1"/></g></g></g></g></svg>