<svg xmlns="http://www.w3.org/2000/svg" xmlns:xlink="http://www.w3.org/1999/xlink" fill="none" version="1.1" width="64" height="64" viewBox="0 0 64 64"><defs><filter id="master_svg0_1832_61740" filterUnits="objectBoundingBox" color-interpolation-filters="sRGB" x="-0.625" y="-0.625" width="2.25" height="2.25"><feFlood flood-opacity="0" result="BackgroundImageFix"/><feColorMatrix in="SourceAlpha" type="matrix" values="0 0 0 0 0 0 0 0 0 0 0 0 0 0 0 0 0 0 127 0"/><feOffset dy="0" dx="0"/><feGaussianBlur stdDeviation="5"/><feColorMatrix type="matrix" values="0 0 0 0 0.125490203499794 0 0 0 0 0.125490203499794 0 0 0 0 0.4117647111415863 0 0 0 0.4000000059604645 0"/><feBlend mode="normal" in2="BackgroundImageFix" result="effect1_dropShadow"/><feBlend mode="normal" in="SourceGraphic" in2="effect1_dropShadow" result="shape"/></filter><clipPath id="master_svg1_1832_61741"><rect x="22" y="22" width="20" height="20" rx="0"/></clipPath></defs><g><g filter="url(#master_svg0_1832_61740)"><rect x="16" y="16" width="32" height="32" rx="6" fill="#31313A" fill-opacity="1"/><rect x="15.5" y="15.5" width="33" height="33" rx="6.5" fill-opacity="0" fill="none" stroke-width="1"/></g><g clip-path="url(#master_svg1_1832_61741)"><g><path d="M24.5,25.5L24.5,29.5Q24.5,29.91421,24.792894,30.20711Q25.0857865,30.5,25.5,30.5L38.5,30.5Q38.9142,30.5,39.2071,30.20711Q39.5,29.91421,39.5,29.5L39.5,25.5Q39.5,25.0857862,39.2071,24.792893Q38.9142,24.5,38.5,24.5L25.5,24.5Q25.0857865,24.5,24.792893,24.792893Q24.5,25.0857865,24.5,25.5ZM38.5,29.5L25.5,29.5L25.5,25.5L38.5,25.5L38.5,29.5Z" fill-rule="evenodd" fill="#FFFFFF" fill-opacity="1"/></g><g><path d="M31.54545,27C31.79649,27,32,27.223858,32,27.5C32,27.776142,31.79649,28,31.54545,28L27.454545,28C27.203507,28,27,27.776142,27,27.5C27,27.223858,27.203507,27,27.454545,27L31.54545,27Z" fill="#FFFFFF" fill-opacity="1"/></g><g><path d="M25.5,38.5L32,38.5Q32.04925,38.5,32.09755,38.49039Q32.14584,38.48078,32.19134,38.46194Q32.23684,38.44309,32.27778,38.415729999999996Q32.31873,38.38837,32.35355,38.35355Q32.38837,38.31873,32.415729999999996,38.27778Q32.44309,38.23684,32.46194,38.19134Q32.48078,38.14584,32.49039,38.09755Q32.5,38.04925,32.5,38Q32.5,37.95075,32.49039,37.90245Q32.48078,37.85415,32.46194,37.80866Q32.44309,37.76316,32.415729999999996,37.72221Q32.38837,37.68127,32.35355,37.64645Q32.31873,37.61162,32.27778,37.58426Q32.23684,37.5569,32.19134,37.53806Q32.14584,37.51921,32.09754,37.50961Q32.04925,37.5,32,37.5L25.5,37.5L25.5,33.5L32,33.5Q32.04925,33.5,32.09755,33.490393Q32.14584,33.480785,32.19134,33.46194Q32.23684,33.443094,32.27778,33.415735Q32.31873,33.388375,32.35355,33.353553Q32.38837,33.318731,32.415729999999996,33.277785Q32.44309,33.236839,32.46194,33.191342Q32.48078,33.145845,32.49039,33.0975451Q32.5,33.0492457,32.5,33Q32.5,32.9507543,32.49039,32.9024549Q32.48078,32.854155,32.46194,32.808658Q32.44309,32.763161,32.415729999999996,32.722215Q32.38837,32.681269,32.35355,32.646447Q32.31873,32.611625,32.27778,32.584265Q32.23684,32.556906,32.19134,32.53806Q32.14584,32.519215,32.09754,32.509607Q32.04925,32.5,32,32.5L25.5,32.5Q25.0857865,32.5,24.792893,32.792893Q24.5,33.0857865,24.5,33.5L24.5,37.5Q24.5,37.91421,24.792894,38.20711Q25.0857868,38.5,25.5,38.5Z" fill-rule="evenodd" fill="#FFFFFF" fill-opacity="1"/></g><g><g><path d="M37.5,32.672069L40.22222,34.07221L40.22222,36.9005L37.5,38.30065L34.777779,36.9005L34.777779,34.10022L37.5,32.700072M37.5,32C37.3634,32.000218256,37.22927,32.0328147,37.11111,32.0945097L34.38889,33.49465C34.148491,33.61958,34.00028497,33.85036,34,34.10022L34,36.9005C34.000284553,37.15036,34.14849,37.38114,34.388889,37.50607L37.11111,38.90621C37.35176,39.03126,37.64824,39.03126,37.88889,38.90621L40.61111,37.50607C40.85151,37.38114,40.999719999999996,37.15036,41,36.9005L41,34.10022C40.999719999999996,33.85036,40.85151,33.61958,40.61111,33.49465L37.88889,32.0945098C37.77073,32.0328147,37.6366,32.000218256,37.5,32Z" fill="#FFFFFF" fill-opacity="1"/></g><g><path d="M37.498264,35.1484375Q37.887153,35.1484375,37.887153,35.4984735L37.887153,38.2987575Q37.887153,38.6487975,37.498264,38.6487975Q37.109375,38.6487975,37.109375,38.2987575L37.109375,35.4984735Q37.109375,35.1484375,37.498264,35.1484375Z" fill="#FFFFFF" fill-opacity="1"/></g><g><path d="M34.66101545,33.93046425Q34.85545975,33.62732425,35.19224775,33.80234215L37.53629375,35.02047125Q37.87307375,35.19548125,37.67863375,35.49862125Q37.48418375,35.80176125,37.14740375,35.62675125L34.80335875,34.40862225Q34.46657075,34.23360425,34.66101545,33.93046425Z" fill="#FFFFFF" fill-opacity="1"/></g><g><path d="M37.463515,35.022721250000004L39.93217,33.73984215Q40.26896,33.56482425,40.4634,33.86796425Q40.65784,34.17110425,40.32106,34.34612225L37.852404,35.62900125Q37.515616,35.80402125,37.3211715,35.50088125Q37.126727,35.19774125,37.463515,35.022721250000004Z" fill="#FFFFFF" fill-opacity="1"/></g></g><g><path d="M31.54545,35C31.79649,35,32,35.223858,32,35.5C32,35.776142,31.79649,36,31.54545,36L27.454545,36C27.203507,36,27,35.776142,27,35.5C27,35.223858,27.203507,35,27.454545,35L31.54545,35Z" fill="#FFFFFF" fill-opacity="1"/></g></g></g></svg>