<svg xmlns="http://www.w3.org/2000/svg" xmlns:xlink="http://www.w3.org/1999/xlink" fill="none" version="1.1" width="64" height="64" viewBox="0 0 64 64"><defs><filter id="master_svg0_1832_61176" filterUnits="objectBoundingBox" color-interpolation-filters="sRGB" x="-0.625" y="-0.625" width="2.25" height="2.25"><feFlood flood-opacity="0" result="BackgroundImageFix"/><feColorMatrix in="SourceAlpha" type="matrix" values="0 0 0 0 0 0 0 0 0 0 0 0 0 0 0 0 0 0 127 0"/><feOffset dy="0" dx="0"/><feGaussianBlur stdDeviation="5"/><feColorMatrix type="matrix" values="0 0 0 0 0.125490203499794 0 0 0 0 0.125490203499794 0 0 0 0 0.4117647111415863 0 0 0 0.4000000059604645 0"/><feBlend mode="normal" in2="BackgroundImageFix" result="effect1_dropShadow"/><feBlend mode="normal" in="SourceGraphic" in2="effect1_dropShadow" result="shape"/></filter><clipPath id="master_svg1_1832_61181"><rect x="22" y="22" width="20" height="20" rx="0"/></clipPath></defs><g><g filter="url(#master_svg0_1832_61176)"><rect x="16" y="16" width="32" height="32" rx="6" fill="#31313A" fill-opacity="1"/><rect x="15.5" y="15.5" width="33" height="33" rx="6.5" fill-opacity="0" fill="none" stroke-width="1"/></g><g clip-path="url(#master_svg1_1832_61181)"><g><path d="M24.5,25.5L24.5,29.5Q24.5,29.91421,24.792894,30.20711Q25.0857865,30.5,25.5,30.5L38.5,30.5Q38.9142,30.5,39.2071,30.20711Q39.5,29.91421,39.5,29.5L39.5,25.5Q39.5,25.0857862,39.2071,24.792893Q38.9142,24.5,38.5,24.5L25.5,24.5Q25.0857865,24.5,24.792893,24.792893Q24.5,25.0857865,24.5,25.5ZM38.5,29.5L25.5,29.5L25.5,25.5L38.5,25.5L38.5,29.5Z" fill-rule="evenodd" fill="#FFFFFF" fill-opacity="1"/></g><g><path d="M31.54545,27C31.79649,27,32,27.223858,32,27.5C32,27.776142,31.79649,28,31.54545,28L27.454545,28C27.203507,28,27,27.776142,27,27.5C27,27.223858,27.203507,27,27.454545,27L31.54545,27Z" fill="#FFFFFF" fill-opacity="1"/></g><g><path d="M25.5,38.5L32,38.5Q32.04925,38.5,32.09755,38.49039Q32.14584,38.48078,32.19134,38.46194Q32.23684,38.44309,32.27778,38.415729999999996Q32.31873,38.38837,32.35355,38.35355Q32.38837,38.31873,32.415729999999996,38.27778Q32.44309,38.23684,32.46194,38.19134Q32.48078,38.14584,32.49039,38.09755Q32.5,38.04925,32.5,38Q32.5,37.95075,32.49039,37.90245Q32.48078,37.85415,32.46194,37.80866Q32.44309,37.76316,32.415729999999996,37.72221Q32.38837,37.68127,32.35355,37.64645Q32.31873,37.61162,32.27778,37.58426Q32.23684,37.5569,32.19134,37.53806Q32.14584,37.51921,32.09754,37.50961Q32.04925,37.5,32,37.5L25.5,37.5L25.5,33.5L32,33.5Q32.04925,33.5,32.09755,33.490393Q32.14584,33.480785,32.19134,33.46194Q32.23684,33.443094,32.27778,33.415735Q32.31873,33.388375,32.35355,33.353553Q32.38837,33.318731,32.415729999999996,33.277785Q32.44309,33.236839,32.46194,33.191342Q32.48078,33.145845,32.49039,33.0975451Q32.5,33.0492457,32.5,33Q32.5,32.9507543,32.49039,32.9024549Q32.48078,32.854155,32.46194,32.808658Q32.44309,32.763161,32.415729999999996,32.722215Q32.38837,32.681269,32.35355,32.646447Q32.31873,32.611625,32.27778,32.584265Q32.23684,32.556906,32.19134,32.53806Q32.14584,32.519215,32.09754,32.509607Q32.04925,32.5,32,32.5L25.5,32.5Q25.0857865,32.5,24.792893,32.792893Q24.5,33.0857865,24.5,33.5L24.5,37.5Q24.5,37.91421,24.792894,38.20711Q25.0857868,38.5,25.5,38.5Z" fill-rule="evenodd" fill="#FFFFFF" fill-opacity="1"/></g><g><path d="M31.54545,35C31.79649,35,32,35.223858,32,35.5C32,35.776142,31.79649,36,31.54545,36L27.454545,36C27.203507,36,27,35.776142,27,35.5C27,35.223858,27.203507,35,27.454545,35L31.54545,35Z" fill="#FFFFFF" fill-opacity="1"/></g><g><g transform="matrix(0,1,-1,0,73,-7)"><path d="M43.25,32.566987L45.84808,34.06699Q45.90508,34.0999,45.95163,34.14645Q45.99818,34.19299,46.03109,34.25Q46.064,34.30701,46.08104,34.37059Q46.09808,34.43417,46.09808,34.5L46.09808,37.5Q46.09808,37.56583,46.08104,37.62941Q46.064,37.69299,46.03109,37.75Q45.99818,37.80701,45.95163,37.85355Q45.90508,37.9001,45.84808,37.93301L43.25,39.43301Q43.19299,39.46593,43.12941,39.48296Q43.06583,39.5,43,39.5Q42.93417,39.5,42.87059,39.48296Q42.80701,39.46593,42.75,39.43301L40.151924,37.93301Q40.0949166,37.9001,40.0483704,37.85355Q40.00182423,37.80701,39.9689111,37.75Q39.935998,37.69299,39.9189609,37.62941Q39.9019238,37.56583,39.9019238,37.5L39.9019237,34.5Q39.9019237,34.43417,39.9189608,34.37059Q39.9359979,34.30701,39.968911,34.25Q40.00182414,34.19299,40.0483703,34.14645Q40.0949165,34.0999,40.151924,34.06699L42.75,32.566987Q42.80701,32.534074,42.87059,32.517037Q42.93417,32.5,43,32.5Q43.06583,32.5,43.12941,32.517037Q43.19299,32.534074,43.25,32.566987L43.25,32.566987ZM42.75,33.433013L43,33L43.25,33.433013L40.651924,34.93301L40.401924,34.5L40.901924,34.5L40.901924,37.5L40.401924,37.5L40.651924,37.06699L43.25,38.56699L43,39L42.75,38.56699L45.34808,37.06699L45.59808,37.5L45.09808,37.5L45.09808,34.5L45.59808,34.5L45.34808,34.93301L42.75,33.433013Z" fill="#FFFFFF" fill-opacity="1"/></g><g><ellipse cx="37" cy="36" rx="1" ry="1" fill="#FFFFFF" fill-opacity="1"/></g></g></g></g></svg>