<svg xmlns="http://www.w3.org/2000/svg" xmlns:xlink="http://www.w3.org/1999/xlink" fill="none" version="1.1" width="64" height="64" viewBox="0 0 64 64"><defs><filter id="master_svg0_1837_37804" filterUnits="objectBoundingBox" color-interpolation-filters="sRGB" x="-0.625" y="-0.625" width="2.25" height="2.25"><feFlood flood-opacity="0" result="BackgroundImageFix"/><feColorMatrix in="SourceAlpha" type="matrix" values="0 0 0 0 0 0 0 0 0 0 0 0 0 0 0 0 0 0 127 0"/><feOffset dy="0" dx="0"/><feGaussianBlur stdDeviation="5"/><feColorMatrix type="matrix" values="0 0 0 0 0.125490203499794 0 0 0 0 0.125490203499794 0 0 0 0 0.4117647111415863 0 0 0 0.4000000059604645 0"/><feBlend mode="normal" in2="BackgroundImageFix" result="effect1_dropShadow"/><feBlend mode="normal" in="SourceGraphic" in2="effect1_dropShadow" result="shape"/></filter><clipPath id="master_svg1_1837_37809"><rect x="22" y="22" width="20" height="20" rx="0"/></clipPath></defs><g><g filter="url(#master_svg0_1837_37804)"><rect x="16" y="16" width="32" height="32" rx="6" fill="#31313A" fill-opacity="1"/><rect x="15.5" y="15.5" width="33" height="33" rx="6.5" fill-opacity="0" fill="none" stroke-width="1"/></g><g clip-path="url(#master_svg1_1837_37809)"><g><g><path d="M35.85355,29.353553Q35.92388,29.283227,35.96194,29.191342Q36,29.0994562,36,29Q36,28.9507543,35.99039,28.9024549Q35.98078,28.854155,35.96194,28.808658Q35.94309,28.763161,35.915729999999996,28.722215Q35.88837,28.681269,35.85355,28.646447Q35.81873,28.611625,35.77778,28.584265Q35.73684,28.556906,35.69134,28.53806Q35.64584,28.519215,35.59754,28.509607Q35.54925,28.5,35.5,28.5Q35.40054,28.5,35.30866,28.53806Q35.21677,28.57612,35.14645,28.646447L35.14626,28.646634L32.146634,31.646259999999998L32.146447,31.64645Q32.07612,31.71677,32.03806,31.80866Q32,31.90054,32,32Q32,32.04925,32.009607,32.09754Q32.019215,32.14584,32.03806,32.19134Q32.056906,32.23684,32.084265,32.27778Q32.111625,32.31873,32.146447,32.35355Q32.181269,32.38837,32.222215,32.415729999999996Q32.263161,32.44309,32.308658,32.46194Q32.354155,32.48078,32.4024549,32.49039Q32.4507543,32.5,32.5,32.5Q32.5994562,32.5,32.691342,32.46194Q32.783227,32.42388,32.853553,32.35355L35.85337,29.353741L35.85355,29.353553L35.85355,29.353553Z" fill-rule="evenodd" fill="#FFFFFF" fill-opacity="1"/></g><g><ellipse cx="32" cy="32.5" rx="1" ry="1" fill="#FFFFFF" fill-opacity="1"/></g><g><path d="M26.99746,38.7433Q27.59056,39.2191,28.41895,39.2191L35.581,39.2191Q36.4094,39.2191,37.0025,38.7433Q37.3457,38.468,37.6569,38.1569Q40,35.8137,40,32.5Q40,29.18629,37.6569,26.84315Q35.3137,24.5,32,24.5Q28.68629,24.500001,26.34315,26.84315Q24,29.18629,24,32.5Q24.000001,35.8137,26.34315,38.1569Q26.65434,38.468,26.99746,38.7433ZM36.3768,37.963300000000004Q36.057900000000004,38.2191,35.581,38.2191L28.41895,38.2191Q27.94211,38.2191,27.62321,37.963300000000004Q27.32277,37.722300000000004,27.05025,37.4497Q25,35.3995,25,32.5Q25,29.6005,27.05025,27.55025Q29.1005,25.499999,32,25.5Q34.8995,25.5,36.9497,27.55025Q39,29.60051,39,32.5Q39,35.3995,36.9497,37.4497Q36.6772,37.722300000000004,36.3768,37.963300000000004Z" fill-rule="evenodd" fill="#FFFFFF" fill-opacity="1"/></g><g><path d="M28.92584,36.91518L28.92751,36.916290000000004L28.92764,36.916380000000004L29.48126,36.083619999999996Q29.35549,36,29.20445,36Q29.15521,36,29.10691,36.00961Q29.05861,36.01921,29.01311,36.03806Q28.96761,36.0569,28.92667,36.08426Q28.88572,36.11162,28.8509,36.14645Q28.81608,36.18127,28.78872,36.222210000000004Q28.76136,36.26316,28.74251,36.30866Q28.72367,36.354150000000004,28.71406,36.40245Q28.70445,36.45075,28.70445,36.5Q28.70445,36.56154,28.71938,36.62125Q28.7343,36.68096,28.76326,36.73526Q28.79221,36.78957,28.83347,36.835229999999996Q28.87474,36.88089,28.92584,36.91518ZM36.5,32.42014Q36.5,32.37089,36.50961,32.3226Q36.51921,32.2743,36.53806,32.2288Q36.5569,32.1833,36.58426,32.14236Q36.61162,32.10141,36.64645,32.06659Q36.68127,32.03177,36.722210000000004,32.00441Q36.76316,31.97705,36.80866,31.958199999999998Q36.854150000000004,31.93936,36.90245,31.92975Q36.95075,31.92014,37,31.92014Q37.0492,31.92014,37.0975,31.92975Q37.1458,31.93936,37.1913,31.958199999999998Q37.2368,31.97705,37.2778,32.00441Q37.3187,32.03177,37.3536,32.06659Q37.388400000000004,32.10141,37.4157,32.14236Q37.4431,32.1833,37.4619,32.2288Q37.4808,32.2743,37.4904,32.3226Q37.5,32.37089,37.5,32.42014Q37.5,34.6676,35.88623,36.2556Q35.51173,36.62411,35.073660000000004,36.91552L35.07249,36.916290000000004L35.07236,36.916380000000004Q34.94658,37,34.79555,37Q34.7463,37,34.698,36.99039Q34.6497,36.980779999999996,34.60421,36.96194Q34.55871,36.94309,34.51776,36.915729999999996Q34.476820000000004,36.88837,34.44199,36.85355Q34.40717,36.81873,34.37981,36.77778Q34.35245,36.73684,34.33361,36.69134Q34.31476,36.64584,34.30515,36.59754Q34.29555,36.54924,34.29555,36.5Q34.29555,36.43818,34.3106,36.37823Q34.32566,36.31827,34.35486,36.26379Q34.38407,36.2093,34.42566,36.16357Q34.467259999999996,36.11784,34.51874,36.083619999999996Q34.87794,35.84482,35.18484,35.54282Q36.5,34.24866,36.5,32.42014ZM29.48126,36.083619999999996Q29.12207,35.84482,28.81516,35.54282Q27.5,34.24866,27.5,32.42014Q27.5,30.59162,28.81516,29.29746Q30.13369,28,32,28Q32.04925,28,32.09755,27.990393Q32.14584,27.980785,32.19134,27.96194Q32.23684,27.943094,32.27778,27.915735Q32.31873,27.888375,32.35355,27.853553Q32.38837,27.818731,32.415729999999996,27.777785Q32.44309,27.736839,32.46194,27.691342Q32.48078,27.645845,32.49039,27.5975451Q32.5,27.5492457,32.5,27.5Q32.5,27.4507543,32.49039,27.4024549Q32.48078,27.354155,32.46194,27.308658Q32.44309,27.263161,32.415729999999996,27.222215Q32.38837,27.181269,32.35355,27.146447Q32.31873,27.111625,32.27778,27.084265Q32.23684,27.056906,32.19134,27.03806Q32.14584,27.019215,32.09755,27.009607Q32.04925,27,32,27Q29.72418,27,28.11377,28.58469Q26.5,30.17268,26.5,32.42014Q26.5,34.6676,28.11377,36.2556Q28.48805,36.6239,28.92584,36.91518L29.48126,36.083619999999996Z" fill-rule="evenodd" fill="#FFFFFF" fill-opacity="1"/></g></g></g></g></svg>