<svg xmlns="http://www.w3.org/2000/svg" xmlns:xlink="http://www.w3.org/1999/xlink" fill="none" version="1.1" width="64" height="64" viewBox="0 0 64 64"><defs><filter id="master_svg0_1832_61383" filterUnits="objectBoundingBox" color-interpolation-filters="sRGB" x="-0.625" y="-0.625" width="2.25" height="2.25"><feFlood flood-opacity="0" result="BackgroundImageFix"/><feColorMatrix in="SourceAlpha" type="matrix" values="0 0 0 0 0 0 0 0 0 0 0 0 0 0 0 0 0 0 127 0"/><feOffset dy="0" dx="0"/><feGaussianBlur stdDeviation="5"/><feColorMatrix type="matrix" values="0 0 0 0 0.125490203499794 0 0 0 0 0.125490203499794 0 0 0 0 0.4117647111415863 0 0 0 0.4000000059604645 0"/><feBlend mode="normal" in2="BackgroundImageFix" result="effect1_dropShadow"/><feBlend mode="normal" in="SourceGraphic" in2="effect1_dropShadow" result="shape"/></filter><clipPath id="master_svg1_1832_61384"><rect x="22" y="22" width="20" height="20" rx="0"/></clipPath></defs><g><g filter="url(#master_svg0_1832_61383)"><rect x="16" y="16" width="32" height="32" rx="6" fill="#31313A" fill-opacity="1"/><rect x="15.5" y="15.5" width="33" height="33" rx="6.5" fill-opacity="0" fill="none" stroke-width="1"/></g><g clip-path="url(#master_svg1_1832_61384)"><g><g><path d="M24,25.5L24,35.5Q24,36.1213,24.4393399,36.5607Q24.878678999999998,37,25.5,37L38.5,37Q39.1213,37,39.5607,36.5607Q40,36.1213,40,35.5L40,25.5Q40,24.878678999999998,39.5607,24.4393401Q39.1213,24,38.5,24L25.5,24Q24.87868,24,24.4393398,24.4393399Q24,24.87868,24,25.5ZM25.5,36Q25,36,25,35.5L25,25.5Q25,25,25.5,25L38.5,25Q39,25,39,25.5L39,35.5Q39,36,38.5,36L25.5,36Z" fill-rule="evenodd" fill="#FFFFFF" fill-opacity="1"/></g><g><path d="M29,39L35,39Q35.04925,39,35.09755,39.009607Q35.14584,39.019215,35.19134,39.03806Q35.23684,39.056906,35.27778,39.084265Q35.31873,39.111625,35.35355,39.146447Q35.38837,39.181269,35.415729999999996,39.222215Q35.44309,39.263161,35.46194,39.308658Q35.48078,39.354155,35.49039,39.4024549Q35.5,39.4507543,35.5,39.5Q35.5,39.5492457,35.49039,39.5975451Q35.48078,39.645845,35.46194,39.691342Q35.44309,39.736839,35.415729999999996,39.777785Q35.38837,39.818731,35.35355,39.853553Q35.31873,39.888375,35.27778,39.915735Q35.23684,39.943094,35.19134,39.96194Q35.14584,39.980785,35.09755,39.990393Q35.04925,40,35,40L29,40Q28.9507543,40,28.9024549,39.990393Q28.854155,39.980785,28.808658,39.96194Q28.763161,39.943094,28.722215,39.915735Q28.681269,39.888375,28.646447,39.853553Q28.611625,39.818731,28.584265,39.777785Q28.556906,39.736839,28.53806,39.691342Q28.519215,39.645845,28.509607,39.5975451Q28.5,39.5492457,28.5,39.5Q28.5,39.4507543,28.509607,39.4024549Q28.519215,39.354155,28.53806,39.308658Q28.556906,39.263161,28.584265,39.222215Q28.611625,39.181269,28.646447,39.146447Q28.681269,39.111625,28.722215,39.084265Q28.763161,39.056906,28.808658,39.03806Q28.854155,39.019215,28.9024549,39.009607Q28.9507543,39,29,39Z" fill-rule="evenodd" fill="#FFFFFF" fill-opacity="1"/></g></g><g><g><path d="M29,28.99999898672104L28,28.99999898672104Q27.9507543,28.99999898672104,27.9024549,28.99039198672104Q27.854155,28.98078398672104,27.808658,28.961938986721037Q27.763161,28.943092986721037,27.722215,28.91573398672104Q27.681269,28.88837398672104,27.646447,28.85355198672104Q27.611625,28.81872998672104,27.584265,28.77778398672104Q27.556906,28.73683798672104,27.53806,28.691340986721038Q27.519215,28.64584398672104,27.509607,28.59754408672104Q27.5,28.54924468672104,27.5,28.49999898672104Q27.5,28.45075328672104,27.509607,28.402453886721037Q27.519215,28.354153986721037,27.53806,28.30865698672104Q27.556906,28.26315998672104,27.584265,28.222213986721037Q27.611625,28.18126798672104,27.646447,28.146445986721037Q27.681269,28.11162398672104,27.722215,28.084263986721037Q27.763161,28.05690498672104,27.808658,28.03805898672104Q27.854155,28.019213986721038,27.9024549,28.009605986721038Q27.9507543,27.99999898672104,28,27.99999898672104L29,27.99999898672104Q29.04925,27.99999898672104,29.09755,28.009605986721038Q29.14584,28.019213986721038,29.19134,28.03805898672104Q29.23684,28.05690498672104,29.27779,28.084263986721037Q29.31873,28.11162398672104,29.35355,28.146445986721037Q29.38838,28.18126798672104,29.41573,28.222213986721037Q29.44309,28.26315998672104,29.46194,28.30865698672104Q29.48079,28.354153986721037,29.49039,28.402453886721037Q29.5,28.45075328672104,29.5,28.49999898672104Q29.5,28.54924468672104,29.49039,28.59754408672104Q29.48079,28.64584398672104,29.46194,28.691340986721038Q29.44309,28.73683798672104,29.41573,28.77778398672104Q29.38838,28.81872998672104,29.35355,28.85355198672104Q29.31873,28.88837398672104,29.27779,28.91573398672104Q29.23684,28.943092986721037,29.19134,28.961938986721037Q29.14584,28.98078398672104,29.09755,28.99039198672104Q29.04925,28.99999898672104,29,28.99999898672104Z" fill-rule="evenodd" fill="#FFFFFF" fill-opacity="1"/></g><g><path d="M33,27.99999898672104L36,27.99999898672104Q36.04925,27.99999898672104,36.09754,28.009605986721038Q36.14584,28.019213986721038,36.19134,28.03805898672104Q36.23684,28.05690498672104,36.27778,28.084263986721037Q36.31873,28.11162398672104,36.35355,28.146445986721037Q36.38837,28.18126798672104,36.415729999999996,28.222213986721037Q36.44309,28.26315998672104,36.46194,28.30865698672104Q36.48078,28.354153986721037,36.49039,28.402453886721037Q36.5,28.45075328672104,36.5,28.49999898672104Q36.5,28.54924468672104,36.49039,28.59754408672104Q36.48078,28.64584398672104,36.46194,28.691340986721038Q36.44309,28.73683798672104,36.415729999999996,28.77778398672104Q36.38837,28.81872998672104,36.35355,28.85355198672104Q36.31873,28.88837398672104,36.27778,28.91573398672104Q36.23684,28.943092986721037,36.19134,28.961938986721037Q36.14584,28.98078398672104,36.09754,28.99039198672104Q36.04925,28.99999898672104,36,28.99999898672104L33,28.99999898672104Q32.9507543,28.99999898672104,32.9024549,28.99039198672104Q32.854155,28.98078398672104,32.808658,28.961938986721037Q32.763161,28.943092986721037,32.722215,28.91573398672104Q32.681269,28.88837398672104,32.646447,28.85355198672104Q32.611625,28.81872998672104,32.584265,28.77778398672104Q32.556906,28.73683798672104,32.53806,28.691340986721038Q32.519215,28.64584398672104,32.509607,28.59754408672104Q32.5,28.54924468672104,32.5,28.49999898672104Q32.5,28.45075328672104,32.509607,28.402453886721037Q32.519215,28.354153986721037,32.53806,28.30865698672104Q32.556906,28.26315998672104,32.584265,28.222213986721037Q32.611625,28.18126798672104,32.646447,28.146445986721037Q32.681269,28.11162398672104,32.722215,28.084263986721037Q32.763161,28.05690498672104,32.808658,28.03805898672104Q32.854155,28.019213986721038,32.9024549,28.009605986721038Q32.9507543,27.99999898672104,33,27.99999898672104Z" fill-rule="evenodd" fill="#FFFFFF" fill-opacity="1"/></g><g><path d="M31.06066,27.4393398Q30.62132,27,30,27Q29.37868,27,28.9393398,27.4393398Q28.5,27.87868,28.5,28.5Q28.5,29.12132,28.9393398,29.56066Q29.37868,30,30,30Q30.62132,30,31.06066,29.56066Q31.5,29.12132,31.5,28.5Q31.5,27.87868,31.06066,27.4393398ZM29.646447,28.146447Q29.792893,28,30,28Q30.20711,28,30.35355,28.146447Q30.5,28.292893,30.5,28.5Q30.5,28.70711,30.35355,28.85355Q30.20711,29,30,29Q29.792893,29,29.646447,28.85355Q29.5,28.70711,29.5,28.5Q29.5,28.292893,29.646447,28.146447Z" fill-rule="evenodd" fill="#FFFFFF" fill-opacity="1"/></g></g><g transform="matrix(-1,0,0,1,72,0)"><g><path d="M37,32.99999898672104L36,32.99999898672104Q35.9507543,32.99999898672104,35.9024549,32.990391986721036Q35.854155,32.980783986721036,35.808658,32.96193898672104Q35.763161,32.94309298672104,35.722215,32.91573398672104Q35.681269,32.88837398672104,35.646447,32.85355198672104Q35.611625,32.81872998672104,35.584265,32.77778398672104Q35.556906,32.73683798672104,35.53806,32.69134098672104Q35.519215,32.64584398672104,35.509607,32.59754408672104Q35.5,32.54924468672104,35.5,32.49999898672104Q35.5,32.45075328672104,35.509607,32.40245388672104Q35.519215,32.35415398672104,35.53806,32.30865698672104Q35.556906,32.263159986721035,35.584265,32.22221398672104Q35.611625,32.18126798672104,35.646447,32.14644598672104Q35.681269,32.111623986721035,35.722215,32.08426398672104Q35.763161,32.05690498672104,35.808658,32.03805898672104Q35.854155,32.01921398672104,35.9024549,32.00960598672104Q35.9507543,31.99999898672104,36,31.99999898672104L37,31.99999898672104Q37.04925,31.99999898672104,37.09755,32.00960598672104Q37.14584,32.01921398672104,37.19134,32.03805898672104Q37.23684,32.05690498672104,37.27779,32.08426398672104Q37.31873,32.111623986721035,37.35355,32.14644598672104Q37.38838,32.18126798672104,37.415729999999996,32.22221398672104Q37.44309,32.263159986721035,37.46194,32.30865698672104Q37.48079,32.35415398672104,37.49039,32.40245388672104Q37.5,32.45075328672104,37.5,32.49999898672104Q37.5,32.54924468672104,37.49039,32.59754408672104Q37.48079,32.64584398672104,37.46194,32.69134098672104Q37.44309,32.73683798672104,37.415729999999996,32.77778398672104Q37.38838,32.81872998672104,37.35355,32.85355198672104Q37.31873,32.88837398672104,37.27779,32.91573398672104Q37.23684,32.94309298672104,37.19134,32.96193898672104Q37.14584,32.980783986721036,37.09755,32.990391986721036Q37.04925,32.99999898672104,37,32.99999898672104Z" fill-rule="evenodd" fill="#FFFFFF" fill-opacity="1"/></g><g><path d="M41,31.99999898672104L44,31.99999898672104Q44.04925,31.99999898672104,44.09754,32.00960598672104Q44.14584,32.01921398672104,44.19134,32.03805898672104Q44.23684,32.05690498672104,44.27778,32.08426398672104Q44.31873,32.111623986721035,44.35355,32.14644598672104Q44.38837,32.18126798672104,44.415729999999996,32.22221398672104Q44.44309,32.263159986721035,44.46194,32.30865698672104Q44.48078,32.35415398672104,44.49039,32.40245388672104Q44.5,32.45075328672104,44.5,32.49999898672104Q44.5,32.54924468672104,44.49039,32.59754408672104Q44.48078,32.64584398672104,44.46194,32.69134098672104Q44.44309,32.73683798672104,44.415729999999996,32.77778398672104Q44.38837,32.81872998672104,44.35355,32.85355198672104Q44.31873,32.88837398672104,44.27778,32.91573398672104Q44.23684,32.94309298672104,44.19134,32.96193898672104Q44.14584,32.980783986721036,44.09754,32.990391986721036Q44.04925,32.99999898672104,44,32.99999898672104L41,32.99999898672104Q40.9507543,32.99999898672104,40.9024549,32.990391986721036Q40.854155,32.980783986721036,40.808658,32.96193898672104Q40.763161,32.94309298672104,40.722215,32.91573398672104Q40.681269,32.88837398672104,40.646447,32.85355198672104Q40.611625,32.81872998672104,40.584265,32.77778398672104Q40.556906,32.73683798672104,40.53806,32.69134098672104Q40.519215,32.64584398672104,40.509607,32.59754408672104Q40.5,32.54924468672104,40.5,32.49999898672104Q40.5,32.45075328672104,40.509607,32.40245388672104Q40.519215,32.35415398672104,40.53806,32.30865698672104Q40.556906,32.263159986721035,40.584265,32.22221398672104Q40.611625,32.18126798672104,40.646447,32.14644598672104Q40.681269,32.111623986721035,40.722215,32.08426398672104Q40.763161,32.05690498672104,40.808658,32.03805898672104Q40.854155,32.01921398672104,40.9024549,32.00960598672104Q40.9507543,31.99999898672104,41,31.99999898672104Z" fill-rule="evenodd" fill="#FFFFFF" fill-opacity="1"/></g><g><path d="M39.06066,31.4393398Q38.62132,31,38,31Q37.37868,31,36.9393398,31.4393398Q36.5,31.87868,36.5,32.5Q36.5,33.12132,36.9393398,33.56066Q37.37868,34,38,34Q38.62132,34,39.06066,33.56066Q39.5,33.12132,39.5,32.5Q39.5,31.87868,39.06066,31.4393398ZM37.646447,32.146447Q37.792893,32,38,32Q38.20711,32,38.35355,32.146447Q38.5,32.292893,38.5,32.5Q38.5,32.70711,38.35355,32.85355Q38.20711,33,38,33Q37.792893,33,37.646447,32.85355Q37.5,32.70711,37.5,32.5Q37.5,32.292893,37.646447,32.146447Z" fill-rule="evenodd" fill="#FFFFFF" fill-opacity="1"/></g></g></g></g></svg>