<svg xmlns="http://www.w3.org/2000/svg" xmlns:xlink="http://www.w3.org/1999/xlink" fill="none" version="1.1" width="64" height="64" viewBox="0 0 64 64"><defs><filter id="master_svg0_1837_37897" filterUnits="objectBoundingBox" color-interpolation-filters="sRGB" x="-0.625" y="-0.625" width="2.25" height="2.25"><feFlood flood-opacity="0" result="BackgroundImageFix"/><feColorMatrix in="SourceAlpha" type="matrix" values="0 0 0 0 0 0 0 0 0 0 0 0 0 0 0 0 0 0 127 0"/><feOffset dy="0" dx="0"/><feGaussianBlur stdDeviation="5"/><feColorMatrix type="matrix" values="0 0 0 0 0.125490203499794 0 0 0 0 0.125490203499794 0 0 0 0 0.4117647111415863 0 0 0 0.4000000059604645 0"/><feBlend mode="normal" in2="BackgroundImageFix" result="effect1_dropShadow"/><feBlend mode="normal" in="SourceGraphic" in2="effect1_dropShadow" result="shape"/></filter><clipPath id="master_svg1_1837_37898"><rect x="22" y="22" width="20" height="20" rx="0"/></clipPath></defs><g><g filter="url(#master_svg0_1837_37897)"><rect x="16" y="16" width="32" height="32" rx="6" fill="#31313A" fill-opacity="1"/><rect x="15.5" y="15.5" width="33" height="33" rx="6.5" fill-opacity="0" fill="none" stroke-width="1"/></g><g clip-path="url(#master_svg1_1837_37898)"><g><g><path d="M32.37006875,24.51998375L25.97981875,30.54478375Q24.99190875,31.47619375,25.49298875,32.73814375Q25.99405875,34.00004375,27.35180875,34.00004375L29.23783875,34.00004375L27.99080875,36.87244375Q27.49991875,38.00314375,28.51404875,38.703843750000004Q29.528188749999998,39.40454375,30.41215875,38.545443750000004L36.62791875,32.504543749999996Q37.59361875,31.56598375,37.08721875,30.31814375Q36.58071875,29.07031375,35.234018750000004,29.07031375L33.60421875,29.07031375L34.78731875,26.17952375Q35.24561875,25.05964375,34.24801875,24.37477375Q33.25048875,23.68990375,32.37006875,24.51998375ZM26.42239875,32.36904375Q26.17185875,31.73814375,26.66580875,31.27239375L33.05605875,25.24758375Q33.34953875,24.970893750000002,33.68201875,25.19918375Q34.01461875,25.42747375,33.86181875,25.80077375L32.39662875,29.38093375Q32.37797875,29.426513749999998,32.36856875,29.474843749999998Q32.35916875,29.52318375,32.35937875,29.572433750000002Q32.35958875,29.62168375,32.36939875,29.66993375Q32.379208750000004,29.718193749999998,32.39824875,29.763613749999998Q32.41728875,29.809033749999998,32.444818749999996,29.84986375Q32.47235875,29.89069375,32.50732875,29.925363750000002Q32.54229875,29.96003375,32.58335875,29.98722375Q32.624418750000004,30.01440375,32.66999875,30.03306375Q32.76101875,30.07031375,32.85937875,30.07031375L35.234018750000004,30.07031375Q35.90741875,30.07031375,36.16061875,30.694233750000002Q36.413818750000004,31.31814375,35.930918750000004,31.78744375L29.715208750000002,37.82834375Q29.420548750000002,38.11464375,29.08250875,37.88114375Q28.74446875,37.64754375,28.90808875,37.27064375L30.45863875,33.69914375Q30.498248750000002,33.60784375,30.49992875,33.50844375Q30.50160875,33.40904375,30.46510875,33.31644375Q30.42859875,33.223943750000004,30.359468749999998,33.15244375Q30.29034875,33.08094375,30.19911875,33.041343749999996Q30.10384875,33.00004375,29.99999875,33.00004375L27.35180875,33.00004375Q26.67292875,33.00004375,26.42239875,32.36904375Z" fill-rule="evenodd" fill="#FFFFFF" fill-opacity="1"/></g><g><path d="M34,39.5C34,39.776142,34.223858,40,34.5,40L38.07812,40C38.35427,40,38.57812,39.776142,38.57812,39.5C38.57812,39.223858,38.35427,39,38.07812,39L34.5,39C34.223858,39,34,39.223858,34,39.5Z" fill="#FFFFFF" fill-opacity="1"/></g></g></g></g></svg>