<svg xmlns="http://www.w3.org/2000/svg" xmlns:xlink="http://www.w3.org/1999/xlink" fill="none" version="1.1" width="64" height="64" viewBox="0 0 64 64"><defs><filter id="master_svg0_1837_37774" filterUnits="objectBoundingBox" color-interpolation-filters="sRGB" x="-0.625" y="-0.625" width="2.25" height="2.25"><feFlood flood-opacity="0" result="BackgroundImageFix"/><feColorMatrix in="SourceAlpha" type="matrix" values="0 0 0 0 0 0 0 0 0 0 0 0 0 0 0 0 0 0 127 0"/><feOffset dy="0" dx="0"/><feGaussianBlur stdDeviation="5"/><feColorMatrix type="matrix" values="0 0 0 0 0.125490203499794 0 0 0 0 0.125490203499794 0 0 0 0 0.4117647111415863 0 0 0 0.4000000059604645 0"/><feBlend mode="normal" in2="BackgroundImageFix" result="effect1_dropShadow"/><feBlend mode="normal" in="SourceGraphic" in2="effect1_dropShadow" result="shape"/></filter><clipPath id="master_svg1_1837_37779"><rect x="22" y="22" width="20" height="20" rx="0"/></clipPath></defs><g><g filter="url(#master_svg0_1837_37774)"><rect x="16" y="16" width="32" height="32" rx="6" fill="#31313A" fill-opacity="1"/><rect x="15.5" y="15.5" width="33" height="33" rx="6.5" fill-opacity="0" fill="none" stroke-width="1"/></g><g clip-path="url(#master_svg1_1837_37779)"><g><path d="M29,28Q29,28.07369,28.99278,28.14703Q28.98555,28.22036,28.97118,28.29264Q28.9568,28.364910000000002,28.93541,28.43543Q28.91402,28.50594,28.88582,28.57402Q28.85762,28.64211,28.82288,28.7071Q28.78814,28.77208,28.7472,28.83336Q28.70626,28.89463,28.65952,28.95159Q28.61277,29.00855,28.56066,29.06066Q28.50855,29.11277,28.45159,29.15952Q28.39463,29.20626,28.33335,29.2472Q28.27208,29.28814,28.2071,29.32288Q28.14211,29.35762,28.07402,29.38582Q28.00594,29.41402,27.93543,29.43541Q27.864910000000002,29.4568,27.79264,29.47118Q27.72036,29.48555,27.64703,29.49278Q27.57369,29.5,27.5,29.5Q27.42631,29.5,27.35297,29.49278Q27.27964,29.48555,27.20736,29.47118Q27.135089999999998,29.4568,27.06457,29.43541Q26.994056,29.41402,26.925975,29.38582Q26.857894,29.35762,26.792905,29.32288Q26.727916,29.28814,26.666645,29.2472Q26.605373,29.20626,26.54841,29.15952Q26.491447,29.11277,26.43934,29.06066Q26.387233,29.00855,26.340484,28.95159Q26.293736,28.89463,26.252796,28.83335Q26.211855,28.77208,26.177118,28.7071Q26.142381,28.64211,26.114181,28.57402Q26.0859806,28.50594,26.0645895,28.43543Q26.0431983,28.364910000000002,26.0288221,28.29264Q26.0144458,28.22036,26.00722291,28.14703Q26,28.07369,26,28Q26,27.92631,26.00722291,27.85297Q26.0144458,27.77964,26.0288221,27.70736Q26.0431983,27.635089999999998,26.0645895,27.56457Q26.0859806,27.494056,26.114181,27.425975Q26.142381,27.357894,26.177118,27.292905Q26.211855,27.227916,26.252796,27.166645Q26.293736,27.105373,26.340484,27.04841Q26.387233,26.991447,26.43934,26.93934Q26.491447,26.887233,26.54841,26.840484Q26.605373,26.793736,26.666645,26.752796Q26.727916,26.711855,26.792905,26.677118Q26.857894,26.642381,26.925975,26.614181Q26.994056,26.5859806,27.06457,26.5645895Q27.135089999999998,26.5431983,27.20736,26.5288221Q27.27964,26.5144458,27.35297,26.50722291Q27.42631,26.5,27.5,26.5Q27.57369,26.5,27.64703,26.50722291Q27.72036,26.5144458,27.79264,26.5288221Q27.864910000000002,26.5431983,27.93543,26.5645895Q28.00594,26.5859806,28.07402,26.614181Q28.14211,26.642381,28.2071,26.677118Q28.27208,26.711855,28.33336,26.752796Q28.39463,26.793736,28.45159,26.840484Q28.50855,26.887233,28.56066,26.93934Q28.61277,26.991447,28.65952,27.04841Q28.70626,27.105373,28.7472,27.166645Q28.78814,27.227916,28.82288,27.292905Q28.85762,27.357894,28.88582,27.425975Q28.91402,27.494056,28.93541,27.56457Q28.9568,27.635089999999998,28.97118,27.70736Q28.98555,27.77964,28.99278,27.85297Q29,27.92631,29,28Z" fill="#FFFFFF" fill-opacity="1"/></g><g><path d="M33.0969627,32.05028C32.821325,32.47255,33.166204,33,33.717481,33L37.28546,33C37.83673,33,38.17817,32.47255,37.90253,32.05028L36.12026,29.316707C35.84463,28.894431,35.15457,28.894431,34.87923,29.316707L33.0969627,32.05028Z" fill="#FFFFFF" fill-opacity="1"/></g><g><path d="M26.5,31L30.5,31C30.776139999999998,31,31,31.223858,31,31.5C31,31.776142,30.776139999999998,32,30.5,32L26.5,32C26.223858,32,26,31.776142,26,31.5C26,31.223858,26.223858,31,26.5,31Z" fill-rule="evenodd" fill="#FFFFFF" fill-opacity="1"/></g><g><path d="M26.5,33L30.5,33C30.776139999999998,33,31,33.223858,31,33.5C31,33.776142,30.776139999999998,34,30.5,34L26.5,34C26.223858,34,26,33.776142,26,33.5C26,33.223858,26.223858,33,26.5,33Z" fill-rule="evenodd" fill="#FFFFFF" fill-opacity="1"/></g><g><g><g><path d="M24,25.5L24,35.5Q24,36.1213,24.4393399,36.5607Q24.878678999999998,37,25.5,37L38.5,37Q39.1213,37,39.5607,36.5607Q40,36.1213,40,35.5L40,25.5Q40,24.878678999999998,39.5607,24.4393401Q39.1213,24,38.5,24L25.5,24Q24.87868,24,24.4393398,24.4393399Q24,24.87868,24,25.5ZM25.5,36Q25,36,25,35.5L25,25.5Q25,25,25.5,25L38.5,25Q39,25,39,25.5L39,35.5Q39,36,38.5,36L25.5,36Z" fill-rule="evenodd" fill="#FFFFFF" fill-opacity="1"/></g><g><path d="M29,39L35,39Q35.04925,39,35.09755,39.009607Q35.14584,39.019215,35.19134,39.03806Q35.23684,39.056906,35.27778,39.084265Q35.31873,39.111625,35.35355,39.146447Q35.38837,39.181269,35.415729999999996,39.222215Q35.44309,39.263161,35.46194,39.308658Q35.48078,39.354155,35.49039,39.4024549Q35.5,39.4507543,35.5,39.5Q35.5,39.5492457,35.49039,39.5975451Q35.48078,39.645845,35.46194,39.691342Q35.44309,39.736839,35.415729999999996,39.777785Q35.38837,39.818731,35.35355,39.853553Q35.31873,39.888375,35.27778,39.915735Q35.23684,39.943094,35.19134,39.96194Q35.14584,39.980785,35.09755,39.990393Q35.04925,40,35,40L29,40Q28.9507543,40,28.9024549,39.990393Q28.854155,39.980785,28.808658,39.96194Q28.763161,39.943094,28.722215,39.915735Q28.681269,39.888375,28.646447,39.853553Q28.611625,39.818731,28.584265,39.777785Q28.556906,39.736839,28.53806,39.691342Q28.519215,39.645845,28.509607,39.5975451Q28.5,39.5492457,28.5,39.5Q28.5,39.4507543,28.509607,39.4024549Q28.519215,39.354155,28.53806,39.308658Q28.556906,39.263161,28.584265,39.222215Q28.611625,39.181269,28.646447,39.146447Q28.681269,39.111625,28.722215,39.084265Q28.763161,39.056906,28.808658,39.03806Q28.854155,39.019215,28.9024549,39.009607Q28.9507543,39,29,39Z" fill-rule="evenodd" fill="#FFFFFF" fill-opacity="1"/></g></g></g></g></g></svg>