<svg xmlns="http://www.w3.org/2000/svg" xmlns:xlink="http://www.w3.org/1999/xlink" fill="none" version="1.1" width="33" height="33" viewBox="0 0 33 33"><defs><filter id="master_svg0_1886_51146" filterUnits="objectBoundingBox" color-interpolation-filters="sRGB" x="0" y="0" width="1" height="1"><feFlood flood-opacity="0" result="BackgroundImageFix"/><feBlend mode="normal" in="SourceGraphic" in2="BackgroundImageFix" result="shape"/><feColorMatrix in="SourceAlpha" type="matrix" result="hardAlpha" values="0 0 0 0 0 0 0 0 0 0 0 0 0 0 0 0 0 0 127 0"/><feOffset dy="0" dx="0"/><feGaussianBlur stdDeviation="2.5"/><feComposite in2="hardAlpha" operator="arithmetic" k2="-1" k3="1"/><feColorMatrix type="matrix" values="0 0 0 0 1 0 0 0 0 1 0 0 0 0 1 0 0 0 0.5 0"/><feBlend mode="normal" in2="shape" result="effect1_innerShadow"/></filter><linearGradient x1="-0.016129031777381897" y1="1.0161290168762207" x2="1.0161290168762207" y2="1.0161290168762207" id="master_svg1_1723_33706"><stop offset="4.285714402794838%" stop-color="#D6D6D6" stop-opacity="1"/><stop offset="99.28571581840515%" stop-color="#AEAEAE" stop-opacity="1"/></linearGradient><clipPath id="master_svg2_1886_51315"><rect x="8.5" y="8.5" width="16" height="16" rx="0"/></clipPath><linearGradient x1="0" y1="0" x2="0" y2="1" id="master_svg3_1861_35170"><stop offset="0%" stop-color="#FFFFFF" stop-opacity="1"/><stop offset="97.14285731315613%" stop-color="#D1D1D1" stop-opacity="1"/></linearGradient></defs><g><g filter="url(#master_svg0_1886_51146)"><ellipse cx="16.5" cy="16.5" rx="16" ry="16" fill="#AEAEAE" fill-opacity="0.5"/></g><g><ellipse cx="16.5" cy="16.5" rx="16" ry="16" fill="#FFFFFF" fill-opacity="0.009999999776482582"/><ellipse cx="16.5" cy="16.5" rx="16" ry="16" stroke="url(#master_svg1_1723_33706)" fill-opacity="0" fill="none" stroke-width="1" stroke-linecap="ROUND"/></g><g clip-path="url(#master_svg2_1886_51315)"><g><g><path d="M22.5006,24.486992050528528L21.9253,24.486992050528528L20.2548,24.499692050528527L19.8226,24.48379205052853L19.8226,10.540419050528527L13.62147,12.526412050528526L13.62147,11.921702050528527L19.914099999999998,9.689709050528526C20.246299999999998,9.571876450528526,20.616,9.637639880528527,20.8872,9.862805050528527L22.139400000000002,10.902522050528527C22.3682,11.092502050528527,22.5006,11.374482050528526,22.5006,11.671892050528527L22.5006,24.486992050528528ZM18.25563,24.43499205052853L15.58409,24.43499205052853L15.58409,20.04929205052853L15.587340000000001,17.939162050528527L15.587340000000001,13.454762050528526L10.410014,15.071562050528527L10.410014,24.457292050528526L9.5,24.457292050528526L9.5,15.303352050528527C9.5,14.875452050528526,9.77226,14.494962050528526,10.177269,14.356862050528527L15.995429999999999,12.373002050528527C16.268909999999998,12.279762050528525,16.56935,12.309352050528526,16.81937,12.454172050528527L17.75684,12.997172050528526C18.065559999999998,13.175982050528527,18.25563,13.505732050528525,18.25563,13.862492050528527L18.25563,24.43499205052853ZM14.648489999999999,16.488862050528525L11.39844,17.338632050528528L11.39844,15.906432050528526L14.648489999999999,14.862502050528526L14.648489999999999,16.488862050528525ZM14.648489999999999,19.101842050528525L11.39844,19.722492050528526L11.39844,18.347542050528524L14.648489999999999,17.535962050528525L14.648489999999999,19.101842050528525ZM14.648489999999999,21.772092050528528L11.39844,22.071292050528527L11.39844,20.728192050528527L14.648489999999999,20.20619205052853L14.648489999999999,21.772092050528528ZM14.648489999999999,24.432892050528526L11.39844,24.432892050528526L11.39844,23.013392050528527L14.648489999999999,22.790592050528524L14.648489999999999,24.432892050528526Z" fill-rule="evenodd" fill="url(#master_svg3_1861_35170)" fill-opacity="1"/></g></g></g></g></svg>