<svg xmlns="http://www.w3.org/2000/svg" xmlns:xlink="http://www.w3.org/1999/xlink" fill="none" version="1.1" width="16" height="16" viewBox="0 0 16 16"><defs><clipPath id="master_svg0_1800_31961"><rect x="0" y="0" width="16" height="16" rx="0"/></clipPath></defs><g clip-path="url(#master_svg0_1800_31961)"><g><g><path d="M13.4253375,15.9873L14.0006375,15.9873L14.0006375,3.17221C14.0006375,2.8748,13.8682375,2.5928199999999997,13.6394375,2.4028400000000003L12.3871775,1.363126C12.1159875,1.13796,11.7462875,1.0721969,11.4140775,1.19003L5.1214675,3.42202L5.1214675,4.02674L11.3225675,2.04074L11.3225675,15.9841L11.7548175,16L13.4253375,15.9873ZM2.8984375,11.2228L6.1484875,10.60216L6.1484875,9.03628L2.8984375,9.84787L2.8984375,11.2228ZM2.8984375,15.9332L6.1484875,15.9332L6.1484875,14.2909L2.8984375,14.5137L2.8984375,15.9332ZM2.8984375,13.5716L6.1484875,13.2724L6.1484875,11.7066L2.8984375,12.2285L2.8984375,13.5716ZM2.8984375,8.83896L6.1484875,7.98918L6.1484875,6.36283L2.8984375,7.40675L2.8984375,8.83896ZM7.0877475,14.1604L7.0877475,15.9077L8.5990275,15.9077C8.4040175,15.7613,8.2220175,15.6085,8.0497675,15.4398C7.6597575,15.0675,7.3380075,14.6283,7.0877475,14.1604Z" fill="#C1C8D3" fill-opacity="1"/></g><g><path d="M7.08409,15.935301226425171L9.75563,15.935301226425171L9.75563,5.362751226425171C9.75563,5.005991226425171,9.56556,4.676244226425171,9.25684,4.4974292264251705L8.31937,3.954431226425171C8.06935,3.809613426425171,7.76891,3.780017526425171,7.49543,3.8732662264251707L1.677269,5.857121226425171C1.27226,5.995221226425171,1,6.375701226425171,1,6.80361122642517L1,15.95760122642517L1.9100139999999999,15.95760122642517L1.9100139999999999,6.571821226425171L7.08734,4.9550212264251705L7.08734,9.439421226425171L7.08409,11.54954122642517L7.08409,15.935301226425171Z" fill="#C1C8D3" fill-opacity="1"/></g></g></g></svg>