<svg xmlns="http://www.w3.org/2000/svg" xmlns:xlink="http://www.w3.org/1999/xlink" fill="none" version="1.1" width="16" height="16" viewBox="0 0 16 16"><defs><clipPath id="master_svg0_1800_31962"><rect x="0" y="0" width="16" height="16" rx="0"/></clipPath></defs><g clip-path="url(#master_svg0_1800_31962)"><g><path d="M2.4715249999999997,5.04519L8.00073,7.84322L13.5299,5.04519L8.00073,2.344647L2.4715249999999997,5.04519ZM3.2469900000000003,9.38701L2.08233,8.80791C1.694598,8.61439,1.5,8.32484,1.5,7.93925C1.5,7.55367,1.694598,7.26412,2.08233,7.0706L3.2469900000000003,6.49149L2.08233,5.91239C1.5965673,5.71887,1.4034329,5.141220000000001,1.5965673,4.65815C1.693135,4.46463,1.887732,4.27257,1.984299,4.27257L7.51643,1.5720241C7.8076,1.4759919,8.09876,1.4759919,8.38993,1.5720241L13.9191,4.27257C14.4034,4.4660899999999994,14.598,5.04374,14.3069,5.52681C14.2103,5.72033,14.0157,5.91239,13.9191,5.91239L12.7545,6.49149L13.8211,6.97457C14.3054,7.16809,14.5,7.45618,14.5,7.93925C14.5,8.32484,14.3054,8.71042,13.8211,8.90394L12.7545,9.38701L13.8211,9.87008C14.3054,10.0636,14.5,10.3517,14.5,10.83477C14.5,11.22036,14.3054,11.6059,13.8211,11.7995L8.48503,14.404C8.38846,14.5,8.19387,14.5,7.99927,14.5C7.80467,14.5,7.7081,14.5,7.51351,14.404L1.985763,11.702C1.5980304,11.5085,1.5,11.2189,1.5,10.83332C1.5,10.44773,1.694598,10.15818,2.08233,9.96466L3.2469900000000003,9.38701ZM4.31508,9.96612L2.4715249999999997,10.83477L8.00073,13.6313L13.5299,10.9308L11.6864,10.06215L8.48649,11.6059C8.38993,11.702,8.19533,11.702,8.00073,11.702C7.80613,11.702,7.70957,11.702,7.51497,11.6059L4.31508,9.96612ZM11.6878,7.07205L8.48649,8.61439C8.19533,8.71042,7.90416,8.71042,7.613,8.61439L4.31508,7.07205L2.4715249999999997,7.94071L8.00073,10.73728L13.5299,7.93925L11.6878,7.07205Z" fill="#C1C8D3" fill-opacity="1"/></g></g></svg>