<svg xmlns="http://www.w3.org/2000/svg" xmlns:xlink="http://www.w3.org/1999/xlink" fill="none" version="1.1" width="24" height="24" viewBox="0 0 24 24"><g><g><path d="" fill="#FFFFFF" fill-opacity="0"/></g><g><path d="M20.92658828125,3.073663C20.23258828125,2.37284,19.21918828125,2.092361,18.26358828125,2.3366624L5.15058828125,5.614660000000001C3.43632828125,6.04408,2.23823968125,7.59041,2.25058305265,9.3576C2.26292678125,11.12479,3.48249828125,12.6542,5.20258828125,13.0597L9.848588281249999,14.1527L10.94158828125,18.7987C11.32751828125,20.5303,12.86748828125,21.7594,14.64158828125,21.7517L14.67058828125,21.7517C16.434288281249998,21.7719,17.976588281250002,20.5676,18.38458828125,18.8517L21.66258828125,5.738659999999999C21.90708828125,4.7826699999999995,21.62698828125,3.7687,20.92658828125,3.073663ZM20.20858828125,5.37366L16.93058828125,18.4867C16.68008828125,19.5368,15.73298828125,20.2713,14.65358828125,20.2527C13.56988828125,20.266,12.62738828125,19.5126,12.40158828125,18.4527L11.30158828125,13.7627L15.53358828125,9.530660000000001C15.82658828125,9.237680000000001,15.82658828125,8.76265,15.53358828125,8.469660000000001C15.24058828125,8.176680000000001,14.76558828125,8.176680000000001,14.47258828125,8.469660000000001L10.24058828125,12.7017L5.5505882812500005,11.60167C4.50349828125,11.35569,3.76085828125,10.42493,3.7534982812499997,9.34936C3.74612828125,8.27379,4.47596828125,7.33295,5.51958828125,7.07266L18.63158828125,3.79466C19.58728828125,3.55108,20.45558828125,4.41878,20.21258828125,5.37466L20.20858828125,5.37366Z" fill="#0ABAB5" fill-opacity="1"/></g></g></svg>