<svg xmlns="http://www.w3.org/2000/svg" xmlns:xlink="http://www.w3.org/1999/xlink" fill="none" version="1.1" width="24" height="24" viewBox="0 0 24 24"><g><g><path d="" fill="#FFFFFF" fill-opacity="0"/></g><g><g><path d="M12.35232859375,8.19349C11.95904859375,8.19349,11.63278859375,7.86724,11.63278859375,7.47396L11.63278859375,3.45396L10.94185859375,4.1449C10.66388759375,4.42334,10.20310559375,4.42334,9.92513659375,4.1449C9.64669919375,3.86646,9.64669919375,3.40615,9.92513659375,3.12818L11.84372859375,1.209587C12.04528859375,1.00802481,12.361698593749999,0.9409935,12.63028859375,1.056306C12.89888859375,1.161775,13.071388593750001,1.430368,13.071388593750001,1.718181L13.071388593750001,7.47443C13.071858593750001,7.86724,12.74607859375,8.19349,12.35232859375,8.19349Z" fill="#0ABAB5" fill-opacity="1"/></g><g><path d="M14.271518046875,4.357033125C14.089168046874999,4.357033125,13.906828046874999,4.290003125,13.762918046875,4.146093125L11.844326046875,2.227503125C11.565888646875,1.949062125,11.565888646875,1.488750125,11.844326046875,1.210781125C12.122764046875,0.932343725,12.583077046875,0.932343725,12.861048046875,1.210781125L14.779638046875,3.129373125C15.058078046875,3.407813125,15.058078046875,3.868123125,14.779638046875,4.146093125C14.636198046875,4.290003125,14.453858046875,4.357033125,14.271518046875,4.357033125Z" fill="#0ABAB5" fill-opacity="1"/></g><g><path d="M16.1911,21.624796875L8.51625,21.624796875C3,21.624796875,3,18.698826875,3,16.108516875L3,15.148986875C3,13.009606875,3,10.591796875,7.55719,10.591796875C8.69906,10.591796875,9.120940000000001,10.870234875,9.715779999999999,11.311328875C9.74438,11.339921875,9.78281,11.359140875,9.811869999999999,11.397577875L10.79063,12.433516875C11.61563,13.306326875,13.1123,13.306326875,13.9373,12.433516875L14.9161,11.397577875C14.9447,11.368984875,14.9738,11.339921875,15.0122,11.311328875C15.607,10.860390875,16.0289,10.591796875,17.1708,10.591796875C21.728,10.591796875,21.728,13.009606875,21.728,15.148986875L21.728,16.108516875C21.7073,19.773206875,19.8558,21.624796875,16.1911,21.624796875ZM7.55672,12.030856875C4.43859,12.030856875,4.43859,13.009606875,4.43859,15.148986875L4.43859,16.108516875C4.43859,18.737266875,4.43859,20.185706875,8.51578,20.185706875L16.1906,20.185706875C19.0495,20.185706875,20.2678,18.967426875,20.2678,16.108516875L20.2678,15.148986875C20.2678,13.009606875,20.2678,12.030856875,17.1497,12.030856875C16.4588,12.030856875,16.314799999999998,12.117106875,15.9023,12.424136875L14.9719,13.412266875C14.2809,14.141166875,13.3505,14.544296875,12.35297,14.544296875C11.35547,14.544296875,10.42453,14.141166875,9.73407,13.412266875L8.8036,12.424136875C8.39157,12.117576875,8.24766,12.030856875,7.55672,12.030856875Z" fill="#0ABAB5" fill-opacity="1"/></g><g><path d="M5.63798803125,12.03107625C5.24470703125,12.03107625,4.91845703125,11.70482625,4.91845703125,11.31154625L4.91845703125,9.392956250000001C4.91845703125,7.53154625,4.91845703125,5.21967425,8.449077031249999,4.88404894C8.83298703125,4.83623655,9.197207031249999,5.13342425,9.23564703125,5.53654925C9.27408703125,5.92982625,8.98626703125,6.28467625,8.58314703125,6.32311625C6.35751703125,6.52467625,6.35751703125,7.4265462499999995,6.35751703125,9.392956250000001L6.35751703125,11.31154625C6.35751703125,11.70529625,6.03126703125,12.03107625,5.63798803125,12.03107625ZM19.06815703125,12.03107625C18.67485703125,12.03107625,18.34865703125,11.70482625,18.34865703125,11.31154625L18.34865703125,9.392956250000001C18.34865703125,7.4260762499999995,18.34865703125,6.52420625,16.12295703125,6.31326625C15.72965703125,6.27482625,15.44185703125,5.91998625,15.48035703125,5.52670525C15.51875703125,5.13342425,15.86425703125,4.83576815,16.266857031249998,4.8840493C19.79755703125,5.21967425,19.79755703125,7.53201625,19.79755703125,9.392956250000001L19.79755703125,11.31154625C19.78765703125,11.70529625,19.46145703125,12.03107625,19.06815703125,12.03107625Z" fill="#0ABAB5" fill-opacity="1"/></g></g></g></svg>