<svg xmlns="http://www.w3.org/2000/svg" xmlns:xlink="http://www.w3.org/1999/xlink" fill="none" version="1.1" width="14" height="14" viewBox="0 0 14 14"><g transform="matrix(0,1,1,0,0,0)"><g transform="matrix(0,1,-1,0,16.625,-6.125)"><path d="M11.76554,4.937784L15.26543,9.31265Q15.31863,9.37914,15.34681,9.4595Q15.375,9.539850000000001,15.375,9.625Q15.375,9.710149999999999,15.34681,9.7905Q15.31863,9.87085,15.26543,9.93735L11.765616,14.31212L11.765434,14.31235Q11.69427,14.4013,11.591594,14.45065Q11.488919,14.5,11.375,14.5Q11.3257543,14.5,11.2774549,14.49039Q11.229155,14.48078,11.183658,14.46194Q11.138161,14.44309,11.097215,14.41573Q11.056269,14.38837,11.021447,14.35355Q10.986625,14.31873,10.959265,14.27778Q10.931906,14.23684,10.91306,14.19134Q10.894214999999999,14.14584,10.884607,14.09754Q10.875,14.04925,10.875,14Q10.875,13.82461,10.984566,13.68765L14.23469,9.625L10.984671,5.562479L10.984566,5.562348Q10.875,5.425391,10.875,5.25Q10.875,5.2007543,10.884607,5.1524549Q10.894214999999999,5.104155,10.91306,5.058658Q10.931906,5.013161,10.959265,4.972215Q10.986625,4.931269,11.021447,4.896447Q11.056269,4.861625,11.097215,4.834265Q11.138161,4.806906,11.183658,4.78806Q11.229155,4.769215,11.2774549,4.759607Q11.3257543,4.75,11.375,4.75Q11.488919,4.75,11.591594,4.799348Q11.69427,4.848697,11.765434,4.937652L11.76554,4.937784Z" fill-rule="evenodd" fill="#C1C8D3" fill-opacity="1"/></g></g></svg>