<svg xmlns="http://www.w3.org/2000/svg" xmlns:xlink="http://www.w3.org/1999/xlink" fill="none" version="1.1" width="14.45703125" height="14" viewBox="0 0 14.45703125 14"><g transform="matrix(0,1,-1,0,14.45703125,-14.45703125)"><g transform="matrix(0,1,-1,0,31.25322723388672,-20.41083526611328)"><path d="M26.21756225,5.102815983886718L29.83164125,9.47775598388672Q29.859191250000002,9.511105983886718,29.88061125,9.54869598388672Q29.90202125,9.586285983886718,29.91666125,9.626995983886719Q29.93130125,9.66770598388672,29.93873125,9.71031598388672Q29.94616125,9.752935983886719,29.94616125,9.796195983886719Q29.94616125,9.839455983886719,29.93873125,9.882075983886718Q29.93130125,9.924695983886718,29.91666125,9.965395983886719Q29.90202125,10.00610598388672,29.88061125,10.043695983886717Q29.859191250000002,10.081285983886719,29.83164125,10.114635983886718L26.21778025,14.48931598388672L26.21751225,14.48963598388672Q26.14627325,14.57587598388672,26.04508025,14.623535983886718Q25.94388725,14.671195983886719,25.83203125,14.671195983886719Q25.78278555,14.671195983886719,25.73448615,14.661585983886718Q25.68618625,14.651975983886718,25.64068925,14.633135983886719Q25.59519225,14.614285983886719,25.55424625,14.586925983886719Q25.51330025,14.559565983886719,25.47847825,14.524745983886719Q25.44365625,14.48992598388672,25.41629625,14.448975983886719Q25.38893725,14.40803598388672,25.37009125,14.362535983886719Q25.35124625,14.317035983886718,25.34163825,14.26873598388672Q25.33203125,14.22044598388672,25.33203125,14.171195983886719Q25.33203125,13.991385983886719,25.44655025,13.852755983886718L28.79762125,9.796195983886719L25.44660025,5.739697983886718L25.44655025,5.739636983886719Q25.33203125,5.601007983886719,25.33203125,5.421195983886719Q25.33203125,5.371950283886719,25.34163825,5.323650883886719Q25.35124625,5.275350983886719,25.37009125,5.229853983886719Q25.38893725,5.184356983886719,25.41629625,5.143410983886719Q25.44365625,5.102464983886719,25.47847825,5.067642983886719Q25.51330025,5.032820983886719,25.55424625,5.005460983886719Q25.59519225,4.978101983886718,25.64068925,4.9592559838867185Q25.68618625,4.940410983886719,25.73448615,4.930802983886719Q25.78278555,4.921195983886719,25.83203125,4.921195983886719Q25.94388725,4.921195983886719,26.04508025,4.9688569838867185Q26.14627325,5.016518983886718,26.21751225,5.102754983886719L26.21756225,5.102815983886718Z" fill-rule="evenodd" fill="#C1C8D3" fill-opacity="1"/></g></g></svg>